<svg width="144" height="123" viewBox="0 0 144 123" fill="none" xmlns="http://www.w3.org/2000/svg">
<path fill-rule="evenodd" clip-rule="evenodd" d="M90.045 90.8767C92.3468 89.7086 94.5171 88.2985 96.4637 86.5892C96.832 86.2615 96.3584 85.6775 95.977 85.9054C95.8981 85.9482 95.8192 85.9909 95.7403 86.0336C107.788 73.0856 110.235 49.9244 97.5159 36.5348C85.231 23.5868 62.9236 20.6809 49.8364 32.8313C49.7312 32.8313 49.626 32.8313 49.5207 32.874C34.408 40.3095 34.9472 65.9492 42.6549 79.0824C52.2697 95.4633 74.7613 100.876 90.045 90.8767ZM44.904 39.3837C45.0487 39.6258 45.3644 39.7682 45.588 39.5118C59.4907 22.7179 81.0089 23.1025 96.5821 37.5604C110.195 50.1951 105.421 74.8804 93.4253 86.5606C92.7545 87.2159 92.0574 87.8141 91.3472 88.3839C79.983 93.8252 68.7504 94.7653 56.5707 88.6118C38.4328 79.4528 37.5121 56.7332 44.904 39.3979V39.3837ZM44.1938 39.3409C36.4993 54.682 37.3674 73.2993 49.5733 85.122C47.3899 83.1278 45.4301 80.8772 43.786 78.3702C36.9333 67.9149 36.5256 49.7677 44.1806 39.3409H44.1938Z" fill="#CEAB80"/>
<path fill-rule="evenodd" clip-rule="evenodd" d="M55.8476 46.3769C55.0058 47.5022 54.677 48.8697 54.6507 50.3083C53.0329 61.5898 63.6604 70.9483 70.3027 78.4265C70.4211 78.6402 70.5526 78.8539 70.671 79.0675C70.671 79.0675 70.6447 79.096 70.6447 79.1103C70.0528 79.8225 71.0261 80.8765 71.618 80.1643C71.7364 80.0076 71.881 79.8509 72.0126 79.6942C72.0389 79.6657 72.0652 79.6373 72.0784 79.6088C78.497 71.7887 89.6639 57.402 85.8758 46.4196C83.4162 39.2975 73.591 45.7359 71.5128 50.8923C71.4733 50.8211 71.4338 50.7641 71.3944 50.6929C71.4207 50.5932 71.4602 50.5077 71.4865 50.408C71.6048 50.0377 71.2366 49.8525 70.9735 49.9807C67.7247 44.9525 59.8066 41.1066 55.8476 46.3912V46.3769ZM71.0261 52.8296C71.1182 53.0575 71.3023 53.1144 71.4865 53.1287C70.1975 58.6555 68.5402 63.9543 66.7383 69.3102C66.6199 69.6663 67.1197 69.8657 67.2907 69.5666C68.3034 67.7718 69.0663 65.8346 69.6977 63.8546C69.0532 66.2619 68.4481 68.6834 67.9878 71.1049C67.922 71.4326 68.3824 71.689 68.527 71.3471C71.276 64.8232 72.5387 57.5872 74.9194 50.8781C75.1562 50.2086 74.1697 49.9238 73.9329 50.579C72.7492 53.8409 71.6048 57.2025 70.5921 60.6069C71.2366 57.9575 71.7232 55.2368 72.2625 52.5874C72.2625 52.5589 72.2625 52.5589 72.2625 52.5304C72.4729 52.388 72.5387 52.1743 72.4993 51.9749C72.7492 51.6188 73.1043 51.106 73.6699 50.3653C74.4064 49.3682 75.2087 48.4423 76.0111 47.5164C77.9709 45.2658 82.9559 41.9327 85.0735 48.0577C85.9942 50.7072 84.8762 54.0831 84.0739 56.6185C83.2058 59.3819 81.9957 62.1168 80.5752 64.7663C81.4564 61.5756 82.4297 58.4276 83.482 55.2938C83.6793 54.7241 82.8243 54.4819 82.6402 55.0374C81.2723 59.1113 79.8386 63.1994 79.0494 67.4584C78.3786 68.5837 77.6815 69.6805 76.9449 70.7631C79.0231 65.7206 80.1937 60.1084 81.4827 54.8665C81.6537 54.197 80.6935 53.9121 80.5225 54.5816C78.9442 60.9061 76.7739 67.0453 75.143 73.3413C74.025 74.8939 72.8675 76.3753 71.7101 77.7998C71.5917 77.6573 71.4602 77.5006 71.3418 77.3582C69.4346 73.9538 66.975 70.8628 64.568 67.7433C64.9889 67.0169 65.344 66.2334 65.6597 65.4215C65.4361 66.2619 65.2388 67.1166 65.0547 67.957C64.9626 68.3701 65.5019 68.6407 65.6992 68.2561C68.1193 63.3845 69.2373 57.7439 70.8288 52.445C70.8946 52.5732 70.9603 52.7014 71.0261 52.8296ZM62.9634 45.7217C66.1201 46.4054 68.6717 48.599 70.3159 51.4621C69.3031 54.254 68.2508 57.0886 67.3038 59.9517C67.9352 57.1598 68.3955 54.2967 69.0531 51.7328C69.1978 51.1915 68.435 50.9778 68.2903 51.5049C66.804 56.5616 65.173 61.7037 63.8578 66.8317C63.5289 66.3901 63.1869 65.9628 62.8581 65.5212C65.6202 60.7921 66.3173 54.5104 67.0934 49.0976C67.1854 48.4423 66.2779 48.1574 66.1595 48.8127C65.2125 54.2825 63.621 59.4389 62.3188 64.7805C61.99 64.3389 61.6744 63.8974 61.3587 63.4416C63.5815 58.8549 64.0682 53.0575 65.4624 48.2144C65.6597 47.545 64.6995 47.2601 64.5022 47.9295C63.0949 52.5874 61.727 57.3308 60.438 62.0599C60.1618 61.6325 59.8856 61.2194 59.6225 60.7921C61.5823 56.9034 62.2531 52.0034 63.3448 47.7729C63.5026 47.1746 62.6608 46.9324 62.4898 47.5164C61.3324 51.4479 59.5699 55.6357 59.0701 59.795C58.8201 59.3249 58.5439 58.8834 58.3072 58.3991C59.2279 57.1741 59.6882 55.4648 60.096 53.9976C60.7931 51.5049 61.0956 48.9409 61.5691 46.3912C61.6481 45.9781 61.0693 45.7929 60.9772 46.2202C60.53 48.2144 60.0039 50.1944 59.491 52.1601C59.0569 53.8267 58.2414 55.4078 57.689 57.0316C57.5443 56.704 57.3996 56.3764 57.2813 56.0345C57.3339 56.0203 57.3865 56.006 57.4391 55.9348C59.2411 53.4136 59.6883 49.5107 60.0697 46.4339C60.1486 45.8214 59.2936 45.5365 59.1884 46.1775C58.9385 47.7443 58.5834 49.2827 58.1625 50.8069C57.7811 52.1886 57.1892 53.556 56.913 54.9662C56.7946 54.5959 56.6631 54.2255 56.5578 53.8409C56.8867 53.0147 57.005 52.0746 57.2155 51.22C57.5969 49.767 58.0441 48.3284 58.4519 46.8897C58.5308 46.6475 58.4387 46.4482 58.2809 46.3484C59.5041 45.5935 61.1219 45.3513 62.9502 45.7502L62.9634 45.7217ZM56.1106 50.8639C56.1106 50.8639 56.0843 50.9636 56.0712 51.0063C56.0317 49.354 56.5184 48.0293 57.3602 47.1034C56.9393 48.3569 56.4921 49.5961 56.1106 50.8639Z" fill="#CEAB80"/>
<path fill-rule="evenodd" clip-rule="evenodd" d="M72.5518 65.507C72.8938 64.7948 73.0911 64.0256 73.4068 63.2991C73.5383 63 73.1174 62.7294 72.9859 63.0285C72.6702 63.755 72.4861 64.5384 72.1967 65.2791C72.0915 65.5355 72.4203 65.7634 72.5518 65.507Z" fill="#CEAB80"/>
<path fill-rule="evenodd" clip-rule="evenodd" d="M71.3941 73.1133C75.1953 65.9911 76.5106 57.6725 78.8519 49.9236C78.9834 49.4678 78.3521 49.2969 78.2074 49.7242C75.6557 57.4019 73.5644 65.222 70.8549 72.8569C70.7365 73.213 71.2363 73.4124 71.3941 73.0991V73.1133Z" fill="#CEAB80"/>
<path fill-rule="evenodd" clip-rule="evenodd" d="M78.5756 55.5075C76.8263 62.5014 74.1167 69.0965 72.1832 76.005C72.1175 76.2329 72.4332 76.3753 72.5384 76.1617C75.5373 69.709 77.6943 62.7008 79.299 55.7069C79.4174 55.1941 78.694 54.9804 78.5756 55.4932V55.5075Z" fill="#CEAB80"/>
<path fill-rule="evenodd" clip-rule="evenodd" d="M86.1389 88.369C92.3076 84.9076 99.476 79.4663 100.607 71.4183C100.66 71.0622 100.16 70.7346 100.002 71.1476C98.5421 74.8227 97.1742 77.928 94.57 80.848C92.0446 83.6826 88.9799 85.8905 85.9679 88.0556C85.7838 88.1838 85.9416 88.4687 86.1389 88.369Z" fill="#CEAB80"/>
<path fill-rule="evenodd" clip-rule="evenodd" d="M43.1026 52.446C45.3517 45.0817 48.561 39.1419 54.7166 34.8401C54.9797 34.6549 54.8087 34.1421 54.493 34.2703C48.3374 36.934 42.9973 45.2099 42.4975 52.3463C42.4712 52.7309 42.9973 52.7736 43.0894 52.4318L43.1026 52.446Z" fill="#CEAB80"/>
<path fill-rule="evenodd" clip-rule="evenodd" d="M101.58 66.4047C102.185 65.3934 102.33 63.9974 102.593 62.8294C102.711 62.2881 101.948 62.0602 101.817 62.6015C101.541 63.7553 101.054 65.0658 101.146 66.2765C101.159 66.5187 101.449 66.6184 101.58 66.4047Z" fill="#CEAB80"/>
<path fill-rule="evenodd" clip-rule="evenodd" d="M56.4658 33.5284C57.2682 33.0156 58.3467 32.6453 58.9781 31.9188C59.2411 31.6197 59.0307 31.1923 58.6887 31.1496C57.6759 31.0357 56.742 32.0328 55.9923 32.631C55.5188 33.0156 55.9266 33.8703 56.4658 33.5142V33.5284Z" fill="#CEAB80"/>
<path fill-rule="evenodd" clip-rule="evenodd" d="M86.0731 100.235C86.9412 102.258 87.5068 104.694 88.7432 106.503C88.9931 106.859 89.4797 106.645 89.4008 106.204C89.0325 103.939 87.7304 101.788 86.5729 99.922C86.3625 99.5802 85.9153 99.8793 86.0731 100.235Z" fill="#CEAB80"/>
<path fill-rule="evenodd" clip-rule="evenodd" d="M103.501 17.2614C93.7412 8.68633 81.1669 4.69794 68.7242 4.88311C52.02 5.13951 40.1823 14.9396 29.2522 27.5885C29.0286 27.8449 29.0549 28.144 29.1996 28.3719C13.9027 52.3023 18.9534 84.708 40.4191 102.328C62.7002 120.604 96.1876 116.188 113.405 92.5565C130.293 69.3954 123.73 35.0525 103.488 17.2614H103.501ZM22.7415 49.895C22.4126 53.2424 22.4126 56.6468 22.6889 60.0512C22.5179 60.0939 22.3469 60.1366 22.1759 60.1936C22.0707 60.2221 22.0181 60.2933 21.9654 60.3645C21.9523 56.8747 22.2022 53.3706 22.7415 49.895ZM32.1853 92.3429C25.3589 83.369 22.1101 72.3012 21.9523 60.9058C22.0181 61.034 22.1233 61.1195 22.2811 61.1195C22.439 61.1195 22.5968 61.091 22.7546 61.0767C22.9388 63.014 23.2544 64.9369 23.6359 66.8457C24.1094 70.0079 24.8196 73.1131 25.7535 76.1187C25.4247 75.435 25.109 74.7655 24.7802 74.0818C24.596 73.6829 23.9647 73.9678 24.1225 74.3809C24.6881 75.9762 25.2931 77.6143 25.9245 79.2524C25.5693 79.5373 25.7272 80.221 26.2138 80.0501C26.2138 80.0501 26.2139 80.0501 26.227 80.0501C27.8974 84.2379 29.9098 88.383 32.5536 91.8728C32.3431 91.9441 32.1853 92.1292 32.1722 92.3429H32.1853ZM42.8129 102.471C39.0248 99.8639 35.7892 96.8299 33.0797 93.4825C34.3161 94.7075 35.5656 95.9609 36.8414 97.1859C36.8941 97.4281 37.0914 97.6275 37.315 97.656C39.551 99.7784 41.879 101.801 44.3781 103.496C43.852 103.154 43.3259 102.827 42.8129 102.471ZM111.353 93.2118C96.0561 114.165 68.2639 116.786 47.3507 105.248C47.8242 105.362 48.1399 104.721 47.7058 104.365C47.4822 104.18 47.2586 104.009 47.035 103.824C48.7317 104.878 50.4679 105.818 52.2567 106.63C52.3225 106.986 52.6776 107.171 52.9407 106.929C70.25 114.479 91.3342 110.846 105.171 97.3711C105.487 97.6418 105.829 97.8982 106.21 98.0691C106.46 98.1831 106.763 97.8412 106.657 97.5848C106.513 97.186 106.289 96.8298 106.052 96.488C108.525 93.9383 110.774 91.1179 112.681 87.9129C113.813 86.0042 114.746 83.9673 115.509 81.8591C115.812 81.9303 116.128 81.9873 116.43 81.9731C116.667 81.9731 116.785 81.6739 116.614 81.4888C116.404 81.2466 116.154 81.033 115.891 80.8335C119.521 70.0364 118.942 57.2308 117.588 46.3482C115.891 32.8019 109.591 22.9876 98.7919 16.0364C96.306 14.441 93.6491 13.0451 90.887 11.877C90.7949 11.5922 90.4793 11.4497 90.2162 11.5921C69.7897 3.25925 43.5758 7.01976 33.4875 30.2237C33.3033 30.651 33.8426 31.0071 34.0793 30.594C35.1973 28.6425 36.4074 26.8478 37.6701 25.1669C38.2225 25.6797 38.7881 26.1783 39.3274 26.7196C40.0245 27.4033 40.6953 28.2295 41.5239 28.6995C41.879 28.8989 42.2342 28.5001 42.05 28.1298C41.616 27.2324 40.8399 26.4917 40.156 25.8079C39.5772 25.2382 38.9854 24.7396 38.3409 24.2838C42.3526 19.2271 47.0087 15.4809 52.0989 12.9596C52.9933 15.3527 53.7562 18.4294 55.5581 20.153C55.6765 20.2669 55.8475 20.153 55.8212 19.982C55.2687 17.4893 54.1771 14.8114 53.0327 12.5181C58.3465 10.0538 64.0813 8.89998 69.9738 8.87149C69.8686 10.0822 69.8817 11.293 69.8686 12.5038C69.8686 13.9567 69.7765 15.4523 70.1842 16.8483C70.2632 17.1332 70.6314 17.1332 70.7103 16.8483C71.0655 15.6375 71.0392 14.3555 71.026 13.102C71.026 11.6919 71.0523 10.2817 70.9208 8.87149C77.0369 8.9712 83.3109 10.2959 89.4533 12.6747C88.2169 14.7686 87.1779 17.3326 86.5728 19.6402C86.4939 19.9536 86.8622 20.1672 87.0726 19.9536C88.7431 18.23 89.5454 15.4239 90.5056 13.0878C92.518 13.914 94.5172 14.8399 96.4902 15.8939C100.015 17.7742 103.054 20.153 105.658 22.9164C104.974 23.4007 104.395 24.1129 103.79 24.7254C102.869 25.6512 101.449 26.6341 100.857 27.8734C100.765 28.0585 100.87 28.3576 101.107 28.3292C102.291 28.1867 103.409 26.862 104.237 26.0359C104.948 25.3236 105.829 24.5829 106.355 23.6856C109.696 27.4318 112.221 31.8475 114.076 36.6478C113.813 36.1208 113.55 35.5937 113.26 35.0667C113.181 34.9243 112.945 35.024 113.01 35.1806C113.721 37.1321 114.312 39.1263 114.839 41.1633C112.563 41.6333 110.248 42.7586 108.131 43.6845C107.749 43.8554 107.881 44.4964 108.302 44.3825C110.511 43.7842 113.076 43.3426 115.036 41.9609C115.496 43.7699 115.917 45.5932 116.351 47.388C116.43 47.7441 116.877 47.7156 116.996 47.445C117.706 51.6043 117.995 55.8918 117.929 60.1794C116.785 60.0512 115.588 60.2791 114.444 60.393C113.352 60.507 112.3 60.6921 111.287 61.148C110.932 61.3046 111.103 61.9884 111.485 61.9456C112.616 61.8032 113.747 61.6465 114.891 61.5468C115.891 61.4613 116.943 61.4613 117.916 61.1337C117.719 67.6861 116.68 74.21 114.917 80.221C114.286 79.8934 113.602 79.6228 113.01 79.3094C111.577 78.5687 110.13 77.8849 108.657 77.2012C108.262 77.016 107.907 77.6001 108.302 77.8565C109.669 78.7111 110.998 79.6227 112.405 80.4062C113.063 80.7623 113.773 81.2039 114.523 81.5315C112.629 87.4571 109.63 92.3571 105.881 96.3028C105.25 95.4624 104.421 94.7502 103.711 94.038C102.554 92.8984 101.278 91.9013 99.9625 91.0039C99.4233 90.6336 98.9629 91.531 99.4628 91.9156C100.778 92.9554 101.962 94.1234 103.159 95.3199C103.751 95.9182 104.329 96.6162 104.961 97.2002C96.2929 105.704 83.9817 109.465 71.7889 109.279C71.9204 106.929 71.7889 104.465 71.6574 102.129C71.6311 101.559 70.8814 101.573 70.855 102.129C70.7104 104.394 70.2368 107.071 71.0392 109.265C64.9625 109.094 58.9516 107.94 53.4668 105.932C53.8219 105.205 54.1771 104.465 54.4927 103.71C54.8347 102.841 55.2556 101.901 55.1635 100.946C55.1372 100.676 54.8347 100.476 54.6374 100.719C54.0981 101.331 53.8877 102.114 53.5983 102.884C53.2563 103.781 52.9144 104.693 52.5593 105.59C51.5596 105.205 50.5863 104.792 49.6261 104.351C45.6145 102.471 41.9711 99.7641 38.7486 96.431C40.1823 94.9923 41.6817 93.4682 42.6025 91.6877C42.7734 91.3458 42.392 90.833 42.0632 91.1036C40.5506 92.3571 39.2353 94.0095 37.9332 95.5764C33.8031 91.0752 30.4097 85.5626 27.9369 79.5373C27.9369 79.5373 27.9369 79.5231 27.9369 79.5088C28.634 79.2952 29.3311 79.0815 30.0282 78.8393C31.0541 78.4975 32.0801 78.2268 32.9087 77.4577C33.106 77.2725 32.9482 76.9164 32.6983 76.9164C31.6592 76.9164 30.7122 77.3579 29.7388 77.6856C29.0417 77.9277 28.3709 78.2126 27.7001 78.4975C26.2402 72.4436 25.2142 66.6177 24.7933 60.6921C25.1221 60.6067 25.451 60.5212 25.7798 60.4215C27.0162 60.0654 28.3841 59.9514 29.5547 59.3959C29.7783 59.2819 29.6731 58.9543 29.4889 58.8831C28.4893 58.47 27.4239 58.7549 26.4111 59.0113C25.8456 59.1538 25.2668 59.3247 24.7013 59.4814C24.6092 57.9715 24.5697 56.4473 24.5697 54.909C25.5693 50.1229 26.5164 45.5078 27.7527 40.9069H27.7659C27.8448 41.0636 28.0158 41.1205 28.1605 41.0635C28.6866 41.263 29.1996 41.4624 29.7125 41.6618C30.7779 42.1034 31.817 42.6162 32.9745 42.6589C33.3559 42.6731 33.5137 42.0606 33.1718 41.8612C32.1721 41.2914 31.0673 40.9354 30.0019 40.508C29.581 40.3371 29.147 40.1661 28.7129 40.0379C30.5543 36.078 32.1327 31.9187 34.2766 28.144C34.4476 27.8449 34.0399 27.617 33.8557 27.8734C31.3435 31.5769 29.5152 35.4798 28.0684 39.7531C28.8181 37.0894 29.6862 34.4115 30.7516 31.7193C30.8963 31.3632 30.4754 31.0783 30.265 31.4059C27.8317 35.2661 26.0429 39.981 24.8985 44.8525C24.7144 44.7813 24.4777 44.8525 24.4119 45.0804C24.0568 46.5618 23.7674 48.0717 23.5438 49.5959C24.3987 42.1176 26.7926 35.0382 31.0804 29.1981C31.4224 28.7423 30.8174 28.0728 30.4754 28.5429C29.1733 30.3376 28.0553 32.2321 27.0819 34.1978C27.858 32.3033 28.6998 30.4373 29.6336 28.6141C29.7783 28.6283 29.9493 28.5856 30.0808 28.4289C41.0635 16.6916 50.8493 7.90291 66.7513 6.27906C78.9835 5.02557 91.2158 9.52673 101.173 17.0192C123.835 34.0696 128.281 69.9509 111.34 93.1548L111.353 93.2118Z" fill="#CEAB80"/>
<path fill-rule="evenodd" clip-rule="evenodd" d="M26.806 29.0284C29.7785 24.342 33.3298 20.4248 36.9469 16.351C37.1047 16.18 36.8943 15.8667 36.697 15.9949C32.2644 19.0431 29.134 24.0144 26.5429 28.8432C26.4377 29.0284 26.7007 29.1851 26.8191 29.0141L26.806 29.0284Z" fill="#CEAB80"/>
<path fill-rule="evenodd" clip-rule="evenodd" d="M115.575 91.5751C112.418 97.0021 108.801 101.689 103.961 105.421C103.659 105.663 103.908 106.133 104.25 105.962C109.617 103.241 113.55 97.5434 116.167 91.9454C116.364 91.5181 115.812 91.1477 115.562 91.5608L115.575 91.5751Z" fill="#CEAB80"/>
<path fill-rule="evenodd" clip-rule="evenodd" d="M13.9814 2.41991C13.8762 1.93561 13.3501 1.97836 13.1528 2.30598C13.1528 2.30598 13.1265 2.30598 13.1133 2.30598C11.1535 2.70482 11.535 8.81559 11.456 10.1688C11.1272 15.8523 10.8905 21.2509 8.99644 26.45C8.11519 18.5445 8.58869 10.4252 7.28655 2.73329C7.22078 2.3202 6.73413 2.43416 6.61575 2.73329C5.74766 4.99812 5.97125 21.9773 4.6165 24.7977C4.09038 19.9404 5.15578 1.75045 0.657461 1.94987C0.302331 1.96411 0.302331 2.51965 0.657461 2.53389C0.736379 2.53389 0.802148 2.56239 0.867913 2.59088C-0.236936 9.92667 0.933675 17.3052 1.27565 24.6837C1.59132 31.4212 5.62929 36.1646 6.08964 42.9876C6.3527 46.9902 6.43162 51.0356 6.41847 55.1095C6.28694 54.8388 6.19487 54.5397 6.1291 54.2405C5.95811 53.4571 4.91903 53.799 5.0374 54.5682C5.18209 55.5938 5.58982 56.4769 6.4053 57.0609C6.4053 57.5452 6.37899 58.0153 6.37899 58.4996C6.22116 58.3999 6.07649 58.2859 5.94496 58.1577C5.44515 57.7019 4.76119 58.4284 5.22154 58.9412C5.55037 59.2973 5.93179 59.6249 6.33953 59.8671C6.1817 66.9749 5.77396 74.0828 5.37937 81.0625C4.86641 90.2073 4.55073 99.3806 5.16892 108.54C5.40567 112.03 5.4846 119.052 9.27266 120.448C9.53572 120.548 9.83823 120.334 9.904 120.063C12.4688 109.38 11.4823 95.1786 10.1671 84.3529C9.23319 76.6895 8.49662 68.4991 8.27302 60.3086C8.99643 60.2659 9.75932 60.0095 10.0092 59.2546C10.075 59.0694 9.94345 58.8415 9.77246 58.7987C9.25949 58.6848 8.74653 58.9127 8.23356 58.9839C8.23356 58.4854 8.19411 57.9868 8.19411 57.4882C8.50978 57.4313 8.77283 57.2746 8.93067 56.9897C9.00959 56.8188 8.99645 56.6194 8.86492 56.4769C8.66763 56.2775 8.43087 56.2063 8.18096 56.1635C8.18096 49.5542 8.57554 42.9876 9.65409 36.7629C9.68039 36.6347 9.65409 36.5207 9.61463 36.4067C12.6924 24.8689 16.6252 14.9549 13.9683 2.37718L13.9814 2.41991ZM9.85139 93.4408C10.0092 98.1272 9.61463 102.828 9.71986 107.514C9.75932 109.195 10.0092 122.869 7.65483 116.773C5.47144 111.089 5.97125 103.597 5.97125 97.5574C5.97125 85.1079 6.89197 72.6584 7.15503 60.2089C7.2208 60.2231 7.28656 60.2374 7.33917 60.2516C7.8916 71.3906 9.46996 82.6294 9.85139 93.4408ZM12.7976 23.1311C11.6402 28.4442 9.00959 33.1448 8.19411 38.6004C8.19411 38.6574 8.22042 38.7001 8.22042 38.757C7.77322 41.4919 7.4707 44.2411 7.31286 47.0187C7.22079 43.244 6.90511 39.4978 6.05017 35.9224C4.87955 31.0509 2.47257 27.0055 2.23581 21.5215C1.97275 15.368 1.27564 9.31416 1.5124 3.16064C3.76155 6.52229 2.4331 23.1453 3.7484 25.9657C3.91939 26.3218 4.26137 26.2933 4.49813 26.0797C6.95773 25.3532 6.6026 11.6787 6.65521 10.1546C6.72098 8.47376 6.77359 6.79293 6.94458 5.12636C7.15503 12.4622 6.22116 20.5102 8.08888 27.6038C8.14149 27.8032 8.25988 27.9029 8.39141 27.9599C8.32565 28.1024 8.27304 28.259 8.20727 28.4157C8.02313 28.843 8.40456 29.2704 8.79915 29.0567C11.8638 27.3331 11.9164 20.909 12.2189 17.7325C12.4951 14.8979 12.6004 12.0491 12.7582 9.21445C12.8371 7.76154 12.7187 5.62489 13.2317 4.08651C14.0866 10.297 14.0735 17.0915 12.7582 23.1453L12.7976 23.1311Z" fill="#CEAB80"/>
<path fill-rule="evenodd" clip-rule="evenodd" d="M139.987 67.6587C140.145 67.5162 140.276 67.3453 140.395 67.1316C140.618 66.747 140.289 66.3339 139.921 66.3482C139.921 66.106 139.895 65.8781 139.882 65.636C139.908 65.579 139.947 65.522 139.961 65.465C139.987 65.3368 139.934 65.2371 139.855 65.1659C139.711 61.847 139.619 58.5424 139.592 55.2092C139.513 45.7225 140 36.1361 140.368 26.6637C140.71 18.0459 139.54 9.31417 140.434 0.767612C140.5 0.183597 139.592 0.0553902 139.487 0.625161C139.461 0.781848 139.448 0.938515 139.421 1.0952C139.395 0.710607 139.014 0.31179 138.58 0.539699C135.738 1.97837 135.002 5.22605 134.239 8.31705C132.411 15.7241 130.911 23.6439 129.451 31.1649C128.846 34.2986 128.294 37.2899 127.991 40.2954C127.728 40.4379 127.544 40.7655 127.741 41.0646C127.794 41.1501 127.847 41.2356 127.899 41.321C127.663 44.3408 127.689 47.3891 128.241 50.6083C129.201 56.1778 134.042 59.2688 136.514 64.0264C136.291 64.1261 136.12 64.354 136.199 64.6389C136.409 65.3938 136.738 66.1203 137.343 66.5049C137.317 66.6901 137.277 66.8895 137.251 67.0889C137.014 67.0462 136.764 66.9892 136.528 66.9037C135.844 66.6616 135.607 67.7584 136.238 68.029C136.488 68.143 136.778 68.2284 137.067 68.2854C134.686 83.3701 129.136 99.2524 132.371 114.437C134.055 122.328 140.118 118.397 140.658 112.3C141.96 97.3579 140.658 82.5297 139.961 67.6587H139.987ZM136.212 60.6932C134.91 59.0266 133.555 57.4455 132.174 55.8644C129.846 53.1723 128.965 49.8248 128.781 46.335C129.32 47.0045 129.78 47.9019 130.582 48.1867C130.78 48.258 130.964 48.0443 130.911 47.8306C130.675 46.919 129.951 46.1213 129.346 45.4661C129.149 45.2524 128.925 45.2809 128.754 45.4233C128.728 44.5402 128.754 43.6429 128.794 42.7455C128.859 42.8452 128.912 42.9449 128.978 43.0446C129.346 43.6856 129.636 44.4975 130.241 44.9106C130.385 45.0245 130.622 44.9106 130.661 44.7254C130.911 43.4149 129.767 41.962 128.925 40.8937C129.044 39.5832 129.215 38.287 129.372 37.0335C129.465 36.3783 129.583 35.7373 129.688 35.082C130.03 36.3498 130.109 37.7172 130.267 39.0134C130.267 39.1274 130.438 39.2129 130.49 39.0847C131.214 37.2899 130.793 35.609 129.872 34.0279C130.162 32.4041 130.477 30.7802 130.846 29.1706C130.977 29.8401 131.174 30.4669 131.53 30.9512C131.687 31.1648 132.003 31.0224 132.069 30.7945C132.398 29.5553 131.753 28.0311 131.398 26.8203C131.661 25.7663 131.95 24.7122 132.24 23.6581C132.292 24.5697 132.437 25.4529 132.963 26.1081C133.082 26.2506 133.266 26.1509 133.318 26.0085C133.792 24.5983 133.318 22.7892 132.963 21.3791C132.963 21.3506 132.924 21.3363 132.911 21.3078C133.055 20.8235 133.187 20.3392 133.331 19.8549C133.568 19.0572 133.752 18.0886 133.91 17.0061C133.976 17.234 134.029 17.4761 134.094 17.704C134.384 18.6584 134.542 19.7125 135.12 20.5101C135.252 20.6953 135.502 20.5671 135.554 20.3819C136.133 18.6441 134.87 16.3508 134.213 14.6558C134.344 13.559 134.476 12.4052 134.634 11.2514C134.831 12.2057 135.186 13.0889 135.923 13.5447C136.225 13.7299 136.541 13.4307 136.475 13.0746C136.357 12.4194 136.028 11.8211 135.804 11.1944C135.541 10.4537 135.344 9.67027 135.147 8.90107C135.133 8.8441 135.081 8.81561 135.055 8.77288C135.712 5.51095 136.817 2.64784 139.132 1.55103C139.263 1.47981 139.342 1.38008 139.382 1.26613C138.698 5.82429 138.974 10.2543 139.25 14.8836C139.645 21.7066 138.987 28.6294 138.803 35.4381C138.527 45.4519 138.645 55.2804 138.974 65.1517C138.803 65.2086 138.632 65.2656 138.461 65.3084C138.461 65.109 138.474 64.9238 138.474 64.7244C138.474 64.3825 138.251 64.2543 138.014 64.2685C137.698 63.0008 137.172 61.8612 136.186 60.6077L136.212 60.6932ZM139.947 100.506C139.947 103.725 139.803 106.93 139.619 110.149C140.408 115.021 138.422 116.331 133.634 114.081C133.042 111.446 132.753 108.768 132.74 106.061C132.161 93.1701 137.409 81.0483 138.33 68.3851C138.593 68.3566 138.856 68.3139 139.092 68.2284C139.25 72.5302 139.448 76.8462 139.698 81.1907C140.066 87.6006 139.934 94.096 139.934 100.52L139.947 100.506Z" fill="#CEAB80"/>
<path fill-rule="evenodd" clip-rule="evenodd" d="M142.289 104.508C141.842 110.562 140.605 116.345 138.448 121.958C138.383 122.129 138.633 122.228 138.711 122.072C141.526 116.616 143.341 110.819 143.105 104.508C143.078 103.939 142.329 103.939 142.289 104.508Z" fill="#CEAB80"/>
<path fill-rule="evenodd" clip-rule="evenodd" d="M1.36769 102.443C1.57814 105.434 1.65705 108.439 2.86713 111.217C3.02496 111.587 3.48533 111.303 3.43272 110.961C2.98551 108.126 2.4857 105.306 2.15688 102.457C2.09111 101.93 1.32823 101.901 1.36769 102.457V102.443Z" fill="#CEAB80"/>
<path fill-rule="evenodd" clip-rule="evenodd" d="M0.0131457 107.77C-0.0526191 109.835 0.512965 112.072 1.82826 113.624C2.03871 113.866 2.35438 113.61 2.30177 113.325C1.97295 111.402 0.92071 109.764 0.762875 107.77C0.723416 107.243 0.0263059 107.228 0 107.77H0.0131457Z" fill="#CEAB80"/>
<path fill-rule="evenodd" clip-rule="evenodd" d="M15.4023 1.47992C16.1652 4.11511 16.4809 6.73605 16.9018 9.44246C16.9281 9.64188 17.2438 9.64188 17.2701 9.44246C17.6252 6.67907 16.8492 3.87295 16.0337 1.29474C15.9022 0.853168 15.2577 1.03835 15.3892 1.47992H15.4023Z" fill="#CEAB80"/>
<path fill-rule="evenodd" clip-rule="evenodd" d="M131.477 8.65861C132.029 7.59029 132.227 6.25136 132.608 5.08333C133.121 3.53071 133.792 2.0493 134.792 0.810052C135.16 0.354235 134.581 -0.286758 134.173 0.14057C132.358 2.09203 130.701 5.63882 130.885 8.47343C130.911 8.80105 131.319 8.95777 131.477 8.6444V8.65861Z" fill="#CEAB80"/>
</svg>
