<svg width="135" height="131" viewBox="0 0 135 131" fill="none" xmlns="http://www.w3.org/2000/svg">
<path d="M119.026 42.6099C119.026 42.6026 119.039 42.5952 119.039 42.5879L119.019 42.6099H119.026Z" fill="#CEAB80"/>
<path d="M133.946 15.4597C133.286 14.1102 132.193 13.4318 130.794 13.3596C130.221 13.3308 129.648 13.3596 129.095 13.3596C129.041 12.9122 129.028 12.5586 128.955 12.2266C128.462 10.0904 127.115 9.14501 125.103 9.51307C124.836 9.56359 124.577 9.63576 124.31 9.69349C124.223 9.83783 124.097 9.94608 123.963 9.83061C123.817 9.70793 123.937 9.55637 124.01 9.41925C124.123 9.02954 124.23 8.63983 124.35 8.25012C125.549 4.54067 122.677 2.10859 120.225 2.13746C118.412 2.15911 116.873 2.8808 115.474 4.06436C115.154 4.3386 114.96 4.80769 114.407 4.90873C114.207 4.3819 114.021 3.84064 113.801 3.32824C113.235 2.01478 112.395 0.989985 111.129 0.412638C108.696 -0.691538 106.504 0.477592 105.904 3.23442C105.624 4.50459 105.698 5.78196 105.911 7.05934C106.657 11.4977 109.13 14.6154 112.408 17.1341C112.908 17.5165 113.481 17.7114 113.548 18.6352C113.594 19.2702 114.407 19.6744 114.441 20.5404C114.501 22.1281 114.487 23.6725 113.954 25.1953C113.281 27.1294 112.315 28.8686 111.255 30.5718C109.783 32.9461 108.243 35.2844 107.49 38.0845C107.47 38.1639 107.33 38.2 107.13 38.3299C107.097 38.099 107.064 37.8969 107.03 37.702C106.304 33.5163 105.811 29.28 104.831 25.1447C104.292 22.8642 103.439 20.7208 102.399 18.6857C100.96 15.8855 98.4806 14.6226 95.7617 13.7999C92.7296 12.8833 89.6175 12.5658 86.4922 12.3782C82.2872 12.1183 78.0756 12.0029 73.8707 11.8369C64.7411 11.476 55.6248 11.9379 46.5152 12.4503C43.823 12.6019 41.1508 12.9916 38.5318 13.771C35.8129 14.5865 33.3273 15.8134 31.8479 18.5918C30.6884 20.7713 29.8287 23.1024 29.249 25.5561C28.6692 27.9954 28.356 30.478 27.9362 32.9461C27.6363 34.7359 27.3231 36.5257 27.0166 38.3155C25.9836 35.2122 24.231 32.6863 22.6317 30.0594C22.0386 29.0851 21.4855 28.0748 20.9857 27.0428C20.3393 25.6932 19.8462 24.2643 19.7395 22.7271C19.6596 21.6157 19.5863 20.3961 20.0927 19.4795C20.7058 18.3753 21.3522 17.2495 22.5251 16.5206C23.6779 15.8061 24.6242 14.6875 25.4772 13.5473C27.6496 10.6605 28.7692 7.39132 28.3493 3.63856C28.0161 0.665228 25.6904 -0.742053 23.1248 0.398207C21.9187 0.932253 21.0923 1.88487 20.4926 3.11895C20.1993 3.71795 20.1394 4.43242 19.473 5.22627C19.3264 4.92316 19.2531 4.5984 19.0598 4.41077C17.4738 2.85915 15.6479 1.97147 13.4621 2.18798C10.8898 2.44057 8.85734 5.23349 9.7503 7.94702C9.93023 8.50271 10.3567 9.07284 10.0702 9.78009C8.89065 9.39038 7.7378 9.14501 6.63159 9.92443C5.49206 10.7255 5.23216 12.0245 5.11221 13.3741C4.39917 13.3741 3.80607 13.3236 3.21965 13.3813C0.394141 13.67 -0.852014 16.3835 0.627379 18.9816C1.46037 20.4394 2.67987 21.3487 4.16593 21.8755C5.52537 22.3518 6.93146 22.3663 8.33088 22.3374C9.41044 22.3157 9.97688 23.2828 10.7965 23.7519C11.9228 27.3531 14.5017 29.5398 17.2672 31.5605C18.2935 32.3111 19.3064 33.0977 20.2793 33.9276C21.9786 35.3926 23.458 37.0958 24.5442 39.1526C25.0507 40.1197 25.4505 41.1445 25.6038 42.2559C25.6238 42.4002 25.5505 42.6239 25.4505 42.7177C25.3572 42.8116 25.144 42.8765 25.024 42.6961C24.3576 41.7218 23.1715 41.2599 22.8049 39.9826C22.5051 38.9289 21.6987 38.3948 20.8058 38.1062C18.72 37.4206 16.6208 37.5649 14.615 38.4237C12.7158 39.232 12.2426 41.361 13.642 42.9631C15.3014 44.8611 17.4072 45.6045 19.8195 45.2148C21.3655 44.9622 22.4518 43.9662 23.2048 42.5012C23.398 42.6239 23.558 42.6889 23.6579 42.8043C24.1777 43.3961 24.6708 44.0168 25.1906 44.6085C25.3772 44.825 25.6371 45.0199 25.5305 45.3374C25.4039 45.7199 25.0507 45.756 24.7175 45.7632C20.4593 45.8065 16.994 48.0365 13.6087 50.483C12.6958 51.147 11.9761 52.0274 11.3896 53.0089C9.53706 56.1122 7.93772 59.3598 6.97145 62.9177C5.38543 68.7633 5.03225 74.746 5.5387 80.7938C5.59202 81.4505 5.55869 81.8979 4.84565 82.0567C4.25922 82.1866 3.77275 82.5763 3.38625 83.0959C2.17341 84.7053 2.33335 87.0002 3.7661 88.4725C4.85898 89.5983 6.21176 90.1756 7.65117 90.5076C8.37754 90.6736 8.51748 91.0056 8.53747 91.7994C8.59745 94.1305 8.43751 96.4687 8.83735 98.7925C9.17055 100.741 10.0902 102.141 11.7828 102.877C13.9486 103.823 16.1877 104.386 18.54 104.479C21.4055 104.595 23.2248 103.079 24.4243 100.445C25.1573 98.8359 25.3106 97.0966 25.4039 95.3357C25.4505 94.4336 25.2839 93.5098 25.5505 92.5861C27.463 92.6871 29.2823 92.7881 31.1149 92.882C31.1748 93.3366 31.2015 93.6903 31.2682 94.0294C31.5081 95.2274 31.748 96.4254 32.5676 97.3708C34.0537 99.0957 36.1461 98.7565 36.9991 96.5986C37.2057 96.0646 37.3723 95.4945 37.4323 94.9243C37.5056 94.2171 37.7855 94.0944 38.3919 94.1738C41.0708 94.5058 43.7564 94.8089 46.4419 95.0687C52.0796 95.6244 57.6906 96.5265 63.3617 96.7213C64.3146 96.7502 65.2609 96.8945 66.2005 96.9883C66.2671 97.6739 65.8673 98.0637 65.714 98.5472C65.3142 99.7813 64.941 101.051 65.3808 102.307C65.7074 103.245 65.3342 103.585 64.6811 103.909C63.4616 104.523 62.2288 105.129 61.0293 105.786C59.6298 106.551 58.2571 107.352 57.1309 108.579C56.058 109.748 55.5648 111.097 55.978 112.721C56.5578 115.002 56.1046 116.957 54.6452 118.725C53.6123 119.974 53.6656 120.024 52.2062 119.339C51.3199 118.928 50.4336 118.769 49.6473 119.563C48.0679 121.15 46.4752 122.731 44.9359 124.376C43.7297 125.661 43.6697 126.765 44.6227 128.281C44.8626 128.663 45.1624 129.017 45.469 129.341C47.5748 131.579 48.8209 131.579 50.7135 129.183C52.0196 127.53 53.479 126.065 54.9918 124.65C56.1979 123.525 56.2579 122.327 55.1117 121.129C54.8185 120.826 54.472 120.58 54.1521 120.313C54.2387 120.154 54.272 120.024 54.352 119.96C56.6844 117.896 57.4441 115.276 56.711 112.129C56.4911 111.191 56.831 110.404 57.3708 109.712C57.8972 109.033 58.5236 108.485 59.2233 108.03C61.4358 106.601 63.8681 105.685 66.1538 104.371C66.9668 105.569 67.5199 106.76 68.0131 107.994C68.886 110.181 68.7261 112.144 67.2001 113.998C66.1272 115.297 65.0743 116.661 64.5678 118.372C64.4012 118.942 64.0214 119.036 63.5749 119.072C62.6952 119.137 62.2688 119.671 62.0422 120.58C61.5957 122.384 61.0493 124.16 60.5628 125.95C60.2229 127.205 60.4628 127.869 61.4624 128.641C62.4887 129.435 63.6749 129.551 64.861 129.464C66.2405 129.37 66.6336 129.009 66.9602 127.516C67.3867 125.531 67.7132 123.517 68.1064 121.518C68.2796 120.638 67.9997 120.024 67.2534 119.678C66.527 119.339 65.7806 119.036 65.0543 118.718C65.1342 118.242 65.3675 117.924 65.5807 117.585C66.3804 116.322 67.4133 115.283 68.3463 114.15C69.5858 112.649 70.0256 110.953 69.5458 108.961C69.1593 107.352 68.5528 105.865 67.6865 104.516C67.2534 103.844 67.3133 103.469 67.9064 102.949C69.4125 101.629 70.572 99.9978 70.7986 97.8544C70.9119 96.8151 71.3384 96.5986 72.1447 96.6564C72.5445 96.6852 72.9577 96.5625 73.4908 96.8079C72.7311 97.977 72.2913 99.1606 72.1047 100.431C71.8182 102.401 72.3979 103.527 74.0573 104.364C74.7903 104.732 75.57 105.028 76.2364 105.504C77.6958 106.551 77.9956 107.972 77.1293 109.596C76.7295 110.354 76.203 111.032 75.7232 111.74C75.1168 112.634 74.4837 113.508 73.9106 114.424C73.3975 115.254 73.051 116.163 72.8911 117.167C72.5579 119.158 73.3309 120.443 75.0968 120.963C76.3896 121.345 77.6491 121.02 78.9952 120.869C79.0952 121.757 79.2418 122.543 79.5083 123.315C79.9415 124.578 80.6479 125.307 81.9407 125.48C83.7066 125.719 85.4459 126.137 87.2052 126.411C88.398 126.599 89.1111 126.072 89.6109 124.845C90.084 123.676 90.0507 122.442 90.004 121.222C89.9107 118.92 89.4643 118.227 87.3651 117.665C85.5392 117.181 83.66 116.914 81.8074 116.539C80.8745 116.351 80.2414 116.762 79.8549 117.665C79.6949 118.033 79.5483 118.415 79.4217 118.798C78.9019 120.342 78.9086 120.364 77.3826 120.371C76.9027 120.371 76.4163 120.313 75.9365 120.227C73.7974 119.837 73.1976 118.725 73.8907 116.524C74.3038 115.225 75.0569 114.164 75.8165 113.096C76.4763 112.173 77.196 111.285 77.7691 110.303C79.0752 108.052 78.5621 105.879 76.4496 104.479C75.9032 104.119 75.2834 103.873 74.697 103.585C73.1376 102.812 72.8444 102.307 73.031 100.452C73.0843 99.8751 73.2243 99.3049 73.3842 98.7492C73.824 97.2265 74.637 96.3966 76.2697 96.3027C79.1752 96.144 82.0673 95.6821 84.9661 95.3718C88.8179 94.9604 92.6763 94.5635 96.5613 94.1593C96.8012 95.0831 96.9279 96.0141 97.3144 96.8512C98.114 98.5833 99.8333 99.0091 101.233 97.7894C101.873 97.2337 102.352 96.5192 102.566 95.6388C102.712 95.0181 102.859 94.3903 102.939 93.7552C103.019 93.149 103.212 92.8314 103.845 92.8242C105.244 92.7954 106.651 92.6943 108.05 92.6005C108.59 92.5644 108.81 92.7448 108.816 93.3799C108.83 94.7223 108.903 96.0646 109.01 97.4069C109.13 99.0163 109.663 100.481 110.529 101.78C111.668 103.491 113.161 104.458 115.18 104.472C117.713 104.487 120.112 103.902 122.431 102.884C123.977 102.206 124.91 100.965 125.31 99.1462C125.829 96.7718 125.543 94.3686 125.683 91.9871C125.743 90.8829 126.083 90.6014 126.882 90.4138C128.335 90.0746 129.648 89.4107 130.681 88.2199C132.347 86.293 131.887 83.2403 129.654 82.2299C128.715 81.8041 128.682 81.2773 128.741 80.4041C128.968 77.1348 128.901 73.8512 128.642 70.5892C128.175 64.794 126.442 59.4175 123.684 54.4307C122.817 52.8646 121.864 51.3779 120.432 50.3531C117.08 47.9572 113.648 45.7777 109.443 45.7632C109.336 45.7632 109.223 45.7632 109.123 45.7272C108.643 45.5684 108.483 45.1715 108.83 44.8178C109.569 44.0817 110.096 43.093 110.962 42.494C112.195 44.2838 112.601 44.6807 113.834 45.056C116.353 45.821 118.566 45.0199 120.398 43.1652C122.084 41.462 121.571 39.2103 119.379 38.3515C117.626 37.6587 115.813 37.5 113.968 37.9618C112.735 38.2649 111.788 38.8856 111.302 40.2279C111.009 41.0362 109.456 42.5301 108.596 42.9631C108.596 41.2816 109.243 39.8887 110.023 38.5464C111.522 35.9772 113.614 34.0575 115.887 32.3327C117.033 31.4595 118.212 30.6223 119.312 29.6841C120.851 28.3707 122.237 26.8768 122.984 24.8633C123.677 22.9869 124.93 22.2436 126.729 22.3157C127.322 22.3374 127.922 22.3013 128.508 22.2147C130.507 21.9188 132.253 21.0961 133.433 19.2269C134.166 18.0722 134.639 16.8309 133.973 15.4597H133.946ZM21.7654 42.6383C21.4788 43.0714 21.1123 43.3961 20.6592 43.6271C18.6133 44.6951 15.7745 43.9157 14.3218 41.8734L14.3484 41.9022C14.4017 41.8661 14.4351 41.8301 14.4617 41.794C14.4217 41.8156 14.3751 41.8373 14.3284 41.8734C13.6087 40.6537 13.6687 39.9609 14.7416 39.4196C16.7808 38.3948 18.9265 38.3371 21.0124 39.2176C22.2119 39.7227 22.5251 41.5053 21.7654 42.6383ZM50.1471 122.428C50.5802 122.464 50.7801 123.092 51.2799 122.976C51.2333 123.265 51.3332 123.388 51.6131 123.323C51.6131 123.546 51.6131 123.763 51.6131 123.987C51.0667 124.03 50.9801 123.048 50.3537 123.279C50.4936 122.904 49.9871 122.926 49.9738 122.637C49.4873 122.623 49.0142 122.558 48.5611 122.11C49.2008 121.829 49.6606 122.197 50.1471 122.428ZM51.9463 124.694C51.6531 124.571 51.5465 124.347 51.6398 124.023C51.9797 124.124 52.1729 124.297 51.9463 124.694ZM50.3003 123.337C50.227 123.741 50.5336 124.643 49.6006 123.965C49.0342 123.554 48.3811 123.351 47.7081 123.099C48.6743 122.529 49.4207 123.662 50.3003 123.337ZM46.0288 127.4C46.0221 127.516 45.8155 127.624 45.7022 127.732C45.409 127.631 45.6689 127.321 45.489 127.198C45.0825 126.909 45.2491 126.65 45.5223 126.397C45.8822 126.065 45.9155 126.592 46.1154 126.686C46.6952 126.967 46.0421 127.155 46.0221 127.407L46.0288 127.4ZM49.8472 128.786C48.9142 127.039 47.7081 125.61 45.8622 124.99C46.7218 123.604 46.8617 123.554 48.1546 123.972C48.8942 124.21 49.5207 124.629 50.0538 125.235C50.1737 125.365 50.2937 125.646 50.5069 125.553C50.4736 125.596 50.4469 125.632 50.4536 125.639C51.3466 126.909 50.8534 127.884 49.8539 128.793L49.8472 128.786ZM50.6802 125.394C50.8534 125.019 50.227 124.715 50.6269 124.282C51.3999 124.708 51.5931 125.495 51.853 126.339C51.0733 126.419 51.2799 125.365 50.6802 125.394ZM51.953 124.737C52.3995 124.773 52.4528 125.026 52.2729 125.401C51.933 125.307 51.9397 125.026 51.953 124.737ZM52.3928 125.646C52.3595 125.567 52.3195 125.488 52.2862 125.408C52.3662 125.336 52.4395 125.343 52.4594 125.444C52.4728 125.502 52.4195 125.574 52.3928 125.646ZM54.1854 121.785C55.1583 122.594 55.1317 123.25 54.1854 124.145C53.8655 124.448 53.5457 124.752 53.1325 125.134C52.7993 124.542 52.5261 124.008 52.1996 123.51C52.0929 123.344 51.9463 122.998 51.6598 123.243C51.7064 123.149 51.7864 123.063 51.6598 122.918C51.5332 122.774 51.4532 122.861 51.3666 122.911C51.5998 122.608 51.2799 122.464 51.14 122.319C50.6602 121.829 50.0138 121.67 49.4274 121.381C50.4403 119.743 50.7135 119.649 52.2529 120.537C52.9126 120.919 53.5923 121.295 54.1788 121.785H54.1854ZM62.442 127.732C62.3754 127.761 62.2821 127.732 62.2021 127.725C62.2754 127.588 62.3487 127.451 62.4154 127.313C62.4553 127.227 62.4887 127.133 62.522 127.039C62.5486 127.14 62.582 127.234 62.5953 127.335C62.6219 127.501 62.5953 127.667 62.4287 127.739L62.442 127.732ZM62.6353 127.075C62.6819 127.083 62.7286 127.061 62.7752 126.996C62.7352 127.162 62.6886 127.126 62.6353 127.075ZM64.9277 128.107C64.8943 128.23 64.7211 128.302 64.6145 128.396C64.6478 128.259 64.6744 128.122 64.7144 127.992C64.7411 127.891 64.7877 127.797 64.8277 127.703C64.8677 127.84 64.961 127.992 64.9277 128.107ZM65.1476 127.891C64.981 127.963 64.881 127.855 64.8277 127.696C64.9743 127.682 65.1276 127.667 65.2742 127.653C65.2342 127.732 65.2075 127.862 65.1409 127.891H65.1476ZM66.1538 126.765C64.921 125.264 63.3816 125.639 61.7023 125.885C62.0555 123.907 62.0555 123.893 63.6215 123.907C64.1013 123.907 64.6145 123.914 65.0543 124.088C66.567 124.687 66.7403 124.802 66.1538 126.758V126.765ZM66.0472 123.857C65.7607 123.691 65.3808 123.727 65.1742 123.388C64.2879 123.337 63.4083 123.286 62.5287 123.243C63.4816 122.926 64.4212 122.803 65.3608 123.128C65.674 123.265 66.0605 123.229 66.2604 123.611C66.3604 123.698 66.4604 123.792 66.5537 123.878C66.3804 124.102 66.2138 123.972 66.0472 123.857ZM66.1272 122.579C64.961 122.478 63.8748 122.117 62.7419 122.168C63.5749 121.764 64.3945 121.843 65.2209 122.024C65.4141 122.067 65.6274 122.197 65.7606 122.024C65.774 122.226 66.0139 122.341 66.1272 122.579ZM66.7069 120.623C67.2067 120.912 67.2534 121.331 67.0801 121.793C66.8336 122.449 66.4537 121.821 66.1405 121.843C66.0339 121.85 65.9273 121.821 65.8206 121.807C65.8206 121.814 65.8206 121.821 65.814 121.829C65.0609 121.36 64.248 121.222 63.4016 121.251C63.1551 121.259 62.8152 121.41 62.7486 120.992C62.6886 120.609 62.8752 120.292 63.2484 120.227C64.4345 120.024 65.6007 119.988 66.7136 120.631L66.7069 120.623ZM87.725 124.492H88.7579C88.2914 124.629 87.9849 124.586 87.725 124.492ZM88.5913 119.887C88.398 120.082 88.1182 120.205 87.8649 119.974C88.1048 119.945 88.3514 119.916 88.5913 119.887ZM87.5384 120.992H88.8845C88.8845 120.992 88.8845 121.028 88.8845 121.049H87.5384C87.5384 121.049 87.5384 121.013 87.5384 120.992ZM84.8462 118.964C85.0461 118.365 85.3526 118.134 85.9391 118.329C86.2856 118.444 86.6587 118.48 87.1919 118.581C85.8991 120.797 86.0657 122.962 86.4655 125.185C85.8324 125.379 85.4526 125.069 85.1994 124.506C84.373 122.716 84.2064 120.876 84.8462 118.964ZM84.1731 118.134C84.4397 119.187 83.9132 120.176 83.9399 121.23C83.9665 122.298 84.2931 123.286 84.393 124.326C84.6529 124.405 84.7195 124.687 84.5663 124.802C84.3597 124.961 84.3131 124.622 84.2064 124.484C83.0869 122.363 83.1335 120.241 84.1731 118.126V118.134ZM83.3001 124.513C82.3938 123.351 82.3605 121.959 82.3805 120.53C82.3805 120.097 82.8137 119.642 82.4538 119.216C82.6737 119.274 82.7937 118.949 83.0935 118.899C82.6537 120.811 82.8736 122.666 83.3001 124.521V124.513ZM80.4613 118.689C80.9811 117.152 80.9677 117.145 82.5871 117.722C82.5071 118.191 82.4205 118.668 82.3339 119.151C82.3339 119.151 82.3472 119.151 82.3472 119.158C81.3609 120.826 81.9407 122.536 82.2606 124.239C80.7545 124.326 80.7945 124.311 80.368 122.933C79.9215 121.49 79.9815 120.097 80.4613 118.682V118.689ZM112.008 41.1228C112.148 40.0836 112.608 39.2753 113.648 38.9938C115.527 38.4814 117.379 38.5103 119.192 39.2464C119.812 39.499 120.372 39.9609 120.332 40.7764C120.292 41.6713 120.025 42.4724 119.025 42.6167C118.006 44.2838 114.461 44.5725 113.068 43.3456C112.415 42.7682 111.875 42.1043 112.008 41.13V41.1228ZM113.954 17.0041C110.396 14.2545 107.484 11.007 106.83 6.04177C106.784 5.69536 106.791 5.34174 106.764 4.85099C106.804 4.53345 106.824 4.06436 106.917 3.6097C107.404 1.21371 109.223 0.354906 111.209 1.56012C112.255 2.1952 112.861 3.19834 113.235 4.38912C113.454 5.10358 113.654 5.83248 113.848 6.55417C113.928 6.84284 114.021 7.13873 114.334 7.15317C114.641 7.1676 114.754 6.88614 114.867 6.59747C115.78 4.28808 117.599 3.40763 119.732 3.12617C121.091 2.94575 122.291 3.44371 123.15 4.65614C123.697 5.42113 123.917 6.26549 123.71 7.27585C123.25 9.55637 122.051 11.3028 120.472 12.7751C118.839 14.2978 117.073 15.6329 115.287 16.9392C114.807 17.2856 114.387 17.3361 113.954 16.9969V17.0041ZM108.197 40.0042C108.197 40.0042 108.197 39.997 108.19 39.997C108.01 39.9176 108.263 39.8743 108.197 40.0042ZM14.4417 3.13339C16.5675 3.38598 18.4001 4.25922 19.3197 6.59025C19.4197 6.84284 19.5196 7.1676 19.8528 7.15317C20.2993 7.13152 20.306 6.69128 20.3793 6.38818C20.6258 5.3706 20.8924 4.36025 21.3522 3.42928C21.9986 2.10859 22.9582 1.24258 24.3776 1.12711C26.0703 0.989989 27.0099 1.80549 27.2898 3.63135C27.3564 4.09322 27.3498 4.56232 27.3631 4.79326C27.3764 7.32637 26.6834 9.3976 25.5705 11.2956C24.251 13.5473 22.4118 15.2649 20.4526 16.8454C19.9195 17.2712 19.4463 17.3217 18.8399 16.8815C17.094 15.6113 15.3813 14.2906 13.7687 12.8184C12.3892 11.5627 11.343 10.0471 10.7033 8.17796C9.62369 5.03141 11.9694 2.8375 14.435 3.13339H14.4417ZM10.3767 20.3095C10.0302 21.0672 9.37713 21.392 8.65076 21.4136C7.07807 21.4569 5.50538 21.3342 4.03265 20.7064C2.67987 20.129 1.6403 19.1259 1.08719 17.6248C0.720675 16.6289 0.920597 15.8206 1.65363 15.1061C2.75318 14.038 4.19925 13.9442 5.49205 14.868C5.7053 15.0195 5.87857 15.3226 6.18511 15.1566C6.56495 14.9546 6.47165 14.6154 6.3717 14.2545C6.26507 13.8648 6.1851 13.4535 6.15844 13.0493C6.01184 11.1008 7.53788 9.88113 9.25051 10.5595C10.8565 11.1946 11.8694 12.9122 11.8561 14.9762C11.8561 16.9103 11.1431 18.6207 10.3767 20.3022V20.3095ZM17.6737 30.7883C15.1414 29.0274 12.929 26.9201 11.5829 23.9179C11.3563 23.4199 10.9165 22.9364 11.5496 22.3951C11.6295 22.323 11.6562 21.991 11.5896 21.9332C10.5566 21.0528 11.3497 20.3022 11.7228 19.53C12.6491 17.6176 13.0156 15.5969 12.7424 13.4318C13.3155 13.3813 13.5354 13.8576 13.8619 14.1174C15.1681 15.1566 16.3942 16.3113 17.8003 17.1846C18.3868 17.5526 18.6333 18.1228 18.9399 18.7651C19.2731 19.4507 19.1198 19.927 19.0065 20.5404C18.7066 22.1209 18.8332 23.6725 19.3264 25.2025C19.9395 27.0861 20.7991 28.8325 21.8054 30.5068C22.565 31.7842 23.3514 33.0472 24.0911 34.3318C25.044 35.9772 25.7371 37.7237 25.9037 39.7083C24.0511 35.7535 21.0124 33.1049 17.6671 30.7883H17.6737ZM12.9357 98.6771C13.1956 99.0307 13.3288 99.3699 12.969 99.7307C12.4825 100.214 12.2693 100.835 12.3359 101.687C11.1831 101.239 10.49 100.568 10.1701 99.507C9.98355 98.9008 9.8436 98.2657 9.79696 97.6379C9.65035 95.5017 9.78363 93.3438 9.46376 91.121C10.5766 90.8612 11.5562 91.2582 12.5158 91.4386C13.3488 91.5974 13.5821 92.5933 12.9956 93.3583C12.4092 94.1233 12.6158 94.7583 13.1156 95.379C13.4954 95.8553 13.5487 96.2089 13.0689 96.6708C12.4559 97.2554 12.3959 97.9698 12.9223 98.6843L12.9357 98.6771ZM15.3947 100.424C14.7549 100.943 14.4817 101.557 15.0081 102.379C13.4555 102.213 13.0356 101.47 13.9019 100.294C14.6949 99.2256 13.8886 98.5977 13.5088 97.7605C14.6083 96.411 14.6216 96.4038 13.7886 94.7583C13.5954 94.3831 13.5821 94.0944 13.8886 93.8634C14.6616 93.2861 14.475 92.5933 14.1352 91.8644C14.5217 91.5108 14.9815 91.6118 15.3547 91.7706C16.0077 92.0448 16.201 92.8964 15.6879 93.4232C15.0481 94.0872 15.0015 94.5923 15.5946 95.3285C16.3809 96.3172 16.3543 96.3821 15.5079 97.3492C15.0015 97.9265 14.9482 98.4317 15.5079 98.9802C16.0344 99.4998 15.9478 99.9833 15.408 100.416L15.3947 100.424ZM17.0273 102.531C16.9274 103.058 16.5942 103.029 16.3076 102.863C15.7478 102.538 15.6279 101.679 16.0077 101.116C16.9007 99.774 16.9007 99.7452 16.081 98.208C17.3672 96.6491 17.3672 96.4543 16.0411 94.4119C16.6319 93.6806 16.8829 92.8435 16.7941 91.9005C17.3005 91.7489 17.7604 91.8716 18.1269 92.2469C18.5267 92.651 18.6467 93.0768 18.2135 93.6036C17.2472 94.7944 17.2272 94.8449 17.9669 95.978C18.4201 96.678 18.4667 97.1976 17.8203 97.7533C17.2206 98.2729 17.1073 98.8864 17.6471 99.5575C18.0669 100.084 18.0469 100.597 17.6071 101.109C17.2672 101.506 17.1206 102.018 17.0273 102.531ZM18.8732 102.899C18.7466 103.231 18.4201 103.209 18.1735 103.108C17.8736 102.978 17.8536 102.668 17.9536 102.372C18.0269 102.156 18.1269 101.939 18.2668 101.773C18.9265 100.986 19.0998 100.157 18.4867 99.2544C18.2601 98.9152 18.2202 98.6338 18.52 98.3523C19.5729 97.3203 19.2531 96.31 18.4934 95.2924C18.4001 95.1625 18.3534 94.9965 18.2468 94.7583C18.9199 94.2315 19.433 93.6253 19.2131 92.6005C19.0598 91.8716 19.6263 92.0448 19.9128 92.1819C20.4859 92.4562 20.7658 93.4377 20.3193 93.9428C19.6196 94.7295 19.6329 95.4512 20.1261 96.2811C20.4992 96.9162 20.4726 97.5007 19.9261 97.977C19.2198 98.5905 18.9932 99.1967 19.7395 99.9833C20.0261 100.279 20.0994 100.741 19.8395 101.109C19.4463 101.665 19.1131 102.249 18.8599 102.892L18.8732 102.899ZM24.1044 95.3862C24.0644 97.0316 23.9312 98.6626 23.1781 100.135C22.4651 101.535 21.4988 102.61 19.7929 103.058C20.1261 102.12 20.7791 101.672 20.8191 100.849C20.8591 100.142 20.2327 99.6658 20.2993 99.0812C20.366 98.4967 21.0523 98.1719 21.1656 97.4719C21.3056 96.5698 20.5192 95.913 20.6192 95.1697C20.7125 94.448 21.5854 93.914 21.2323 92.9686C21.1789 92.817 21.1989 92.6366 21.1856 92.4778C21.2989 92.4129 21.3922 92.319 21.4788 92.319C23.2781 92.396 24.1555 93.4184 24.1111 95.3862H24.1044ZM66.6603 102.538C65.8806 100.467 66.607 98.8647 67.4666 97.2914C67.5866 97.0749 67.7798 96.945 67.9997 96.9595C68.7394 96.9956 69.4791 96.678 70.3055 96.8729C69.8323 99.3482 68.5928 101.116 66.6603 102.545V102.538ZM113.348 102.704C111.762 101.802 110.822 100.315 110.416 98.4894C110.042 96.7863 109.976 95.0254 109.996 93.2644C110.003 92.6582 110.229 92.4345 110.756 92.4201C111.455 92.4056 112.148 92.3479 113.075 92.2974C112.835 93.2572 112.708 94.0583 113.381 94.7078C113.748 95.0614 113.601 95.4656 113.414 95.8192C112.875 96.8512 112.855 97.8111 113.681 98.6843C113.888 98.908 114.021 99.1462 113.828 99.4493C113.021 100.727 113.528 101.766 114.354 102.733C113.981 103.166 113.654 102.884 113.341 102.711L113.348 102.704ZM116.12 103.065C115.813 103.231 115.38 103.26 115.28 102.877C115.094 102.17 114.661 101.665 114.307 101.088C114.028 100.633 114.234 100.193 114.554 99.8246C115.074 99.2328 115 98.6554 114.441 98.1719C113.774 97.6018 113.648 96.9739 114.107 96.1945C114.561 95.4223 114.654 94.7006 113.901 94.0294C113.414 93.5964 113.674 93.0985 113.874 92.6005C114.068 92.1314 114.414 92.0376 114.801 92.1025C115.467 92.2252 114.861 92.6366 114.881 92.9108C114.92 93.1346 114.881 93.4377 115.007 93.5676C115.833 94.4552 115.813 95.2852 115.167 96.346C114.534 97.378 116.047 98.143 115.793 98.9874C115.507 99.9328 115.174 100.705 115.807 101.578C115.973 101.809 116.113 102.055 116.24 102.307C116.38 102.581 116.433 102.885 116.12 103.05V103.065ZM117.759 102.906C117.499 103 117.2 102.978 117.153 102.581C117.1 102.17 117.026 101.759 116.786 101.441C116.253 100.756 115.94 100.142 116.666 99.3338C117.033 98.9225 116.973 98.2946 116.527 97.9337C115.554 97.1615 115.787 96.4543 116.467 95.6316C116.973 95.0181 116.926 94.448 116.32 93.8274C115.447 92.918 115.62 92.2902 116.746 91.8716C116.846 91.8355 116.96 91.8283 117.066 91.8283C117.173 91.8283 117.273 91.85 117.526 91.8788C117.379 92.7232 117.133 93.4882 117.866 94.0367C118.239 94.3181 118.046 94.5923 117.866 94.9099C117.213 96.1031 117.308 97.2073 118.153 98.2224C117.326 99.2256 117.266 100.207 118.259 101.21C118.679 101.636 118.312 102.704 117.766 102.899L117.759 102.906ZM119.072 102.603C119.572 101.658 119.525 101.023 118.906 100.525C118.332 100.063 118.126 99.5575 118.712 98.9369C119.272 98.3451 119.119 97.8544 118.612 97.2987C117.819 96.4254 117.813 96.3677 118.572 95.3501C119.039 94.7222 119.299 94.1882 118.626 93.5603C118.352 93.3078 117.939 93.0768 118.206 92.5716C118.412 92.1747 118.599 91.7128 119.125 91.684C119.385 91.6695 119.652 91.684 119.945 91.684C120.125 92.2902 119.372 92.9325 119.872 93.3294C120.905 94.1593 120.438 94.8089 119.858 95.5811C119.499 96.0646 119.619 96.6058 120.072 96.9667C120.658 97.443 120.805 97.8832 120.265 98.54C119.812 99.0884 119.905 99.6658 120.318 100.279C121.065 101.412 120.791 102.004 119.079 102.596L119.072 102.603ZM124.243 98.7132C123.97 100.063 123.344 101.044 122.038 101.622C121.851 101.044 121.811 100.517 121.551 100.214C120.971 99.5503 120.991 99.0524 121.458 98.2874C122.058 97.3059 121.091 96.7502 120.625 96.0357C120.825 95.7398 121.005 95.4584 121.205 95.1914C121.671 94.5563 121.718 93.9934 121.165 93.3366C120.572 92.6294 120.825 91.5757 121.671 91.4242C122.604 91.2582 123.537 90.8829 124.71 91.121C124.297 93.6397 124.763 96.1945 124.25 98.7132H124.243ZM130.627 84.6548C130.947 85.9321 130.707 87.0652 129.714 87.9673C128.368 89.1869 126.749 89.6127 125.096 89.8942C120.298 90.7025 115.454 91.0633 110.609 91.4097C108.35 91.5685 106.084 91.6407 103.818 91.8283C102.166 91.9654 102.172 92.0159 101.879 93.748C101.773 94.3831 101.686 95.0181 101.513 95.6316C101.199 96.7213 100.393 97.3853 99.5135 97.3636C98.6938 97.342 98.0941 96.7213 97.8142 95.545C97.7342 95.213 97.7276 94.8522 97.7009 94.5057C97.5809 93.0335 97.521 92.9325 96.1215 93.0768C92.0366 93.481 87.9582 93.914 83.8799 94.3542C78.3488 94.9532 72.8244 95.7543 67.2667 95.747C62.7952 95.747 58.3304 95.2779 53.8722 94.7295C48.621 94.08 43.3499 93.5964 38.0854 93.0696C36.6326 92.9253 36.5526 93.0407 36.426 94.6429C36.406 94.9315 36.4194 95.2347 36.3661 95.5161C36.1795 96.5265 35.5797 97.2554 34.86 97.3564C34.0603 97.4719 33.174 96.945 32.8208 95.9635C32.5343 95.1553 32.4077 94.282 32.2411 93.4232C31.9812 92.0809 31.9945 91.9871 30.7217 91.886C27.7629 91.6407 24.7975 91.5396 21.8387 91.2943C17.5938 90.9478 13.3422 90.6303 9.13056 89.9014C7.80444 89.6705 6.48498 89.3529 5.2988 88.5879C4.68572 88.191 4.12595 87.7291 3.7661 87.058C3.27296 86.1342 3.27297 85.1527 3.7461 84.2145C4.35919 82.9877 5.43208 82.8866 7.01143 82.9299C10.0635 83.5362 13.622 83.6805 17.1539 84.1929C21.3189 84.7991 25.5038 85.2754 29.6821 85.8022C29.8954 85.8311 30.1153 85.8311 30.3285 85.8383C32.0545 85.8888 32.0678 85.8744 32.4143 83.998C32.4677 83.7094 32.481 83.4135 32.5476 83.132C32.8075 82.1 33.5805 81.2845 34.2802 81.2773C35.0399 81.2773 35.8929 82.1794 36.0662 83.2475C36.1795 83.9331 36.2328 84.6403 36.2728 85.3404C36.3727 87.2528 36.406 87.3178 38.2453 87.5776C40.651 87.9096 43.0566 88.256 45.469 88.5158C49.9205 88.9921 54.3653 89.6488 58.8435 89.8076C66.9935 90.089 75.1368 90.1684 83.2601 89.1003C87.4851 88.5446 91.73 88.0972 95.9616 87.5776C97.7875 87.3539 97.8875 87.1807 97.9541 85.1744C97.9808 84.4743 98.0008 83.7671 98.1407 83.0887C98.3406 82.1 99.2003 81.2917 99.9 81.2845C100.566 81.2845 101.279 81.9629 101.573 82.9516C101.719 83.4496 101.766 83.9764 101.866 84.4888C102.106 85.7373 102.186 85.8022 103.352 85.8383C104.978 85.8816 106.577 85.5352 108.183 85.3404C113.701 84.6548 119.205 83.8609 124.736 83.3052C125.863 83.1898 126.962 82.8433 128.108 82.9155C129.541 83.0021 130.341 83.5001 130.627 84.6692V84.6548ZM109.576 46.8313C112.495 47.221 115.187 48.3324 117.766 49.8985C121.065 51.8975 122.911 55.1018 124.55 58.5803C126.169 62.0228 126.776 65.7683 127.355 69.5066C127.928 73.2089 127.922 76.9544 127.849 80.6999C127.835 81.4866 127.642 81.7897 126.862 81.8763C121.238 82.5474 115.614 83.2836 109.996 84.0197C108.07 84.2723 106.144 84.5104 104.238 84.9579C103.199 85.2032 103.179 85.1599 102.985 84.0486C102.865 83.3557 102.792 82.6629 102.499 82.0206C101.939 80.801 100.853 79.9638 99.8267 80.1226C98.6338 80.3102 97.7409 81.0031 97.2744 82.266C96.9012 83.2764 96.9479 84.3372 96.9745 85.3837C96.9945 86.1053 96.7879 86.3724 96.0815 86.4518C90.2306 87.0941 84.3997 87.9023 78.5421 88.4292C72.3513 88.9849 66.1405 89.0065 59.9297 88.7034C53.2924 88.3714 46.7151 87.4333 40.1245 86.5961C39.2182 86.4806 38.1053 86.8342 37.4656 86.2064C36.8658 85.6146 37.3923 84.4238 37.1591 83.5217C37.0858 83.2403 37.0991 82.9372 37.0324 82.6557C36.7259 81.3495 35.573 80.2308 34.4202 80.1154C33.3406 80.0071 32.1611 80.8298 31.648 82.1361C31.4547 82.6124 31.3548 83.1392 31.2348 83.6444C31.1282 84.0846 31.2682 84.5898 30.935 85.0517C29.1623 84.7847 27.3564 84.4743 25.5505 84.2362C20.4126 83.565 15.268 82.9299 10.1302 82.2732C9.11057 82.1433 8.10431 81.9268 7.08473 81.8474C6.41167 81.7897 6.30505 81.4144 6.31171 80.8154C6.3317 78.7658 6.26507 76.7162 6.36503 74.6811C6.5183 71.5851 6.98477 68.5324 7.52455 65.4869C8.26425 61.33 9.85693 57.5988 12.0427 54.1492C14.0885 50.9233 17.1539 49.2129 20.4326 47.8922C21.7987 47.3437 23.2314 47.0406 24.6709 46.8025C26.3168 46.5282 27.0032 45.8498 27.3098 44.0168C27.7762 41.2022 28.1494 38.366 28.6092 35.5514C29.109 32.5059 29.6555 29.4676 30.2219 26.4366C30.5618 24.5963 31.2415 22.8786 31.8346 21.1177C33.0474 17.5093 35.5264 15.6907 38.825 14.7958C41.6705 14.0164 44.5694 13.7566 47.4682 13.5617C54.5786 13.0926 61.6957 12.7606 68.8261 12.84C74.8702 12.9122 80.9145 13.1215 86.9386 13.5689C89.4043 13.7494 91.8833 13.9226 94.3156 14.5288C95.6884 14.868 97.0212 15.3226 98.3006 15.9577C99.8867 16.7443 100.993 18.0867 101.759 19.7465C103.319 23.124 104.165 26.7324 104.725 30.4419C105.371 34.707 106.051 38.965 106.717 43.2229C106.771 43.5693 106.857 43.9085 106.924 44.2477C107.23 45.7993 108.05 46.6365 109.569 46.8386L109.576 46.8313ZM122.864 21.5508C122.704 21.7023 122.504 21.926 122.597 22.1425C123.444 24.0767 121.918 25.1303 121.151 26.3572C119.938 28.3057 118.146 29.6841 116.32 30.9399C114.907 31.9141 113.574 32.9966 112.315 34.1874C110.762 35.6524 109.509 37.3773 108.456 39.3042C108.456 37.4855 109.203 35.97 110.009 34.4905C110.749 33.1338 111.575 31.842 112.375 30.5213C113.321 28.9552 114.134 27.317 114.747 25.5633C115.307 23.9467 115.467 22.2869 115.187 20.5765C114.914 18.9238 115.3 17.899 116.6 17.0474C118.212 15.9938 119.605 14.6154 121.418 13.2442C121.118 16.0082 121.731 18.2599 122.917 20.3383C123.177 20.793 123.297 21.1538 122.871 21.5508H122.864ZM123.89 22.1353C123.77 22.1786 123.664 22.1642 123.644 22.0415C123.63 21.9477 123.704 21.8466 123.737 21.7456C123.817 21.7961 123.923 21.8322 123.983 21.9044C124.077 22.0126 124.03 22.092 123.897 22.1425L123.89 22.1353ZM132.593 18.6568C131.7 20.0064 130.454 20.7786 128.988 21.1033C128.095 21.3054 127.175 21.3487 126.269 21.4714C124.923 21.5724 124.017 21.0311 123.484 19.6239C123.037 18.4331 122.571 17.2567 122.364 15.9938C122.004 13.7494 122.851 11.707 124.497 10.776C125.416 10.2564 126.356 10.1409 127.222 10.8771C128.028 11.5627 128.222 12.4936 128.002 13.5473C127.955 13.771 127.862 13.9875 127.815 14.2184C127.755 14.5504 127.629 14.9401 127.982 15.1494C128.262 15.3082 128.488 15.07 128.682 14.868C129.435 14.0813 130.321 14.0741 131.24 14.37C133.313 15.034 133.853 16.7588 132.587 18.6712L132.593 18.6568Z" fill="#CEAB80"/>
<path d="M103.739 44.3267C102.859 40.5884 102.492 36.749 101.773 32.9746C101.133 29.6044 100.573 26.2197 99.3936 22.9865C98.7006 21.0957 97.5277 19.8544 95.8018 19.2338C94.529 18.7719 93.2162 18.3894 91.9034 18.0935C87.232 17.0399 82.4806 16.845 77.7425 16.6646C74.184 16.5275 70.6188 16.6357 67.0536 16.6357C61.5958 16.3831 56.1514 16.6213 50.707 16.9605C46.7153 17.2058 42.7702 17.7904 38.9185 19.0317C36.9393 19.674 35.4999 20.8937 34.7602 23.0659C33.8938 25.5918 33.2608 28.1827 32.8076 30.8312C32.0413 35.3057 31.2882 39.7873 30.4819 44.2473C30.3553 44.9618 30.5885 45.2505 31.135 45.3587C32.1412 45.5608 33.1408 45.8278 34.1737 45.8134C37.2058 45.7629 40.1646 45.1061 43.1167 44.4638C50.9402 42.7607 58.7503 41.1008 66.8137 41.1946C71.8516 41.2523 76.8229 41.6637 81.7809 42.5369C87.0987 43.4751 92.3365 44.9041 97.6744 45.7123C99.5136 45.9866 101.34 45.7917 103.139 45.3371C103.599 45.2216 103.878 44.9546 103.732 44.3267H103.739ZM63.3218 17.9997C63.3684 17.5956 63.7016 17.6749 63.9415 17.6749C64.9544 17.6677 65.974 17.6749 66.9869 17.6749C67.9999 17.6822 69.0194 17.6749 70.0323 17.6894C70.2789 17.6894 70.6188 17.6749 70.5588 18.1079C70.5188 18.3894 70.3922 18.6997 70.079 18.7214C68.0065 18.8729 65.934 19.2987 63.8616 18.7214C63.5217 18.6276 63.2618 18.4255 63.3084 18.0069L63.3218 17.9997ZM62.0623 17.6966C62.3022 17.6244 62.5554 17.6966 62.5754 17.9348C62.6887 19.3926 63.695 19.4359 64.6746 19.5585C66.5071 19.7895 68.3197 19.4214 70.1456 19.3853C70.8054 19.3709 71.0853 18.909 71.2119 18.2884C71.3118 17.8193 71.5184 17.5523 71.9915 17.6533C72.5646 17.7688 72.3647 18.2523 72.3647 18.6203C72.3514 19.5225 71.8716 19.941 71.0853 20.1431C69.7658 20.4823 68.4197 20.4679 67.1535 20.5689C65.7408 20.4679 64.388 20.5112 63.0752 20.1215C62.1422 19.8472 61.7291 19.2482 61.7624 18.2379C61.7691 17.9997 61.8024 17.776 62.0623 17.6966ZM31.5681 44.1535C32.3278 43.172 33.7073 42.8689 39.6715 42.3565C38.2787 44.3628 34.5469 45.1855 31.5681 44.1535ZM32.0613 42.804C31.9946 41.9307 32.4544 41.808 32.8609 41.707C33.8539 41.4616 34.8535 41.1946 35.8664 41.0503C37.6723 40.7833 39.4916 40.6028 41.3441 40.3791C41.3108 41.2668 40.8976 41.4977 40.2512 41.5699C37.539 41.8658 34.8068 42.0462 32.0613 42.804ZM40.9709 43.605C40.7977 43.5978 40.7177 43.4679 40.871 43.3019C40.9709 43.1937 41.0576 42.9916 41.2375 43.1432C41.3041 43.2009 41.3241 43.338 41.3774 43.4751C41.2375 43.5256 41.1042 43.6122 40.9709 43.605ZM42.3437 43.1359C42.0238 42.7895 42.0238 42.3998 42.1171 41.9163C42.7236 42.306 42.357 42.7462 42.3437 43.1359ZM43.4299 40.5667C43.4899 41.3823 43.5499 42.205 43.6099 43.0205C42.9235 42.241 43.3233 41.3967 43.4299 40.5667ZM44.5828 42.7751C44.5228 41.274 43.9897 39.7801 44.5095 38.2646C45.0959 40.9565 45.1092 41.8946 44.5828 42.7751ZM46.2155 42.4143C45.9489 42.4503 45.8689 42.241 45.8489 41.9812C45.7157 40.3069 45.5691 38.6254 45.4491 36.9511C45.4291 36.6697 45.4691 36.3593 46.0022 36.2294C46.2088 38.113 46.4154 39.9533 46.6153 41.7936C46.6553 42.1328 46.5287 42.371 46.2155 42.4143ZM47.9747 42.0462C47.6149 42.1472 47.4949 41.9163 47.4883 41.5843C47.4283 39.7296 47.1751 37.9037 46.8619 36.0851C46.7952 35.717 46.8819 35.3923 47.1751 35.3129C47.5616 35.2335 47.6482 35.4067 47.6615 35.6737C47.7682 37.6367 47.9414 39.5925 48.2879 41.5266C48.3279 41.772 48.2213 41.9812 47.9814 42.0462H47.9747ZM49.5141 41.7431C49.1543 41.8441 49.0476 41.606 49.041 41.2812C48.9943 39.311 48.7278 37.3697 48.4479 35.4284C48.4079 35.1397 48.3879 34.7861 48.7211 34.7283C49.1809 34.6417 49.1942 35.1108 49.2276 35.4067C49.3475 36.4387 49.4208 37.4779 49.4741 38.113C49.6207 39.3687 49.7074 40.2276 49.8273 41.0864C49.874 41.4183 49.834 41.6493 49.5074 41.7431H49.5141ZM51.0735 41.44C50.6736 41.5121 50.6336 41.2018 50.627 40.9059C50.587 38.9213 50.4337 36.9439 50.0406 34.9954C49.9806 34.685 50.0406 34.4036 50.3671 34.317C50.8269 34.1943 50.9002 34.5407 50.9335 34.916C51.1001 36.8934 51.2667 38.8636 51.4333 40.841C51.5333 41.1802 51.3867 41.3822 51.0735 41.4328V41.44ZM52.6728 41.1152C52.1664 41.1369 52.2596 40.675 52.2596 40.3647C52.253 38.4955 52.0864 36.6408 51.7465 34.8077C51.6865 34.5046 51.6866 34.2232 52.0531 34.151C52.4129 34.086 52.7061 34.151 52.7395 34.6273C52.7861 35.3273 52.8194 36.0201 52.8527 36.7202C52.9194 37.9398 52.8861 39.1667 53.1393 40.3214C53.1926 40.7688 53.0993 41.0936 52.6728 41.108V41.1152ZM54.3588 40.8121C54.0189 40.8626 53.8857 40.6606 53.8857 40.3214C53.8857 39.6286 53.8857 38.9357 53.8857 38.2429C53.9256 37.081 53.8323 35.9408 53.6324 34.8005C53.5858 34.5335 53.5458 34.1798 53.9523 34.1943C54.2322 34.2015 54.2322 34.483 54.2522 34.6995C54.3988 36.5398 54.3921 38.3945 54.7386 40.2131C54.8053 40.5451 54.692 40.7688 54.3588 40.8193V40.8121ZM56.0647 40.5451C55.565 40.2781 55.6049 39.9677 55.5916 39.6935C55.505 38.1347 55.485 36.5758 55.2451 35.0314C55.1984 34.7283 55.0585 34.2881 55.5716 34.2664C55.8782 34.252 56.0581 34.483 56.0581 34.8149C56.0581 36.6913 56.0581 38.5677 56.0581 40.5379L56.0647 40.5451ZM57.6641 40.4368C57.3376 40.4657 57.151 40.3214 57.151 39.9677C57.1443 38.1924 57.1643 36.4098 56.9577 34.4685C57.5441 34.7572 57.5708 35.0531 57.6041 35.3345C57.784 36.8356 57.6574 38.3656 58.0439 39.8451C58.1239 40.1626 58.0239 40.408 57.6641 40.4441V40.4368ZM59.2234 40.3358C58.7103 40.4152 58.737 39.9966 58.737 39.6646C58.7437 38.2213 58.7437 36.7851 58.5637 35.3273C59.0902 35.3778 59.3767 35.616 59.4167 36.0851C59.5167 37.247 59.59 38.4089 59.6766 39.578C59.7099 39.9677 59.6366 40.2781 59.2234 40.343V40.3358ZM60.7428 40.0399C60.3497 39.2461 60.4629 38.4306 60.4763 37.5357C61.4026 38.3007 60.8894 39.21 60.7428 40.0399ZM62.069 39.9822C61.989 39.9894 61.8557 39.9172 61.8224 39.8451C61.7891 39.7801 61.8624 39.6574 61.889 39.5564C61.9757 39.6141 62.0689 39.6574 62.1423 39.7368C62.2422 39.8523 62.2156 39.975 62.069 39.9822ZM63.5217 39.1378C65.9074 38.6759 68.2331 38.6976 70.6055 39.1089C69.1194 40.3863 65.2943 40.4008 63.5217 39.1378ZM73.4709 40.0183C73.2577 39.2894 72.9178 38.5605 73.5176 37.6006C73.7908 38.546 73.6975 39.2821 73.4709 40.0183ZM75.5101 39.7729C75.5101 40.0976 75.3902 40.3502 75.0636 40.343C74.7771 40.3358 74.5239 40.177 74.5438 39.8234C74.5972 38.546 74.6505 37.2687 74.7504 35.9985C74.7771 35.6304 75.1303 35.4861 75.5101 35.1902C75.5101 36.8717 75.5101 38.3223 75.5101 39.7729ZM77.0695 39.9533C77.0695 40.3214 76.8629 40.4657 76.5563 40.4368C76.3498 40.4152 76.1165 40.3647 76.1565 40.0399C76.3564 38.2285 76.563 36.4243 76.7629 34.6129C76.8695 34.6129 76.9695 34.6201 77.0761 34.6273C77.0761 36.4026 77.0761 38.178 77.0761 39.9533H77.0695ZM78.982 34.851C78.8021 36.7418 78.6422 38.6326 78.4822 40.5018C78.0357 40.5234 77.9491 40.3214 77.9491 40.1843C78.0157 38.3945 78.1024 36.6047 78.1823 34.8077C78.1957 34.4974 78.2756 34.2304 78.6355 34.2592C79.002 34.2809 79.0153 34.519 78.982 34.851ZM80.5347 34.7788C80.4614 35.6449 80.3948 36.5181 80.3614 37.0088C80.3614 38.38 80.3681 39.3687 80.3614 40.3575C80.3614 40.7111 80.1549 40.8554 79.835 40.8193C79.5551 40.7905 79.4618 40.574 79.4951 40.343C79.775 38.445 79.8483 36.5325 79.9216 34.6129C79.9283 34.3531 80.0949 34.1654 80.3348 34.2304C80.588 34.2953 80.5547 34.5479 80.5347 34.7861V34.7788ZM82.394 34.9809C82.0608 36.6913 82.0075 38.4306 81.9808 40.1698C81.9808 40.5379 82.0941 41.1224 81.5476 41.108C80.8746 41.0864 81.1345 40.4585 81.1145 40.0399C81.1145 39.8667 81.1411 39.6935 81.1545 39.5203C81.1678 39.5203 81.1745 39.5203 81.1878 39.5203C81.2744 37.9615 81.3544 36.3954 81.441 34.8366C81.461 34.4757 81.4877 34.1293 81.9475 34.1365C82.5472 34.1365 82.4739 34.5912 82.394 34.9809ZM84.1199 35.0531C83.7534 36.8789 83.6335 38.7265 83.6268 40.5884C83.6268 40.9565 83.7467 41.5049 83.1336 41.4256C82.5805 41.3534 82.7405 40.8554 82.7605 40.2564C83.127 38.6398 83.007 36.7635 83.2736 34.9304C83.3269 34.5768 83.4002 34.1943 83.8534 34.3458C84.1666 34.4469 84.1799 34.7428 84.1132 35.0531H84.1199ZM85.6926 35.7459C85.4594 37.4058 85.2328 39.3038 85.1861 41.2235C85.1795 41.541 85.0795 41.8008 84.7197 41.7503C84.3598 41.6998 84.3398 41.3895 84.3731 41.1008C84.5731 39.1955 84.7796 37.2975 84.9929 35.3995C85.0262 35.1253 84.9929 34.7355 85.3461 34.7355C85.8325 34.7355 85.7192 35.1758 85.6926 35.7459ZM86.5656 42.2771C86.0591 41.6204 86.0525 41.6204 86.2924 38.7842C86.3923 37.5934 86.5256 36.4098 86.6389 35.2407C87.0454 35.2696 87.2853 35.3995 87.2653 35.6376C87.0587 37.7955 86.8188 39.9533 86.5722 42.2771H86.5656ZM88.2982 41.9668C88.2782 42.1905 88.2182 42.4359 87.9384 42.4143C87.6718 42.3926 87.5918 42.1544 87.6118 41.9163C87.7917 40.0327 87.9783 38.1563 88.1782 36.1645C88.6647 36.3738 88.818 36.5686 88.7913 36.7996C88.6381 38.5244 88.4715 40.242 88.2982 41.9596V41.9668ZM89.6976 42.8545C89.0179 41.974 89.1179 39.6286 89.8775 38.1852C89.9375 39.8162 89.8576 41.2884 89.6976 42.8545ZM90.8771 43.0205C90.3907 42.205 90.6972 41.4255 90.9504 40.5018C91.2103 41.4328 91.0504 42.2266 90.8771 43.0205ZM91.9567 43.1576C91.7368 42.7967 91.7568 42.4287 91.97 41.9307C92.1699 42.4359 92.1833 42.804 91.9567 43.1576ZM91.1903 38.3223C89.5044 33.9417 85.9125 33.1839 82.1607 32.8159C80.4348 32.6499 78.7088 32.8736 77.0228 33.2994C75.0436 33.8046 73.431 34.8943 72.5047 36.9367C72.0915 37.8532 71.4984 38.1419 70.5655 38.0409C68.2531 37.7883 65.9274 37.8027 63.615 38.0336C62.782 38.113 62.1556 37.9615 61.7558 37.081C60.5296 34.3819 58.3305 33.4004 55.7316 33.0107C53.2859 32.6427 50.8935 32.7726 48.5079 33.4293C46.2754 34.0427 44.3562 35.1253 43.4166 37.579C42.9701 38.7409 42.2238 39.0873 41.0642 39.21C38.2321 39.5131 35.3466 39.5853 32.6677 40.7039C32.3545 40.3502 32.4544 39.9822 32.5211 39.6646C33.3674 35.5005 33.8005 31.2498 34.7801 27.1218C35.0867 25.8227 35.5132 24.5598 35.9663 23.3113C36.5394 21.7092 37.619 20.6988 39.0984 20.273C43.2234 19.1039 47.4016 18.2451 51.6799 18.0574C54.1589 17.9492 56.6379 17.8121 59.1168 17.6966C59.6966 17.6677 60.2897 17.5378 60.9228 17.7976C60.8961 18.0791 60.8561 18.3605 60.8428 18.6492C60.7962 20.1864 61.2493 20.9875 62.6287 21.3411C65.5609 22.0916 68.5263 22.07 71.4584 21.3844C73.0311 21.0163 73.371 20.2513 73.3443 17.7688C74.8237 17.7688 76.3164 17.6461 77.7892 17.7976C80.4214 18.0719 83.0737 17.9564 85.7059 18.3317C88.8646 18.7863 91.9967 19.3492 95.0688 20.2658C96.5548 20.706 97.6344 21.6875 98.2341 23.268C98.9072 25.0578 99.4603 26.8908 99.8001 28.7817C100.493 32.6138 101.1 36.4676 101.739 40.3142C101.819 40.4801 101.879 40.6533 101.686 40.7544C101.626 40.7832 101.506 40.6678 101.413 40.6245C98.5073 39.6141 95.4753 39.4914 92.4765 39.1522C91.8834 39.0873 91.4369 38.9502 91.197 38.3295L91.1903 38.3223ZM92.7764 40.3935C95.7618 40.7327 98.594 40.9059 101.353 41.6998C101.506 41.7431 101.659 41.808 101.806 41.873C102.099 42.0029 102.219 42.2483 102.119 42.5658C102.033 42.8473 101.806 42.7751 101.593 42.7462C100.48 42.5802 99.3603 42.4359 98.2474 42.2771C96.868 42.0751 95.4952 41.8225 94.1091 41.6709C93.4427 41.5988 93.0029 41.3534 92.7764 40.3863V40.3935ZM94.4357 42.306C97.2545 42.9483 100.007 43.1937 103.032 43.9659C99.8934 45.2216 96.175 44.4494 94.4357 42.306Z" fill="#CEAB80"/>
<path d="M90.9902 58.6019C90.9902 58.6019 91.2168 58.1328 91.3434 57.8874C91.5566 57.4472 91.6766 56.9276 91.3567 56.5668C90.6103 55.7296 90.8503 54.4667 90.0772 53.579C89.3442 52.7418 89.3775 51.1613 87.9181 50.9737C87.6649 50.9448 87.6516 50.6562 87.5783 50.4397C87.4183 49.9417 87.0451 49.6386 86.592 49.7108C86.1122 49.7829 85.9189 49.5448 85.719 49.1767C85.5524 48.8592 85.2859 48.6643 84.946 48.5994C83.9597 48.3973 83.28 47.1488 82.1005 47.6251C81.2275 46.7446 79.988 47.6395 79.0817 46.8962C79.0018 46.8312 78.7352 46.8962 78.6286 46.9972C78.0155 47.5746 77.4091 47.7045 76.6294 47.3003C76.1296 47.0405 75.7831 48.0148 75.17 47.755C74.4703 47.4591 73.9105 47.755 73.4441 48.3251C73.3041 48.4911 73.1975 48.7365 72.9309 48.6354C72.0113 48.3035 71.3449 48.5705 70.9784 49.5736C69.6723 49.7324 69.0459 50.5623 68.686 51.9047C68.586 52.2727 67.8597 52.5398 67.7864 53.2037C67.7397 53.6223 67.4532 53.7883 67.1 53.7955C66.7268 53.8027 66.5002 53.579 66.4136 53.1965C66.187 52.1356 64.9675 51.7243 64.9542 50.4757C64.9542 50.0932 64.4611 49.819 64.0612 49.8912C63.1616 50.0572 63.095 49.1045 62.6418 48.7004C62.0487 48.1736 61.2624 49.0612 60.8359 48.4262C59.9629 47.1271 58.5168 48.0509 57.5039 47.3003C57.3173 47.1632 56.6376 47.7189 56.5043 47.5818C55.6514 46.7302 54.8184 47.1055 53.8454 47.2498C53.1724 47.3508 52.4993 47.6179 51.8996 47.6251C51.0133 47.6323 50.4868 48.0725 49.7804 48.4189C49.0807 48.7581 48.5476 49.6025 48.0078 49.6169C46.6417 49.6675 46.3485 51.284 45.189 51.5294C44.9224 51.5871 42.5967 56.6678 42.69 56.942C43.0898 58.0823 43.1365 59.1504 42.5034 60.204C43.0632 60.9546 42.8699 61.7412 42.6967 62.5784C42.6034 63.0186 43.2298 63.4516 42.81 64.0073C42.4301 64.5053 42.5967 64.9816 42.9699 65.4074C43.2631 65.7466 43.8695 65.8548 43.5163 66.6198C43.2698 67.1538 43.5497 67.6951 44.0828 67.8755C44.7891 68.1137 45.0024 68.6116 45.1956 69.3405C45.3556 69.9323 46.1019 70.1128 45.9753 71.1375C45.8021 72.5376 47.9478 72.7325 47.8879 74.3635C47.8812 74.6088 48.3477 74.847 48.6809 74.8759C49.4006 74.948 49.8937 75.1862 49.9337 76.1099C49.9537 76.6007 50.2936 77.0048 50.76 77.0698C51.553 77.1925 52.1395 77.5461 52.5193 78.3399C52.6659 78.6431 53.0391 78.7585 53.3723 78.773C53.7721 78.7946 54.092 78.8596 54.2453 79.3575C54.4385 79.9637 54.945 80.2163 55.4714 80.3967C55.7646 80.4978 56.0912 80.4328 56.2511 80.8731C56.5643 81.7535 57.2107 81.9556 58.057 82.0061C58.7701 82.0494 58.8967 83.3629 59.8163 83.2763C59.9762 83.2618 60.1429 83.2474 60.3028 83.2763C60.4427 83.3123 60.6493 83.3773 60.696 83.5C61.1358 84.5897 61.8688 85.1093 62.9884 85.0588C63.4082 85.0372 63.2549 86.0908 63.9213 85.7805C63.6481 86.2352 64.0812 86.3218 64.2945 86.3579C64.741 86.4372 65.1675 86.5311 65.5473 86.8053C66.0538 88.1981 67.2333 86.5744 67.9063 87.3971C68.0063 87.5125 68.4861 87.3466 68.5727 86.9424C68.5794 86.9063 68.5461 86.863 68.5194 86.8197C70.1387 86.7836 71.045 85.1743 72.5111 84.6619C73.3974 84.3516 74.1105 83.3051 75.15 82.8433C75.7431 82.5834 76.1696 81.8257 77.0093 81.8834C77.2158 81.8978 77.5624 81.6236 77.6357 81.3999C77.8822 80.6205 78.4553 80.4184 79.0817 80.2308C79.5216 80.0936 79.8148 79.74 79.9947 79.2998C80.1413 78.9389 80.3545 78.7585 80.7344 78.773C81.0609 78.7802 81.4408 78.7008 81.6074 78.4049C82.0472 77.6183 82.6669 77.2358 83.4933 77.0409C84.3463 76.8388 84.133 75.7707 84.5195 75.2439C84.9393 74.6666 86.0056 75.0202 86.4587 74.1903C86.6053 73.9232 86.6453 73.649 86.632 73.3531C86.612 73.0211 86.7253 72.8263 87.0318 72.7036C87.9448 72.3355 88.4712 71.686 88.218 70.553C88.138 70.1993 88.318 70.0334 88.5712 69.8746C88.8577 69.6942 89.1643 69.4344 89.1509 69.0807C89.1309 68.3302 89.5574 68.1065 90.0906 67.8972C90.5171 67.7312 90.9769 67.3415 90.7703 66.8796C90.4304 66.1002 90.697 65.7393 91.2567 65.3713C91.41 65.2703 91.5766 64.9383 91.53 64.7867C91.2634 63.8991 91.6233 62.9392 91.4233 62.167C91.1168 60.9835 92.3896 59.5978 90.9969 58.6091L90.9902 58.6019ZM90.7703 57.0142C91.0502 57.7359 90.4371 57.9812 89.9973 58.4215C89.824 57.8225 89.3509 57.3173 89.8173 56.8121C90.0506 56.5595 90.5904 56.5595 90.7636 57.0142H90.7703ZM90.2039 55.2244C90.2905 55.6141 89.9973 55.9533 89.6907 55.9317C88.9977 55.8884 89.0643 55.2244 88.911 54.6904C89.5508 54.4739 90.0439 54.4883 90.2105 55.2244H90.2039ZM88.7511 53.4852C88.8377 53.4779 88.931 53.5501 89.0377 53.5862C88.971 53.6511 88.9177 53.7377 88.8444 53.7666C88.6978 53.8243 88.5379 53.8099 88.4845 53.6151C88.4845 53.6006 88.6578 53.4924 88.7578 53.4779L88.7511 53.4852ZM87.3184 52.2944C87.365 51.9696 87.6649 51.8902 87.9181 51.8614C88.2646 51.8181 88.3779 52.0923 88.3113 52.3954C88.2513 52.6697 88.0781 52.8934 87.7715 52.9006C87.5449 52.7635 87.2717 52.6191 87.3117 52.2944H87.3184ZM86.3321 50.7211C86.552 50.6417 86.5853 50.8221 86.6653 51.0026C86.6053 51.1253 86.532 51.3778 86.4587 51.3778C86.2855 51.3778 86.0122 51.3923 86.0389 51.0531C86.0522 50.8582 86.1855 50.7789 86.3388 50.7283L86.3321 50.7211ZM84.6994 49.4365C84.946 49.4004 85.066 49.6025 85.1059 49.8551C85.1059 50.1077 85.026 50.3603 84.7728 50.3458C84.5262 50.3386 84.1797 50.3097 84.1597 49.9417C84.1397 49.5881 84.4462 49.4726 84.6994 49.4365ZM83.2867 48.7365C83.44 48.8953 83.4133 49.22 83.2667 49.3644C82.8469 49.7901 82.527 49.4293 82.1205 49.0685C82.547 48.7293 82.8469 48.2818 83.2867 48.7365ZM81.0609 47.9571C81.3075 47.9065 81.4275 48.1086 81.4408 48.3684C81.4608 48.686 81.3808 48.953 81.0343 48.9169C80.861 48.8953 80.5678 48.9313 80.6011 48.5777C80.6344 48.2746 80.7877 48.022 81.0676 47.9643L81.0609 47.9571ZM78.9418 47.7839C79.3083 47.7045 79.5949 47.9643 79.6348 48.289C79.7015 48.8159 79.2817 48.6932 78.9951 48.686C78.7885 48.6788 78.5886 48.6354 78.2887 48.5921C78.3887 48.0509 78.6286 47.8488 78.9418 47.7839ZM76.7494 48.1086C76.956 48.1664 77.1425 48.289 77.1425 48.5849C77.1159 48.8014 76.9493 48.8159 76.796 48.8159C76.5761 48.8159 76.3495 48.7654 76.3429 48.4622C76.3429 48.1808 76.4961 48.0365 76.7494 48.1014V48.1086ZM74.7035 48.52C74.9168 48.52 75.1234 48.5633 75.2167 48.8447C75.1633 49.3283 74.7568 49.1839 74.4903 49.2922C74.2904 49.3716 74.0171 49.4004 74.0305 49.0829C74.0438 48.6715 74.357 48.5272 74.7102 48.52H74.7035ZM72.2312 49.4077C72.4178 49.4149 72.6244 49.5664 72.6244 49.7974C72.5178 50.1798 72.2779 50.2737 72.0047 50.2881C71.7847 50.3025 71.7647 50.1077 71.7647 49.9489C71.7647 49.6314 71.938 49.386 72.2312 49.4004V49.4077ZM70.372 50.6417C70.5986 50.6562 70.7785 50.7211 70.7785 51.017C70.6052 51.4211 70.3253 51.6737 69.9188 51.6593C69.8589 51.6593 69.7722 51.3706 69.7589 51.2046C69.7256 50.7428 69.9988 50.6201 70.3653 50.6345L70.372 50.6417ZM68.8193 52.7996C68.8793 52.7923 68.9526 52.8934 69.0192 52.9511C68.9192 53.081 68.8193 53.2109 68.706 53.3553C68.6394 53.2759 68.5594 53.2181 68.5461 53.146C68.5128 52.9367 68.6527 52.8284 68.8126 52.8068L68.8193 52.7996ZM67.7864 54.5749C67.9263 54.5749 67.973 54.6687 67.873 54.943C67.873 54.943 67.813 55.1811 67.7131 55.21C67.5598 55.2461 67.5065 55.044 67.5131 54.8852C67.5131 54.7048 67.6131 54.5821 67.7864 54.5749ZM66.4003 54.546C66.5602 54.5244 66.6668 54.6759 66.7135 54.8419C66.6802 54.9357 66.6668 55.0873 66.6069 55.1089C66.4469 55.1667 66.327 55.0584 66.267 54.8997C66.207 54.7409 66.227 54.5677 66.4003 54.546ZM64.4811 51.1686C64.5144 51.2985 64.3944 51.5871 64.3078 51.6016C63.7347 51.7315 63.4748 51.3634 63.3415 50.8077C63.8347 50.5768 64.2945 50.418 64.4744 51.1613L64.4811 51.1686ZM61.9421 49.3932C62.282 49.3788 62.3753 49.653 62.4552 49.9417C62.5085 50.1871 62.3486 50.252 62.1953 50.2737C61.8888 50.317 61.6356 50.1365 61.5689 49.8551C61.5289 49.6747 61.6822 49.4076 61.9488 49.4004L61.9421 49.3932ZM60.2961 49.1623C59.8474 49.2104 59.321 49.1166 58.7168 48.8808C59.5298 48.354 59.9696 48.455 60.2961 49.1623ZM57.0774 48.4767C57.1374 48.2169 57.3307 48.123 57.5572 48.1158C57.7705 48.1158 57.7972 48.289 57.7838 48.4695C57.7638 48.7654 57.5972 48.852 57.0308 48.7293C57.1774 48.7654 57.0308 48.6932 57.0774 48.4767ZM55.0782 47.7839C55.4114 47.755 55.678 47.9354 55.8246 48.2746C55.8113 48.6787 55.5181 48.6571 55.2715 48.6787C54.9716 48.7076 54.5918 48.8303 54.5651 48.3179C54.5518 48.0076 54.805 47.8127 55.0716 47.7839H55.0782ZM52.7126 48.3612C52.7392 48.087 52.9125 47.9931 53.1191 47.9354C53.399 48.0364 53.5589 48.2385 53.5722 48.5561C53.5922 48.888 53.3456 48.9241 53.1591 48.9169C52.8725 48.9025 52.6859 48.7148 52.7192 48.3612H52.7126ZM50.8666 48.8736C50.9333 48.4983 51.2332 48.5055 51.4731 48.6138C51.6797 48.7076 51.8462 48.9169 52.0262 49.0685C51.7663 49.4365 51.4931 49.6097 51.1732 49.5375C50.8667 49.4726 50.82 49.1478 50.8733 48.8736H50.8666ZM49.5672 49.4582C49.7671 49.5087 50.0203 49.6025 50.0337 49.8695C50.047 50.252 49.7404 50.2881 49.4939 50.3458C49.2406 50.3386 49.0607 50.2376 49.0741 49.9417C49.094 49.6241 49.214 49.3643 49.5672 49.4582ZM47.7746 50.6922C48.0012 50.7211 48.1811 50.8222 48.2011 51.0892C48.2211 51.2912 48.0545 51.3418 47.9079 51.3851C47.6746 51.3706 47.5214 51.2335 47.5014 50.9809C47.488 50.8005 47.568 50.6634 47.7746 50.6922ZM46.1486 51.8542C46.4751 51.8469 46.8616 51.9263 46.9016 52.316C46.9283 52.5614 46.6617 52.8068 46.3285 52.8934C46.0486 52.879 45.9153 52.6119 45.8487 52.3449C45.7887 52.1212 45.8754 51.8542 46.1486 51.8469V51.8542ZM43.9628 55.1234C44.236 54.51 44.7225 54.3945 45.3223 54.7481C45.049 55.2028 45.2223 56.0471 44.4093 55.9028C44.1028 55.8523 43.8095 55.4698 43.9628 55.1162V55.1234ZM43.3697 57.0719C43.4497 56.6822 43.8829 56.5956 44.1694 56.7327C44.9091 57.0864 44.3293 57.707 44.416 58.4143C43.6763 58.0606 43.2298 57.7503 43.3697 57.0719ZM43.2364 60.1102C43.2564 59.7205 43.543 59.5184 43.8695 59.4679C44.256 59.4102 44.236 59.7494 44.2494 60.0453C44.1961 60.3267 44.3693 60.803 43.8495 60.7453C43.543 60.7092 43.2165 60.5216 43.2364 60.103V60.1102ZM43.4497 62.499C43.443 62.1742 43.6363 61.9577 43.9295 61.9216C44.3826 61.8711 44.4093 62.2536 44.436 62.6C44.4493 62.9104 44.4026 63.2062 44.0428 63.1774C43.6829 63.1485 43.463 62.8887 43.4497 62.499ZM43.5696 64.563C43.623 64.2743 43.9428 64.1805 44.2027 64.1156C44.6359 64.0073 44.7558 64.3321 44.7958 64.6929C44.8225 64.9022 44.9757 65.1331 44.7625 65.3136C44.5359 65.4435 44.336 65.3641 44.1561 65.2558C43.8962 65.097 43.4897 65.0032 43.5696 64.5702V64.563ZM44.2893 67.0673C44.898 66.5765 45.3933 66.6872 45.7754 67.3992C45.1157 67.5724 44.6892 67.4064 44.2893 67.0673ZM46.3152 69.3189C46.022 69.3189 45.7887 69.2034 45.7954 68.8498C45.7954 68.6333 45.862 68.3663 46.1353 68.3663C46.4551 68.3663 46.5551 68.6838 46.6484 68.922C46.755 69.189 46.5551 69.3117 46.3152 69.3189ZM48.3344 71.8809C47.8079 72.0036 47.4614 71.8231 47.1615 71.5994C46.8483 71.3685 46.815 71.0437 47.1015 70.7262C47.3681 70.4303 47.628 70.3437 47.8546 70.7623C48.0345 71.1015 48.421 71.3252 48.3344 71.8809ZM49.0407 73.8799C48.7075 73.7428 48.6676 73.4902 48.8608 73.216C49.0074 72.9995 49.1807 72.6892 49.4939 72.9634C49.7738 73.2088 50.1003 73.4397 50.2003 73.9882C49.7471 74.1542 49.4006 74.0315 49.0474 73.8799H49.0407ZM51.0199 75.9367C50.8133 75.6914 50.8467 75.381 51.0532 75.1501C51.2332 74.9408 51.4464 75.0346 51.6063 75.2078C51.8196 75.446 52.1728 75.5759 52.1461 76.0378C51.7529 76.2904 51.3598 76.3337 51.0266 75.9367H51.0199ZM54.1053 77.7554C53.4478 77.8179 53.088 77.5004 53.0258 76.8028C53.3723 76.7522 53.5722 77.0337 53.8121 77.2285C53.972 77.3585 54.1653 77.4811 54.1053 77.7626V77.7554ZM54.925 78.4338C55.6047 78.5059 55.8779 78.9678 56.3244 79.2348C55.6847 79.4898 55.2182 79.2228 54.925 78.4338ZM57.3706 81.1834C57.0308 80.9885 56.7243 80.6782 57.0108 80.2308C57.284 79.805 57.5639 80.173 57.8038 80.3462C58.0104 80.4978 58.3036 80.5916 58.3236 81.0607C57.9904 81.2556 57.6705 81.3494 57.3706 81.1762V81.1834ZM59.6297 82.4824C59.3965 82.3236 59.1832 82.0566 59.3498 81.7752C59.5764 81.3927 59.803 81.7968 60.0162 81.8906C60.2161 81.9772 60.3961 82.1143 60.4627 82.4608C60.1428 82.6123 59.8763 82.6556 59.6297 82.4896V82.4824ZM61.2224 82.8866C62.0754 83.1464 62.5352 83.5 63.0083 83.8897C62.3775 84.2986 61.7822 83.9643 61.2224 82.8866ZM64.2212 85.665C64.1479 85.6506 64.0612 85.6939 63.9813 85.73C64.2012 85.4124 63.4948 84.7629 64.2478 84.698C64.5877 84.6691 65.1008 84.9289 65.0941 85.3258C65.0808 85.9032 64.601 85.7516 64.2278 85.665H64.2212ZM66.0471 86.697C65.9405 86.661 65.8405 86.6104 65.7472 86.6177C65.7672 86.5166 65.7272 86.3939 65.7072 86.2785C65.6539 85.9898 65.7939 85.7949 66.0271 85.8527C66.2737 85.9104 66.5336 86.098 66.5069 86.4445C66.4869 86.7476 66.2737 86.7764 66.0471 86.7043V86.697ZM67.6797 86.5238C67.5731 86.0042 67.9796 85.8815 68.3661 85.8455C68.606 86.1341 68.3395 86.4733 68.4394 86.7692C68.1862 86.6321 67.7531 86.9208 67.6731 86.5238H67.6797ZM69.3591 85.7011C69.2458 85.665 69.0792 85.4052 69.1058 85.3331C69.2924 84.8784 69.6723 84.6835 70.1121 84.6763C70.2387 84.6763 70.392 84.8351 70.392 84.8351C70.1454 85.5351 69.8655 85.8527 69.3591 85.7011ZM71.1317 84.0052C71.5648 83.435 72.1579 83.2835 72.7777 82.7855C72.4112 84.3949 72.3578 84.431 71.1317 84.0052ZM74.457 82.5257C74.2837 82.5979 73.9438 82.5979 73.8639 82.4752C73.624 82.1288 73.9905 82.0277 74.1771 81.8906C74.3437 81.7607 74.5503 81.6813 74.7968 81.5514C75.0234 82.1793 74.7502 82.403 74.457 82.5257ZM75.8897 81.0751C76.0163 80.3174 76.6161 80.2813 77.2825 79.8194C77.1958 81.2411 76.7294 81.436 75.8897 81.0751ZM77.7889 79.4369C78.2488 78.8884 78.6086 78.5997 79.0751 78.4265C79.0573 79.1145 78.6286 79.4513 77.7889 79.4369ZM80.4678 77.9575C80.2546 77.9575 79.9814 77.842 80.088 77.5966C80.2679 77.1997 80.6211 76.9254 81.0276 76.81C81.1609 76.7739 81.2942 76.9543 81.2875 77.2719C81.2209 77.6543 80.961 77.9502 80.4745 77.9502L80.4678 77.9575ZM82.6403 76.211C82.3871 76.211 82.1138 76.1893 82.1205 75.9295C82.1338 75.4027 82.5603 75.2006 82.9335 75.0491C83.0535 74.9986 83.3133 75.2367 83.3133 75.5037C83.3267 76.0306 82.9935 76.1605 82.6403 76.2182V76.211ZM77.7623 78.0946C75.1767 80.1153 72.4178 81.8257 69.7256 83.6732C69.0858 84.1062 68.4661 84.5753 67.853 85.0444C67.3599 85.4197 66.9067 85.4702 66.3803 85.066C62.3953 82.071 58.0504 79.6678 54.2786 76.3192C51.1998 73.5913 48.421 70.5819 46.6417 66.6848C44.8758 62.8165 44.6159 58.8401 46.5284 54.9213C47.3014 53.3336 48.5343 52.2006 50.0403 51.4139C52.7525 49.9994 55.5514 49.5448 58.5302 50.2448C61.1891 50.8654 63.3082 52.3016 64.8876 54.6976C65.4207 55.5059 65.9471 56.3142 66.4936 57.108C66.98 57.8225 67.2399 57.8297 67.7064 57.1441C68.2529 56.3502 68.766 55.5275 69.3057 54.7265C71.9113 50.9015 76.6561 49.0324 80.941 50.1871C83.5599 50.8871 85.9523 51.9913 87.5116 54.5821C88.6245 56.4224 88.9643 58.4503 88.8977 60.803C89.0443 63.8558 87.8515 66.627 86.1922 69.2251C83.9198 72.783 80.9743 75.5831 77.7623 78.1018V78.0946ZM85.4191 73.483C85.1859 74.1398 84.6528 74.0531 84.1797 74.0531C84.113 73.9593 84.0597 73.9088 84.0664 73.8799C84.2463 73.3675 84.4062 72.7758 85.0926 72.9634C85.2392 73.0067 85.4658 73.3603 85.4191 73.483ZM87.0451 71.5778C86.7119 71.8304 86.3254 72.1046 85.779 71.8087C85.8456 71.2747 86.1522 71.0076 86.3854 70.7045C86.5653 70.4664 86.8052 70.387 87.0518 70.6829C87.3184 71.0004 87.3384 71.3541 87.0385 71.5778H87.0451ZM87.9714 69.3045C87.7915 69.3333 87.5183 69.3478 87.5583 68.9869C87.5916 68.6766 87.7782 68.4817 88.0114 68.3302C88.218 68.4024 88.3913 68.5178 88.4312 68.7776C88.4979 69.1746 88.2247 69.2684 87.9714 69.3117V69.3045ZM88.4512 67.4137C88.7933 66.7257 89.2753 66.5861 89.8973 66.9951C89.5041 67.493 89.0243 67.5363 88.4512 67.4137ZM89.2776 65.3857C89.5441 64.4235 90.015 64.1661 90.6903 64.6135C90.4304 65.1981 89.9773 65.3785 89.2776 65.3857ZM90.757 62.6722C90.6703 62.9609 90.4637 63.1918 90.1705 63.1846C89.6507 63.1774 89.7973 62.7588 89.8173 62.4268C89.8373 62.1021 89.9373 61.8711 90.2172 61.8856C90.637 62.0299 90.8836 62.2464 90.757 62.6722ZM90.9769 60.2473C90.9436 60.5649 90.5437 60.8752 90.2372 60.7669C89.5375 60.5216 90.1106 59.9081 89.844 59.403C90.6303 59.4896 91.0435 59.6916 90.9769 60.2473Z" fill="#CEAB80"/>
<path d="M97.5944 48.7147C93.5027 46.9971 89.2644 45.965 84.9196 45.3083C80.3215 44.6155 75.7433 43.8361 71.0853 43.9227C69.5259 43.9516 67.9599 43.7784 66.4005 43.8361C63.2751 43.9588 60.1497 43.901 57.0244 44.1825C54.1189 44.4495 51.26 45.0485 48.3679 45.4454C44.183 46.0228 40.118 47.1703 36.1996 48.8734C35.7797 49.0539 35.2133 49.0827 35.1533 50.0714C56.4179 43.1794 77.6559 43.1794 99.1737 50.1075C98.7672 48.9673 98.1142 48.9312 97.601 48.7147H97.5944Z" fill="#CEAB80"/>
<path d="M18.6334 53.7448C14.3751 53.651 10.8232 57.4976 10.8232 62.037C10.8232 66.3671 14.2152 69.9322 18.3668 69.9683C22.6784 70.0044 26.3635 66.1722 26.3169 61.604C26.2769 57.2378 23.4647 53.8531 18.6334 53.7521V53.7448ZM18.2269 68.5394C14.775 68.4961 12.0827 65.5083 12.1494 61.7844C12.216 57.945 15.2681 54.8995 19.0066 54.9356C22.1786 54.9645 25.0174 58.2193 24.9308 61.7195C24.8375 65.5299 21.8387 68.5754 18.2269 68.5394Z" fill="#CEAB80"/>
<path d="M115.72 69.9543C119.905 69.9615 123.277 66.4974 123.317 62.1456C123.364 57.5557 119.912 53.7019 115.667 53.7524C110.802 53.8102 107.95 57.2165 107.917 61.4889C107.883 66.1438 111.402 69.9542 115.727 69.9615L115.72 69.9543ZM115.38 54.8927C119.119 55.0803 122.024 58.0609 122.011 61.9869C121.998 65.6747 119.359 68.5181 115.94 68.5397C112.228 68.5614 109.316 65.4149 109.283 61.5105C109.25 58.0609 112.455 54.7412 115.387 54.8855L115.38 54.8927Z" fill="#CEAB80"/>
<path d="M104.698 65.7679C102.439 61.6616 101.047 57.3387 101.16 52.5106C101.173 51.9621 101.22 51.3703 100.667 50.959C100.074 51.6302 100.2 52.4312 100.18 53.1601C100.034 57.4036 101.027 61.3584 102.899 65.0679C103.392 66.0422 103.945 66.9731 104.425 67.9546C106.078 71.3393 107.304 74.8611 107.444 78.7438C107.477 79.5954 107.657 80.447 107.77 81.2986C108.597 80.0501 108.637 79.8335 108.523 78.2819C108.197 73.7714 106.818 69.6073 104.698 65.7607V65.7679Z" fill="#CEAB80"/>
<path d="M33.0809 52.5031C33.0809 57.1147 31.9547 61.3726 29.7222 65.2985C28.9292 66.6914 28.2428 68.1564 27.6831 69.672C26.5236 72.8329 25.5639 76.0444 25.6639 79.5085C25.6839 80.1652 25.6039 80.8725 26.2103 81.3849C26.5435 80.8147 26.6568 80.2518 26.6702 79.6673C26.7901 74.7382 28.3695 70.2998 30.7218 66.1718C32.5144 63.0252 33.5073 59.6045 33.9872 55.996C34.2071 54.3362 34.2337 52.6546 33.5407 50.7422C33.0342 51.4855 33.0875 52.0051 33.0875 52.5103L33.0809 52.5031Z" fill="#CEAB80"/>
<path d="M116.746 72.6963C114.634 72.6963 113.154 74.183 113.161 76.3119C113.161 78.6646 115 80.5338 117.286 80.5266C119.299 80.5266 120.805 79.0327 120.825 77.0336C120.845 74.7675 118.905 72.7035 116.746 72.6963ZM117.206 79.1626C115.753 79.1048 114.261 77.5027 114.267 76.0233C114.274 74.6881 115.314 73.6417 116.58 73.685C118.219 73.7355 119.658 75.2871 119.572 76.9037C119.499 78.2893 118.519 79.2203 117.199 79.1698L117.206 79.1626Z" fill="#CEAB80"/>
<path d="M17.5337 72.689C15.3813 72.6529 13.4088 74.6375 13.3621 76.8892C13.3221 78.9748 14.8348 80.5337 16.894 80.5264C19.1731 80.5264 21.019 78.6861 21.0723 76.3623C21.1189 74.3055 19.5996 72.725 17.5337 72.689ZM16.874 79.1625C15.6012 79.1625 14.7215 78.2748 14.6616 76.918C14.5816 75.2076 15.9344 73.7426 17.6337 73.6993C18.8732 73.6704 19.8128 74.6014 19.8728 75.9221C19.9461 77.5242 18.4267 79.1625 16.874 79.1625Z" fill="#CEAB80"/>
<path d="M118.972 89.6271C121.231 89.3384 123.564 89.2302 125.636 87.9961C121.098 88.8477 116.527 89.4106 111.962 90.2117C114.314 90.3921 116.64 89.9302 118.966 89.6343L118.972 89.6271Z" fill="#CEAB80"/>
<path d="M38.0853 92.2612C42.3569 92.853 46.6284 93.4376 50.9733 93.2355C46.6884 92.7448 42.4102 92.2613 38.1253 91.7705C38.1119 91.9365 38.0986 92.0953 38.0786 92.2612H38.0853Z" fill="#CEAB80"/>
<path d="M100.347 87.7795C99.507 87.765 98.6207 88.6166 98.5674 89.4899C98.5141 90.2837 99.2004 90.9693 100.053 90.9765C100.853 90.9765 101.693 90.1899 101.739 89.3888C101.793 88.5661 101.126 87.7939 100.347 87.7795ZM100.107 89.9734C99.7335 90.0095 99.3937 89.8218 99.407 89.4466C99.4204 89.1002 99.7602 88.8981 100.12 88.8837C100.413 88.8692 100.64 88.9703 100.72 89.3239C100.667 89.7064 100.48 89.9373 100.107 89.9734Z" fill="#CEAB80"/>
<path d="M34.0272 87.794C33.2409 87.7146 32.5478 88.3281 32.4745 89.1724C32.4012 90.0529 33.1809 90.9478 34.0605 90.9839C34.8402 91.0199 35.6532 90.3416 35.6799 89.6343C35.7132 88.8693 34.8202 87.8806 34.0205 87.8012L34.0272 87.794ZM34.1938 89.9807C33.7673 89.9807 33.4608 89.7714 33.5207 89.259C33.5607 88.9126 33.8406 88.8405 34.1272 88.8982C34.4537 88.9559 34.7469 89.0714 34.7669 89.5116C34.7003 89.8436 34.4804 89.9879 34.1938 89.9807Z" fill="#CEAB80"/>
<path d="M66.5537 94.8449C69.9523 94.9026 73.3309 94.6212 76.6762 93.8057C73.3109 94.015 69.939 94.2315 66.5737 94.4407C66.5737 94.5779 66.5604 94.7078 66.5537 94.8449Z" fill="#CEAB80"/>
<path d="M7.58441 87.2306C6.0517 86.6461 5.67853 86.0832 5.61189 84.3223C4.9255 84.9068 5.02546 85.5419 5.34532 86.177C5.75849 86.9708 6.42488 87.4688 7.21123 87.7503C8.37742 88.1688 9.58358 88.3853 11.0696 88.5513C10.5232 88.1039 10.1567 87.974 9.74352 87.8729C9.01716 87.6925 8.28412 87.5049 7.57775 87.2379L7.58441 87.2306Z" fill="#CEAB80"/>
<path d="M12.2427 88.6167C14.9082 88.9991 17.5472 89.5765 20.2127 89.3672C17.5738 88.9847 14.9282 88.6022 12.2893 88.2197L12.2427 88.6167Z" fill="#CEAB80"/>
<path d="M127.235 87.3254C128.055 87.3326 128.588 86.9285 128.908 86.1996C129.208 85.4995 129.021 84.8861 128.442 84.5686C128.182 84.4242 127.908 84.6985 127.962 84.7851C128.741 85.9903 127.788 86.546 127.235 87.3254Z" fill="#CEAB80"/>
<path d="M78.5688 94.0227C79.8883 94.3114 80.8679 93.799 81.8942 93.6402C80.8346 93.5175 79.7817 93.3948 78.5688 94.0227Z" fill="#CEAB80"/>
<path d="M105.678 90.478C106.971 90.7739 108.337 90.8028 109.963 90.4492C108.37 90.0667 107.057 90.4275 105.678 90.478Z" fill="#CEAB80"/>
<path d="M100.08 95.7465C99.9533 95.8836 99.88 96.0568 100.067 96.1723C100.16 96.23 100.253 96.0857 100.24 95.9413C101.226 94.7145 101.293 94.2526 100.593 93.1484C100.613 94.1155 100.5 94.9743 100.073 95.7465H100.08Z" fill="#CEAB80"/>
<path d="M34.8265 96.2665C34.42 95.4582 34.0602 94.7438 33.7003 94.0293C33.6559 95.1166 34.0313 95.8624 34.8265 96.2665Z" fill="#CEAB80"/>
<path d="M121.025 9.57083C122.118 8.95739 122.584 8.01199 122.837 6.9439C123.024 6.15726 122.731 5.45723 122.178 4.91597C121.978 4.72111 121.725 4.56956 121.471 4.82215C121.258 5.03143 121.411 5.24072 121.538 5.41393C122.131 6.215 121.898 7.03772 121.618 7.87487C121.445 8.39448 121.018 8.81306 121.032 9.56361L121.025 9.57083Z" fill="#CEAB80"/>
<path d="M13.3619 9.65753C12.9888 8.78429 12.7355 8.28633 12.5556 7.7595C12.309 7.04503 12.1958 6.3017 12.5556 5.58723C12.7022 5.29856 13.0354 5.00267 12.6089 4.75008C12.2757 4.55522 12.0092 4.8872 11.8092 5.13979C11.2695 5.82539 11.2495 6.64811 11.5027 7.42752C11.7892 8.28633 12.2024 9.09462 13.3686 9.65753H13.3619Z" fill="#CEAB80"/>
<path d="M2.97993 15.7695C2.24023 16.1592 1.97368 16.6572 2.26023 17.3428C2.69339 18.4037 3.34645 19.2264 4.78586 19.6666C3.85291 18.2666 2.57343 17.4799 2.97993 15.7695Z" fill="#CEAB80"/>
<path d="M131.06 15.6758C131.594 17.4439 130.381 18.3099 129.674 19.4646C130.854 19.1832 131.614 18.3893 131.967 17.1913C132.153 16.5418 131.967 15.95 131.06 15.6758Z" fill="#CEAB80"/>
<path d="M15.6215 42.429C16.1546 42.5806 16.6144 43.129 17.5741 42.8259C16.2813 42.0754 15.275 41.4836 14.5819 40.4805C14.1021 40.9351 14.7485 41.4187 14.462 41.7939C15.0151 41.5269 15.195 42.3063 15.6215 42.429Z" fill="#CEAB80"/>
<path d="M17.7132 43.1282L17.7198 43.0488L17.6338 43.0777L17.7132 43.1282Z" fill="#CEAB80"/>
<path d="M118.926 42.4004C118.939 42.4653 118.972 42.5303 119.025 42.6097L119.045 42.588C119.005 42.4942 118.965 42.4365 118.926 42.4004Z" fill="#CEAB80"/>
<path d="M119.425 41.7287C119.652 41.3607 119.965 41.0287 119.545 40.4297C118.852 41.7432 117.506 42.104 116.4 43.1071C117.266 43.0927 117.839 42.8185 118.412 42.5081C118.579 42.4143 118.766 42.2555 118.919 42.3927C118.819 42.0318 119.279 41.9524 119.425 41.7215V41.7287Z" fill="#CEAB80"/>
<path d="M81.8806 51.8903C77.7156 50.1511 73.4907 51.1758 70.5986 54.8492C69.8655 55.7802 69.2258 56.7978 68.5461 57.7792C67.4999 59.2948 66.7002 59.302 65.6606 57.8009C64.9142 56.7256 64.2145 55.607 63.3949 54.6038C60.3628 50.8872 55.4715 49.9418 51.4664 52.345C48.7475 53.976 47.3481 56.5307 47.3281 58.9339C47.4148 62.665 48.0678 65.2126 49.3007 67.6086C50.7201 70.3654 52.6793 72.6243 54.8917 74.5873C58.4369 77.7266 61.9888 80.8731 65.7472 83.7238C67.0867 84.7341 67.0933 84.7269 68.4328 83.7382C71.5115 81.4649 74.3104 78.7947 77.2825 76.377C79.1484 74.8615 80.841 73.1583 82.4071 71.2964C84.9127 68.3158 86.3521 64.8878 86.8319 60.8248C87.2384 57.3823 85.0793 53.2182 81.8806 51.8831V51.8903ZM85.839 60.5649C85.4791 64.7435 83.9598 68.323 81.2076 71.2747C80.3679 72.1768 79.5283 73.1006 78.6086 73.9089C75.1834 76.94 71.7315 79.9349 68.2729 82.9227C67.1267 83.9114 67.08 83.9186 65.9538 82.9444C62.4153 79.8844 58.8501 76.8461 55.3715 73.6996C53.3856 71.9026 51.5331 69.9324 50.2669 67.4209C49.0807 65.0755 48.421 62.5784 48.3677 60.3629C48.2344 57.1947 49.3473 55.0874 51.3465 53.6729C55.0783 51.0243 59.6297 51.8326 62.3286 54.8781C63.2283 55.8957 63.9346 57.0792 64.7077 58.1978C66.1737 60.3124 67.9996 60.3196 69.4724 58.2195C70.0921 57.339 70.6652 56.408 71.3183 55.5565C74.0039 52.0419 78.3954 51.0965 82.1472 53.1821C84.6795 54.5966 86.1055 57.505 85.8457 60.5649H85.839Z" fill="#CEAB80"/>
<path d="M18.4 57.0074C15.9743 57.029 14.1817 59.0786 14.2417 61.7561C14.295 64.2026 16.3608 66.2666 18.7465 66.2521C21.1455 66.2377 23.0381 64.2819 23.0514 61.7994C23.0647 59.259 20.859 56.9785 18.4 57.0002V57.0074ZM18.5866 65.0614C17.0139 64.9748 15.5811 63.7046 15.3479 62.1963C15.2346 61.4674 15.4745 61.323 16.1409 61.4457C17.9802 61.7849 19.8394 62.0375 21.8053 62.3406C21.3654 64.2964 20.3192 65.1552 18.5866 65.0541V65.0614ZM15.6078 60.3632C16.2475 58.6961 17.4404 57.9456 18.9064 58.1909C20.5458 58.4724 21.5853 59.6271 21.7586 61.5035C19.6928 61.121 17.6603 60.7457 15.6078 60.3632Z" fill="#CEAB80"/>
<path d="M115.447 66.2374C117.833 66.2447 119.932 64.1806 119.985 61.763C120.045 59.1216 118.212 57.036 115.807 57.0071C113.314 56.9783 111.195 59.1722 111.195 61.7919C111.195 64.3394 113.001 66.223 115.44 66.2374H115.447ZM115.374 58.1835C116.74 57.9381 117.759 58.5948 118.719 60.3341C116.58 60.7382 114.507 61.1279 112.202 61.5609C112.655 59.4464 113.748 58.4721 115.374 58.1835ZM118.859 61.3372C118.659 63.5239 117.613 64.8013 115.96 65.0394C114.147 65.2993 113.021 64.5126 112.295 62.3548C114.534 62.0084 116.68 61.6764 118.859 61.3372Z" fill="#CEAB80"/>
<path d="M116.966 74.8037C116.153 74.7749 115.487 75.3739 115.42 76.1966C115.347 77.077 115.88 77.7049 116.753 77.7482C117.633 77.7915 118.113 77.2935 118.152 76.2904C118.186 75.3739 117.753 74.8326 116.966 74.8037ZM116.706 76.9038C116.393 76.9038 116.2 76.6801 116.213 76.377C116.233 75.9584 116.56 75.8141 116.88 75.8213C117.053 75.8213 117.3 75.9296 117.28 76.2543C117.213 76.5863 117.1 76.9038 116.7 76.9038H116.706Z" fill="#CEAB80"/>
<path d="M17.2605 74.7961C16.4808 74.8034 15.9677 75.4024 16.001 76.2539C16.041 77.2282 16.5675 77.7839 17.4205 77.755C18.2801 77.7262 18.8999 77.055 18.8399 76.2251C18.7799 75.424 18.0735 74.7817 17.2672 74.7961H17.2605ZM17.6804 76.889C17.2539 76.9107 17.0473 76.7736 16.9806 76.4488C16.914 76.1313 16.9806 75.8714 17.3272 75.8426C17.6004 75.8209 17.8536 75.9147 17.9136 76.2612C17.9736 76.5859 17.8003 76.7736 17.6804 76.889Z" fill="#CEAB80"/>
<path d="M79.9084 53.1453C77.7959 52.8278 75.7301 52.9577 73.9309 54.4516C72.7313 55.0217 71.8717 55.9671 71.2986 57.2373C70.7988 57.9012 70.319 58.594 69.7926 59.2363C68.4998 60.7879 67.067 61.0477 65.381 60.0879C65.1478 59.958 64.9079 59.8353 64.6747 59.7054C64.5814 59.7992 64.4814 59.893 64.3881 59.9869C66.3939 62.1736 68.7063 61.5024 70.399 59.3879C70.8521 58.8177 71.1986 58.1538 71.5985 57.5331C72.3515 56.4867 73.2378 55.5774 74.1641 54.7114C75.5702 53.9103 77.0496 53.4412 78.6623 53.5567C80.2083 53.6649 81.4345 54.3433 82.2941 55.7939C83.9934 58.6734 84.2866 61.6034 82.8739 64.7428C81.5211 67.745 79.5219 70.1626 77.2962 72.3926C74.2441 75.4453 71.132 78.4259 67.92 81.2765C67.3336 81.7961 66.9737 81.9044 66.3207 81.3126C62.3423 77.7114 58.4105 74.0669 54.7654 70.0688C53.0727 68.2141 51.8599 66.0201 50.887 63.6602C49.7674 60.9323 50.5671 57.1867 52.5796 54.8918C53.8524 53.434 55.5517 53.3618 57.251 53.6433C58.4305 53.8381 59.5301 54.3361 60.5164 55.0794C61.9358 56.3929 62.8221 58.1971 64.0816 59.6549C64.1815 59.7631 64.2815 59.8714 64.3814 59.9797C64.4747 59.8858 64.5747 59.792 64.668 59.6982C64.628 59.5033 64.5214 59.3807 64.3415 59.3301C63.7684 58.428 63.2086 57.5187 62.6088 56.6383C62.109 55.8949 61.5893 55.1516 60.7496 54.8052C58.8437 53.0082 56.578 52.8133 54.2256 53.1597C53.5325 53.2608 52.9195 53.6794 52.393 54.199C50.0473 56.5228 49.0211 61.1199 50.4005 64.1799C51.4201 66.4387 52.6063 68.5893 54.2056 70.4441C57.8508 74.6876 61.9824 78.3537 66.0674 82.0632C66.9804 82.8931 67.2736 82.8426 68.2998 81.9188C71.4985 79.0537 74.6506 76.1309 77.6627 73.0421C79.9017 70.7472 81.8676 68.2141 83.3203 65.2263C85.0796 61.6107 84.6265 58.2693 82.514 55.065C81.8676 54.0907 81.0213 53.3185 79.9017 53.1525L79.9084 53.1453Z" fill="#CEAB80"/>
</svg>
