<svg width="157" height="133" viewBox="0 0 157 133" fill="none" xmlns="http://www.w3.org/2000/svg">
<path fill-rule="evenodd" clip-rule="evenodd" d="M87.2698 104.587C86.6049 101.829 83.2932 99.7232 80.8722 101.421C79.116 102.658 77.6233 104.41 76.4316 106.421C75.98 103.541 76.1305 100.402 76.7452 97.7127C77.2219 95.6477 78.9907 93.1209 81.0981 91.3141C81.7755 92.5232 82.7288 93.5964 83.9205 94.4251C86.2286 96.0145 89.4399 95.77 89.7159 92.5503C89.7786 92.8356 89.8413 93.1209 89.8915 93.447C89.9416 93.7322 90.3681 93.6643 90.3556 93.3791C90.0545 86.0839 85.5888 87.293 81.6499 90.5398C79.8687 87.0485 81.8632 82.7556 84.1086 79.8213C88.2607 74.3873 88.2858 82.6062 91.7355 83.6794C96.3517 85.1194 98.4215 76.656 96.2388 71.9284C98.3713 71.4258 100.24 68.505 101.332 65.7065C102.009 65.8831 102.749 65.8967 103.464 65.7065C103.79 65.625 103.64 65.1224 103.326 65.1767C101.093 65.6114 99.3623 63.8454 99.839 61.4001C100.316 58.982 102.774 58.3978 104.656 59.0363C105.597 59.3488 106.826 60.3812 107.767 61.6038C106.538 63.2884 106.036 65.5571 106.814 67.5948C106.889 67.7986 107.064 67.9344 107.278 67.8801C110.64 66.9156 110.464 64.1714 108.971 61.7941C109.498 61.1556 110.1 60.5306 110.752 59.865C110.915 59.702 110.752 59.3759 110.527 59.4574C109.711 59.7563 108.971 60.2861 108.357 60.9382C107.102 59.3623 105.333 58.0853 103.803 57.868C101.231 57.5012 98.9483 59.3759 98.8229 62.2423C98.7476 63.9133 99.5756 64.9865 100.717 65.5027C100.24 66.1548 99.7889 66.8341 99.3498 67.5269C98.848 68.2197 98.3463 68.9261 97.8445 69.619C96.151 69.4424 94.9593 69.4152 94.2318 69.5646C93.8304 69.3201 93.3913 69.1299 92.9021 69.0212C92.5132 68.9397 92.0114 69.4152 92.325 69.8363C93.2784 71.1812 94.2443 71.8197 95.1726 71.9692C95.2478 72.0235 95.3106 72.0778 95.3984 72.1322C96.6026 74.1699 96.289 77.145 95.7371 79.3186C94.8715 82.742 91.4972 83.8152 89.8664 80.582C89.4148 79.6854 89.0636 78.7209 88.5869 77.8379C86.3791 73.7896 82.0765 81.0303 81.1357 82.7285C79.5927 85.5405 79.6931 88.5971 80.9851 91.1103C78.8025 93.0666 76.8581 95.5526 76.0302 97.4002C75.1897 99.2885 74.989 103.758 75.6915 107.738C71.7275 115.631 72.0662 126.947 79.254 131.621C79.7558 131.947 80.1823 131.118 79.7056 130.778C73.6719 126.526 73.4963 119.571 75.1396 112.765C75.4156 111.746 75.7668 110.741 76.1431 109.762C77.247 113.689 79.4171 116.46 83.0047 114.341C86.5798 112.235 88.3109 108.975 87.2572 104.614L87.2698 104.587ZM107.491 66.9971C107.177 65.1088 107.591 63.7639 108.419 62.5548C109.511 64.3752 109.736 66.3314 107.491 66.9971ZM89.49 91.7896C89.2392 91.7081 88.9381 91.8168 88.9632 92.17C89.2643 96.6258 84.1462 93.5285 82.8291 92.1836C82.39 91.7353 82.0514 91.2734 81.7754 90.7979C84.7358 88.5428 88.1353 87.8636 89.49 91.8032V91.7896ZM77.1215 109.287C76.9961 108.92 76.8957 108.54 76.7954 108.159C76.8204 108.105 76.833 108.064 76.8581 108.01C78.2004 104.125 81.2736 102.739 86.053 103.867C90.2678 110.252 79.6931 116.962 77.1215 109.273V109.287Z" fill="#CEAB80"/>
<path fill-rule="evenodd" clip-rule="evenodd" d="M67.5756 93.0942C68.5917 86.6278 62.721 79.2783 57.3019 76.6292C56.9507 71.8202 52.6105 67.3508 48.1698 67.1062C47.8939 59.2949 40.8565 55.1379 34.4967 53.8337C33.8444 53.6979 33.5683 54.7168 34.2206 54.9205C38.4982 56.2247 43.4783 58.0586 45.8617 62.4602C46.6018 63.8322 46.8903 65.544 47.0031 67.147C45.8115 67.2964 44.6323 67.7447 43.5661 68.6413C43.2525 68.8994 43.2149 69.2662 43.4532 69.5923C46.0749 73.2466 48.0193 71.793 48.1698 68.0707C48.7092 68.0028 49.1482 67.962 49.2988 68.0028C52.347 68.5869 54.492 72.187 55.5457 75.0398C55.6963 75.4474 55.8092 75.8685 55.8844 76.2761C53.062 75.6919 49.5622 76.6021 50.1894 80.5553C50.6285 83.3402 55.4705 82.8647 56.4865 80.827C57.0259 79.7538 57.2643 78.6398 57.3019 77.5259C61.7175 80.4194 67.2369 86.2882 66.4968 92.3199C63.4988 90.3636 59.8358 89.467 59.1584 93.3931C58.6441 96.3953 61.0902 101.653 64.4019 98.7048C66.0201 97.2648 66.9735 95.621 67.4125 93.9093C67.6007 94.0995 67.7763 94.2625 67.9645 94.4799C69.7332 96.0965 70.4482 98.7727 71.0378 101.069C72.8442 108.187 71.3263 116.501 70.4232 123.66C70.3604 124.177 71.088 124.421 71.1632 123.878C72.5556 114.844 74.3369 104.75 70.4106 96.1916C69.9966 95.2949 68.9178 94.1267 67.5882 93.0806L67.5756 93.0942ZM44.9584 69.7145C44.3563 69.076 45.7111 68.5598 47.0784 68.2609C47.3168 69.8232 46.6143 70.3122 44.9584 69.7145ZM55.9723 79.2512C55.6336 80.6504 54.7555 81.3297 53.3255 81.3161C52.6104 80.6096 51.8954 79.9032 51.1804 79.1968C52.5602 77.227 54.1659 76.4662 55.9723 76.8874C56.0726 77.6753 56.0852 78.4768 55.9723 79.2512ZM64.5148 97.061C63.0973 96.7078 61.6798 96.3546 60.2623 96.0014C62.144 92.4421 64.1887 91.4776 66.3965 93.0263C66.1205 94.3712 65.5435 95.7297 64.5274 97.0474L64.5148 97.061Z" fill="#CEAB80"/>
<path fill-rule="evenodd" clip-rule="evenodd" d="M76.6324 57.4878C76.4694 56.9037 75.6791 56.8901 75.5286 57.4878C74.3996 61.8894 70.0092 65.2992 67.6885 59.3218C65.9323 54.7844 70.7116 51.2524 74.0483 50.0841C74.8135 49.8124 76.206 49.7852 76.7454 48.9429C79.1789 45.1255 76.783 37.5587 75.0644 33.918C74.7257 33.198 73.7347 33.8365 74.0609 34.5429C75.6415 38.0206 76.1934 41.6342 76.3188 45.4788C76.4317 49.0788 74.1613 48.4675 72.3675 49.3641C69.244 50.9399 66.986 53.0592 66.3212 56.8222C65.7316 60.1233 69.1436 65.7475 72.7187 64.0494C73.9354 63.4652 76.507 61.346 76.093 59.838C77.0213 63.2479 78.2758 74.0751 72.2796 73.8849C71.4141 73.8577 70.4482 74.3875 69.6077 74.632C63.6116 76.4252 72.38 89.1951 74.2616 90.8389C74.7007 91.2193 75.3154 90.5808 74.8888 90.1597C74.3495 89.6434 65.3302 75.8139 70.4231 75.8139C71.6901 75.8139 73.3961 75.2977 74.6631 74.9309C80.1198 73.3822 77.5733 60.8705 76.645 57.4742L76.6324 57.4878Z" fill="#CEAB80"/>
<path fill-rule="evenodd" clip-rule="evenodd" d="M132.717 79.0475C133.244 78.8573 133.031 78.0287 132.492 78.1509C108.432 83.2724 90.1049 105.484 85.5514 131.064C85.451 131.621 86.2287 131.866 86.3542 131.295C92.5008 104.166 108.67 87.6604 132.73 79.0475H132.717Z" fill="#CEAB80"/>
<path fill-rule="evenodd" clip-rule="evenodd" d="M94.5829 36.3494C94.2944 36.458 94.2692 36.8248 94.5076 37.015C94.8086 37.2595 95.185 37.3682 95.5739 37.4226C87.8718 49.092 82.8039 64.1849 79.6679 77.7155C79.6052 78.0144 79.9814 78.1095 80.0818 77.8378C82.9544 69.9042 85.4633 61.8619 88.6369 54.0505C91.0078 48.2498 94.031 42.8973 96.9161 37.4226C97.1795 37.3818 97.4304 37.3411 97.6562 37.2867C98.9106 37.0014 99.9267 36.0776 100.704 35.018C101.106 34.4882 100.428 33.7139 99.9895 34.2437C99.3372 35.0452 98.597 35.5886 97.6813 35.9282C98.02 35.2762 98.3587 34.6241 98.6848 33.972C98.8353 33.6731 98.459 33.3199 98.2458 33.6052C97.606 34.4339 96.9914 35.3033 96.3767 36.1727C95.7621 36.1727 95.1348 36.132 94.5578 36.3358L94.5829 36.3494Z" fill="#CEAB80"/>
<path fill-rule="evenodd" clip-rule="evenodd" d="M64.3643 74.9043C63.7496 61.9171 55.0565 45.7917 45.5731 37.9396C45.1592 37.6 44.7577 38.2928 45.0588 38.6732C53.4006 49.1472 62.2067 60.5314 63.5364 74.9043C63.5866 75.4748 64.3894 75.4884 64.3643 74.9043Z" fill="#CEAB80"/>
<path fill-rule="evenodd" clip-rule="evenodd" d="M53.639 36.8655C54.0655 36.5667 54.4543 36.2406 54.8557 35.9146C55.2446 35.6701 55.6335 35.507 56.0349 35.3983C56.0474 35.5749 56.0725 35.7516 56.0976 35.9418C55.646 36.7705 55.232 37.6127 54.8557 38.4686C54.7052 38.224 54.5672 37.9795 54.4167 37.735C54.1407 37.3002 53.5637 37.6671 53.7644 38.1425C53.9776 38.6316 54.2035 39.0935 54.4167 39.5825C54.4167 39.732 54.4669 39.8678 54.5923 39.9629C57.6657 46.6059 61.3912 52.8143 62.9467 60.2045C63.022 60.5713 63.4987 60.4083 63.4485 60.0551C62.3697 52.8007 59.1333 45.7229 55.4579 39.4874C55.8593 38.9033 56.2607 38.3055 56.637 37.6942C56.9506 37.7078 57.327 37.4225 57.2643 36.9742C57.2643 36.8791 57.2391 36.784 57.2391 36.6889C57.4775 36.2814 57.7158 35.8738 57.9416 35.4527C58.4183 35.6157 58.9075 35.9146 59.3591 36.3493C59.7731 36.7433 60.601 36.3765 60.3752 35.7108C60.0616 34.787 59.6476 33.9312 59.2211 33.0889C59.4595 32.627 59.7103 32.1652 59.9486 31.7033C60.2622 31.1055 59.635 30.467 59.0956 30.7795C58.8071 30.9561 58.5312 31.1735 58.2552 31.3637C57.7911 30.5757 57.3144 29.8014 56.8252 29.0134C56.5492 28.5651 55.8217 28.701 55.8342 29.2987C55.8718 30.63 55.8718 31.9478 55.922 33.2655C55.3199 33.8089 54.7177 34.3523 54.0905 34.8686C53.6766 35.1403 53.2752 35.4391 52.8988 35.8195C52.3845 36.3357 53.062 37.2867 53.6515 36.8655H53.639Z" fill="#CEAB80"/>
<path fill-rule="evenodd" clip-rule="evenodd" d="M40.5677 27.6687C40.6304 25.6173 41.0695 23.6611 41.91 21.8135C42.3114 20.9169 42.8759 20.1426 43.5156 19.4362C44.0049 18.8928 44.5568 18.6754 44.8579 17.9826C44.9582 17.7517 44.8328 17.5343 44.607 17.5071C42.9637 17.2898 41.5587 19.8573 40.8939 21.1751C39.9154 23.1449 39.5392 25.4679 39.5266 27.6822C39.5266 28.4158 40.5426 28.4022 40.5677 27.6822V27.6687Z" fill="#CEAB80"/>
<path fill-rule="evenodd" clip-rule="evenodd" d="M42.2866 24.939C42.0106 25.5367 42.8134 26.0665 43.1145 25.4688C43.704 24.3141 44.4316 23.2952 45.4101 22.5073C45.9244 22.0861 46.5139 21.8416 47.1536 21.8009C47.6178 21.7737 48.0067 21.9095 48.4583 21.7601C48.6214 21.7058 48.6841 21.5156 48.6088 21.3525C47.9941 20.062 46.3383 20.5511 45.3849 21.0401C43.9549 21.7737 42.9514 23.4446 42.2866 24.9254V24.939Z" fill="#CEAB80"/>
<path fill-rule="evenodd" clip-rule="evenodd" d="M43.7164 29.3678C44.8203 28.4712 45.9869 27.8599 47.3417 27.5338C48.8971 27.1535 50.0136 27.9414 51.2805 28.7429C51.4813 28.8787 51.7698 28.6614 51.6945 28.4033C50.4652 24.2463 45.1339 26.6644 43.1017 28.512C42.6627 28.9059 43.2522 29.7482 43.7164 29.3678Z" fill="#CEAB80"/>
<path fill-rule="evenodd" clip-rule="evenodd" d="M48.3831 32.1788C49.2863 32.7358 49.9636 33.6052 50.8417 34.1758C51.1051 34.3524 51.5316 34.0535 51.4062 33.7139C50.5783 31.418 47.9064 30.4399 45.8491 30.046C45.2721 29.9373 45.0087 30.8611 45.5982 31.0241C46.5767 31.2822 47.4924 31.649 48.3705 32.1788H48.3831Z" fill="#CEAB80"/>
<path fill-rule="evenodd" clip-rule="evenodd" d="M43.0265 32.2343C42.5875 31.7724 41.9478 32.4788 42.3617 32.9543C42.9764 33.6471 43.591 34.34 44.1304 35.1007C44.5695 35.7121 44.9082 36.8396 45.6357 37.0434C45.8239 37.0977 45.987 36.9755 46.0497 36.7853C46.3131 36.0109 45.5479 35.1822 45.1339 34.6117C44.5067 33.7422 43.7541 32.9815 43.0265 32.2343Z" fill="#CEAB80"/>
<path fill-rule="evenodd" clip-rule="evenodd" d="M39.9156 45.194C42.6125 42.9389 42.462 39.1216 41.2452 36.0106C41.0194 35.44 40.1037 35.8476 40.317 36.4317C41.3832 39.4612 40.9943 42.0423 39.3636 44.7186C39.1253 45.1125 39.627 45.425 39.9156 45.1804V45.194Z" fill="#CEAB80"/>
<path fill-rule="evenodd" clip-rule="evenodd" d="M35.1615 38.9174C36.0145 38.537 36.6543 37.8578 37.0808 36.9883C37.3944 36.3498 36.5162 35.7928 36.1901 36.4177C35.8012 37.1785 35.2619 37.6404 34.5092 37.9121C33.9196 38.1294 33.2046 38.0751 32.6903 38.4691C32.5021 38.6185 32.4896 38.8902 32.6903 39.0261C33.3802 39.5287 34.459 39.2298 35.174 38.9038L35.1615 38.9174Z" fill="#CEAB80"/>
<path fill-rule="evenodd" clip-rule="evenodd" d="M33.8315 33.0353C34.3834 32.7364 33.8942 31.8942 33.3548 32.1523C32.7025 32.4647 32.0753 32.6142 31.3603 32.587C30.6829 32.5598 30.131 32.0436 29.4787 31.9213C29.2905 31.8806 29.1275 32.0436 29.1776 32.2609C29.6794 34.4074 32.552 33.7417 33.8315 33.0353Z" fill="#CEAB80"/>
<path fill-rule="evenodd" clip-rule="evenodd" d="M31.9499 29.3815C32.5269 29.5988 32.7528 28.6343 32.2008 28.4034C29.9178 27.4388 29.4913 25.3739 29.0146 23.0373C28.9394 22.6705 28.3749 22.6434 28.2996 23.0373C27.8104 25.9173 29.4536 28.4849 31.9499 29.3815Z" fill="#CEAB80"/>
<path fill-rule="evenodd" clip-rule="evenodd" d="M35.1364 26.5827C34.3587 25.1563 33.8945 23.6483 33.606 22.0317C33.3551 20.5781 33.6688 19.1517 33.4806 17.7253C33.443 17.44 33.1042 17.4672 32.9788 17.6574C31.2477 20.2113 32.9161 24.7895 34.3336 27.0989C34.6597 27.6423 35.45 27.1533 35.1364 26.5963V26.5827Z" fill="#CEAB80"/>
<path fill-rule="evenodd" clip-rule="evenodd" d="M36.7044 23.0101C36.5163 22.1135 36.4535 21.2169 36.4535 20.2931C36.4535 19.4372 36.604 18.595 36.4911 17.7391C36.4535 17.481 36.1399 17.5082 36.0395 17.6712C35.0736 19.1791 35.4374 21.6109 35.8012 23.2818C35.9392 23.9203 36.8299 23.6486 36.7044 23.0101Z" fill="#CEAB80"/>
<path fill-rule="evenodd" clip-rule="evenodd" d="M101.344 33.6056C101.947 33.8637 102.386 32.7361 101.796 32.4644C101.696 32.4237 101.608 32.3557 101.52 32.3014C101.62 32.3829 101.758 32.4372 101.884 32.4372C103.665 32.3829 105.509 31.5814 105.609 29.4078C105.697 27.5874 104.142 26.1474 102.611 25.8214C102.122 25.7127 101.62 25.7127 101.144 25.8214C101.194 25.7263 101.219 25.6176 101.194 25.4818C100.918 23.9059 100.981 22.3165 101.307 20.7542C101.658 19.0697 102.662 17.8606 103.301 16.3527C103.439 16.0402 103.163 15.687 102.85 15.8636C99.8391 17.6161 99.5507 22.6154 100.291 25.7535C100.316 25.8757 100.379 25.9572 100.454 26.0251C99.4001 26.4463 98.5471 27.3565 98.3589 28.6742C98.0579 30.8886 99.5381 32.8448 101.344 33.6191V33.6056ZM102.21 28.8644C102.361 28.2123 103.063 27.995 103.54 27.6825C103.979 28.0765 104.317 28.6199 104.38 29.2176C104.506 30.5082 103.339 30.9429 102.348 31.0652C102.185 30.3452 102.047 29.598 102.21 28.8644ZM101.934 27.0848C100.692 27.9678 100.905 30.4674 101.282 31.9482C101.319 32.0841 101.395 32.2063 101.508 32.3014C99.1994 30.9565 98.7353 27.0984 101.934 27.0848Z" fill="#CEAB80"/>
<path fill-rule="evenodd" clip-rule="evenodd" d="M103.088 24.0965C103.515 22.507 104.092 21.0127 104.97 19.6542C105.898 18.2142 107.341 17.8474 108.52 16.7878C108.683 16.6519 108.595 16.3259 108.394 16.2851C106.776 15.9319 105.258 17.3583 104.292 18.6081C103.151 20.0889 102.574 21.9772 102.172 23.8248C102.034 24.4633 102.912 24.735 103.088 24.0965Z" fill="#CEAB80"/>
<path fill-rule="evenodd" clip-rule="evenodd" d="M106.788 24.3539C107.667 23.4844 108.62 22.941 109.824 22.9003C111.016 22.8595 111.781 23.8376 112.822 24.2452C113.023 24.3267 113.186 24.0958 113.148 23.892C112.835 22.5335 111.392 21.7048 110.163 21.6504C108.57 21.5825 107.202 22.3976 106.099 23.5795C105.634 24.0686 106.337 24.8157 106.814 24.3403L106.788 24.3539Z" fill="#CEAB80"/>
<path fill-rule="evenodd" clip-rule="evenodd" d="M109.084 26.5008C110.213 26.5688 111.254 26.9355 112.145 27.7235C113.036 28.5114 113.5 29.6933 114.077 30.7393C114.265 31.0654 114.779 30.9431 114.767 30.5356C114.629 27.3431 111.806 25.482 109.084 25.5363C108.507 25.5363 108.507 26.4737 109.084 26.5144V26.5008Z" fill="#CEAB80"/>
<path fill-rule="evenodd" clip-rule="evenodd" d="M111.104 35.5492C111.154 35.7937 111.48 35.8345 111.58 35.6171C112.684 33.2941 111.33 30.6043 109.787 28.9469C109.348 28.4714 108.708 29.1915 109.122 29.6669C109.812 30.482 110.326 31.3514 110.64 32.3975C110.953 33.4028 110.903 34.5031 111.091 35.5356L111.104 35.5492Z" fill="#CEAB80"/>
<path fill-rule="evenodd" clip-rule="evenodd" d="M103.966 41.0227C103.841 41.1993 103.903 41.5389 104.154 41.5117C107.704 41.1449 109.122 36.4309 108.043 33.2792C107.83 32.6407 106.901 32.8989 107.09 33.5645C107.503 35.0317 107.478 36.4038 106.826 37.7894C106.174 39.1887 104.857 39.8679 103.966 41.0227Z" fill="#CEAB80"/>
<path fill-rule="evenodd" clip-rule="evenodd" d="M103.339 34.9234C102.887 36.2276 102.235 37.3279 101.37 38.3468C100.667 39.1891 99.488 39.6645 98.9612 40.6427C98.8483 40.86 98.9987 41.091 99.212 41.1045C100.416 41.1996 101.595 39.814 102.336 38.9174C103.214 37.8578 103.791 36.5128 104.192 35.1679C104.368 34.5702 103.527 34.3392 103.339 34.9098V34.9234Z" fill="#CEAB80"/>
<path fill-rule="evenodd" clip-rule="evenodd" d="M95.9505 33.5511C96.6278 33.4153 96.3268 32.3421 95.6745 32.4507C94.9219 32.573 94.1692 32.4236 93.5921 31.8666C93.0653 31.3639 92.9775 30.576 92.689 29.9239C92.551 29.5979 92.1622 29.7473 92.0618 30.019C91.6855 31.0379 92.2123 32.1655 92.9273 32.8447C93.7553 33.6462 94.9093 33.7549 95.9505 33.5375V33.5511Z" fill="#CEAB80"/>
<path fill-rule="evenodd" clip-rule="evenodd" d="M92.9022 23.7968C92.3377 24.8428 92.8897 26.3099 93.4165 27.2473C94.0061 28.3069 95.0222 28.9726 96.0508 29.4209C96.5777 29.6518 96.954 28.6738 96.4397 28.4292C95.5992 28.0217 94.9093 27.4783 94.3824 26.6496C93.8305 25.7802 93.9183 24.6662 93.4165 23.8103C93.3036 23.6065 93.0151 23.593 92.9022 23.8103V23.7968Z" fill="#CEAB80"/>
<path fill-rule="evenodd" clip-rule="evenodd" d="M34.7599 31.6627C35.0233 33.388 36.5411 34.3933 38.0088 34.7465C38.6109 34.8959 38.8744 33.9178 38.2597 33.7412C37.3063 33.4559 36.3404 32.8853 35.9515 31.8393C35.5878 30.8612 36.215 30.1276 37.0178 29.788C37.9336 29.394 39.5392 29.1902 40.1789 30.2227C40.781 31.1872 39.5392 31.8393 38.9998 32.3148C38.7238 32.5593 38.9747 32.994 39.2632 33.0076C40.7058 33.1163 41.7469 31.4725 41.3581 30.0461C40.8312 28.1306 38.6109 28.117 37.1684 28.4431C35.7634 28.7555 34.4839 30.0053 34.7348 31.6627H34.7599Z" fill="#CEAB80"/>
<path fill-rule="evenodd" clip-rule="evenodd" d="M14.175 84.7261C14.4008 85.12 14.6391 85.514 14.8523 85.9215C15.191 86.56 16.2447 86.1253 15.9813 85.4053C15.9562 85.351 15.9312 85.2966 15.9186 85.2423C15.9186 85.2423 15.9186 85.2287 15.9061 85.2151C15.0154 82.8921 13.8613 80.8136 12.4439 78.8302C12.3184 78.6672 12.2056 78.5042 12.0927 78.3547C13.0335 77.5668 13.9366 76.7381 14.7771 75.8143C15.2663 75.5426 15.7681 75.3117 16.3075 75.1079C17.035 74.8498 16.734 73.6407 15.9939 73.8717H15.9688C15.906 73.6136 15.7179 73.3962 15.4043 73.3962C14.2 73.3962 12.9959 73.3147 11.7916 73.2332C11.7414 72.2143 11.6411 71.2362 11.3776 70.2173C11.3525 70.1087 11.2898 70.0272 11.2271 69.9728C11.1644 69.6468 11.1142 69.3207 11.0389 68.9811C10.9135 68.4105 10.0103 68.3426 9.90999 68.9811C9.74691 70.1766 9.49596 71.6166 9.37052 73.0566C7.96557 72.9207 6.5732 72.7849 5.16826 72.6219C4.59122 72.554 4.47831 73.3283 4.75428 73.7087C5.88325 75.2709 6.99973 76.8875 8.17889 78.4498C8.00327 79.2785 7.65202 80.0528 7.15026 80.7457C6.44778 81.3434 5.75785 81.9683 5.10555 82.6476C4.5787 83.191 5.25606 84.1011 5.87073 83.7208C6.74882 83.1638 7.45132 82.4981 8.01581 81.751C8.56775 81.2755 9.11964 80.8136 9.68412 80.3653C11.0514 81.9955 12.5192 83.5034 14.2001 84.7532L14.175 84.7261ZM11.8041 74.5917C12.5442 74.646 13.2843 74.6868 14.0119 74.7139C13.9742 74.7547 13.9366 74.809 13.8865 74.8498C13.1464 75.2845 12.4439 75.8008 11.7916 76.3849C11.7916 75.8551 11.7665 75.3253 11.7414 74.8091C11.7665 74.7411 11.7916 74.6732 11.7916 74.5917H11.8041ZM6.46034 74.0619C6.96211 74.1298 7.47637 74.1842 7.97814 74.2385C7.92796 74.3608 7.9154 74.5102 7.96558 74.6732C8.15374 75.3253 8.24155 75.9502 8.27918 76.5615C7.66452 75.7328 7.06246 74.9042 6.46034 74.0619Z" fill="#CEAB80"/>
<path fill-rule="evenodd" clip-rule="evenodd" d="M147.231 71.3588C146.14 71.5762 145.061 71.8208 143.97 72.0653C144.12 71.0192 144.333 69.9596 144.597 68.9136C144.76 68.2751 143.957 67.7045 143.518 68.2343C142.326 69.7287 141.273 71.3181 140.269 72.9483C139.629 73.0977 138.99 73.2336 138.35 73.383C136.681 71.9838 134.762 70.9513 132.379 70.5438C131.601 70.4079 131.262 71.6985 132.053 71.8343C133.821 72.1332 135.314 72.8124 136.644 73.7362C135.678 73.9264 134.712 74.1166 133.734 74.2524C133.006 74.3475 132.968 75.5702 133.734 75.5159C135.189 75.3936 136.619 75.1491 138.049 74.8638C138.287 75.0811 138.525 75.3121 138.751 75.543C137.697 77.4857 136.719 79.4691 135.841 81.5204C135.59 82.091 136.142 82.9061 136.719 82.4714C138.312 81.2759 139.918 80.0668 141.486 78.817C142.389 80.0532 143.28 81.3574 144.183 82.6344C144.183 82.6344 144.246 82.7295 144.283 82.7702C144.747 83.4087 145.613 82.5936 145.287 81.9279C144.459 80.2706 144.02 78.5453 143.844 76.7928C145.287 75.4887 146.641 74.0758 147.846 72.4864C148.26 71.943 147.871 71.2094 147.219 71.3317L147.231 71.3588ZM138.551 79.4011C138.387 79.5234 138.237 79.6457 138.074 79.7679C138.5 78.8441 138.964 77.9475 139.441 77.0509C139.466 77.146 139.504 77.214 139.579 77.2819C139.215 77.9747 138.877 78.6811 138.551 79.4011ZM141.674 76.9423C141.599 76.8336 141.511 76.7521 141.423 76.6434C141.799 76.2766 142.063 75.8011 142.239 75.2713C142.239 75.2713 142.239 75.2577 142.239 75.2442C142.251 75.1898 142.289 75.1355 142.301 75.0811C142.514 74.2932 141.549 73.9672 141.147 74.5513C141.097 74.6192 141.072 74.7007 141.022 74.7687C140.884 74.7415 140.746 74.7687 140.633 74.8502C140.771 74.6328 140.896 74.429 141.022 74.2117C141.511 74.0894 142.013 73.9672 142.502 73.8449C142.452 74.6328 142.477 75.4072 142.514 76.1815C142.226 76.4396 141.95 76.6841 141.649 76.9287L141.674 76.9423ZM143.769 75.0539C143.769 74.5513 143.781 74.0351 143.819 73.5324C144.434 73.383 145.048 73.2336 145.663 73.0977C145.061 73.777 144.421 74.429 143.769 75.0539Z" fill="#CEAB80"/>
<path fill-rule="evenodd" clip-rule="evenodd" d="M80.27 50.6819C81.0478 49.7445 81.8757 48.8207 82.7036 47.8834C82.7036 47.9105 82.7036 47.9377 82.7162 47.9513C82.8918 48.7528 83.9705 48.4132 83.8451 47.6117C83.7949 47.2992 83.7573 47.0004 83.7322 46.6879C84.0082 46.3619 84.2717 46.0494 84.5476 45.7098C85.3003 45.7913 86.0403 45.9679 86.7679 46.3076C87.3073 46.5521 87.9721 46.0222 87.6335 45.3837C87.232 44.6502 86.8307 43.903 86.4293 43.1694C86.8558 42.5173 87.2697 41.8381 87.6209 41.1317C87.947 40.4796 87.1192 39.7053 86.6299 40.303C86.2912 40.7377 85.9275 41.1453 85.5637 41.5392C84.8863 40.1943 84.2591 38.8087 83.7824 37.3415C83.5817 36.7302 82.7788 36.8388 82.7538 37.4909C82.6534 39.7052 82.365 41.9196 82.3524 44.1204C82.1266 44.2426 81.8882 44.3377 81.6499 44.4328C80.7467 44.5687 79.8435 44.7724 78.9404 45.0441C78.2504 45.2479 78.3759 46.4434 79.1034 46.4026C80.1195 46.3483 81.0603 46.1173 81.9384 45.7777C82.089 45.7506 82.252 45.737 82.4026 45.7234C82.4026 45.8185 82.4151 45.9 82.4277 45.9951C81.3363 47.2449 80.2575 48.4947 79.3794 49.9347C79.0281 50.5053 79.831 51.1845 80.2575 50.6683L80.27 50.6819ZM83.7448 40.4253C84.0333 41.1181 84.3344 41.7973 84.6731 42.4766C84.3344 42.789 83.9956 43.0743 83.6319 43.346C83.657 42.3679 83.7072 41.4034 83.7448 40.4253Z" fill="#CEAB80"/>
<path fill-rule="evenodd" clip-rule="evenodd" d="M48.0819 54.5267C48.5962 54.8663 49.2736 54.1735 48.9224 53.6165C48.4582 52.8693 48.0066 52.1222 47.555 51.3886C47.7934 50.7908 48.0192 50.2067 48.245 49.6225C48.4834 48.9976 47.5927 48.4542 47.2038 48.9705C46.9906 49.2422 46.7522 49.4867 46.5264 49.7448C45.9243 48.8075 45.2971 47.8701 44.6323 46.9735C44.2811 46.498 43.5534 47.0142 43.704 47.5576C44.0677 48.8482 44.419 50.1388 44.7326 51.4293C44.2685 51.7825 43.7793 52.1086 43.2649 52.4075C42.6001 52.6112 41.9353 52.9237 41.2579 53.372C40.6683 53.7659 41.0446 54.8935 41.7471 54.6218C41.7972 54.5946 41.8475 54.5674 41.8977 54.5539C42.5123 54.3093 43.1019 54.024 43.6789 53.698C44.1681 53.5486 44.6573 53.4807 45.1466 53.5078C44.7953 54.2414 44.4567 54.975 44.1556 55.7357C43.8796 56.415 44.6573 56.9041 45.0713 56.3199C45.2595 56.0482 45.4225 55.7493 45.5981 55.4641C45.8114 56.1433 46.8149 55.8037 46.702 55.0429C46.6393 54.6354 46.5641 54.2414 46.4888 53.8475C46.4888 53.8203 46.5138 53.7931 46.5264 53.7659C47.0407 53.9426 47.5676 54.2006 48.0944 54.5539L48.0819 54.5267Z" fill="#CEAB80"/>
<path fill-rule="evenodd" clip-rule="evenodd" d="M17.286 77.6893C16.7592 77.6214 16.6714 78.5316 17.1606 78.6675C39.7903 85.1882 64.3267 102.55 62.9845 131.173C62.9469 131.975 64.0758 131.975 64.1385 131.173C65.9073 104.275 40.6558 80.583 17.286 77.6758V77.6893Z" fill="#CEAB80"/>
<path fill-rule="evenodd" clip-rule="evenodd" d="M30.7583 74.4291C36.8046 78.2057 42.2738 81.9279 47.2539 87.3212C51.6945 92.1166 55.4076 97.605 59.497 102.74C59.8482 103.175 60.3876 102.55 60.074 102.115C52.2716 91.2336 43.6537 78.2736 31.0594 73.6955C30.6454 73.546 30.407 74.2117 30.7708 74.4427L30.7583 74.4291Z" fill="#CEAB80"/>
<path fill-rule="evenodd" clip-rule="evenodd" d="M27.4467 77.7027C27.9359 77.0234 28.3122 76.2355 28.6008 75.3661C29.0022 75.9774 29.3785 76.6023 29.7298 77.2408C30.0685 77.8521 30.9465 77.2951 30.6203 76.6702C30.1186 75.7329 29.5666 74.8498 28.9771 73.994C29.1025 73.3962 29.2029 72.7849 29.2656 72.1736C29.6294 72.0649 29.9806 71.9291 30.357 71.8612C31.0344 71.7389 30.8838 70.7608 30.357 70.5434C30.0434 70.4212 29.7172 70.3125 29.391 70.2038C29.391 69.4023 29.3659 68.6279 29.3032 67.9215C29.228 67.1472 28.3248 67.0114 28.0739 67.7449C27.8607 68.3563 27.6348 68.9947 27.3965 69.6196C26.3679 69.3615 25.3267 69.1578 24.273 68.9676C23.6207 68.8453 23.2444 69.7147 23.8214 70.1359C24.6243 70.7064 25.3644 71.3993 26.0543 72.1329C24.7999 72.9479 23.696 74.0483 22.8054 75.3932C22.3914 76.0317 23.1691 76.5751 23.6709 76.3442C25.1511 75.6649 26.2048 74.551 27.0327 73.2332C27.2209 73.4642 27.3839 73.7087 27.5596 73.9397C27.2585 75.0944 26.832 76.1947 26.7066 77.3902C26.6689 77.7842 27.2209 78.0287 27.4342 77.7163L27.4467 77.7027Z" fill="#CEAB80"/>
<path fill-rule="evenodd" clip-rule="evenodd" d="M125.555 105.891C126.194 106.625 127.022 107.209 127.913 107.535C128.59 107.793 128.854 106.652 128.201 106.38C127.762 106.204 127.361 105.959 127.01 105.674C127.336 105.619 127.336 105.008 127.01 104.967C126.771 104.927 126.52 104.913 126.27 104.872C126.169 104.736 126.081 104.614 125.994 104.465C125.504 103.595 125.492 102.495 125.379 101.517C125.341 101.177 124.827 101.123 124.702 101.422C124.225 102.604 124.35 103.745 124.815 104.75C109.975 103.84 91.861 115.808 89.2016 131.866C89.0762 132.626 90.1424 132.966 90.293 132.192C93.6046 113.988 110.778 108.282 125.567 105.905L125.555 105.891Z" fill="#CEAB80"/>
<path fill-rule="evenodd" clip-rule="evenodd" d="M27.0328 103.106C25.9666 102.264 24.662 101.707 23.4954 101.503C22.8682 101.395 22.5922 102.386 23.232 102.536C24.2731 102.78 25.1637 103.242 26.0167 103.908C26.945 104.614 27.5471 105.633 28.3751 106.448C28.6761 106.747 29.1904 106.448 29.0775 106.014C28.8894 105.307 28.5256 104.669 28.0615 104.112C43.704 104.451 55.4454 114.762 58.8825 131.771C59.033 132.531 60.0365 132.192 59.9361 131.458C57.7284 115.387 42.7758 99.6966 27.0454 103.12L27.0328 103.106Z" fill="#CEAB80"/>
<path fill-rule="evenodd" clip-rule="evenodd" d="M22.5293 91.8438C22.6046 91.6129 22.4164 91.4227 22.2157 91.3955C21.1369 91.2597 20.2086 92.7269 19.8198 93.6642C19.3431 94.8189 19.4058 96.0824 19.8198 97.2371C20.0581 97.8756 20.9989 97.631 20.7982 96.9518C20.4972 95.9601 20.4971 94.9955 20.9236 94.0446C21.3251 93.1752 22.2408 92.7405 22.5168 91.8438H22.5293Z" fill="#CEAB80"/>
<path fill-rule="evenodd" clip-rule="evenodd" d="M23.0687 97.9168C23.1314 96.8843 23.445 95.9741 24.1224 95.2405C24.712 94.5884 25.5148 94.602 26.2173 94.1945C26.4807 94.0451 26.4933 93.556 26.2173 93.4201C25.2138 92.9175 24.0472 93.6103 23.3071 94.3575C22.4164 95.2541 22.1028 96.6398 22.1154 97.9168C22.1154 98.5824 23.0185 98.5688 23.0562 97.9168H23.0687Z" fill="#CEAB80"/>
<path fill-rule="evenodd" clip-rule="evenodd" d="M23.9972 100.036C24.7248 99.5063 25.4774 99.1259 26.3555 99.0444C27.2085 98.9628 27.8608 99.5198 28.6762 99.547C28.9898 99.547 29.1027 99.2074 29.0023 98.9357C28.626 97.9983 27.5221 97.8082 26.6691 97.7538C25.5276 97.6859 24.3735 98.3515 23.4954 99.058C22.9811 99.4791 23.4578 100.43 24.0098 100.022L23.9972 100.036Z" fill="#CEAB80"/>
<path fill-rule="evenodd" clip-rule="evenodd" d="M23.2443 105.633C22.6673 105.225 22.1655 106.203 22.7175 106.611C25.4772 108.73 25.3142 112.045 23.9343 115.047C23.8214 115.291 24.0848 115.482 24.2604 115.319C27.3588 112.561 26.3428 107.82 23.2318 105.633H23.2443Z" fill="#CEAB80"/>
<path fill-rule="evenodd" clip-rule="evenodd" d="M20.6352 110.238C20.5349 111.474 20.008 112.48 19.017 113.105C18.0636 113.716 17.0225 113.24 16.0566 113.594C15.8182 113.675 15.743 113.988 15.9061 114.191C16.8343 115.292 18.7787 114.762 19.8073 114.11C21.0492 113.308 21.551 111.746 21.5133 110.252C21.5008 109.627 20.6729 109.64 20.6352 110.252V110.238Z" fill="#CEAB80"/>
<path fill-rule="evenodd" clip-rule="evenodd" d="M15.0031 109.722C14.3257 109.695 13.6608 109.668 12.996 109.559C12.4064 109.45 11.8922 109.111 11.3151 109.002C11.0141 108.948 10.6502 109.287 10.876 109.627C11.7667 110.958 13.686 110.781 15.0031 110.741C15.6052 110.714 15.6052 109.749 15.0031 109.722Z" fill="#CEAB80"/>
<path fill-rule="evenodd" clip-rule="evenodd" d="M11.9796 104.75C11.1266 104.709 10.3238 104.519 9.72169 103.826C9.13212 103.147 9.34534 102.033 8.75577 101.408C8.65541 101.299 8.47981 101.299 8.37946 101.408C7.6519 102.223 8.25399 103.839 8.81847 104.573C9.59621 105.592 10.813 105.864 11.9922 105.864C12.657 105.864 12.6445 104.777 11.9922 104.75H11.9796Z" fill="#CEAB80"/>
<path fill-rule="evenodd" clip-rule="evenodd" d="M13.485 101.585C13.0083 100.824 12.6069 100.036 12.3309 99.1396C12.0424 98.1751 12.2431 97.1019 11.917 96.1781C11.8292 95.9471 11.5406 95.7841 11.365 96.0151C10.0353 97.7404 11.6535 100.838 12.6696 102.305C12.8201 102.522 13.0334 102.577 13.2341 102.536C12.7574 105.266 15.4795 107.236 17.5493 107.902C18.189 108.106 18.44 107.06 17.8253 106.829C16.1318 106.204 13.9993 104.614 14.4759 102.386C14.7895 100.906 16.1443 99.9275 17.474 100.009C18.4399 100.077 19.4309 100.756 19.9453 101.626C20.5725 102.685 19.8449 103.5 19.0295 104.03C18.7284 103.337 18.766 102.495 18.3019 101.857C18.1263 101.598 17.7877 101.694 17.75 102.02C17.612 103.229 17.6371 104.397 18.3772 105.348C18.5654 105.579 18.8664 105.565 19.1047 105.443C20.5724 104.723 21.8269 103.31 21.1871 101.463C20.6226 99.8188 18.9793 98.8951 17.4615 98.7049C15.6927 98.4875 14.1498 99.8732 13.485 101.571V101.585Z" fill="#CEAB80"/>
<path fill-rule="evenodd" clip-rule="evenodd" d="M15.6428 93.8009C15.6428 93.5835 15.4296 93.4749 15.254 93.5564C13.6107 94.3986 13.9243 97.1699 14.5515 98.5964C14.84 99.262 15.7181 98.6779 15.4547 98.0258C15.116 97.1835 15.0784 96.3684 15.2665 95.499C15.392 94.9148 15.6429 94.4122 15.6304 93.8009H15.6428Z" fill="#CEAB80"/>
<path fill-rule="evenodd" clip-rule="evenodd" d="M132.466 97.3466C132.278 97.9851 133.169 98.3791 133.457 97.795C133.934 96.844 134.461 96.0153 135.301 95.4176C136.079 94.8606 137.108 94.7383 137.998 94.5482C138.274 94.4938 138.324 94.0319 138.074 93.9097C135.753 92.7142 133.181 94.9693 132.454 97.3466H132.466Z" fill="#CEAB80"/>
<path fill-rule="evenodd" clip-rule="evenodd" d="M143.229 98.2829C143.48 98.2829 143.668 97.9569 143.53 97.7124C142.276 95.6339 138.814 96.1501 137.007 96.8973C136.33 97.1826 136.619 98.3509 137.309 98.0792C138.262 97.7124 139.178 97.5493 140.194 97.5765C141.26 97.6037 142.188 98.2558 143.229 98.2694V98.2829Z" fill="#CEAB80"/>
<path fill-rule="evenodd" clip-rule="evenodd" d="M142.351 100.702C141.762 100.322 141.26 101.287 141.824 101.68C142.803 102.373 143.518 103.256 144.095 104.357C144.572 105.281 144.709 106.327 145.312 107.155C145.45 107.345 145.713 107.21 145.776 107.019C146.478 104.601 144.095 101.83 142.364 100.702H142.351Z" fill="#CEAB80"/>
<path fill-rule="evenodd" clip-rule="evenodd" d="M141.636 105.185C142.163 106.027 142.489 106.91 142.703 107.902C142.866 108.69 142.703 109.545 142.966 110.32C143.041 110.524 143.267 110.619 143.43 110.456C144.81 108.988 143.468 105.959 142.552 104.614C142.151 104.043 141.26 104.573 141.649 105.185H141.636Z" fill="#CEAB80"/>
<path fill-rule="evenodd" clip-rule="evenodd" d="M139.73 109.546C140.018 110.714 139.918 111.72 139.416 112.793C138.952 113.771 138.124 114.45 137.585 115.36C137.421 115.646 137.697 116.107 138.011 115.972C140.382 114.939 141.398 111.787 140.645 109.274C140.457 108.649 139.567 108.907 139.73 109.546Z" fill="#CEAB80"/>
<path fill-rule="evenodd" clip-rule="evenodd" d="M136.054 112.739C135.327 113.635 134.524 114.369 133.533 114.926C132.605 115.456 131.576 115.306 130.61 115.632C130.334 115.727 130.284 116.108 130.535 116.284C132.717 117.806 135.477 115.198 136.732 113.472C137.095 112.956 136.468 112.236 136.054 112.739Z" fill="#CEAB80"/>
<path fill-rule="evenodd" clip-rule="evenodd" d="M131.312 113.35C130.321 113.663 129.355 113.853 128.327 113.798C127.223 113.744 126.495 112.915 125.492 112.739C125.228 112.684 124.978 112.902 125.053 113.214C125.316 114.328 126.508 114.763 127.449 114.994C128.829 115.334 130.309 114.98 131.626 114.505C132.303 114.26 132.027 113.106 131.325 113.337L131.312 113.35Z" fill="#CEAB80"/>
<path fill-rule="evenodd" clip-rule="evenodd" d="M125.868 106.991C125.768 106.951 125.605 106.991 125.529 107.086C124.965 107.861 125.755 108.907 126.307 109.437C127.06 110.17 128.063 110.564 129.029 110.822C129.744 111.026 130.045 109.844 129.33 109.627C128.552 109.396 127.775 109.097 127.148 108.526C126.658 108.092 126.458 107.222 125.855 106.991H125.868Z" fill="#CEAB80"/>
<path fill-rule="evenodd" clip-rule="evenodd" d="M128.641 98.8277C127.875 99.276 127.951 100.39 127.963 101.192C127.963 101.844 128.904 101.844 128.904 101.192C128.904 100.512 128.967 99.8874 129.142 99.2353C129.23 98.9093 128.904 98.6783 128.641 98.8277Z" fill="#CEAB80"/>
<path fill-rule="evenodd" clip-rule="evenodd" d="M134.812 104.818C135.126 104.465 134.812 103.908 134.386 104.016C133.244 104.302 131.952 105.429 131.94 106.801C131.927 107.929 132.931 108.608 133.784 108.948C135.854 109.763 138.965 109.002 139.316 106.285C139.818 102.332 136.029 99.6828 132.83 101.286C131.338 102.033 130.133 103.405 129.719 105.144C129.23 107.182 130.284 109.029 131.701 110.252C131.902 110.428 132.115 110.591 132.341 110.741C132.931 111.176 133.458 110.157 132.893 109.722C131.689 108.785 130.585 107.413 130.823 105.687C131.011 104.397 131.902 103.351 132.893 102.699C135.314 101.082 138.249 102.78 138.149 105.945C138.086 107.861 135.803 108.105 134.499 107.766C134.035 107.644 133.345 107.385 133.207 106.828C133.044 106.122 134.486 105.225 134.825 104.831L134.812 104.818Z" fill="#CEAB80"/>
<path fill-rule="evenodd" clip-rule="evenodd" d="M65.8067 20.5506C65.7691 20.6729 65.7188 20.7952 65.6812 20.931C65.5181 21.5016 66.2332 21.9091 66.5844 21.5559C68.0897 23.4714 69.7581 25.3461 71.5268 27.0442C71.5519 27.2752 71.5519 27.5197 71.577 27.7507C71.6397 28.1446 72.1289 28.0495 72.2418 27.7507C72.2418 27.7507 72.2418 27.7507 72.2418 27.7371C72.4299 27.9137 72.6307 28.0767 72.8188 28.2533C72.8063 28.7424 72.7812 29.2314 72.7812 29.7069C72.7812 29.965 73.145 30.1144 73.2579 29.8427C73.3834 29.5439 73.4712 29.2178 73.5715 28.919C74.0357 29.3129 74.5123 29.6933 74.989 30.0465C74.9388 30.1145 74.9012 30.1824 74.851 30.2367C74.4747 30.7801 75.2524 31.3371 75.6789 30.9295C75.7542 30.848 75.8295 30.7665 75.9173 30.685C76.3187 30.8209 76.695 30.3589 76.6072 29.965C80.7217 25.5906 84.071 19.654 86.63 14.22C88.0349 11.2449 90.7821 4.57476 88.1603 1.47739C83.6695 -3.79356 76.0929 6.36794 75.2524 11.1634C75.0893 10.8102 74.8886 10.4435 74.6753 10.0902C74.7381 9.73703 74.5123 9.50606 74.2489 9.46531C70.7365 4.34378 62.9089 0.200408 60.5005 7.63137C59.2084 11.5982 62.5703 16.0948 64.6275 18.9612C65.0039 19.491 65.3927 20.0208 65.7941 20.5506H65.8067ZM72.9568 26.2835C72.8815 26.2155 72.8063 26.134 72.731 26.0661C73.1199 24.3408 73.2955 22.4933 73.6718 20.7951C73.7596 20.3876 73.8851 19.9801 73.9854 19.5725C73.5213 21.8004 73.145 24.0691 72.9443 26.2835H72.9568ZM76.1932 11.7884C76.833 8.54156 78.5013 6.05549 80.7969 3.90907C81.5872 3.1619 82.5029 2.56416 83.4688 2.12944C82.5029 3.36567 81.7252 4.75135 80.6589 5.91966C80.5586 6.02833 80.521 6.1506 80.521 6.25928C79.1787 11.1227 77.7487 15.9997 76.3814 20.8631C76.971 17.3718 77.2218 13.7717 77.5982 10.4027C77.6483 9.94078 76.9208 9.83212 76.8455 10.294C76.7326 11.0955 76.5947 11.8834 76.4692 12.6714C76.3563 12.4268 76.005 12.3453 75.7918 12.5355C75.7793 12.5083 75.7667 12.4812 75.7542 12.4676C75.7291 12.3725 75.704 12.2774 75.6664 12.1687C75.8922 12.1823 76.143 12.0736 76.1932 11.7884ZM75.2023 27.411C75.6664 26.691 76.0803 25.9439 76.4567 25.1559C76.5821 25.1559 76.7076 25.1288 76.7828 24.9793C79.2289 20.3469 80.0568 14.6683 81.8882 9.72342C82.1391 9.05776 81.1482 8.78607 80.9098 9.43815C80.822 9.66909 80.7342 9.91362 80.6464 10.1582C80.8973 8.94909 81.1607 7.75362 81.4492 6.5989C82.6284 5.29475 83.9581 3.67814 84.2842 1.84417C84.2842 1.83059 84.2842 1.817 84.2842 1.80342C84.4347 1.74908 84.5853 1.68116 84.7358 1.64041C88.1353 0.621536 87.9722 5.09097 87.646 7.35966C86.9185 12.4268 84.3595 16.9506 81.4367 21.1756C81.9761 19.7763 82.4527 18.3499 82.9043 16.8963C83.0172 16.8963 83.1302 16.8691 83.2054 16.7605C84.6229 14.4918 85.6014 11.8834 86.7178 9.42455C86.9561 8.88115 86.216 8.40571 85.9651 8.94911C85.3253 10.3076 84.6355 11.6661 83.9957 13.0382C84.8613 9.73701 85.6013 6.38153 86.3916 3.14831C86.5422 2.53699 85.6892 2.29246 85.5261 2.8902C83.3308 10.9325 81.236 18.7438 77.7864 26.2156C77.0839 27.1529 76.4065 28.0903 75.7542 29.0005C75.3402 28.6065 74.9388 28.2125 74.5374 27.8186C74.5876 27.6827 74.6377 27.5333 74.6879 27.3974C74.7883 27.5876 75.0768 27.6284 75.2148 27.3974L75.2023 27.411ZM74.2614 11.734C74.4371 12.1008 74.6001 12.454 74.7256 12.8208C73.5339 16.3121 71.7526 20.7544 71.4892 24.8027C71.1756 24.4903 70.862 24.1778 70.5609 23.8518C71.3512 22.534 71.715 20.5235 72.1289 19.2601C72.9317 16.7876 73.6217 14.2608 74.2614 11.7204V11.734ZM72.2418 8.7453C71.1881 11.9242 70.0215 15.0487 69.0054 18.2412C68.8047 18.8661 68.2904 20.1023 68.6542 20.768C68.9803 21.3793 69.5323 20.8359 69.6326 20.3876C69.6452 20.3197 69.6326 20.2789 69.6326 20.2246C69.6326 20.211 69.6577 20.1974 69.6702 20.1838C69.8208 19.8986 69.8835 19.5589 69.9713 19.2465C70.2974 18.0646 70.6613 16.8963 71.025 15.728C71.6648 13.6767 72.292 11.6118 72.8941 9.53325C73.1199 9.83212 73.3332 10.1446 73.5464 10.457C72.8314 13.0517 72.0411 15.6193 71.2257 18.1869C70.8117 19.491 69.9212 21.1755 69.4947 22.7242C68.7169 21.882 67.9642 21.0125 67.2241 20.1159C67.8137 18.5944 68.3029 17.0321 68.742 15.4563C68.742 15.4563 68.742 15.4427 68.7545 15.4291C69.1685 13.9348 69.5699 12.4404 70.0465 10.9733C70.2222 10.4163 69.4319 10.1989 69.2438 10.7287C68.4284 13.0789 67.7384 15.4699 66.9105 17.8065C66.7098 18.2276 66.5217 18.6487 66.3461 19.0835C67.9643 15.171 67.889 10.0766 68.19 5.91966C68.19 5.79739 68.1524 5.72946 68.1022 5.66154C69.6201 6.31362 71.0626 7.42759 72.2543 8.7725L72.2418 8.7453ZM63.9375 5.7702C63.3354 8.26983 62.7208 11.3944 63.0344 14.1385C63.0344 14.1385 63.0218 14.125 63.0093 14.1114C60.9019 10.3348 61.0524 3.977 66.5719 5.1453C66.9482 5.22681 67.312 5.34908 67.6883 5.48493C67.5002 5.52568 67.3245 5.64794 67.2995 5.90606C67.0737 8.29701 66.8102 10.6744 66.4841 13.0517C66.2583 14.7635 65.8443 16.4344 65.6436 18.1461C65.0164 17.2903 64.4143 16.4208 63.8498 15.5242C64.1258 14.3695 64.1132 13.174 64.1383 11.9785C64.201 9.98154 64.339 7.98455 64.7028 6.02832C64.8032 5.48492 64.0505 5.254 63.9251 5.7974L63.9375 5.7702Z" fill="#CEAB80"/>
<path fill-rule="evenodd" clip-rule="evenodd" d="M65.744 15.9324C66.3085 14.6418 66.3336 13.1339 66.4716 11.7211C66.6472 10.0637 66.6974 8.37918 66.6848 6.70823C66.6848 6.04257 65.7441 6.04257 65.7315 6.70823C65.6939 8.1754 65.581 9.61544 65.4179 11.069C65.2549 12.6313 64.8408 14.2886 65.1294 15.8373C65.1795 16.1362 65.6186 16.2041 65.7315 15.9188L65.744 15.9324Z" fill="#CEAB80"/>
<path fill-rule="evenodd" clip-rule="evenodd" d="M20.4219 56.103C23.0687 55.7362 27.2585 55.2471 29.5164 53.3588C29.8551 53.3045 30.1437 53.0056 30.0182 52.5573C28.6635 47.8433 26.807 43.2516 24.7999 38.823C23.4075 35.7392 21.6763 31.7316 18.2267 30.9301C13.4599 29.8297 17.2985 41.8931 18.5153 44.5015C18.164 44.5965 17.8002 44.7052 17.4239 44.8275C17.2232 44.7731 17.01 44.8547 16.8845 45.0313C15.9061 45.3845 14.8899 45.8192 13.924 46.3626C13.8864 46.3218 13.8488 46.2811 13.8237 46.2267C13.46 45.7784 12.908 46.3626 13.1338 46.8245C10.2486 48.672 8.39213 51.3754 11.5533 54.6358C13.8739 57.0268 17.5368 56.5106 20.4345 56.103H20.4219ZM17.5117 37.6275C17.2107 36.2962 17.035 34.9377 17.0726 33.552C18.4023 36.1195 19.8198 38.9588 21.438 41.6079C20.4219 40.2629 19.3933 38.918 18.3647 37.5867C18.0386 37.152 17.5242 37.6275 17.612 38.0894C17.5744 37.9399 17.5368 37.7905 17.4992 37.6411L17.5117 37.6275ZM17.6246 38.103C17.6246 38.103 17.6748 38.2252 17.7124 38.2796C19.4811 40.6569 21.2373 43.0343 22.9433 45.4524C23.5329 46.2947 24.0974 47.1641 24.6618 48.0471C24.3482 47.6396 24.0221 47.2456 23.721 46.8245C22.567 45.2486 21.4506 43.632 20.2338 42.1105C19.87 41.6486 19.2679 42.3143 19.6191 42.7762C19.9327 43.1973 20.2464 43.632 20.56 44.0939C20.1711 43.8494 19.6066 44.2841 19.9076 44.7596C21.6136 47.395 23.4953 51.0901 26.2048 52.6388C26.4933 52.8018 26.9073 52.4487 26.6815 52.1226C26.4933 51.8373 26.255 51.5928 26.0417 51.3211C26.2299 51.4705 26.4055 51.6472 26.5937 51.783C26.832 51.946 27.0954 51.6607 27.0202 51.4026C27.2334 51.6607 27.4216 51.9189 27.6474 52.1634C27.9359 52.4758 28.3123 52.0819 28.1743 51.7287C27.4593 49.8947 26.3051 48.2373 25.1385 46.6343C25.4647 46.9875 25.7909 47.3407 26.1296 47.6532C26.4306 47.9249 26.8697 47.5852 26.669 47.2048C25.4773 44.8275 23.7211 42.6946 22.2659 40.4939C20.6227 37.9942 19.1048 35.3995 17.6246 32.7912C17.5368 32.6418 17.4239 32.5875 17.2984 32.5739C18.0887 31.3512 20.5724 33.7558 21.1244 34.5301C24.6242 39.543 26.8822 46.3626 28.6384 52.3535C27.1958 52.7611 25.7783 53.2094 24.3608 53.6305C24.3608 53.5762 24.3859 53.5355 24.3608 53.4811C23.9468 52.0004 22.8931 50.7777 22.1029 49.5143C21.1997 48.0743 20.3843 46.5664 19.707 44.9905C19.707 44.9226 19.6944 44.8547 19.6693 44.7867C19.7446 44.6237 19.7696 44.42 19.6693 44.2162C18.7034 42.3143 18.1138 40.2358 17.612 38.1437L17.6246 38.103ZM18.9919 45.629C19.6442 47.1641 20.4094 48.6177 21.2499 50.0441C22.0151 51.3347 22.7677 52.8154 23.9092 53.7528C23.5078 53.8751 23.1064 53.9973 22.705 54.106C22.2408 52.829 21.3878 51.6607 20.7481 50.4924C19.9202 48.9845 19.0797 47.4766 18.2267 45.9687C18.4776 45.86 18.7285 45.7513 18.9794 45.629H18.9919ZM17.2608 46.3626C18.1138 47.9384 18.9292 49.5279 19.7697 51.1038C20.0958 51.7287 20.422 52.3807 20.7857 53.0192C20.2087 52.2177 19.5188 51.4705 19.0045 50.669C18.2017 49.4192 17.5243 48.1015 16.9347 46.7158C16.897 46.6343 16.8594 46.5935 16.7967 46.5528C16.9472 46.4849 17.1103 46.4305 17.2608 46.3626ZM16.0691 46.8517C16.044 46.9332 16.044 47.0147 16.0691 47.1098C16.6211 48.5634 17.2608 49.949 18.026 51.2939C18.0762 51.3754 18.1264 51.4705 18.1765 51.552C17.8755 51.2396 17.587 50.9271 17.3361 50.6147C16.4831 49.5551 15.6301 48.4954 14.7896 47.4358C15.2161 47.2184 15.6426 47.0419 16.0691 46.8517ZM13.7861 47.9656C13.7861 47.9656 13.8614 47.9249 13.899 47.8977C14.7771 49.0932 15.6301 50.2886 16.5207 51.4705C17.3486 52.5573 18.3396 54.0517 19.5564 54.7853C19.2929 54.826 19.0421 54.894 18.7786 54.9211C18.8163 54.7989 18.8288 54.663 18.7786 54.5407C18.2769 53.4947 17.1103 52.7067 16.3075 51.9188C15.2161 50.832 14.1499 49.7317 13.0962 48.6177C13.046 48.5633 12.9958 48.5362 12.9456 48.509C13.2592 48.2917 13.5603 48.1014 13.7861 47.9656ZM12.2306 49.066C12.2306 49.1883 12.2682 49.3105 12.3686 49.4192C13.3972 50.5603 14.4258 51.7151 15.4795 52.829C16.1694 53.5626 16.9848 54.5407 17.9131 55.0026C17.2984 55.0434 16.6712 55.0434 16.044 55.0026C16.1067 54.9075 16.1444 54.7989 16.1193 54.663C15.9186 53.6577 14.9025 52.829 14.2753 52.0819C13.5101 51.1445 12.7073 50.2479 11.8919 49.3649C12.0048 49.2562 12.1177 49.1611 12.2432 49.066H12.2306ZM11.202 50.2751C11.8794 51.0766 12.5317 51.8917 13.1965 52.7068C13.761 53.386 14.4007 54.4592 15.2036 54.9347C15.0656 54.9211 14.9402 54.9211 14.8147 54.8939C13.1965 54.6494 11.6411 53.2909 11.0766 51.6335C10.9135 51.1445 11.0013 50.6962 11.2145 50.2751H11.202Z" fill="#CEAB80"/>
<path fill-rule="evenodd" clip-rule="evenodd" d="M20.3344 35.6973C21.8522 38.5501 23.4327 41.8105 25.4398 44.2966C25.6154 44.5139 25.9667 44.2966 25.8914 44.0113C24.8879 40.8732 22.6048 38.0882 21.0619 35.2354C20.7859 34.7192 20.0584 35.181 20.3344 35.6973Z" fill="#CEAB80"/>
<path fill-rule="evenodd" clip-rule="evenodd" d="M112.07 61.3465C112.07 61.7948 112.672 62.0122 112.872 61.5775C112.948 61.4281 112.998 61.265 113.061 61.102C113.161 61.4009 113.437 61.659 113.813 61.5911C119.96 60.5179 126.433 59.8386 132.19 57.0944C134.574 55.9533 139.24 54.0786 139.115 50.4786C138.927 45.0718 129.669 46.4846 126.069 48.3322C127.298 45.425 129.004 41.6212 127.449 38.8227C125.831 35.9155 123.698 34.951 120.825 36.554C117.878 38.1978 116.322 42.0831 115.281 45.4114C115.256 45.4522 115.218 45.4793 115.193 45.5201C115.13 45.6152 115.13 45.7103 115.155 45.8189C115.093 46.0363 115.018 46.2672 114.955 46.4846C113.638 50.9405 112.07 56.6461 112.07 61.3465ZM135.264 48.5495C135.715 48.7397 136.104 48.9571 136.43 49.2288C135.289 50.2069 134.11 51.1307 132.956 52.0952C131.751 53.1005 130.209 54.228 129.544 55.7631C129.356 56.1843 129.757 56.7548 130.171 56.4424C131.363 55.5865 132.341 54.3503 133.457 53.3722C134.699 52.299 135.966 51.2801 137.196 50.1933C137.534 50.9541 137.396 51.8507 136.531 52.8152C136.593 52.3261 136.154 51.7963 135.703 52.1631C134.06 53.4673 132.216 54.5133 130.861 56.1843C130.811 56.2386 130.798 56.3065 130.798 56.3609C129.004 57.108 127.135 57.6922 125.216 58.1541C126.107 57.502 126.947 56.782 127.787 56.1299C129.682 54.6492 131.501 53.0461 133.332 51.4567C133.646 51.185 133.432 50.6824 133.119 50.5465C133.771 50.0031 134.423 49.4869 135.076 48.9978C135.226 48.8756 135.276 48.7126 135.251 48.5495H135.264ZM115.419 50.5873C116.673 49.745 117.802 48.631 118.919 47.6257C120.75 45.9684 122.519 44.2295 124.2 42.3956C124.614 41.9473 123.974 41.2544 123.56 41.6891C122.005 43.3057 120.386 44.8273 118.718 46.2944C117.752 47.1367 116.711 47.9518 115.745 48.8348C115.946 47.7616 116.172 46.702 116.473 45.7103C116.473 45.7103 116.473 45.7103 116.473 45.6831C116.648 45.5744 116.811 45.4386 116.974 45.3163C116.749 45.6559 116.535 45.9955 116.385 46.3623C116.259 46.6748 116.535 47.0823 116.849 46.865C118.154 45.982 119.182 44.5963 120.311 43.4823C121.641 42.1782 122.97 40.9012 124.225 39.5291C124.35 39.3933 124.375 39.2438 124.363 39.0944C124.526 38.9857 124.689 38.8499 124.865 38.7412C125.354 38.4152 124.927 37.6136 124.426 37.9125C122.695 38.9314 121.101 40.1268 119.546 41.431C118.831 42.0287 118.053 42.6401 117.301 43.2786C118.505 40.3306 120.462 37.3555 123.447 36.9616C128.465 36.3095 126.533 43.3601 125.868 45.3842C125.592 46.2129 125.279 47.028 124.978 47.8567C124.965 47.8567 124.952 47.8567 124.927 47.8567C123.108 48.1284 121.202 48.862 119.358 49.7993C119.446 49.7178 119.533 49.6363 119.621 49.5684C121.766 47.7073 123.836 45.7782 125.78 43.6725C126.282 43.1291 125.517 42.314 125.015 42.8438C123.246 44.705 121.365 46.4303 119.433 48.1012C118.103 49.2559 116.573 50.3427 115.256 51.6061C115.306 51.2665 115.369 50.9133 115.419 50.5737V50.5873ZM121.503 50.7774C121.691 50.6823 121.766 50.5193 121.779 50.3563C122.77 49.9216 123.736 49.4461 124.626 48.8484C124.576 48.9843 124.526 49.1201 124.476 49.2695C124.375 49.5956 124.513 49.7993 124.714 49.908C121.528 51.1986 118.442 53.2771 115.645 55.111C115.08 55.4778 115.595 56.4288 116.159 56.0756C119.947 53.6846 124.062 52.1088 127.875 49.8265C128.314 49.5684 128.001 48.8891 127.549 48.9978C127.386 49.0386 127.223 49.0929 127.047 49.1337C128.728 48.305 130.51 47.979 132.441 48.0061C133.181 48.0061 133.896 48.1148 134.549 48.305C134.06 48.631 133.57 48.9707 133.081 49.3103C133.043 49.2695 132.993 49.2288 132.931 49.2559C131.94 49.6227 130.986 50.0575 130.02 50.5058C129.983 50.4786 129.932 50.465 129.882 50.465C124.915 51.5518 120.085 54.6763 115.369 56.6733C114.729 56.945 115.005 58.0726 115.657 57.8009C117.087 57.2167 118.618 56.6325 120.161 56.0348C119.86 56.2114 119.558 56.388 119.257 56.5646C118.166 57.1624 117.087 57.7601 115.996 58.385C115.369 58.7382 115.921 59.7163 116.535 59.3903C120.662 57.2846 124.727 54.9344 128.691 52.4348C128.666 52.4348 128.653 52.462 128.628 52.4756C126.382 54.1329 123.911 55.5322 121.766 57.3254C121.465 57.5699 121.616 58.1676 122.042 58.0318C122.895 57.7465 123.736 57.3526 124.551 56.9179C123.723 57.502 122.908 58.1133 122.18 58.8197C119.207 59.3767 116.234 59.7843 113.437 60.2733C113.399 60.2733 113.374 60.3005 113.349 60.3141C114.014 58.5209 114.415 56.5511 114.754 54.5269C117.037 53.3722 119.245 52.0409 121.478 50.791L121.503 50.7774Z" fill="#CEAB80"/>
<path fill-rule="evenodd" clip-rule="evenodd" d="M115.356 76.3578C114.115 76.7654 114.39 74.8907 113.889 74.225C113.763 74.062 113.525 74.0891 113.4 74.225C112.722 74.9314 112.998 76.4122 113.6 77.105C114.165 77.7571 114.93 77.8793 115.695 77.6891C117.138 77.3359 118.405 75.4884 117.238 74.1027C115.582 72.1193 112.408 71.9155 110.602 73.6952C109.762 74.5238 109.548 75.7601 109.699 76.9284C109.762 77.4174 110.013 78.2054 110.376 78.8031C102.662 84.2507 95.0097 94.548 92.2877 103.922C92.1246 104.506 92.9776 104.913 93.2034 104.343C97.3931 94.0726 104.079 87.3752 111.054 79.5231C111.33 79.6861 111.643 79.7133 111.982 79.5095C112.17 79.4008 112.296 79.1699 112.283 78.939C112.258 78.3412 111.693 77.988 111.418 77.499C111.342 77.3767 111.254 77.3088 111.154 77.2816C110.765 76.2356 110.803 75.1352 111.857 74.3609C113.211 73.3692 115.055 73.9397 116.209 74.9857C116.837 75.5563 115.808 76.2084 115.344 76.3578H115.356Z" fill="#CEAB80"/>
<path fill-rule="evenodd" clip-rule="evenodd" d="M56.2856 115.455C56.6494 116.08 57.5275 115.523 57.2013 114.871C54.1531 109.016 48.9724 103.609 43.2522 100.906C42.8759 100.729 42.6125 101.218 42.9386 101.49C48.0441 105.674 52.836 109.478 56.2982 115.455H56.2856Z" fill="#CEAB80"/>
<path fill-rule="evenodd" clip-rule="evenodd" d="M41.6844 120.047C41.2328 119.965 40.8691 120.658 41.3458 120.916C45.7111 123.198 51.1552 122.872 54.1658 127.681C54.4167 128.075 55.0063 127.722 54.7679 127.301C52.0709 122.438 46.5515 120.957 41.6844 120.047Z" fill="#CEAB80"/>
<path fill-rule="evenodd" clip-rule="evenodd" d="M107.303 120.889C104.769 120.482 101.62 122.383 99.5255 123.769C97.1421 125.345 95.2104 127.641 94.533 130.616C94.3699 131.349 95.3735 131.648 95.5742 130.928C96.3895 128.048 98.384 126.092 100.705 124.571C102.812 123.198 105.334 122.968 107.403 121.704C107.692 121.528 107.667 120.943 107.303 120.875V120.889Z" fill="#CEAB80"/>
<path fill-rule="evenodd" clip-rule="evenodd" d="M33.0037 117.071C32.0252 120.169 35.1864 123.049 37.7704 123.062C38.3726 123.062 38.36 122.098 37.7704 122.057C35.8637 121.921 33.7814 119.856 34.095 117.642C34.371 115.727 37.482 114.884 38.7615 116.093C39.5769 116.854 39.627 118.416 39.2131 119.422C38.6235 120.834 37.7203 118.729 37.2812 118.172C37.0805 117.927 36.6289 118.117 36.6666 118.444C36.8296 120.264 38.6485 122.424 40.0535 120.4C41.0947 118.905 40.7434 116.27 39.4764 115.074C37.5572 113.268 33.8065 114.558 33.0162 117.058L33.0037 117.071Z" fill="#CEAB80"/>
<path fill-rule="evenodd" clip-rule="evenodd" d="M41.0948 74.143C42.4496 75.5558 43.7918 76.9958 45.0839 78.463C45.4226 78.8433 45.8992 78.2864 45.6107 77.8924C44.4316 76.2758 43.2274 74.7271 41.8977 73.2599C40.7436 71.983 39.4641 70.3799 37.9462 69.6192C37.6452 69.4697 37.2312 69.7958 37.4444 70.1626C38.3727 71.6841 39.8781 72.8796 41.0948 74.143Z" fill="#CEAB80"/>
<path fill-rule="evenodd" clip-rule="evenodd" d="M87.8218 67.3917C87.6588 67.8672 88.3737 68.1932 88.5744 67.7313C91.3592 61.2513 95.825 56.4694 99.952 51.049C100.366 50.5056 99.7388 49.8264 99.2495 50.2747C94.3448 54.7305 90.1049 60.9117 87.8218 67.3781V67.3917Z" fill="#CEAB80"/>
<path fill-rule="evenodd" clip-rule="evenodd" d="M104.255 48.3179C103.1 49.3503 102.661 51.3881 104.004 52.4613C105.158 53.3851 106.839 52.502 107.667 51.5239C109.322 49.5269 109.297 45.8726 106.814 44.745C104.857 43.862 102.285 44.5413 100.805 46.1307C98.6598 48.4401 100.378 51.4424 102.26 53.1405C102.774 53.6024 103.527 52.8281 103.013 52.3254C101.758 51.0892 100.24 49.1466 101.432 47.3126C102.285 45.9948 104.104 45.5465 105.496 45.6824C107.152 45.8454 107.88 47.2311 107.616 48.9156C107.403 50.2469 106.65 51.5646 105.271 51.619C103.69 51.6733 104.681 49.5677 104.907 48.739C105.032 48.3043 104.543 48.0869 104.267 48.3315L104.255 48.3179Z" fill="#CEAB80"/>
<path fill-rule="evenodd" clip-rule="evenodd" d="M68.002 48.617C68.6292 43.2102 67.5127 37.3551 64.6526 32.8042C64.4268 32.4374 63.8247 32.6547 63.9627 33.1166C65.5433 38.3876 67.3371 42.9385 67.475 48.617C67.475 48.9974 67.9518 48.9702 68.002 48.617Z" fill="#CEAB80"/>
<path fill-rule="evenodd" clip-rule="evenodd" d="M85.4635 35.0598C85.4635 35.739 86.4043 35.739 86.4419 35.0598C86.6677 30.1828 88.4741 26.1889 89.6783 21.5971C89.7912 21.1896 89.2895 21.013 89.0888 21.3254C86.5548 25.1156 85.4509 30.4545 85.4635 35.0598Z" fill="#CEAB80"/>
<path fill-rule="evenodd" clip-rule="evenodd" d="M32.8409 60.0693C31.3105 60.0693 31.3105 62.6369 32.8409 62.6369C34.3713 62.6369 34.3713 60.0693 32.8409 60.0693Z" fill="#CEAB80"/>
<path fill-rule="evenodd" clip-rule="evenodd" d="M26.3932 58.9277C24.9757 58.9277 24.9757 61.3187 26.3932 61.3187C27.8107 61.3187 27.8107 58.9277 26.3932 58.9277Z" fill="#CEAB80"/>
<path fill-rule="evenodd" clip-rule="evenodd" d="M25.6278 123.851C24.2354 123.851 24.2354 126.187 25.6278 126.187C27.0202 126.187 27.0202 123.851 25.6278 123.851Z" fill="#CEAB80"/>
<path fill-rule="evenodd" clip-rule="evenodd" d="M16.9097 124.924C15.8058 124.924 15.8058 126.771 16.9097 126.771C18.0136 126.771 18.0136 124.924 16.9097 124.924Z" fill="#CEAB80"/>
<path fill-rule="evenodd" clip-rule="evenodd" d="M25.6279 118.322C25.9541 118.322 25.9541 117.765 25.6279 117.765C25.3018 117.765 25.3018 118.322 25.6279 118.322Z" fill="#CEAB80"/>
<path fill-rule="evenodd" clip-rule="evenodd" d="M21.0742 62.9356C21.99 62.9356 21.99 61.4141 21.0742 61.4141C20.1585 61.4141 20.1585 62.9356 21.0742 62.9356Z" fill="#CEAB80"/>
<path fill-rule="evenodd" clip-rule="evenodd" d="M80.7468 57.6097C82.1267 58.4655 83.2933 57.2022 82.503 55.7078C81.4493 53.7108 78.9154 56.4686 80.7468 57.6097Z" fill="#CEAB80"/>
<path fill-rule="evenodd" clip-rule="evenodd" d="M84.0459 52.8418C83.2054 52.8418 83.2054 54.2546 84.0459 54.2546C84.8863 54.2546 84.8863 52.8418 84.0459 52.8418Z" fill="#CEAB80"/>
<path fill-rule="evenodd" clip-rule="evenodd" d="M110.226 41.4437C111.467 41.4437 111.467 39.3516 110.226 39.3516C108.984 39.3516 108.984 41.4437 110.226 41.4437Z" fill="#CEAB80"/>
<path fill-rule="evenodd" clip-rule="evenodd" d="M121.98 71.875C120.336 71.9701 120.336 74.5376 121.98 74.6327C122.406 74.6599 122.732 74.6192 123.134 74.4018C123.924 73.9535 123.924 72.5679 123.134 72.1196C122.745 71.9022 122.419 71.8614 121.98 71.8886V71.875Z" fill="#CEAB80"/>
<path fill-rule="evenodd" clip-rule="evenodd" d="M118.944 70.2168C120.211 70.2168 120.211 68.084 118.944 68.084C117.677 68.084 117.677 70.2168 118.944 70.2168Z" fill="#CEAB80"/>
<path fill-rule="evenodd" clip-rule="evenodd" d="M120.462 95.8387C120.926 95.8387 120.926 95.0508 120.462 95.0508C119.997 95.0508 119.997 95.8387 120.462 95.8387Z" fill="#CEAB80"/>
<path fill-rule="evenodd" clip-rule="evenodd" d="M109.799 116.27C109.799 116.27 109.837 116.216 109.849 116.189C110.063 115.876 110.063 115.278 109.849 114.966C109.837 114.939 109.812 114.912 109.799 114.884C109.097 113.825 107.441 114.124 107.441 115.577C107.441 117.031 109.097 117.33 109.799 116.27Z" fill="#CEAB80"/>
<path fill-rule="evenodd" clip-rule="evenodd" d="M109.849 121.445C108.532 121.445 108.532 123.66 109.849 123.66C111.167 123.66 111.167 121.445 109.849 121.445Z" fill="#CEAB80"/>
<path fill-rule="evenodd" clip-rule="evenodd" d="M113.261 117.765C111.957 117.765 111.957 119.952 113.261 119.952C114.566 119.952 114.566 117.765 113.261 117.765Z" fill="#CEAB80"/>
<path fill-rule="evenodd" clip-rule="evenodd" d="M120.085 121.568C118.906 121.568 118.906 123.538 120.085 123.538C121.264 123.538 121.264 121.568 120.085 121.568Z" fill="#CEAB80"/>
<path fill-rule="evenodd" clip-rule="evenodd" d="M56.3611 24.1373C58.0295 24.1373 58.0295 21.3252 56.3611 21.3252C54.6928 21.3252 54.6928 24.1373 56.3611 24.1373Z" fill="#CEAB80"/>
<path fill-rule="evenodd" clip-rule="evenodd" d="M51.4312 18.7033C52.51 18.7033 52.51 16.8965 51.4312 16.8965C50.3524 16.8965 50.3524 18.7033 51.4312 18.7033Z" fill="#CEAB80"/>
<path fill-rule="evenodd" clip-rule="evenodd" d="M92.4002 19.2601C93.642 19.2601 93.642 17.168 92.4002 17.168C91.1583 17.168 91.1583 19.2601 92.4002 19.2601Z" fill="#CEAB80"/>
<path fill-rule="evenodd" clip-rule="evenodd" d="M125.78 64.8926C124.125 64.8926 124.125 67.6639 125.78 67.6639C127.436 67.6639 127.436 64.8926 125.78 64.8926Z" fill="#CEAB80"/>
<path fill-rule="evenodd" clip-rule="evenodd" d="M123.121 67.2285C121.804 67.2285 121.804 69.4429 123.121 69.4429C124.438 69.4429 124.438 67.2285 123.121 67.2285Z" fill="#CEAB80"/>
<path fill-rule="evenodd" clip-rule="evenodd" d="M127.675 74.2249C128.829 74.2249 128.829 72.2822 127.675 72.2822C126.521 72.2822 126.521 74.2249 127.675 74.2249Z" fill="#CEAB80"/>
<path fill-rule="evenodd" clip-rule="evenodd" d="M131.839 65.9378C132.905 65.9378 132.905 64.1582 131.839 64.1582C130.773 64.1582 130.773 65.9378 131.839 65.9378Z" fill="#CEAB80"/>
<path fill-rule="evenodd" clip-rule="evenodd" d="M122.745 96.3272C124.288 96.3272 124.288 93.7461 122.745 93.7461C121.202 93.7461 121.202 96.3272 122.745 96.3272Z" fill="#CEAB80"/>
<path fill-rule="evenodd" clip-rule="evenodd" d="M117.802 98.7188C116.322 98.7188 116.322 101.191 117.802 101.191C119.283 101.191 119.283 98.7188 117.802 98.7188Z" fill="#CEAB80"/>
<path fill-rule="evenodd" clip-rule="evenodd" d="M118.191 92.4561C117.087 92.4561 117.087 94.3172 118.191 94.3172C119.295 94.3172 119.295 92.4561 118.191 92.4561Z" fill="#CEAB80"/>
<path fill-rule="evenodd" clip-rule="evenodd" d="M31.6992 93.2168C30.5075 93.2168 30.5075 95.2002 31.6992 95.2002C32.8909 95.2002 32.8783 93.2168 31.6992 93.2168Z" fill="#CEAB80"/>
<path fill-rule="evenodd" clip-rule="evenodd" d="M14.6267 91.0566C13.8113 91.0566 13.8113 92.4287 14.6267 92.4287C15.442 92.4287 15.442 91.0566 14.6267 91.0566Z" fill="#CEAB80"/>
<path fill-rule="evenodd" clip-rule="evenodd" d="M10.073 120.428C8.99422 120.428 8.99422 122.235 10.073 122.235C11.1518 122.235 11.1518 120.428 10.073 120.428Z" fill="#CEAB80"/>
<path fill-rule="evenodd" clip-rule="evenodd" d="M13.1088 116.528C11.8042 116.528 11.8042 118.729 13.1088 118.729C14.4134 118.729 14.4134 116.528 13.1088 116.528Z" fill="#CEAB80"/>
<path fill-rule="evenodd" clip-rule="evenodd" d="M54.8432 63.2207C53.6515 63.2207 53.6515 65.2177 54.8432 65.2177C56.0349 65.2177 56.0349 63.2207 54.8432 63.2207Z" fill="#CEAB80"/>
<path fill-rule="evenodd" clip-rule="evenodd" d="M65.5056 106.883C64.7278 107.114 64.3641 108.106 64.7655 108.853C65.2297 109.723 66.4464 109.736 66.9105 108.853C67.4374 107.848 66.5969 106.557 65.5056 106.883Z" fill="#CEAB80"/>
<path fill-rule="evenodd" clip-rule="evenodd" d="M66.9734 101.843C65.7817 101.843 65.7817 103.84 66.9734 103.84C68.1651 103.84 68.1651 101.843 66.9734 101.843Z" fill="#CEAB80"/>
<path fill-rule="evenodd" clip-rule="evenodd" d="M62.4324 106.068C61.8679 106.068 61.8679 107.006 62.4324 107.006C62.9969 107.006 62.9843 106.068 62.4324 106.068Z" fill="#CEAB80"/>
<path fill-rule="evenodd" clip-rule="evenodd" d="M79.8812 119.313C78.4637 119.313 78.4637 121.704 79.8812 121.704C81.2987 121.704 81.2987 119.313 79.8812 119.313Z" fill="#CEAB80"/>
<path fill-rule="evenodd" clip-rule="evenodd" d="M80.2575 124.435C79.0658 124.435 79.0658 126.432 80.2575 126.432C81.4492 126.432 81.4492 124.435 80.2575 124.435Z" fill="#CEAB80"/>
<path fill-rule="evenodd" clip-rule="evenodd" d="M94.2946 89.168C93.1782 89.168 93.1782 91.0427 94.2946 91.0427C95.411 91.0427 95.411 89.168 94.2946 89.168Z" fill="#CEAB80"/>
<path fill-rule="evenodd" clip-rule="evenodd" d="M76.8456 84.8342C77.9118 84.8342 77.9118 83.041 76.8456 83.041C75.7793 83.041 75.7793 84.8342 76.8456 84.8342Z" fill="#CEAB80"/>
<path fill-rule="evenodd" clip-rule="evenodd" d="M86.6174 99.547V99.9002C86.6174 101.612 89.0636 101.612 89.0636 99.9002V99.547C89.0636 97.8489 86.6174 97.8489 86.6174 99.547Z" fill="#CEAB80"/>
<path fill-rule="evenodd" clip-rule="evenodd" d="M69.6327 69.4971C68.0772 69.4971 68.0772 72.1054 69.6327 72.1054C71.1881 72.1054 71.1881 69.4971 69.6327 69.4971Z" fill="#CEAB80"/>
<path fill-rule="evenodd" clip-rule="evenodd" d="M66.5969 69.5791C67.6004 69.5791 67.6004 67.8945 66.5969 67.8945C65.5934 67.8945 65.5934 69.5791 66.5969 69.5791Z" fill="#CEAB80"/>
<path fill-rule="evenodd" clip-rule="evenodd" d="M56.361 69.5522C57.3144 69.5522 57.3144 67.9492 56.361 67.9492C55.4077 67.9492 55.4077 69.5522 56.361 69.5522Z" fill="#CEAB80"/>
<path fill-rule="evenodd" clip-rule="evenodd" d="M55.9723 6.19203C56.8253 6.19203 56.8253 4.76562 55.9723 4.76562C55.1193 4.76562 55.1193 6.19203 55.9723 6.19203Z" fill="#CEAB80"/>
<path fill-rule="evenodd" clip-rule="evenodd" d="M51.0424 9.34277C52.2215 9.34277 52.2215 7.35938 51.0424 7.35938C49.8632 7.35938 49.8507 9.34277 51.0424 9.34277Z" fill="#CEAB80"/>
<path fill-rule="evenodd" clip-rule="evenodd" d="M8.94398 65.1097C10.0102 65.1097 10.0102 63.3301 8.94398 63.3301C7.87772 63.3301 7.87772 65.1097 8.94398 65.1097Z" fill="#CEAB80"/>
<path fill-rule="evenodd" clip-rule="evenodd" d="M5.53201 58.8329C6.44773 58.8329 6.44773 57.2979 5.53201 57.2979C4.61628 57.2979 4.61628 58.8329 5.53201 58.8329Z" fill="#CEAB80"/>
<path fill-rule="evenodd" clip-rule="evenodd" d="M120.838 30.6449C122.431 30.6449 122.431 27.9551 120.838 27.9551C119.245 27.9551 119.245 30.6449 120.838 30.6449Z" fill="#CEAB80"/>
<path fill-rule="evenodd" clip-rule="evenodd" d="M117.05 24.9523C118.216 24.9523 118.216 22.9824 117.05 22.9824C115.883 22.9824 115.883 24.9523 117.05 24.9523Z" fill="#CEAB80"/>
<path fill-rule="evenodd" clip-rule="evenodd" d="M116.673 15.8226C117.739 15.8226 117.739 14.043 116.673 14.043C115.607 14.043 115.607 15.8226 116.673 15.8226Z" fill="#CEAB80"/>
<path fill-rule="evenodd" clip-rule="evenodd" d="M0.978445 94.7656C-0.326148 94.7656 -0.326148 96.9528 0.978445 96.9528C2.28304 96.9528 2.28304 94.7656 0.978445 94.7656Z" fill="#CEAB80"/>
<path fill-rule="evenodd" clip-rule="evenodd" d="M148.159 89.4395C146.879 89.4395 146.879 91.5859 148.159 91.5859C149.438 91.5859 149.438 89.4395 148.159 89.4395Z" fill="#CEAB80"/>
<path fill-rule="evenodd" clip-rule="evenodd" d="M150.053 95.7568C148.962 95.7568 148.962 97.5908 150.053 97.5908C151.145 97.5908 151.145 95.7568 150.053 95.7568Z" fill="#CEAB80"/>
<path fill-rule="evenodd" clip-rule="evenodd" d="M155.36 95.6348C154.118 95.6348 154.118 97.7268 155.36 97.7268C156.601 97.7268 156.601 95.6348 155.36 95.6348Z" fill="#CEAB80"/>
</svg>
