<svg width="144" height="142" viewBox="0 0 144 142" fill="none" xmlns="http://www.w3.org/2000/svg">
<path fill-rule="evenodd" clip-rule="evenodd" d="M142.913 83.0068C143.408 83.1141 143.767 82.7117 143.681 82.2019C142.987 78.1508 140.25 73.6972 136.373 72.1546C136.93 71.6046 137.413 71.0144 137.785 70.5046C139.383 68.3449 140.473 65.8364 140.349 63.0731C140.336 62.6841 139.952 62.295 139.556 62.4426C138.8 62.7377 138.082 63.1938 137.426 63.7438C139.519 59.5854 140.634 54.4879 139.16 50.1819C139.073 49.9404 138.875 49.7392 138.615 49.7526C136.435 49.8331 134.861 54.4611 134.23 56.1781C134.056 56.6342 133.92 57.1037 133.796 57.5866C133.573 57.3854 133.326 57.1976 133.065 57.0098C133.722 55.105 133.065 53.4818 131.901 52.2209C132.05 52.2209 132.211 52.1538 132.248 51.966C132.88 48.7197 131.666 45.4869 128.619 44.1857C125.522 42.8711 115.489 41.7309 118.635 36.3517C118.697 36.2578 118.709 36.1639 118.722 36.0834C120.27 36.4322 121.831 36.7541 123.342 37.2907C126.327 38.337 127.219 40.1077 127.789 43.1394C127.875 43.5955 128.52 43.5552 128.631 43.1394C129.027 41.6772 128.941 40.5101 128.52 39.5711C130.836 40.7919 133.449 41.4357 135.654 41.3284C136.013 41.315 136.397 40.9394 136.236 40.537C134.923 37.1432 132.236 32.3811 128.78 30.7311C131.207 29.497 133.425 27.9141 135.035 25.5666C135.171 25.3654 135.134 25.0032 134.948 24.8422C133.004 23.2593 130.687 23.769 128.619 25.1641C128.78 23.4873 128.581 21.7435 128.185 20.4959C127.467 18.2558 125.956 17.0216 124.172 16.7668C125.633 12.5681 123.206 7.43038 122.029 3.12437C121.88 2.57439 121.187 2.64146 121.013 3.12437C119.341 7.63159 118.152 12.7827 121.1 17.035C121.149 17.1021 121.199 17.1558 121.261 17.1826C121.026 17.2765 120.778 17.357 120.53 17.4911C119.96 17.7863 120.456 18.6314 121.026 18.3631C121.41 18.1753 121.781 18.0545 122.14 17.9606C121.856 18.5106 121.546 19.074 121.187 19.6508C121.187 19.6508 121.187 19.6508 121.187 19.6643C121.125 19.6777 121.075 19.6911 121.013 19.7045C120.728 19.8118 120.629 20.0801 120.654 20.3216C120.493 20.1606 120.307 20.013 120.121 19.8789C120.468 19.0472 120.282 17.8801 120.035 17.0485C119.874 16.4985 119.564 16.0424 119.192 15.64C117.718 12.5681 112.665 10.9986 109.865 12.4608C110.732 8.55718 110.769 4.06337 109.766 0.414671C109.667 0.0524833 109.122 -0.175561 108.862 0.173212C106.087 3.86216 106.385 8.81205 108.416 12.8095C108.466 12.9168 108.54 12.9705 108.614 13.0242C108.614 13.212 108.602 13.3998 108.589 13.601C108.416 13.8693 108.255 14.151 108.156 14.4863C108.131 14.4863 108.094 14.4729 108.069 14.4595C107.983 9.2279 103.003 6.43772 98.6306 4.59995C98.2342 4.43898 97.8502 4.84141 97.8378 5.23043C97.6892 10.1803 102.334 13.9766 106.769 15.3314C106.818 15.7339 106.855 16.1363 106.917 16.5521C106.992 17.0619 107.772 17.0216 107.871 16.5521C107.921 16.3107 107.945 16.096 107.97 15.868C107.97 16.0558 107.945 16.2168 107.97 16.418C108.032 17.1155 109.085 17.1424 109.035 16.418C109.011 16.1631 109.035 15.9351 109.073 15.7204C109.382 15.5595 109.494 15.1302 109.258 14.8888C109.902 13.212 111.909 12.8632 113.804 13.3059C114.944 13.5741 115.786 14.0705 116.492 14.7144C115.86 14.7949 115.241 14.9961 114.708 15.2644C113.544 15.8412 112.405 16.9948 112.256 18.3899C112.07 20.0801 113.532 21.0594 114.894 21.5154C114.869 22.0788 114.931 22.6557 115.006 23.152C115.13 23.93 116.257 23.5947 116.145 22.83C115.898 21.2337 116.331 19.7447 118.14 20.2813C118.301 20.335 118.585 20.4557 118.883 20.6033C118.152 21.2472 115.922 23.5812 117.991 24.1581C118.301 24.2385 118.647 24.2386 119.007 24.1715C119.007 24.7349 118.982 25.2849 119.093 25.8483C119.254 26.6531 120.443 26.3178 120.282 25.5129C120.171 24.9361 120.295 24.2788 120.245 23.6886C120.679 23.4069 121.038 23.0581 121.249 22.6557C121.608 21.9984 121.472 21.3813 121.088 20.8313C121.162 20.8313 121.236 20.8313 121.323 20.8045C123.305 20.2142 124.618 21.1667 124.494 23.3264C124.444 24.2117 124.048 25.0434 123.565 25.7544C122.97 26.6531 121.955 26.9617 121.298 27.7263C121.137 27.9141 121.174 28.2763 121.447 28.3299C124.036 28.8128 125.745 24.9495 125.745 22.8166C125.745 20.6301 124.308 19.4496 122.562 19.4496C123.032 18.9533 123.391 18.4301 123.689 17.8936C125.411 18.1082 126.699 19.4899 127.256 21.6898C127.603 23.0447 127.529 24.5202 127.244 25.8751C127.207 26.0763 127.12 26.2507 127.058 26.4385C125.658 27.7397 124.494 29.3494 123.763 30.7982C123.441 30.9591 123.107 31.1469 122.772 31.3884C122.723 31.4286 122.698 31.4689 122.661 31.5091C121.682 30.7579 120.468 30.3421 119.13 30.114C119.18 30.0604 119.205 30.0067 119.205 29.9128C119.391 26.2641 117.062 24.48 113.779 24.091C109.184 23.5544 103.598 25.9824 100.216 21.9045C100.253 21.9045 100.303 21.9045 100.34 21.891C105.505 21.1264 109.333 19.9325 113.891 23.2995C114.213 23.5276 114.56 23.0849 114.399 22.7764C112.937 20.0801 110.2 19.5167 107.437 19.5704C107.45 19.5033 107.475 19.4362 107.437 19.3691C105.852 14.8753 103.077 14.4863 99.9064 15.3314C99.9064 15.3314 99.9064 15.3046 99.894 15.2912C98.7421 13.8156 96.7355 13.3327 94.8775 13.3863C93.7503 12.4608 92.0657 12.112 90.7279 11.79C88.7832 11.3205 86.8262 11.4144 84.931 12.0315C84.5718 12.1522 84.5099 12.5144 84.6213 12.7827C84.1259 12.9437 83.6304 13.1449 83.1473 13.3998C83.1845 13.2924 83.1721 13.1717 83.073 13.0778C81.3513 11.5888 78.3041 11.723 76.1736 12.3669C70.0175 12.5412 67.4287 21.9179 61.0248 22.374C61.1982 22.1593 61.3716 21.9581 61.5326 21.7435C62.7217 20.1606 63.8613 18.5509 65.1619 17.0753C67.1686 14.7814 69.4725 14.0034 72.1356 12.8766C72.4824 12.729 72.4329 12.2327 72.0489 12.1925C69.8689 12.0181 68.0728 12.7156 66.4749 13.8827C66.5864 13.6278 66.4378 13.279 66.0909 13.2388C63.1553 12.8364 60.0462 15.1973 57.9529 17.0753C56.8257 18.0948 55.81 19.3021 54.9553 20.6301C55.1287 18.7789 55.1411 16.8607 55.0792 14.8485C55.0668 14.3656 54.5218 14.1375 54.1874 14.4595C52.1436 16.4314 49.3442 20.402 48.6134 24.1044C47.7959 20.8716 46.5696 17.6387 44.1666 15.5997C43.8569 15.3314 43.3614 15.3985 43.2376 15.8546C42.0732 20.2008 43.4853 24.5739 46.2104 27.8872C46.1608 27.8738 46.1237 27.847 46.0741 27.8202C43.9189 27.0287 41.6397 27.4982 39.8684 28.6787C41.8007 26.5056 42.4696 22.9642 42.5068 20.2411C42.5068 19.9191 42.2343 19.6106 41.9122 19.624C37.8122 19.8655 36.524 25.4324 37.2796 28.8799C37.3416 29.1884 37.5645 29.2958 37.7875 29.2958C37.5645 29.6982 38.0476 30.114 38.4192 29.9128C38.4563 29.886 38.4935 29.8592 38.5307 29.8323C38.0352 30.3555 37.6141 30.9323 37.3044 31.5494C37.2549 27.8068 36.2887 23.8898 36.1648 20.2411C36.1524 19.7447 35.5207 19.4094 35.1739 19.8118C32.0277 23.4337 32.325 29.0543 35.9542 32.2067C35.9914 32.5688 36.0409 32.9176 36.0905 33.2798C33.8485 30.1811 31.0491 27.5116 27.0359 27.686C26.6395 27.6994 26.3174 28.0885 26.4289 28.5043C26.4785 28.6921 26.5652 28.8531 26.6271 29.0409C26.3918 29.2823 26.3051 29.6848 26.6023 29.9396C26.8129 30.114 27.0235 30.3152 27.2464 30.5165C27.7791 31.5494 28.4727 32.475 29.2778 33.2664C28.9186 33.1188 28.5594 33.0115 28.1878 32.9713C27.0359 32.8371 25.661 33.2798 24.8187 34.192C25.9459 28.4104 24.9301 22.6557 22.7005 17.2363C22.6262 17.0619 22.3785 16.9277 22.2051 16.9411C22.0812 16.9411 21.9574 16.9411 21.8335 16.9411C21.5858 16.9411 21.3504 17.1155 21.2885 17.3704C20.1241 22.0923 19.8145 26.7605 21.4867 31.0262C20.6072 30.1275 19.6658 29.2689 18.7616 28.4506C17.1761 27.0019 15.442 25.7544 13.4354 25.0568C12.977 24.8958 12.6674 25.3788 12.7293 25.7946C13.2867 29.7518 17.3 31.925 20.5824 33.1323C20.6072 33.1323 20.632 33.1323 20.6444 33.1323C20.0003 33.1725 19.3686 33.3066 18.7988 33.5347C17.0399 34.2188 15.4172 35.6005 14.5873 37.3712C14.3767 37.8273 14.2405 38.3773 14.1909 38.9407C12.2834 35.8822 8.97615 34.5139 6.26348 32.1396C5.86711 31.7908 5.26018 32.0054 5.23541 32.5823C5.03722 37.2639 9.34777 39.8931 13.0142 41.6101C11.2677 41.3955 9.57072 42.3077 8.55502 44.5479C7.5517 46.7478 8.03477 48.7063 9.36014 49.9404C8.62933 50.6514 8.1958 51.8587 8.24535 53.3208C8.30728 55.5476 9.54595 57.4525 11.2677 58.3378C7.91091 57.0635 3.51366 56.9293 0.454166 58.1768C-0.0412991 58.3781 -0.189952 59.0488 0.305514 59.3707C3.87286 61.6109 8.82753 61.8255 12.6674 60.0012C12.7293 60.0012 12.8036 60.0146 12.8656 60.0012C9.18673 63.6633 6.88282 68.9486 7.06862 74.2338C7.0934 74.8106 7.7375 75.0923 8.13387 74.6899C12.2834 70.6522 15.1571 66.2255 15.603 60.5378C15.7393 60.3231 15.8879 60.0951 16.0365 59.8805C16.5444 61.4231 17.6468 62.7109 19.1084 63.4621C19.6411 63.7438 20.2604 63.8914 20.8921 63.9316C17.6344 66.2791 15.5287 69.8876 14.5254 74.0594C14.4511 74.3948 14.6245 74.7838 14.9589 74.8643C19.4305 75.9374 22.5147 71.6583 24.1869 67.3791C24.1869 67.9425 24.2737 68.5059 24.3851 69.0693C24.2241 69.0693 24.0631 69.1364 23.9888 69.3242C22.3909 72.9863 21.6477 76.7557 21.945 80.78C21.9945 81.4776 22.9978 81.6922 23.1712 80.9544C23.5305 79.3849 24.1002 77.735 24.5709 76.0582C25.0292 77.2386 25.7972 78.3118 26.751 79.2239C26.6023 79.3313 26.5032 79.5191 26.5528 79.7605C26.912 81.5312 27.4818 83.1678 28.1631 84.7641C28.1383 84.8043 28.1135 84.8445 28.0887 84.8982C26.8377 89.1506 27.3208 93.3493 28.5966 97.4138C28.4356 97.387 28.2374 97.4541 28.1631 97.6553C26.8377 101.103 27.073 104.027 28.3241 107.3C28.225 107.34 28.1383 107.407 28.0887 107.515C26.6891 110.868 26.751 113.846 28.225 117.119C26.9987 120.594 27.1474 123.706 28.7081 127.14C28.7081 127.14 28.7081 127.153 28.7081 127.167C28.448 130.883 27.296 135.457 28.7081 138.971C24.5462 139.32 20.3719 139.656 16.3462 138.958C15.7764 138.864 15.5287 139.696 16.0985 139.87C25.8344 142.781 35.9171 138.556 45.8511 141.413C46.3466 141.56 46.6934 140.769 46.2104 140.541C42.482 138.797 38.5554 138.475 34.5546 138.596C34.5793 138.1 34.5917 137.603 34.5422 137.12C35.3721 134.746 35.3845 132.009 34.7899 129.474C34.9385 128.696 34.9138 127.931 34.7899 127.18C35.1863 125.49 35.2606 123.706 35.05 121.975C35.1367 121.908 35.1987 121.814 35.1987 121.694C35.273 120.393 35.112 119.172 34.8271 117.991C35.7685 115.349 35.3597 112.344 34.7156 109.527C34.7651 109.46 34.7899 109.366 34.7651 109.259C34.2944 106.925 33.4893 104.805 32.6222 102.78C32.7461 102.78 32.8576 102.739 32.9071 102.605C34.344 99.0772 33.9972 95.7907 32.9567 92.6115C34.282 89.4591 33.8237 85.4616 33.031 82.2288C33.0062 82.1483 32.9691 82.0812 32.9319 82.0275C34.8766 82.1483 36.8461 81.6117 38.4935 80.2032C38.5059 80.4178 38.5059 80.6325 38.5183 80.8471C36.2391 83.7714 35.0005 87.4201 35.3101 91.2298C35.3597 91.7664 35.9542 92.0883 36.3506 91.6859C37.9361 90.0896 38.7784 88.1445 39.1748 86.0787C39.7817 88.6945 41.0452 91.0688 43.411 92.5578C43.7207 92.7456 44.0551 92.6115 44.2409 92.3298C46.037 89.7408 45.814 86.8299 44.5877 84.2543C45.8512 84.9116 47.3004 85.1799 48.7125 84.925C49.0469 84.858 49.2327 84.4421 49.146 84.1336C48.5143 81.8666 46.5448 79.8812 44.2905 79.3715C47.3747 78.4325 49.1336 75.1326 48.217 71.8461C48.0807 71.3497 47.3995 71.4704 47.3747 71.9668C47.1765 75.0118 46.6315 77.9362 43.188 78.3923C42.7297 78.4459 42.2838 78.4459 41.8379 78.3923C41.7512 78.0837 41.4044 78.0703 41.2062 78.2715C40.9089 78.1911 40.6116 78.0972 40.3391 77.9764C40.5868 77.5472 40.0294 77.1313 39.695 77.4533C39.6578 77.4935 39.6083 77.5337 39.5711 77.574C38.8155 77.1179 38.1467 76.5008 37.5769 75.7899C39.3977 75.2131 40.4754 73.4424 40.6983 71.6046C42.8784 70.9741 44.4143 69.2571 43.7702 66.5474C43.6711 66.1315 43.5101 65.7694 43.3119 65.4474C43.2624 64.8303 43.1261 64.2804 42.9279 63.7974C43.3367 63.4084 43.6092 62.8853 43.795 62.3219C45.0584 63.1401 46.0989 64.3609 46.8669 65.6486C47.3252 66.4133 47.6596 67.2449 47.6596 68.1571C47.6596 68.6937 47.3623 69.0425 46.9907 69.3242C46.8297 68.6668 46.5943 68.023 46.359 67.473C46.136 66.9498 45.3061 67.3254 45.4796 67.862C45.7273 68.6266 45.8635 69.3242 45.9379 70.0217C45.8635 70.0754 45.7892 70.129 45.7149 70.1961C45.5291 70.3571 45.6282 70.7058 45.8635 70.7595C45.9007 70.7595 45.9379 70.7595 45.975 70.7595C45.975 71.4973 45.9007 72.2351 45.6902 73.0533C45.6406 73.268 45.8883 73.5229 46.0865 73.3619C46.9783 72.6643 47.2508 71.6985 47.2137 70.679C49.2699 70.3839 50.1617 68.1839 49.8892 66.1584C49.5548 63.717 47.5357 61.3829 45.4424 60.3768C44.9346 60.1353 44.4763 60.9 44.9965 61.1682C46.6439 62.0402 47.833 63.6231 48.5019 65.3938C48.824 66.2254 48.8735 66.8962 48.7373 67.473C48.7125 67.1242 48.6629 66.7754 48.5638 66.4669C47.8702 64.334 46.0122 62.3621 44.0179 61.3963C44.0923 60.8731 44.117 60.3365 44.0427 59.7866C43.8074 58.0293 42.7917 56.1781 41.4291 54.783C41.6521 54.9037 41.8379 55.0513 42.0856 55.1586C43.6464 55.8293 45.3805 55.494 46.6563 54.394C47.0031 54.0989 47.3252 53.6964 47.6101 53.2269C47.7215 58.1232 48.9602 63.8511 53.0973 65.9706C53.5309 66.1986 53.9892 65.9169 54.0263 65.4206C54.3979 60.3231 54.6952 54.3537 51.2146 50.3563C51.9206 50.5038 52.7134 50.477 53.568 50.2221C54.9553 49.8063 56.194 48.76 56.7762 47.3783C57.3459 46.01 57.1849 43.9576 56.0949 42.8845C57.1602 41.9589 57.7299 40.4967 57.8538 38.9809C58.4607 39.5041 58.9314 40.1614 58.9562 41.0333C58.9934 42.2004 57.6184 42.9113 56.8876 43.5552C56.5904 43.8235 56.9124 44.2393 57.2345 44.1723C58.7332 43.8906 59.9967 42.643 60.071 41.0333C60.1329 39.665 58.9686 38.659 57.8786 38.0285C57.8538 37.5322 57.8043 37.0493 57.6928 36.5798C57.0735 34.0042 55.2402 31.8981 52.9487 30.8787C55.5747 29.6714 57.9777 28.0751 60.1701 26.1166C60.5541 25.7678 60.2444 25.0568 59.7489 25.0836C59.3154 25.1105 58.8695 25.1775 58.436 25.2446C59.0181 24.708 59.5631 24.1312 60.0958 23.5276C60.0958 23.5276 60.1082 23.5276 60.1206 23.5276C60.4798 23.5678 60.8266 23.5947 61.1734 23.5947C61.1487 23.6751 61.1239 23.769 61.161 23.8898C65.7441 41.4894 73.0522 58.7402 84.0268 73.0668C91.979 83.4495 105.22 94.5431 118.796 94.9992C119.168 97.2797 120.939 99.1979 123.057 99.882C115.34 110.359 107.388 121.721 104.737 134.746C104.626 135.309 105.369 135.511 105.555 134.974C109.766 122.861 115.786 112.921 122.636 102.645C120.171 109.339 117.842 116.395 116.579 123.156C116.467 123.773 117.334 124.041 117.495 123.411C119.589 115.268 124.184 106.992 125.336 98.6077C125.448 98.4333 125.559 98.2723 125.683 98.0979C125.757 97.9906 125.77 97.8833 125.77 97.7894C126.117 97.6687 126.451 97.5077 126.736 97.2528C126.129 98.943 125.869 100.647 126.798 102.35C127.083 102.873 127.405 103.343 127.727 103.772C128.854 107.099 126.872 110.399 128.235 113.605C126.154 117.119 123.404 121.104 126.513 124.752C125.832 125.986 125.534 127.274 127.157 127.972C127.306 128.039 127.442 128.079 127.578 128.133C126.686 130.977 125.609 136.597 127.937 138.998C119.849 138.059 111.872 136.047 103.635 136.53C92.2143 137.201 80.992 143.21 69.6831 138.234C69.0637 137.965 68.5187 138.878 69.1504 139.186C78.2794 143.546 88.8204 140.554 98.2219 138.703C111.884 136.007 124.903 142.768 138.367 140.38C138.924 140.286 138.8 139.307 138.231 139.347C135.307 139.562 132.421 139.454 129.548 139.173C128.606 137.469 127.913 136.195 127.814 134.129C127.727 132.237 128.098 130.279 128.581 128.455C129.56 128.736 130.316 128.978 131.22 130.292C133.103 133.029 131.406 135.564 130.402 138.22C130.254 138.609 130.811 138.918 131.071 138.623C133.301 136.007 134.056 132.72 132.273 129.648C131.703 128.683 130.923 127.744 129.845 127.395C128.235 126.872 126.959 126.872 127.355 125.41C128.259 125.785 129.486 125.691 130.328 125.664C131.207 125.638 132.075 125.571 132.942 125.705C134.527 125.96 134.366 127.556 134.205 128.911C134.094 128.522 133.982 128.146 133.846 127.811C133.635 127.234 132.756 127.462 132.942 128.066C133.4 129.608 133.623 131.137 133.549 132.761C133.474 134.478 132.657 135.859 132.297 137.482C132.211 137.858 132.644 138.113 132.917 137.858C134.824 136.034 135.023 132.948 134.527 130.266C134.663 130.266 134.8 130.225 134.874 130.078C136.051 127.703 135.741 124.605 132.706 124.363C131.183 124.242 129.349 124.725 127.875 124.162C127.95 123.76 127.454 123.491 127.157 123.786C124.605 121.949 127.405 117.334 129.015 114.584C129.25 114.759 129.498 114.906 129.709 115.04C132.743 116.891 131.901 119.789 131.133 122.807C131.009 123.303 131.653 123.572 131.913 123.143C133.14 121.144 134.032 117.656 132.483 115.537C132.508 115.51 132.545 115.523 132.57 115.483C133.363 114.517 133.549 113.216 133.462 111.942C133.771 111.016 133.747 110.09 133.487 109.192C135.778 106.495 136.781 102.645 134.453 99.6138C134.143 99.1979 133.313 98.7418 132.892 98.487C129.845 96.6224 130.117 94.0066 130.613 91.0152C130.885 89.3786 130.823 88.0372 130.415 86.7494C133.065 89.5262 132.867 92.7054 133.771 96.3943C133.883 96.8504 134.527 96.7297 134.539 96.287C134.639 93.4834 134.515 91.5652 133.97 89.942C134.081 90.0762 134.193 90.2237 134.304 90.3579C135.196 95.4285 137.116 100.781 141.265 103.799C141.55 104 141.971 103.853 142.132 103.558C144.944 98.3528 140.658 91.981 136.038 88.9494C136.558 88.5872 137.054 88.0506 137.45 87.7018C138.379 86.8836 139.308 86.0518 140.163 85.1531C140.535 84.7641 140.274 84.0397 139.729 84.0531C138.379 84.0934 136.868 84.4019 135.592 84.858C136.336 82.497 136.385 80.1093 135.877 77.6813C137.45 80.3239 139.915 82.3763 142.913 83.0068ZM105.196 11.3205C105.072 11.1327 104.948 10.9315 104.812 10.7437C104.44 10.1937 103.585 10.6901 103.944 11.2669C104.366 11.951 104.799 12.6351 105.22 13.3193C102.248 11.8303 99.4977 9.45594 99.1013 6.19625C101.034 7.01453 102.966 7.91329 104.527 9.37545C105.196 10.0059 105.641 10.7035 105.951 11.4413C105.753 11.1461 105.431 11.1462 105.196 11.3205ZM108.751 10.9449C107.722 8.08767 107.524 4.77433 108.936 2.09146C109.37 5.06945 109.023 7.99377 108.751 10.9449ZM118.078 18.9533C117.186 18.7387 116.257 18.9265 115.588 19.5972C115.353 19.8386 115.192 20.1203 115.068 20.4155C114.287 20.0399 113.284 19.396 113.433 18.4436C113.581 17.4911 114.436 16.7936 115.192 16.3777C115.922 15.9753 116.876 15.7741 117.681 16.096C118.102 16.6863 118.499 17.3167 118.92 17.9875C118.969 18.4167 118.982 18.8728 119.031 19.3021C118.672 19.1411 118.338 19.0204 118.065 18.9533H118.078ZM122.636 16.807C122.413 16.8338 122.202 16.8875 121.979 16.9546C122.017 16.8338 122.017 16.6863 121.917 16.5387C119.886 13.3059 119.911 8.63767 121.311 4.98897C121.732 6.706 122.326 8.36938 122.822 10.0596C123.59 12.662 123.453 14.7144 122.624 16.807H122.636ZM35.0376 22.1191C35.1243 23.8361 35.3101 25.5532 35.4959 27.2702C35.6198 28.3031 35.6817 29.3628 35.7684 30.4226C33.9724 28.0348 33.6503 24.7751 35.0376 22.1325V22.1191ZM14.1662 26.747C16.4948 27.9409 18.1918 29.9665 20.0746 31.7237C17.7335 30.6506 15.1942 29.1884 14.1662 26.747ZM6.51123 33.9639C7.8366 34.9432 9.27343 35.8151 10.5616 36.8346C10.4254 36.9822 10.3635 37.17 10.4378 37.398C10.6484 38.109 10.9704 38.8334 11.3792 39.5041C9.1248 38.2029 7.00669 36.459 6.51123 33.9505V33.9639ZM2.27498 59.0085C4.19491 58.5525 6.09007 58.7 8.1091 59.089C8.77797 59.2232 9.45924 59.4378 10.1405 59.6256C7.5517 60.2561 4.69038 60.0548 2.27498 58.9951V59.0085ZM36.5612 89.553C36.5984 88.8957 36.6851 88.2518 36.7965 87.6079C36.9576 87.5811 37.1186 87.5006 37.2177 87.3396C37.6264 86.7226 37.9485 86.0787 38.2334 85.408C37.9485 86.897 37.4283 88.3189 36.5612 89.553ZM47.7091 83.758C46.3342 83.7848 45.0213 83.1812 43.9436 82.2958C43.3367 81.7995 42.9155 81.2361 42.6059 80.619C44.7983 80.4715 46.8173 81.6788 47.7215 83.758H47.7091ZM40.1781 80.7666C40.2152 80.6995 40.24 80.619 40.2524 80.552C43.1385 83.2885 45.7397 87.2457 43.5844 91.0957C40.7726 88.9762 39.8932 85.2067 39.7074 81.6385C39.856 81.3568 40.0171 81.0617 40.1781 80.7666ZM44.0675 17.1826C45.1947 18.4436 45.9998 19.9996 46.6067 21.7032C46.2599 21.5289 45.7521 21.7032 45.7892 22.1996C45.7892 22.2532 45.814 22.3069 45.814 22.3605V22.3874C45.9379 23.6349 46.359 24.7483 46.966 25.7812C47.2509 26.5458 47.5729 27.2836 47.9073 28.0214C45.2442 25.1641 43.3738 21.1532 44.0551 17.1692L44.0675 17.1826ZM38.3325 28.5177C37.8742 26.0763 38.5802 21.7301 41.2557 20.9923C41.1566 22.5618 40.8594 24.0776 40.2648 25.5397C39.7941 26.68 39.0385 27.5787 38.3325 28.5311V28.5177ZM46.037 29.1482C47.7587 29.9262 49.1584 31.442 50.0998 33.1054C51.0164 34.7286 50.8925 35.9358 50.2484 37.1297C49.2575 36.8212 48.1922 36.7273 47.2508 36.8614C47.127 36.8749 47.0155 36.9151 46.8917 36.9419C46.8297 35.4395 46.4209 33.6688 45.2318 32.7298C44.4267 32.0993 43.3615 32.0859 42.5068 32.6359C41.6645 33.1859 41.1938 34.2456 41.3672 35.2651C41.6273 36.7944 43.0889 37.6395 44.3648 38.1492C44.4143 38.1761 44.4515 38.176 44.501 38.176C44.3895 38.2968 44.3028 38.4578 44.2037 38.6053C44.1666 38.5114 44.117 38.4175 44.0055 38.3504C42.3705 37.2907 40.4754 36.6066 38.5802 36.8346C35.8304 32.0859 41.3301 27.0287 46.037 29.1482ZM48.2542 40.4297C47.61 40.604 47.0279 41.1406 46.6067 41.7979C46.5448 41.8382 46.4829 41.8784 46.421 41.9052C46.2352 41.6101 45.9379 41.3418 45.814 40.926C45.6901 40.5504 45.2938 40.4297 44.9841 40.5504C44.8726 39.6516 45.2071 38.8199 46.3838 38.337C47.35 37.948 48.5019 37.9078 49.5548 38.176C49.3937 38.3907 49.208 38.6187 49.0222 38.8334C48.7373 39.1687 48.9974 39.7321 49.4557 39.6114C50.0502 39.437 50.5209 39.1285 50.8925 38.7395C51.1402 38.887 51.388 39.0614 51.5986 39.2626C52.3789 40.0004 52.5647 41.0467 52.4037 42.093C52.2427 43.1394 51.5242 43.6625 50.6572 43.904C50.6572 43.8637 50.682 43.8503 50.682 43.8101C50.5705 42.3882 50.1865 39.9199 48.2542 40.4431V40.4297ZM44.9469 37.787C44.9965 37.5456 44.9098 37.2505 44.6249 37.1297C43.7454 36.7407 42.7297 36.1505 42.4448 35.1176C42.2838 34.5408 42.5687 33.9103 43.0394 33.5749C43.5472 33.1993 44.1913 33.1993 44.662 33.6286C45.6282 34.4737 45.6901 36.0566 45.8016 37.2505C45.8016 37.2505 45.8016 37.2639 45.8016 37.2773C45.492 37.4114 45.2071 37.5858 44.9345 37.787H44.9469ZM36.747 37.3712C35.434 38.0017 34.3688 39.0882 33.737 40.4297C33.7618 39.0077 33.3407 37.5188 32.4364 36.0968C32.263 35.8285 32.0649 35.5603 31.8667 35.3188C33.3902 36.2444 35.0748 36.9151 36.7594 37.3846L36.747 37.3712ZM19.2075 46.5734C19.5791 49.8734 23.5181 53.0257 26.3174 50.0075C28.993 47.1234 24.509 43.7967 21.8087 43.9442C21.499 43.9576 21.2018 44.2125 21.2142 44.5613C21.2513 45.2991 21.3009 46.0905 21.945 46.5332C22.4157 46.8417 22.8616 46.1576 22.5148 45.7686C22.428 45.6747 22.4033 45.4466 22.4033 45.2052C23.7782 45.3393 25.0169 46.1844 25.7477 47.4185C26.6767 48.9612 24.5338 49.8063 23.4438 49.8868C22.2794 49.9673 21.4247 49.0014 20.8921 48.0624C19.9012 46.2783 20.2851 44.1454 21.4743 42.6296C21.9078 42.0662 22.4528 41.7443 23.0226 41.5565C23.1465 41.5833 23.2703 41.6235 23.3942 41.6504C23.4933 41.8248 23.7163 41.8784 23.8649 41.7577C24.9673 42.0662 26.0326 42.5625 26.9244 43.1125C27.7791 43.6491 28.5718 44.3735 29.1664 45.2454C29.1911 45.3125 29.2035 45.393 29.2159 45.4734C29.092 45.6881 29.1664 45.9832 29.3398 46.1442C29.5008 47.5661 29.1292 49.0417 28.064 50.1014C26.5404 51.6172 23.964 51.4563 22.0688 51.0136C20.2108 50.5843 18.2538 49.5917 17.077 47.9954C15.5039 45.8625 16.9903 43.743 18.7492 42.4016C19.4305 41.8784 20.1861 41.6235 20.9788 41.5028C19.6906 42.7101 18.9722 44.5613 19.2075 46.5868V46.5734ZM29.476 50.5441C30.9872 49.3368 31.3588 47.4319 30.6775 45.6881C31.8171 44.9905 32.6222 44.0515 33.1301 43.0052C33.1301 43.3942 33.192 43.7832 33.2911 44.1588C33.192 44.1588 33.1053 44.1588 33.0062 44.1991C32.3002 44.4808 32.5603 45.2722 32.647 45.8222C32.6718 45.9832 32.8824 46.1039 33.031 46.0503C33.2787 45.943 33.5388 45.7954 33.6132 45.5003C33.6132 45.46 33.6132 45.4198 33.6132 45.393C33.6132 45.4198 33.6132 45.4198 33.6256 45.4332C33.7618 45.7552 33.8361 46.1039 33.9105 46.4393C34.2944 48.1027 34.0715 49.9538 33.6875 51.5904C33.5636 52.1404 33.3778 52.677 33.1672 53.2001C31.941 53.8574 30.9005 54.8769 30.1325 56.111C29.1911 55.9366 28.2993 54.9976 27.7171 54.233C27.6552 54.1525 27.5685 54.1123 27.4942 54.0855C27.4942 54.005 27.4942 53.9245 27.4942 53.844C28.4479 52.9184 29.1788 51.7514 29.4637 50.5441H29.476ZM28.1259 29.5372C28.064 29.3897 28.0144 29.2287 27.9525 29.0811C30.5908 29.3092 32.5975 30.9457 34.2573 33.0115C32.2135 31.8579 30.083 30.8518 28.1259 29.5506V29.5372ZM24.4223 36.0566C24.4223 36.0566 24.5338 36.0566 24.5833 36.0164C25.7477 35.2383 26.3298 34.1115 27.8905 34.1652C29.3646 34.2054 30.6528 35.52 31.4455 36.6871C33.4274 39.5712 32.8824 42.9113 30.2316 44.7625C29.4884 42.415 27.4694 40.4967 25.0416 40.1882C24.7939 40.1614 24.5585 40.1748 24.3232 40.1882C24.6205 38.8199 24.7567 37.3712 24.4099 36.07L24.4223 36.0566ZM22.106 18.7521C22.3042 17.7997 22.0688 18.9399 22.428 19.9325C22.9607 21.4215 23.3075 22.9642 23.6295 24.5202C24.2117 27.3507 24.1869 30.2079 23.741 33.0249C21.1027 28.6519 21.016 23.8495 22.106 18.7521ZM14.5254 41.315C14.5254 41.315 14.5749 41.3016 14.5997 41.2882C14.8474 41.6906 15.1819 42.026 15.6402 42.2406C16.0118 42.415 16.371 42.0662 16.1852 41.6772C15.5659 40.2955 14.9341 39.4102 15.6525 37.8809C16.2967 36.5127 17.5601 35.4932 18.8607 34.8493C20.0127 34.2859 21.5858 34.0176 22.6139 34.97C23.8649 36.1371 23.741 38.4712 23.4933 40.2821C23.3075 40.3223 23.1217 40.3358 22.9483 40.3894C22.2175 40.2955 21.4743 40.2687 20.7559 40.3626C19.0837 40.5638 17.2133 41.7308 16.1232 43.3137C15.5163 42.7101 14.8598 42.2808 14.1785 41.9857C14.4263 41.865 14.5873 41.5833 14.5254 41.3284V41.315ZM8.34444 72.6643C8.59218 68.7205 10.2396 64.8438 12.8036 61.8926C11.6021 64.2133 10.4254 66.5474 9.37254 68.9486C9.05048 69.6863 10.0538 70.3302 10.4254 69.5925C11.5897 67.3657 12.7417 65.2596 13.968 63.1804C13.0142 66.7889 11.0076 69.8339 8.33206 72.6643H8.34444ZM15.9127 73.7375C16.6559 71.0278 17.9069 68.6266 19.6906 66.695C19.4429 67.2181 20.1985 67.862 20.7559 67.4059C21.7716 66.5876 22.7377 65.7157 23.7039 64.8438C22.5643 68.8278 19.9507 74.1131 15.9127 73.7241V73.7375ZM24.5338 62.1341C24.6081 61.9731 24.7072 61.8255 24.7567 61.6511C24.8558 61.3292 24.4842 61.0609 24.2241 61.2219C23.4561 61.6914 22.8864 62.3487 22.0069 62.6304C21.1151 62.9255 20.1737 62.6707 19.3685 62.2548C17.7211 61.4097 16.693 59.5585 16.7426 57.6805C16.755 56.983 15.7517 56.9964 15.7021 57.6805C15.6773 58.0293 15.7021 58.3781 15.7269 58.7134C15.7269 58.7134 15.7021 58.7268 15.6897 58.7402C15.6773 58.6597 15.6402 58.5793 15.5906 58.5122C15.5906 58.3646 15.603 58.2305 15.5906 58.0829C15.5658 57.6537 15.1695 57.5061 14.8846 57.6134C12.2958 57.7073 10.3015 57.2378 9.53355 54.2867C9.12479 52.744 9.47163 51.2014 10.4006 50.7453C10.9828 51.0404 11.6517 51.2148 12.3701 51.2953C12.4692 52.2209 12.9151 53.0794 13.8689 53.455C14.1538 53.5623 14.451 53.2269 14.3519 52.9452C14.1662 52.3684 13.7574 51.9526 13.5468 51.4026C13.2991 50.7453 13.4106 50.1014 13.6707 49.4709C13.9308 48.8539 13.0761 48.3039 12.7789 48.9344C12.655 49.1892 12.5559 49.4844 12.4816 49.7661C11.7508 49.3636 11.0819 49.2429 10.4873 49.3636C7.41544 46.9356 11.1686 39.8394 15.5535 44.293C15.3924 44.682 15.2686 45.071 15.219 45.4869C14.9465 47.8746 16.6683 49.6856 18.4891 50.8526C20.9788 52.4355 24.7196 53.0526 27.3827 51.8319C26.528 52.9989 25.6238 54.0184 23.9516 54.4879C21.2761 55.2257 18.9846 53.0526 17.7335 50.8794C17.4115 50.316 16.5692 50.8258 16.8788 51.3892C18.3033 54.0452 20.57 56.0171 23.6295 55.7622C24.6576 55.6818 25.6981 55.2257 26.6147 54.555C26.6271 57.1976 24.6824 58.5122 21.9945 58.3781C20.8549 58.311 19.703 57.9354 18.7368 57.3049C17.7583 56.661 17.845 56.0171 17.7459 54.9842C17.7087 54.5818 17.2876 54.3806 16.9779 54.6489C15.9994 55.5476 16.7178 57.0635 17.461 57.8281C18.551 58.9415 20.2232 59.3841 21.6972 59.5585C24.7939 59.9207 27.073 58.2841 27.4446 55.5744C28.0392 56.2854 28.7328 56.9159 29.5256 57.1842C28.9062 58.5256 28.5594 60.0012 28.609 61.4768C27.2836 61.7719 26.0573 62.5633 25.215 63.7438C25.2522 63.5828 25.2894 63.4084 25.3141 63.2609C25.3884 62.845 25.1531 62.5768 24.8434 62.5097C24.7939 62.3219 24.67 62.1609 24.4718 62.1341H24.5338ZM33.5141 62.8048C34.666 62.0536 36.1401 61.6511 37.3416 61.5707C39.15 61.4499 40.5868 62.0536 41.5158 63.1804C41.2805 63.3414 40.9956 63.5023 40.6983 63.6365C39.311 63.2072 37.7379 63.167 36.5117 63.3548C35.7561 63.4621 35.0996 63.7304 34.505 64.0926C34.2077 63.5962 33.8733 63.167 33.5017 62.8048H33.5141ZM34.3935 67.3254C34.0095 67.6474 33.6999 68.09 33.5512 68.7205C33.4893 68.9888 33.4769 69.2437 33.4893 69.512C33.192 69.3107 32.9071 69.0827 32.6718 68.8144C32.709 68.6669 32.7337 68.5059 32.7709 68.3583C33.0186 67.4327 33.4521 66.695 33.9971 66.0913C34.0467 66.3998 34.121 66.7352 34.2573 67.1242C34.2944 67.2047 34.3316 67.2852 34.3812 67.3388L34.3935 67.3254ZM33.6627 64.7364C32.8576 65.4877 32.2507 66.4535 31.8667 67.5132C31.7304 67.1645 31.6313 66.7889 31.5942 66.3596C31.4951 65.206 31.9162 64.2804 32.6099 63.556C32.9938 63.8645 33.3531 64.2535 33.6751 64.723L33.6627 64.7364ZM30.8386 65.0316C30.3183 64.2804 30.0211 63.4621 29.8476 62.6036C30.5413 62.6036 31.2349 62.7645 31.8914 63.0999C31.396 63.6767 31.0368 64.3206 30.8386 65.0316ZM30.3555 66.1718C30.4422 66.2791 30.5413 66.3193 30.6528 66.3328C30.6528 66.9632 30.7519 67.6071 30.9748 68.251C31.0863 68.573 31.2597 68.8681 31.4331 69.1364C31.173 70.8266 31.396 72.557 32.1144 73.8716C30.6404 74.7167 29.4637 74.9314 27.9525 73.5094C27.0483 72.6509 26.4413 71.4973 26.0078 70.29C26.2679 69.7937 26.5899 69.3108 26.9739 68.8547C27.3827 68.3583 26.7014 67.6339 26.2803 68.1303C26.0326 68.412 25.8096 68.6937 25.6114 68.962C25.5743 68.7876 25.5123 68.6132 25.4752 68.4254C24.8806 65.4206 26.6271 63.2877 28.7824 62.7377C29.0053 63.9584 29.5132 65.1255 30.3431 66.1584L30.3555 66.1718ZM27.6676 80.0825C29.0425 81.102 30.7023 81.7727 32.3869 81.9739C32.2135 82.0678 32.0896 82.2556 32.1392 82.5105C32.424 84.3348 32.5603 86.1458 32.5603 87.9969C32.5603 88.9896 32.4364 89.9688 32.3621 90.9615C30.9253 87.3396 28.8072 83.7982 27.6676 80.0825ZM28.7576 86.1726C29.2778 87.286 29.8229 88.3994 30.405 89.5262C32.5727 93.7919 32.7956 97.3467 32.2754 101.961C30.0706 96.9845 27.6428 92.3968 28.77 86.1592L28.7576 86.1726ZM29.5751 138.971C29.6123 137.12 29.3274 135.269 29.4017 133.391C29.4637 131.956 29.5875 130.534 29.6742 129.112C30.2564 130.118 30.8757 131.097 31.4455 132.103C32.647 134.236 33.0929 136.382 33.5141 138.703C32.2011 138.77 30.8881 138.864 29.5628 138.971H29.5751ZM33.7494 134.089C33.2787 132.895 32.6842 131.741 32.0401 130.641C29.6371 126.456 28.0268 123.183 28.9062 118.568C29.7361 120.057 30.7395 121.452 31.6313 122.874C32.1639 123.746 32.5603 124.618 32.8824 125.503C32.6222 125.571 32.3993 125.879 32.5479 126.214C33.7246 128.897 33.7618 131.433 33.737 134.089H33.7494ZM33.9228 124.564C33.415 123.478 32.7957 122.445 32.1887 121.479C29.538 117.213 27.1845 113.699 28.7824 108.561C30.2688 111.968 32.0153 114.933 33.3159 118.287C33.3159 118.313 33.2911 118.34 33.3159 118.38C33.9105 120.5 34.0095 122.512 33.9228 124.564ZM33.6379 108.588C33.8237 110.037 33.9848 111.472 34.1086 112.921C34.1954 113.9 34.1582 114.879 34.1334 115.845C31.8171 110.077 26.7881 105.248 28.7948 98.1382C30.021 101.76 31.8543 105.261 33.6256 108.575L33.6379 108.588ZM38.7536 78.352C35.818 80.8337 32.5108 81.7861 28.8443 79.6666C25.9211 77.9764 24.6948 74.9045 25.3884 71.9936C25.9706 73.1204 26.7386 74.1265 27.6428 74.8911C29.2035 76.2057 31.4455 76.2728 32.808 74.8374C33.6627 75.7496 34.9014 76.246 36.5117 76.0448C37.1062 76.9569 37.8742 77.7484 38.7536 78.3654V78.352ZM36.8585 74.6496C36.8089 74.5692 36.7594 74.4887 36.7222 74.4082C36.4621 73.885 35.7808 74.2606 35.8551 74.757C35.4712 74.757 35.0624 74.7033 34.6041 74.5692C34.0715 74.4082 33.6627 74.1265 33.3531 73.7509C33.3159 73.657 33.254 73.5765 33.1672 73.5228C32.5603 72.6509 32.3993 71.4034 32.4612 70.2363C32.8948 70.5717 33.4026 70.84 33.9352 71.0546C34.2449 71.6046 34.666 72.1009 35.1491 72.4363C36.4745 73.3887 37.837 72.9326 38.8651 71.8729C38.9023 71.8729 38.9394 71.8729 38.9766 71.8729C39.0881 71.8729 39.2119 71.8461 39.3234 71.8326C39.0633 73.107 38.2334 74.2741 36.8585 74.6362V74.6496ZM35.9419 67.9291C37.5769 67.5132 38.6298 68.2376 39.1128 69.3644C38.8775 69.8741 38.5183 70.3839 38.0971 70.7863C37.0195 70.7863 35.8923 70.6119 34.889 70.2363C34.505 69.2973 34.8395 68.2242 35.9419 67.9291ZM37.4283 66.7084C36.7346 66.6145 36.0162 66.6279 35.3845 66.8157C35.3845 66.8157 35.3845 66.8157 35.3845 66.8023C34.7032 64.9243 35.7685 64.3608 37.3787 65.0718C38.5059 65.5681 39.2491 66.4937 39.3977 67.5937C38.8899 67.151 38.2334 66.8291 37.4159 66.7084H37.4283ZM40.7479 70.3571C40.6983 69.8876 40.5868 69.4315 40.4134 69.0156C40.6983 67.7949 40.6116 66.534 39.9304 65.6218C39.5464 65.0986 39.0137 64.6828 38.4316 64.3474C39.5711 64.4011 40.6983 64.7096 41.6397 65.3401C42.1723 65.6889 42.5068 66.1181 42.6926 66.5742C42.6926 66.7084 42.7173 66.8157 42.7173 66.9498C42.7173 67.0571 42.7669 67.1242 42.8536 67.1779C43.0146 68.4791 42.1228 69.8339 40.7726 70.3571H40.7479ZM42.5563 58.8207C43.188 60.4439 43.0146 61.678 42.1971 62.5902C40.1781 60.2695 35.9542 60.1756 33.0558 62.0536C32.9691 62.1072 32.9071 62.1743 32.8328 62.228C31.8914 61.5975 30.8138 61.3158 29.7362 61.356C29.7114 59.961 30.0954 58.5524 30.7642 57.3183C31.0244 57.2915 31.2845 57.2244 31.557 57.1171C32.7709 56.6074 33.576 55.4001 34.1334 54.1123C35.2606 53.6294 36.5488 53.4818 37.9113 53.8708C40.0914 54.4745 41.7636 56.7549 42.5687 58.8207H42.5563ZM35.5083 51.6843C35.7065 51.5367 35.8923 51.3892 36.0781 51.2416C36.6107 51.0136 36.9823 50.5977 37.3663 50.1819C37.7255 49.8734 38.0724 49.5514 38.4068 49.2026C38.3325 50.7453 38.766 52.2477 39.7569 53.4282C39.3853 53.2001 39.0137 53.0123 38.6298 52.8648C37.2301 52.355 35.8923 52.3148 34.666 52.6233C34.7032 52.516 34.728 52.4087 34.7651 52.3148C34.8271 52.1136 34.8642 51.8989 34.9138 51.6977C35.0872 51.8184 35.2977 51.8587 35.5083 51.6977V51.6843ZM35.1243 46.5868C35.6446 46.8954 36.2268 47.0563 36.8337 47.1502C36.1772 47.6063 35.657 48.2234 35.2854 48.9612C35.3101 48.1697 35.273 47.3649 35.1367 46.6003L35.1243 46.5868ZM47.9197 47.4856C47.449 48.4514 47.5233 49.6185 47.288 50.6648C47.0774 51.577 46.7182 52.4489 46.1237 53.1599C45.2194 54.2464 43.8693 54.4208 42.6059 54.005C39.6455 53.0257 38.8899 49.7124 39.9056 47.0429C40.3887 46.949 40.847 46.8149 41.2681 46.6271C42.0609 47.499 43.1013 48.2905 44.117 48.3844C44.3648 48.4112 44.5506 48.0624 44.4143 47.8478C43.8817 47.0563 43.0146 46.5064 42.2714 45.8625C42.3705 45.5942 42.1723 45.2857 41.875 45.2588C41.8131 45.2588 41.7512 45.2588 41.6893 45.2588C40.7355 44.132 40.3143 42.6162 40.7107 41.154C40.8222 40.7248 40.2276 40.5772 40.079 40.9797C39.4844 42.5625 39.5464 43.9845 40.3887 45.4064C40.2029 45.1918 39.8189 45.1381 39.6207 45.4466C39.5711 45.5137 39.5464 45.5942 39.4968 45.6747C39.0881 45.782 38.6917 45.8893 38.2829 45.9161C37.3911 45.9966 36.4497 45.9027 35.657 45.4466C34.3935 44.7491 34.1334 43.2064 34.4431 41.8784C34.8147 40.2955 35.9542 39.0212 37.3539 38.3504C37.6884 38.1895 38.0228 38.0956 38.3696 38.0285C38.5183 38.0822 38.6793 38.0553 38.8032 37.948C40.4134 37.7736 42.1228 38.4041 43.4853 39.1955C43.6092 39.2626 43.7207 39.276 43.8198 39.2492C43.3119 40.8053 44.179 42.482 45.0708 43.6893C45.269 43.9576 45.6654 44.0381 45.9379 43.904C46.037 44.6552 46.8297 45.0174 47.7215 45.1783C47.7215 45.9429 47.8082 46.6673 48.0188 47.3112C47.9693 47.3381 47.9197 47.3783 47.895 47.432L47.9197 47.4856ZM47.5853 42.643C47.8083 42.2674 48.1675 41.8516 48.5762 41.6772C48.6629 41.6369 48.7372 41.637 48.8116 41.6638C48.9974 42.7101 48.7496 43.3138 49.4557 44.065C49.1088 44.065 48.7744 44.0515 48.4647 44.0113C47.2137 43.8369 46.8792 43.8369 47.5977 42.6564L47.5853 42.643ZM52.8868 64.334C49.2327 61.6243 48.5762 55.0111 48.6629 50.5173C48.7744 49.927 48.8363 49.3368 48.7992 48.7868C48.9478 48.988 49.1336 49.1356 49.3194 49.31C49.2327 49.4039 49.1955 49.5514 49.2575 49.7258C49.6043 50.7587 49.8397 51.8184 50.0502 52.8782C50.2856 54.0318 50.3351 55.2928 50.9173 56.3122C51.0536 56.5537 51.4499 56.5269 51.5118 56.2318C51.7596 54.9842 51.5118 53.5221 51.1155 52.1404C53.3327 55.5879 53.184 60.2024 52.8991 64.3206L52.8868 64.334ZM56.1321 35.6676C56.739 36.9017 56.9248 38.3504 56.6647 39.7053C56.3179 41.5028 54.881 42.1065 53.5804 43.032C53.2708 43.2467 53.3451 43.8771 53.791 43.8369C54.3608 43.7832 54.8439 43.6089 55.2898 43.3808C55.5871 44.6015 56.194 45.6076 55.649 46.9222C55.2154 47.9551 54.2493 48.6527 53.2584 49.0014C50.5705 49.9404 48.8735 47.888 48.7125 45.3259C49.2823 45.3527 49.8149 45.3259 50.1245 45.2991C52.2674 45.0979 53.6052 43.5552 53.6671 41.3553C53.7167 39.665 52.8001 38.4309 51.5242 37.6797C52.0197 36.5395 52.0445 35.1444 51.7224 33.9371C51.5119 33.1725 51.1403 32.4079 50.682 31.7103C50.7687 31.7238 50.8553 31.7103 50.9668 31.6969C51.1526 31.6433 51.3261 31.5628 51.4995 31.4957C53.5185 32.1128 55.1164 33.6688 56.1073 35.681L56.1321 35.6676ZM50.7686 28.7055C50.4094 29.175 50.8058 29.7921 51.227 29.8055C51.1898 29.886 51.1279 29.9397 51.0907 30.0201C51.0412 30.114 51.0288 30.1945 51.0164 30.275C50.5829 30.2079 50.1493 30.1811 49.7034 30.2079C49.6415 30.2079 49.5919 30.2348 49.5548 30.2482C49.4061 30.1006 49.2575 29.9665 49.0965 29.8189C49.1832 29.6848 49.2203 29.5104 49.1708 29.3494C49.2575 29.3092 49.3318 29.2421 49.4061 29.1616C49.5052 29.2958 49.5795 29.4433 49.691 29.564C50.1741 30.1274 50.9297 29.3092 50.4838 28.7458C47.9445 25.5129 51.3756 19.3557 54.0016 16.257C53.9149 20.8179 53.7043 24.8422 50.781 28.7055H50.7686ZM55.2526 28.236C55.1659 28.169 55.0544 28.1153 54.9058 28.1153C54.6828 28.1153 54.4351 28.1153 54.1998 28.0885C55.2402 27.297 56.4665 26.7739 57.7423 26.5056C56.9372 27.1226 56.1073 27.7129 55.2526 28.236ZM53.3203 26.7738C53.407 26.586 53.5061 26.4117 53.5928 26.2373C53.7662 26.197 53.9273 26.0763 53.9768 25.8348C54.72 22.9642 56.2312 20.6301 58.2254 18.5375C60.5541 16.0826 63.1305 15.2912 66.1033 14.1912C61.6317 17.7192 58.6837 24.8288 53.3203 26.7873V26.7738ZM139.073 64.1596C138.924 66.0645 138.132 67.7815 137.054 69.3778C136.608 70.0351 136.088 70.5315 135.543 70.9741C136.286 70.1022 136.942 69.1095 136.905 68.1035C136.893 67.5937 136.36 67.4193 136.001 67.7144C135.852 67.8486 135.716 67.9827 135.58 68.1169C136.435 66.4669 137.587 65.0181 139.073 64.1462V64.1596ZM138.194 51.2282C138.615 50.6782 138.528 52.5965 138.59 53.133C138.763 54.7294 138.466 56.3659 138.132 57.922C137.834 59.3171 137.339 60.6451 136.794 61.9463C137.004 60.4573 136.757 58.7134 136.521 57.5195C136.385 56.7952 135.357 57.1171 135.468 57.8147C135.629 58.861 135.679 59.9073 135.629 60.967C135.58 61.9329 135.196 62.8719 135.245 63.8109C135.146 63.6096 135.047 63.395 134.973 63.1938C135.927 61.5304 135.629 59.9341 134.725 58.6463C135.233 55.8964 136.707 53.133 138.194 51.2148V51.2282ZM134.329 67.6474C133.635 68.9486 133.165 70.3168 132.929 71.6583C131.777 70.2363 130.501 68.8949 129.597 67.4596C129.523 67.3254 129.461 67.2047 129.387 67.084C129.374 67.0571 129.349 67.0437 129.337 67.0303C128.408 65.3803 128.036 63.5694 128.978 61.3695C129.176 61.5438 129.374 61.7182 129.585 61.8926C130.885 62.9121 132.297 63.7974 133.462 64.9913C134.316 65.8767 134.478 66.762 134.329 67.6474ZM133.524 59.0756C133.313 60.6719 133.437 62.2816 134.019 63.7304C131.53 61.1816 127.281 59.8536 127.776 55.7757C128.024 55.9232 128.272 56.0708 128.532 56.1915C129.87 56.8756 131.282 57.4122 132.558 58.2171C132.979 58.4854 133.276 58.7671 133.524 59.0756ZM132.161 56.4732C130.786 55.7354 129.213 55.1452 127.925 54.3135C127.851 54.1928 127.714 54.1123 127.578 54.072C126.327 53.1733 125.435 51.9928 125.435 50.088C126.847 50.6916 128.284 51.2014 129.634 51.9526C131.554 53.0391 131.876 54.5147 132.174 56.4732H132.161ZM121.434 43.2333C123.491 44.0649 125.683 44.4808 127.764 45.2588C130.848 46.4125 130.91 49.0551 131.567 51.9123C130.836 51.2282 129.969 50.6648 129.102 50.249C125.646 48.5722 121.273 47.8344 121.261 43.1528C121.323 43.1796 121.372 43.2064 121.434 43.2198V43.2333ZM128.235 27.0422C129.312 26.1568 130.514 25.4861 131.728 25.1641C132.756 24.8958 133.994 25.1507 132.954 26.3178C132.124 27.2434 131.096 27.9409 130.08 28.5982C129.795 28.7726 129.51 28.9336 129.213 29.0945C129.894 28.5177 130.576 27.9141 131.22 27.2568C131.691 26.7738 131.059 25.8751 130.501 26.2775C129.622 26.9214 128.817 27.6458 127.95 28.2897C127.789 28.4104 127.727 28.558 127.727 28.7055C127.516 28.8799 127.306 29.0543 127.083 29.2153C127.615 28.6116 127.987 27.8604 128.247 27.0153L128.235 27.0422ZM123.887 32.8371C125.002 32.4079 126.129 31.9652 127.231 31.4823C130.625 32.2737 133.288 36.7005 134.713 40.0675C130.786 39.9199 127.021 37.6126 124.531 34.5139C124.531 34.4871 124.543 34.4603 124.531 34.42C124.494 34.3127 124.444 34.2188 124.407 34.1249C124.903 34.7554 125.448 35.3456 126.129 35.7883C126.823 36.2578 127.925 36.781 128.73 36.392C128.941 36.2846 128.928 35.9895 128.804 35.8285C128.309 35.2383 127.343 35.1444 126.699 34.7822C125.943 34.353 125.361 33.6957 124.828 33.0115C124.593 32.703 124.172 32.8774 124.011 33.1725C123.949 33.0518 123.862 32.9579 123.788 32.8506C123.813 32.8506 123.85 32.8506 123.875 32.8371H123.887ZM122.921 33.8969C122.921 33.8969 122.921 33.9774 122.946 34.0176C123.305 34.903 123.837 35.7212 124.482 36.4724C119.651 34.7017 112.566 34.6749 112.615 30.8921C116.393 31.214 120.097 31.0933 122.908 33.8969H122.921ZM106.36 25.6605C111.463 25.741 116.393 23.8093 118.623 29.9933C118.623 30.0201 118.647 30.0201 118.66 30.047C116.765 29.7787 114.659 29.8189 112.689 29.6982C112.528 29.336 111.996 29.2555 111.748 29.6177C111.55 29.5909 111.352 29.564 111.153 29.5372C111.129 29.0006 110.447 28.9738 110.311 29.4165C108.094 28.9872 106.273 28.0214 105.493 25.6336C105.778 25.6471 106.063 25.6739 106.36 25.6739V25.6605ZM99.6092 16.5253C102.892 15.4924 104.626 17.1692 106.508 19.6106C101.517 19.9325 96.8841 21.9849 92.0905 19.6106C92.6107 19.4362 93.1433 19.235 93.6512 19.0204C95.6454 18.1887 97.553 17.1692 99.6092 16.5253ZM95.1376 14.6071C95.5463 14.6339 95.9551 14.6607 96.3639 14.7412C97.2062 14.9156 97.8998 15.3448 98.643 15.7339C94.382 17.2094 89.6379 20.2008 86.2687 18.2155C88.9938 16.6594 91.0871 14.9692 94.7164 14.9827C94.9765 14.9827 95.1128 14.8083 95.15 14.6071H95.1376ZM87.0243 13.3863C87.334 13.2924 87.3835 12.9839 87.272 12.7559C88.5355 12.6888 89.7865 12.8229 91.0748 13.1449C91.6198 13.279 92.1524 13.5071 92.6726 13.7351C91.0872 13.8424 89.5636 14.54 88.1515 15.3717C84.8567 17.3033 82.3793 19.5167 78.5642 18.4704C81.2645 16.579 83.6799 14.4729 87.0367 13.3998L87.0243 13.3863ZM71.6897 16.0826C73.4857 14.2985 75.3933 13.8827 77.722 13.3729C77.8706 13.3461 77.9449 13.2254 77.9821 13.1046C78.4899 13.1046 78.9978 13.1181 79.518 13.1717C80.5709 13.2656 81.599 13.7217 82.6642 13.6815C78.0812 16.3912 74.1174 22.4544 69.0018 19.074C69.8812 18.068 70.7483 17.0485 71.7021 16.096L71.6897 16.0826ZM124.308 98.1516C124.135 98.393 123.949 98.6345 123.775 98.876C122.103 97.9235 120.481 97.0919 119.898 95.026C119.985 95.026 120.072 95.026 120.159 95.026C120.642 95.9114 121.298 96.6894 122.14 97.1992C122.376 97.387 122.648 97.5345 122.933 97.6553C123.379 97.8297 123.875 97.9235 124.382 97.937C124.358 98.004 124.333 98.0711 124.308 98.1516ZM124.828 94.5834C124.828 94.5834 124.828 94.5834 124.816 94.5834C124.816 94.5834 124.804 94.57 124.791 94.5566C124.556 94.4358 124.32 94.3285 124.085 94.2212C124.073 94.2212 124.06 94.1944 124.036 94.1809C123.317 93.7517 122.921 93.3761 122.078 93.7249C122.041 93.7383 122.029 93.7785 121.992 93.8053C121.843 93.8053 121.695 93.8053 121.558 93.8053C121.472 93.7785 121.385 93.7651 121.298 93.7383C121.137 93.6846 121.001 93.7249 120.889 93.7785C86.9005 92.3834 71.6649 51.6038 62.0653 23.6215C62.0653 23.5812 62.0281 23.5678 62.0157 23.5276C63.6012 23.3666 64.9761 22.7093 66.2643 21.7301C66.413 22.6691 66.8217 23.4873 67.4658 24.2385C67.5773 24.3727 67.7631 24.1983 67.6888 24.0507C67.28 23.1386 66.8465 22.3069 66.7474 21.3142C66.9828 21.113 67.2181 20.9386 67.4411 20.7106C68.0728 23.541 68.9522 26.3714 70.2528 28.9202C70.4386 29.2823 70.9465 29.0275 70.8598 28.6519C70.1909 25.7141 69.0513 22.8703 68.1347 19.9996C68.1843 19.946 68.2338 19.8923 68.271 19.8386C68.271 19.8386 68.2834 19.8655 68.2958 19.8789C70.6121 21.7837 72.9283 21.6496 75.5171 20.3216C76.1736 19.9862 76.7806 19.6106 77.3875 19.2216C77.9945 19.5033 78.5766 19.7179 79.1588 19.8521C79.0473 19.9325 78.9606 20.0667 78.9482 20.2679C78.2546 33.1725 86.7394 47.7673 93.6388 57.8951C93.9237 58.311 94.5802 57.9354 94.3077 57.4927C87.3092 46.3856 80.8434 33.7091 79.9763 20.2679C79.9763 20.1472 79.9268 20.0533 79.8772 19.9862C81.376 20.1874 82.85 19.9057 84.4355 19.1813C84.6213 19.1009 84.7948 19.007 84.9806 18.9131C85.0053 21.5154 85.4388 24.6678 87.0863 26.6531C87.2844 26.8946 87.6065 26.6263 87.557 26.3714C87.1234 23.9971 86.2811 21.8374 85.9715 19.4496C86.405 19.7045 86.8509 19.8789 87.2968 19.9996C87.2225 20.1069 87.173 20.2411 87.2101 20.402C87.5198 22.0654 87.7923 23.8227 88.424 25.3922C88.5727 25.7544 89.192 25.7678 89.1548 25.2849C89.0186 23.5678 88.5974 21.7971 88.1267 20.1472C89.0186 20.2545 89.9352 20.1874 90.8642 19.9728C90.8766 20.1203 90.9509 20.2679 91.1243 20.3618C93.6016 21.891 96.1904 22.2801 98.965 22.052C100.154 24.2251 102.136 25.1507 104.366 25.4861C104.849 28.7458 107.363 30.0738 110.348 30.5969C110.447 33.4274 110.98 36.2176 111.921 38.8736C112.07 39.3029 112.615 39.1285 112.566 38.6858C112.206 36.0163 111.575 33.414 111.315 30.7445C111.376 30.7445 111.451 30.7579 111.513 30.7713C111.389 31.9116 111.748 32.7969 112.38 33.481C112.293 33.5481 112.231 33.6286 112.244 33.7627C112.566 36.6602 112.974 39.759 114.25 42.3882C114.362 42.6162 114.758 42.5223 114.733 42.254C114.498 39.4907 113.594 36.8078 113.061 34.0847C114.114 34.8493 115.538 35.3188 116.901 35.6542C117.161 35.7212 117.433 35.7749 117.694 35.842C115.538 39.0346 117.582 41.2882 120.295 42.6699C119.923 46.0503 121.583 48.1295 124.32 49.538C124.32 49.5514 124.308 49.5648 124.308 49.5782C123.998 52.0867 125.101 53.8172 126.823 55.0915C126.327 57.1976 126.872 58.9549 128.136 60.4439C128.136 60.4439 128.136 60.4439 128.136 60.4573C126.885 62.9121 126.377 65.4072 128.197 67.7681C128.458 68.1035 128.73 68.4254 128.99 68.7473C130.303 73.496 125.733 77.3191 126.823 82.43C126.996 83.2348 127.553 83.9995 128.197 84.6568C129.597 86.9104 129.535 88.6006 129.312 90.6261C129.275 90.6932 129.238 90.7737 129.226 90.8542C129.102 91.7932 128.743 92.759 128.321 93.7249C123.961 80.6325 124.593 67.862 123.391 54.2062C123.354 53.7635 122.71 53.7367 122.71 54.2062C122.685 67.1108 122.066 80.9678 126.872 93.1212C126.339 92.8261 125.819 92.4907 125.299 92.1688C117.979 84.536 114.758 74.2606 111.203 64.2535C106.769 51.7782 103.87 38.8065 100.712 25.9422C100.588 25.4592 99.894 25.6605 100.006 26.1434C103.152 40.4297 106.583 54.4342 111.389 68.2242C113.841 75.2399 116.405 83.1007 120.939 89.164C106.731 78.0033 99.5472 58.8073 91.6198 42.8979C91.5083 42.6699 91.1367 42.8308 91.2234 43.0723C95.5587 54.5013 100.6 65.2596 107.4 75.3472C111.698 81.719 117.31 90.3713 124.729 93.3358C125.101 93.6712 125.497 93.9663 125.894 94.2748C125.559 94.3419 125.225 94.4626 124.903 94.57L124.828 94.5834ZM126.785 96.2468C126.711 96.1529 126.624 96.0724 126.501 96.0321C126.178 95.9248 125.844 95.8175 125.51 95.7236C125.943 95.5626 126.352 95.3614 126.662 95.0663C126.723 95.0126 126.736 94.9456 126.761 94.8785C127.132 94.8248 127.417 94.2749 127.07 93.9663C127.033 93.9395 126.996 93.8992 126.971 93.8724C127.008 93.8322 127.046 93.7785 127.07 93.7249C127.256 94.1809 127.454 94.637 127.652 95.0931C127.442 95.5358 127.244 95.9785 127.058 96.4212C126.996 96.3272 126.909 96.2736 126.785 96.2468ZM132.136 113.605C132.074 114.034 132 114.477 131.938 114.933C131.876 114.879 131.852 114.812 131.79 114.772C131.331 114.41 130.873 114.141 130.365 113.86C130.105 113.712 129.882 113.538 129.696 113.35C129.733 113.283 129.771 113.202 129.808 113.149C130.056 112.626 129.548 112.17 129.126 112.304C128.743 111.016 129.126 109.393 129.349 108.159C129.51 107.26 129.523 106.482 129.411 105.731C130.477 106.871 131.468 107.944 131.926 109.353C131.814 109.554 131.691 109.742 131.579 109.929C131.331 110.345 131.827 110.667 132.161 110.453C132.236 111.217 132.174 112.089 131.913 113.122C131.864 113.323 131.988 113.511 132.136 113.591V113.605ZM131.492 99.2247C134.998 101.331 134.341 104.631 132.842 107.662C132.483 107.059 132.037 106.468 131.529 105.905C129.362 103.517 126.946 102.028 127.764 98.165C128.012 97.0114 128.47 95.9919 128.928 94.9858C128.941 95.8577 129.065 96.7565 129.486 97.387C130.068 98.2321 130.613 98.715 131.48 99.2247H131.492ZM134.428 82.7653C134.366 83.9726 134.205 85.1531 133.97 86.3336C133.871 86.8165 133.747 87.2994 133.623 87.7823C133.4 87.8896 133.301 88.2384 133.487 88.4396C133.474 88.5201 133.449 88.5872 133.437 88.6677C132.62 87.0982 131.282 85.7165 129.213 83.8653C125.249 80.3373 129.399 75.763 130.539 72.3692C130.712 71.8595 130.762 71.3631 130.749 70.8668C131.356 71.5644 131.951 72.2753 132.483 73.0533C132.533 73.1338 132.582 73.2143 132.632 73.2948C132.496 73.5899 132.706 73.9655 133.028 73.9655C133.028 73.9655 133.028 73.9655 133.053 73.9655C134.676 76.7557 134.985 79.4386 134.75 82.3361C134.589 82.3897 134.44 82.5105 134.428 82.7519V82.7653ZM141.352 102.162C138.516 99.8016 136.918 96.1126 135.914 92.3968C136.1 92.6249 136.274 92.8529 136.459 93.0944C137.388 94.2883 138.057 95.8577 139.123 96.8906C139.321 97.0784 139.668 96.9577 139.668 96.6626C139.63 95.2943 138.664 94.0334 137.884 92.9871C137.252 92.1554 136.571 91.3505 135.89 90.5591C139.345 93.6175 143.222 97.6016 141.352 102.162ZM135.791 86.0384C136.472 85.9311 137.141 85.7701 137.822 85.6092C137.463 85.9311 137.128 86.2799 136.769 86.5884C136.236 87.0579 135.382 87.5408 134.886 88.1579C134.861 88.1311 134.849 88.0908 134.812 88.064C135.047 87.3799 135.196 86.6153 135.27 85.8506C135.394 85.9714 135.568 86.0519 135.791 86.025V86.0384ZM135.27 73.1204C135.27 73.1204 135.307 73.0936 135.332 73.0802C136.744 73.9119 138.132 74.6899 139.345 75.924C140.819 77.4264 141.711 79.3715 142.219 81.4239C138.726 80.2032 136.125 76.8228 135.283 73.107L135.27 73.1204Z" fill="#CEAB80"/>
<path fill-rule="evenodd" clip-rule="evenodd" d="M115.093 64.5616C113.297 55.7349 110.237 47.2302 108.8 38.3231C108.738 37.9475 108.107 38.0414 108.156 38.417C109.283 47.4583 112.268 55.963 114.523 64.7359C114.622 65.125 115.167 64.9506 115.093 64.575V64.5616Z" fill="#CEAB80"/>
<path fill-rule="evenodd" clip-rule="evenodd" d="M101.604 71.0816C94.3945 60.6855 86.6529 51.1881 80.794 39.8127C80.6454 39.5176 80.2366 39.7725 80.3605 40.0676C85.4018 51.4564 92.425 62.6842 101.244 71.3499C101.418 71.5243 101.74 71.2962 101.591 71.0682L101.604 71.0816Z" fill="#CEAB80"/>
<path fill-rule="evenodd" clip-rule="evenodd" d="M87.2352 58.6461C86.9751 58.2168 86.3186 58.6058 86.5663 59.0485C91.0999 66.7618 97.6895 73.9787 105.357 78.392C105.629 78.5395 105.939 78.1639 105.691 77.9359C98.891 71.9129 92.0908 66.6276 87.2228 58.6461H87.2352Z" fill="#CEAB80"/>
<path fill-rule="evenodd" clip-rule="evenodd" d="M120.258 71.2023C119.973 68.0097 118.598 65.0183 118.09 61.8525C118.028 61.4635 117.384 61.5574 117.434 61.9464C117.805 65.1256 118.536 68.3987 119.787 71.3365C119.886 71.5779 120.283 71.4572 120.258 71.2023Z" fill="#CEAB80"/>
<path fill-rule="evenodd" clip-rule="evenodd" d="M121.757 128.361C122.636 123.116 123.528 117.791 123.763 112.465C123.788 111.902 123.008 111.929 122.946 112.465C122.351 117.71 121.174 122.982 121.224 128.281C121.224 128.589 121.695 128.67 121.744 128.348L121.757 128.361Z" fill="#CEAB80"/>
<path fill-rule="evenodd" clip-rule="evenodd" d="M114.969 116.596C113.606 118.608 112.789 120.794 112.752 123.276C112.752 123.518 113.061 123.531 113.136 123.33C113.867 121.17 114.449 118.916 115.39 116.851C115.526 116.556 115.155 116.327 114.969 116.596Z" fill="#CEAB80"/>
<path fill-rule="evenodd" clip-rule="evenodd" d="M114.548 120.5C114.127 122.096 113.705 123.92 113.866 125.584C113.879 125.758 114.114 125.866 114.213 125.678C114.981 124.135 114.734 122.297 115.043 120.634C115.105 120.299 114.634 120.151 114.548 120.486V120.5Z" fill="#CEAB80"/>
<path fill-rule="evenodd" clip-rule="evenodd" d="M69.5593 21.4891C70.4387 25.4865 71.7765 29.5108 73.6221 33.1595C73.7831 33.4681 74.2662 33.2534 74.1671 32.9181C73.0895 28.9877 71.442 25.178 70.0176 21.3683C69.9061 21.0732 69.485 21.1805 69.5593 21.5025V21.4891Z" fill="#CEAB80"/>
<path fill-rule="evenodd" clip-rule="evenodd" d="M119.106 50.3697C119.106 49.3233 118.549 48.3441 118.524 47.2844C118.511 46.788 117.768 46.788 117.781 47.2844C117.805 48.3843 118.078 49.6453 118.747 50.5306C118.871 50.6916 119.118 50.544 119.118 50.3697H119.106Z" fill="#CEAB80"/>
<path fill-rule="evenodd" clip-rule="evenodd" d="M36.5612 57.5598C35.434 57.4927 34.5298 58.0964 33.7494 58.9012C33.3159 59.3439 33.9724 60.0146 34.4183 59.5853C35.0624 58.9817 35.7684 58.4988 36.6726 58.6597C37.3415 58.7805 37.837 59.317 38.4563 59.5585C38.7536 59.6658 38.9146 59.3036 38.8155 59.0756C38.4563 58.2305 37.453 57.6134 36.5612 57.5598Z" fill="#CEAB80"/>
</svg>
