<svg width="158" height="122" viewBox="0 0 158 122" fill="none" xmlns="http://www.w3.org/2000/svg">
<path fill-rule="evenodd" clip-rule="evenodd" d="M90.3965 7.32653C91.744 7.62387 93.0166 8.21856 94.1844 8.91732C94.7982 9.28899 95.3223 8.36723 94.7384 7.98068C93.4807 7.13326 92.1782 6.55344 90.711 6.1669C89.5581 5.85469 87.9561 5.45328 86.8931 6.0777C86.6835 6.19663 86.6985 6.49398 86.8931 6.61291C87.8812 7.23733 89.2437 7.07379 90.3816 7.32653H90.3965Z" fill="#CEAB80"/>
<path fill-rule="evenodd" clip-rule="evenodd" d="M85.1863 9.91282C85.9349 10.2102 86.8033 10.1358 87.5818 10.2548C88.54 10.3886 89.4982 10.5521 90.4414 10.7305C91.1301 10.8494 91.4296 9.82361 90.7259 9.67494C89.7827 9.4668 88.8395 9.27354 87.8962 9.12486C87.0279 8.99106 86.0098 8.76803 85.1863 9.08024C84.7522 9.24378 84.7821 9.76414 85.1863 9.92768V9.91282Z" fill="#CEAB80"/>
<path fill-rule="evenodd" clip-rule="evenodd" d="M109.036 3.62401C108.677 3.05906 108.363 2.49412 108.108 1.88457C107.883 1.31962 107.824 0.724934 107.509 0.189719C107.374 -0.0481543 106.97 -0.0778885 106.835 0.189719C106.252 1.42369 107.449 3.14827 108.123 4.15923C108.497 4.70931 109.396 4.20383 109.036 3.62401Z" fill="#CEAB80"/>
<path fill-rule="evenodd" clip-rule="evenodd" d="M126.584 7.75758C127.347 6.83582 128.141 5.92895 128.994 5.08152C129.518 4.56118 130.072 4.08542 130.671 3.65427C131.105 3.34206 131.509 3.11906 131.779 2.65818C131.914 2.43518 131.734 2.1973 131.494 2.18244C130.416 2.1081 129.413 3.16366 128.665 3.81781C127.602 4.76931 126.703 5.91408 125.82 7.02911C125.416 7.54946 126.135 8.29281 126.569 7.77246L126.584 7.75758Z" fill="#CEAB80"/>
<path fill-rule="evenodd" clip-rule="evenodd" d="M130.716 9.94332C132.423 8.93235 134.13 7.86192 135.657 6.59822C135.941 6.36035 135.642 5.84 135.297 5.97381C133.456 6.73203 131.884 7.98087 130.192 9.02156C129.608 9.37837 130.132 10.2853 130.731 9.94332H130.716Z" fill="#CEAB80"/>
<path fill-rule="evenodd" clip-rule="evenodd" d="M137.154 16.7078C137.932 16.6632 138.636 16.3955 139.325 16.0387C139.504 15.9495 139.594 15.7563 139.594 15.563C139.594 15.2508 139.37 14.998 139.04 14.998C138.786 14.998 138.501 15.1765 138.277 15.2805C137.917 15.4441 137.558 15.5481 137.154 15.563C136.42 15.6076 136.42 16.7375 137.154 16.6929V16.7078Z" fill="#CEAB80"/>
<path fill-rule="evenodd" clip-rule="evenodd" d="M91.2647 111.798C91.3845 111.917 91.5042 112.021 91.624 112.14C91.6539 112.17 91.7138 112.125 91.6689 112.095C91.5491 111.976 91.4443 111.857 91.3245 111.738C91.2796 111.694 91.2198 111.753 91.2647 111.798Z" fill="#CEAB80"/>
<path fill-rule="evenodd" clip-rule="evenodd" d="M137.483 48.6269C132.452 45.3264 126.509 43.4086 120.4 42.6206C120.4 42.5611 120.37 42.4868 120.355 42.4422C123.14 38.9484 126.389 35.8263 129.263 32.392C130.356 31.0837 131.524 29.597 132.392 27.9914C133.051 27.1588 133.635 26.2817 133.935 25.345C133.979 25.2112 133.905 25.0923 133.8 25.018C134.084 24.6017 134.399 24.1854 134.653 23.7394C135.102 23.7394 135.507 23.1596 135.102 22.7433C130.266 17.6141 125.191 12.8567 121.014 7.14773C120.834 6.90986 120.55 6.88012 120.34 6.98419C120.34 6.96933 120.34 6.93958 120.34 6.92471C120.265 6.40436 119.367 6.5233 119.412 7.04365C119.801 10.8348 120.116 14.6853 121.014 18.3872C119.936 17.3019 118.828 16.2464 117.855 15.176C115.938 13.05 113.962 10.7456 111.537 9.16966C111.582 9.09532 111.626 9.02097 111.656 8.94664C111.686 8.88717 111.686 8.81284 111.686 8.76824C111.761 8.76824 111.836 8.76824 111.911 8.76824C113.588 8.84257 115.534 8.99124 117.271 8.61956C117.316 8.61956 117.361 8.66416 117.406 8.66416C117.72 8.66416 118.019 8.66416 118.319 8.66416C118.319 8.66416 118.364 8.72363 118.454 8.7831C118.858 9.11017 119.591 8.67904 119.232 8.18842C119.172 8.11409 119.127 8.01001 119.067 7.9208C119.157 7.80187 119.127 7.63834 119.023 7.53427C119.097 7.19233 118.828 6.80577 118.454 6.80577C118.034 6.80577 117.615 6.80577 117.196 6.80577C117.001 6.80577 116.777 6.90985 116.687 7.08825C116.642 7.19232 116.627 7.26665 116.627 7.34099C114.711 7.38559 112.734 7.6086 110.833 7.53427C108.078 7.4302 105.338 7.17745 102.583 7.17745C102.299 7.17745 102.134 7.35587 102.074 7.56401C102 7.59374 101.925 7.62347 101.85 7.69781C99.5142 9.83867 97.7026 12.7972 95.7862 15.2949C94.5136 16.96 93.241 18.6251 91.9235 20.2605C91.5941 20.6768 90.7107 21.9851 90.2616 22.3419C89.9621 22.3419 89.6477 22.5649 89.7824 22.9217C89.8274 23.0258 89.8873 23.115 89.9322 23.219C89.8274 23.3083 89.7824 23.442 89.8274 23.6056C91.3395 28.0508 95.8611 32.0947 99.08 35.3357C101.341 37.6104 103.931 40.1378 106.776 42.1151C103.377 41.3569 99.0651 42.4868 95.2023 44.4344C90.0819 37.8037 83.0152 32.3326 74.1818 28.7793C53.3259 20.3943 27.9935 26.2817 16.1208 45.3115C16.031 45.3115 15.9262 45.3115 15.8513 45.4007C6.94303 54.4697 5.17633 69.4259 7.27239 81.4534C9.74276 95.5771 17.7527 106.98 30.0596 114.399C47.5917 124.955 70.6185 122.992 86.2641 111.128C88.3152 112.957 90.546 114.607 93.0314 116.005C111.462 126.307 133.635 122.843 145.613 105.36C157.665 87.7571 156.123 60.8625 137.498 48.6269H137.483ZM119.082 39.7958C118.484 40.2716 117.855 40.7027 117.226 41.1339C117.84 39.8107 118.259 38.3537 118.618 36.9265C119.262 35.4249 119.831 33.8788 120.55 32.4664C120.759 32.0352 120.16 31.6784 119.906 32.0947C119.891 32.1244 119.876 32.1542 119.861 32.169C120.61 29.4186 121.433 26.7277 122.466 24.0665C122.466 24.0665 122.481 24.0665 122.496 24.0665C122.691 24.0219 122.795 23.9029 122.84 23.7691C124.053 26.0884 125.341 28.3779 126.688 30.6229C126.089 31.4108 125.49 32.1988 124.877 32.957C123.469 34.7262 122.122 36.5399 120.894 38.4429C120.205 38.7403 119.651 39.3647 119.082 39.8107V39.7958ZM116.013 40.5541C115.864 41.1339 115.714 41.7137 115.549 42.2638C114.875 42.234 114.217 42.234 113.543 42.234C113.288 39.4688 113.004 36.6738 112.674 33.9233C115.983 31.3365 118.349 27.8279 120.909 24.5274C118.933 28.9429 117.705 33.9679 116.492 38.7105C116.298 39.216 116.103 39.7215 115.938 40.227C115.893 40.3757 115.938 40.4797 116.013 40.5689V40.5541ZM111.641 32.957C111.641 33.0908 111.641 33.2395 111.656 33.3733C111.626 33.4179 111.611 33.4625 111.597 33.5071C111.567 33.4179 111.537 33.3287 111.447 33.2543C108.078 30.5783 105.338 27.3521 102.329 24.3192C107.434 25.8951 113.932 25.5829 119.352 24.6463C117.136 27.4116 115.175 30.3701 112.42 32.6448C112.15 32.3772 111.597 32.4515 111.626 32.9273L111.641 32.957ZM112.345 42.2489C111.941 42.2489 111.552 42.2489 111.162 42.2786C108.752 39.5877 106.581 37.1049 104.754 33.9085C103.272 31.3216 101.985 28.6307 100.682 25.9397C100.682 25.8803 100.652 25.8356 100.622 25.8059C100.502 25.5532 100.368 25.3004 100.248 25.0328C100.562 25.0626 100.862 25.0774 101.176 25.1072C101.326 25.122 101.446 25.0774 101.535 25.018C104.41 28.2292 107.165 31.8122 110.773 34.1612C111.102 34.3842 111.492 34.1315 111.611 33.8044C111.626 33.8787 111.671 33.9531 111.701 34.0125C111.821 36.7332 111.806 39.5728 112.36 42.2489H112.345ZM125.251 35.3952C124.143 36.5697 123.035 37.7144 121.942 38.8889C123.364 36.7927 124.877 34.7708 126.494 32.7786C126.778 32.4218 127.062 32.0798 127.362 31.723C127.422 31.8122 127.467 31.9014 127.512 31.9906C126.733 32.9124 125.97 33.8193 125.191 34.741C124.996 34.964 125.071 35.2465 125.251 35.3952ZM131.689 26.4898C131.509 26.8169 131.314 27.144 131.12 27.4859C131.09 27.5305 131.09 27.5751 131.075 27.6197C130.641 28.2144 130.207 28.8091 129.757 29.3592C129.278 29.939 128.784 30.5039 128.305 31.0837C128.26 30.9945 128.2 30.9053 128.155 30.8161C129.653 29.0618 131.18 27.248 132.213 25.241C132.063 25.6721 131.868 26.0884 131.674 26.5047L131.689 26.4898ZM132.482 24.4381C132.407 24.2597 132.183 24.1557 131.988 24.3192C130.326 25.8654 128.874 27.7238 127.452 29.5822C126.329 27.6048 125.191 25.6424 124.053 23.6799C126.868 24.0813 129.757 24.0962 132.587 24.0962C132.557 24.2151 132.512 24.3192 132.467 24.4381H132.482ZM120.505 8.21816C123.948 13.8677 129.248 18.3575 133.8 23.1001C133.785 23.1298 133.755 23.1447 133.74 23.1744C133.65 23.0258 133.5 22.9068 133.261 22.9068C129.982 22.9068 126.748 22.8028 123.499 22.446C123.454 22.3419 123.424 22.2378 123.379 22.1338C123.679 22.1189 123.963 21.8364 123.739 21.5391C123.424 21.093 123.05 20.6619 122.676 20.2307C121.433 16.3504 121.059 12.262 120.49 8.23302L120.505 8.21816ZM117.031 15.9788C118.364 17.4655 119.816 19.5617 121.523 20.989C121.523 21.0782 121.523 21.1823 121.568 21.2863C121.732 21.5985 121.897 21.9107 122.047 22.223C122.047 22.2378 122.017 22.2675 122.017 22.2824C121.957 22.2824 121.897 22.3122 121.837 22.3419C121.673 22.2378 121.448 22.2378 121.268 22.4311C121.029 22.669 120.819 22.9366 120.595 23.1893C114.381 24.1259 107.3 24.7206 101.296 22.8771C102.808 21.1823 104.185 19.3982 105.533 17.5844C107.33 15.1759 109.5 12.6931 111.043 10.0617C113.154 11.9349 115.145 13.8677 117.031 15.9788ZM103.048 8.30736C105.713 8.3817 108.393 8.58982 111.058 8.70876C111.028 8.73849 110.998 8.76825 110.983 8.79798C110.968 8.79798 110.938 8.76825 110.923 8.75338C110.504 8.51551 110.024 9.08045 110.369 9.42239C108.662 11.1767 107.315 13.377 105.877 15.3097C104.021 17.8372 102.104 20.2754 100.098 22.6838C100.023 22.6838 99.9334 22.6987 99.8735 22.7433C100.802 17.8966 102.389 13.1986 103.048 8.30736ZM94.8729 18.3872C97.1936 15.4138 99.3944 12.3363 101.82 9.43725C100.877 14.1204 99.4244 18.6995 98.6608 23.4272C98.6608 23.4272 98.6608 23.4569 98.6608 23.4718C98.6608 23.5313 98.6458 23.5907 98.6308 23.6502C97.9272 23.6502 97.2235 23.665 96.5797 23.6502C95.2921 23.6353 92.3427 23.9178 91.0701 22.9663C92.5373 22.1189 94.3788 19.0265 94.8879 18.3724L94.8729 18.3872ZM90.9652 24.1557C91.7588 24.5274 92.7619 24.6017 93.5853 24.6909C95.3071 24.8693 97.0438 24.8693 98.7656 24.9288C97.7625 27.1588 96.8342 29.6714 96.8792 31.9906C94.4986 29.6714 92.1929 27.0696 90.9652 24.1557ZM99.7388 34.6816C99.08 34.072 98.3913 33.4476 97.7176 32.7935C98.2266 31.3959 98.3763 29.8349 98.7656 28.3928C99.0051 27.5156 99.2896 26.6533 99.604 25.791C99.7986 26.2371 99.9933 26.6831 100.188 27.1291C99.9633 29.6565 99.3645 32.3326 99.9484 34.7559C99.9933 34.9343 100.278 34.9343 100.323 34.7559C100.832 32.7786 100.817 30.5485 100.757 28.4076C100.877 28.6753 101.026 28.9429 101.146 29.2253C101.026 29.2402 100.922 29.3294 100.937 29.4484C101.086 30.5485 101.071 31.6635 101.071 32.7786C101.071 33.849 100.907 35.0384 101.236 36.0642C100.727 35.6033 100.233 35.1276 99.7388 34.6816ZM101.55 36.3615C101.64 36.3615 101.745 36.2872 101.775 36.1831C102.164 35.1276 101.955 33.8787 101.88 32.7786C101.82 31.8419 101.655 30.9202 101.505 30.0133C101.805 30.6526 102.134 31.277 102.449 31.9014C102.299 31.946 102.164 32.0501 102.164 32.2582C102.149 33.0165 102.134 33.7747 102.119 34.518C102.104 35.2168 101.955 35.9899 102.329 36.5994C102.449 36.7778 102.718 36.7778 102.823 36.5994C103.152 36.0642 103.063 35.4547 103.048 34.8302C103.033 34.2207 103.018 33.6111 103.003 32.9867C103.242 33.4327 103.482 33.8787 103.736 34.3396C103.616 34.414 103.542 34.518 103.542 34.6964C103.527 35.5141 103.512 36.3318 103.572 37.1495C103.602 37.5063 103.617 37.9672 103.766 38.3389C103.018 37.6847 102.269 37.0157 101.55 36.3467V36.3615ZM104.395 38.8741C104.485 38.8741 104.575 38.8295 104.635 38.7254C104.904 38.2497 104.635 37.6698 104.575 37.1495C104.515 36.6589 104.485 36.1683 104.47 35.6777C104.605 35.9155 104.754 36.1683 104.889 36.421C104.739 36.4656 104.62 36.5994 104.62 36.8076C104.62 37.7442 104.814 39.1566 105.563 39.8107C105.713 39.9297 105.982 39.8999 106.027 39.6918C106.117 39.2606 106.012 38.9484 105.862 38.5322C105.757 38.2199 105.668 37.9226 105.608 37.6253C106.281 38.7403 107.06 39.8702 107.928 40.8514C107.704 40.8514 107.494 40.9852 107.404 41.1785C106.371 40.4649 105.368 39.6918 104.395 38.8741ZM81.7875 112.645C81.6078 112.749 81.4431 112.868 81.2634 112.972C81.0988 113.076 80.9191 113.165 80.7544 113.269C69.5105 119.573 55.407 121.119 42.4264 117.744C42.4264 117.655 42.3814 117.58 42.2916 117.536C31.2873 112.005 22.7084 105.241 15.7614 94.9825C6.16445 80.8141 10.5512 67.6419 13.8301 52.4329C13.9049 52.1058 13.4558 52.0017 13.336 52.2991C7.75148 66.0809 6.08961 80.1154 13.3959 93.4511C18.157 102.163 26.1519 110.623 35.3896 115.395C34.5063 115.023 33.6379 114.652 32.7695 114.235C9.27863 102.907 1.40342 71.8493 13.7852 49.9798C13.9049 50.5299 14.6984 50.8421 15.0128 50.2177C25.2386 30.1471 46.9629 23.1893 68.2229 28.4523C78.4787 30.9945 87.6415 36.9265 94.4387 44.8804C93.4955 45.3859 92.5822 45.9211 91.7288 46.5009C91.609 46.5306 91.5042 46.5901 91.3845 46.6198C91.1599 46.2928 90.8604 46.0103 90.576 45.7278C90.2466 45.4007 89.8124 45.6237 89.6926 45.9508C89.4082 45.7129 89.1387 45.4899 88.9291 45.2818C88.5099 44.8655 87.9259 45.2818 87.9559 45.7427C87.4768 45.3413 87.0127 44.925 86.5186 44.5384C86.2641 44.3452 85.9646 44.4641 85.8299 44.6574C85.1562 43.9884 84.4674 43.3342 83.7488 42.7098C83.4344 42.4273 83.0601 42.7693 83.1799 43.0963C69.3608 31.3811 43.1451 30.9053 30.0297 43.5721C18.4414 53.0722 15.0578 66.1849 18.2019 78.6287C17.9623 78.6584 17.7377 78.8368 17.7826 79.149C20.6572 94.2986 32.6497 109.775 49.2685 110.771C49.4931 110.771 49.6129 110.652 49.6728 110.504C54.5836 111.931 59.7489 112.392 64.9741 111.767C66.4563 112.6 68.2379 113.195 69.8399 113.016C70.0346 112.987 70.1543 112.734 69.9447 112.615C69.1063 112.154 68.163 111.976 67.2348 111.753C66.9952 111.693 66.7707 111.604 66.5461 111.53C67.3995 111.396 68.2379 111.217 69.0913 111.024C69.0464 111.173 69.0614 111.351 69.241 111.44C70.5286 112.109 73.3882 113.001 74.3015 111.277C74.4063 111.084 74.2716 110.816 74.047 110.831C73.4032 110.831 72.8343 111.158 72.1905 111.232C71.3371 111.321 70.5586 111.173 69.78 110.875C70.6634 110.652 71.5467 110.4 72.43 110.102C72.475 110.191 72.5498 110.266 72.6696 110.31C73.3284 110.533 73.9871 110.652 74.6758 110.682C75.4843 110.727 76.0083 110.504 76.6671 110.043C76.8168 109.939 76.7719 109.686 76.5623 109.671C75.649 109.656 74.7208 109.716 73.8225 109.612C74.2117 109.448 74.2866 109.017 74.1369 108.72C75.4095 108.199 76.6371 107.56 77.8499 106.861C77.2659 107.352 76.6671 107.857 76.0832 108.348C75.7538 108.63 76.188 109.181 76.5473 108.943C80.6795 106.296 85.0364 102.669 87.4468 98.2978C92.4175 91.5928 95.1574 83.5497 95.6365 75.3728C95.7113 75.5363 95.906 75.6255 96.0707 75.462C97.3283 74.1537 97.7625 72.0277 98.3614 70.3774C98.541 69.8868 97.7775 69.6936 97.5828 70.1693C96.969 71.7155 95.9659 73.3657 95.6515 75.0308C95.8161 71.6857 95.6065 68.3109 95.0077 65.0104C95.0825 65.0104 95.1574 64.9807 95.1873 64.9063C95.6215 63.7913 95.6964 62.5574 95.876 61.3829C95.9209 61.1152 95.5017 60.9814 95.4568 61.2639C95.2622 62.3195 94.9927 63.375 94.9029 64.4455C94.5884 62.8398 94.1842 61.2491 93.6751 59.688C94.1093 58.9001 94.1243 57.7404 94.1093 56.9525C94.1093 56.9227 94.1093 56.893 94.0944 56.8633C94.1992 56.7889 94.289 56.7146 94.3938 56.6403C95.2173 58.3351 95.9509 60.0745 96.6546 61.8437C96.445 61.7545 96.1755 61.7991 96.1306 62.0519C95.876 63.494 95.1574 65.1145 95.4418 66.5863C95.4718 66.7647 95.7413 66.7945 95.8311 66.6309C96.5198 65.3821 96.6696 63.7616 96.8342 62.3492C96.954 62.6614 97.0738 63.0034 97.1936 63.3156C97.0139 63.2412 96.8193 63.2858 96.7743 63.5088C96.5498 65.0699 96.2204 66.6161 96.0407 68.1771C96.0108 68.4001 96.3701 68.4893 96.4599 68.296C97.0738 66.9134 97.2085 65.3672 97.4032 63.8805C97.6427 64.5049 97.8822 65.1145 98.1068 65.7538C98.1966 66.0065 98.6458 65.9916 98.6159 65.6794C98.2865 62.1708 97.0588 58.9149 95.3969 55.8523C96.8492 54.9008 98.3913 54.1426 99.9783 53.4587C105.054 64.8469 103.602 78.4354 99.8436 90.0614C98.0469 95.6217 95.2322 100.394 91.7288 104.378C91.5941 104.245 91.3845 104.185 91.2198 104.289C89.4232 105.449 88.0906 107.411 86.5635 108.898C85.0963 110.325 83.4943 111.544 81.7725 112.63L81.7875 112.645ZM86.7881 51.4665C84.4974 53.3398 82.4163 55.4806 80.8143 57.8296C82.7606 54.6778 85.0663 51.6895 87.9259 49.5784C87.5067 50.0095 87.1025 50.4407 86.7731 50.8718C86.6084 51.08 86.6533 51.3178 86.7881 51.4665ZM31.3622 100.037C33.3983 101.925 35.6591 103.591 38.0546 105.033C39.1925 105.806 40.3603 106.504 41.558 107.144C37.1263 105.345 33.1288 103.04 29.3409 99.3237C25.6878 95.7407 23.0977 91.34 21.1813 86.642C23.5918 91.4738 27.0203 96.0232 31.3622 100.037ZM26.6759 48.731C26.6759 48.731 26.7957 48.7756 26.8556 48.7904C18.7259 59.3163 16.3603 71.7006 21.3609 84.293C16.3454 72.5183 17.8575 59.0785 26.6759 48.731ZM39.4769 103.992C35.0902 101.093 31.0777 97.2125 27.4545 92.4402C14.1595 74.8524 20.1033 56.001 34.9554 41.907C35.1201 41.7434 35.15 41.565 35.0901 41.3866C50.0021 31.6784 74.077 34.8748 85.5903 47.5862C86.0096 48.0471 86.3689 48.5228 86.7581 49.0134C81.5928 52.9086 78.2092 59.8218 75.4843 65.1145C70.7682 74.3172 70.304 86.984 75.7089 95.9934C76.7719 98.7438 78.1643 101.375 79.8261 103.843C79.5567 104.051 79.3021 104.26 79.0326 104.468C67.5792 112.184 51.8437 110.95 39.462 104.007L39.4769 103.992ZM84.0482 97.6585C83.9584 97.718 83.8835 97.8221 83.8835 97.9856C83.8835 98.5654 83.8835 99.398 84.168 100.022C84.1081 100.082 84.0482 100.141 83.9883 100.201C83.9284 99.8291 83.8237 99.4723 83.7788 99.1304C83.6141 98.164 83.4643 97.2125 83.3296 96.2462C83.5541 96.7219 83.8237 97.1828 84.0632 97.6437L84.0482 97.6585ZM91.9384 58.1864C96.4749 70.3477 94.4387 85.0661 87.5517 95.7555C87.1324 96.4097 86.6833 97.0193 86.2341 97.6288C79.6315 85.0215 83.075 69.0691 91.9384 58.1864ZM100.532 53.2506C114.651 47.5862 132.991 52.4477 140.822 65.6794C148.158 78.0786 144.954 94.7595 134.968 104.646C123.574 115.93 103.961 116.094 92.3277 105.612C95.0825 102.609 97.4481 99.1898 99.2896 95.3839C106.311 80.9479 106.326 65.8281 100.532 53.2357V53.2506ZM146.631 101.375C136.255 121.089 114.591 124.494 95.3071 115.811C92.2378 114.429 89.513 112.63 87.0576 110.519C87.357 110.281 87.6564 110.013 87.9559 109.76C88.1056 110.578 88.4949 111.425 89.2734 111.619C89.483 111.663 89.6477 111.53 89.6627 111.321C89.7226 110.504 89.0189 109.835 88.8093 109.047C88.959 108.928 89.0788 108.794 89.2285 108.66C89.5579 109.671 90.052 111.098 91.0401 111.158C91.1449 111.158 91.2647 111.069 91.2946 110.965C91.3246 110.861 91.3246 110.771 91.3096 110.667C92.2229 111.753 93.1961 112.763 94.4088 113.641C94.5436 113.745 94.7082 113.522 94.5885 113.403C93.5853 112.496 92.6571 111.485 91.7588 110.474C91.9534 110.652 92.1331 110.831 92.3726 110.95C92.5373 111.039 92.7169 110.95 92.7768 110.816C92.7918 110.861 92.7918 110.905 92.8367 110.95C94.0944 112.065 95.3819 113.15 96.7144 114.176C97.8673 115.068 99.3345 116.376 100.832 116.555C100.996 116.569 101.116 116.346 101.026 116.213C100.323 115.246 99.0501 114.681 98.0769 114.012C96.445 112.912 94.843 111.723 93.3158 110.489C93.1212 110.325 92.8966 110.444 92.8068 110.608C92.4774 109.359 91.4893 108.318 90.8006 107.218C90.8754 107.144 90.9503 107.084 91.0251 107.01C92.5672 108.482 94.2291 109.85 96.0856 111.039C96.445 111.262 96.8192 110.756 96.5348 110.459C96.2952 110.221 96.0856 109.998 95.8461 109.76C98.047 111.128 100.398 112.199 102.838 112.957C102.688 113.046 102.613 113.224 102.763 113.388C104.56 115.068 107.479 116.54 110.024 116.213C110.219 116.183 110.369 115.9 110.144 115.796C107.839 114.741 105.323 114.83 103.317 113.091C104.979 113.581 106.686 113.923 108.407 114.131C108.422 114.131 108.408 114.161 108.437 114.176C110.159 115.202 112.21 116.406 114.247 116.555C114.486 116.569 114.531 116.242 114.366 116.138C113.124 115.336 111.671 114.875 110.294 114.31C112.225 114.443 114.187 114.384 116.133 114.176C116.118 114.295 116.163 114.429 116.298 114.473C118.154 115.202 120.46 115.677 122.406 115.083C122.556 115.038 122.556 114.83 122.406 114.771C120.625 114.22 118.708 114.548 116.897 114.102C121.029 113.581 125.086 112.317 128.844 110.34C130.746 110.652 132.572 110.325 134.069 109.047C134.144 108.987 134.069 108.839 133.965 108.868C132.587 109.344 131.24 109.775 129.817 109.79C130.79 109.24 131.734 108.63 132.662 107.991C134.923 107.411 137.438 106.564 139.025 104.884C139.115 104.78 139.025 104.587 138.875 104.646C137.438 105.137 136.061 105.821 134.683 106.475C134.728 106.43 134.773 106.4 134.818 106.371C135.866 105.493 136.824 104.527 137.722 103.546C139.16 102.684 140.642 101.658 141.54 100.335C141.645 100.186 141.435 99.9927 141.301 100.097C140.627 100.528 139.998 101.048 139.384 101.554C147.394 90.9535 147.933 75.4174 141.196 64.0441C132.003 48.5377 105.698 44.7317 92.3427 56.8186C92.2678 56.8186 92.1929 56.8335 92.1181 56.9079C83.6739 65.2483 79.931 78.0191 82.2067 89.5857C81.9671 88.8424 81.7126 88.1139 81.518 87.3408C78.6434 75.9823 83.1499 65.3375 90.8455 57.0565C91.1599 56.7295 90.6808 56.2686 90.3514 56.5659C79.1075 66.735 77.2809 82.7766 83.105 95.7555C82.8355 95.6217 82.3714 95.7704 82.4013 96.1421C82.4912 97.1233 82.5361 98.1046 82.6708 99.0709C82.7606 99.7399 82.7756 100.558 83.09 101.182C82.9403 101.331 82.8056 101.479 82.6559 101.628C82.1169 102.029 81.5928 102.49 81.0838 102.907C80.9341 103.026 80.7694 103.144 80.6197 103.263C79.1824 101.137 77.9247 98.8925 76.9216 96.4989C76.9515 96.3948 76.9516 96.2759 76.8917 96.1421C76.6372 95.6218 76.3976 95.0865 76.1581 94.5513C76.1132 94.4026 76.0532 94.2688 75.9934 94.1202C72.5947 84.4566 74.1967 74.8673 77.8648 65.8727C78.0146 65.9025 78.1792 65.843 78.2242 65.6348C78.3589 65.0402 78.5236 64.4752 78.7033 63.9103C79.3021 62.5722 79.931 61.249 80.5897 59.9556C86.1443 54.1723 91.8486 48.7904 99.4842 45.6832C102.464 44.479 105.623 43.7654 108.842 43.468C108.872 43.468 108.887 43.4977 108.917 43.5126C108.917 43.5572 108.961 43.5869 108.976 43.6315C107.24 43.8397 105.578 44.1965 104.2 44.7168C103.557 44.9547 103.826 45.9806 104.485 45.7576C109.86 43.8546 114.8 45.5345 120.22 45.8914C120.535 45.9062 120.625 45.4751 120.37 45.3264C119.442 44.7763 118.349 44.3749 117.181 44.0776C117.241 43.914 117.241 43.7356 117.166 43.587C117.286 43.587 117.391 43.587 117.51 43.5721C117.75 43.6018 117.989 43.6167 118.229 43.6464C118.349 43.9884 118.873 44.2114 119.202 43.8992C119.247 43.8694 119.307 43.8397 119.352 43.7951C122.84 44.2857 126.254 45.1034 129.458 46.159C152.874 53.9047 156.931 81.7805 146.616 101.39L146.631 101.375Z" fill="#CEAB80"/>
<path fill-rule="evenodd" clip-rule="evenodd" d="M97.8524 111.068C97.4182 110.771 97.029 111.47 97.4482 111.767C99.7389 113.417 102.224 115.751 105.024 116.45C105.159 116.48 105.249 116.316 105.159 116.227C103.137 114.146 100.233 112.718 97.8674 111.068H97.8524Z" fill="#CEAB80"/>
<path fill-rule="evenodd" clip-rule="evenodd" d="M115.549 115.202C114.636 114.993 113.738 114.711 112.869 114.384C112.675 114.31 112.525 114.637 112.72 114.726C114.307 115.395 116.358 116.703 118.139 116.094C118.274 116.049 118.274 115.871 118.139 115.826C117.316 115.499 116.403 115.395 115.549 115.202Z" fill="#CEAB80"/>
<path fill-rule="evenodd" clip-rule="evenodd" d="M122.032 113.715C121.822 113.671 121.732 113.983 121.942 114.042C123.245 114.399 124.697 114.711 125.94 114.013C126.074 113.938 126.014 113.73 125.865 113.73C124.562 113.671 123.349 113.983 122.032 113.73V113.715Z" fill="#CEAB80"/>
<path fill-rule="evenodd" clip-rule="evenodd" d="M128.5 112.065C127.736 112.139 126.988 112.154 126.224 112.169C125.835 112.169 125.835 112.748 126.224 112.763C127.572 112.793 129.353 113.031 130.536 112.258C130.686 112.169 130.611 111.975 130.461 111.96C129.803 111.871 129.159 112.005 128.5 112.065Z" fill="#CEAB80"/>
<path fill-rule="evenodd" clip-rule="evenodd" d="M139.624 60.0002C139.714 60.0002 139.714 59.8516 139.624 59.8516C139.534 59.8516 139.534 60.0002 139.624 60.0002Z" fill="#CEAB80"/>
<path fill-rule="evenodd" clip-rule="evenodd" d="M141.511 61.8137C143.487 65.0994 144.595 68.6377 145.598 72.295C145.703 72.7113 146.406 72.637 146.362 72.191C145.882 68.2661 144.236 64.7574 141.975 61.5461C141.78 61.2785 141.346 61.5164 141.511 61.8137Z" fill="#CEAB80"/>
<path fill-rule="evenodd" clip-rule="evenodd" d="M33.2041 104.974C32.8897 104.587 32.2159 105.108 32.5154 105.509C35.0157 108.884 38.6239 112.229 42.8759 113.151C43.2802 113.24 43.5646 112.675 43.1604 112.467C39.3126 110.534 35.9589 108.334 33.2041 104.974Z" fill="#CEAB80"/>
<path fill-rule="evenodd" clip-rule="evenodd" d="M42.8157 110.014C42.4564 109.672 41.9174 110.192 42.2618 110.564C44.1782 112.511 46.4838 114.429 49.1788 115.158C49.4333 115.232 49.7028 114.86 49.4632 114.682C47.3223 113.002 44.8369 111.917 42.8157 110.029V110.014Z" fill="#CEAB80"/>
<path fill-rule="evenodd" clip-rule="evenodd" d="M47.7866 110.787C47.3524 110.519 46.993 111.173 47.3973 111.456C49.5981 113.032 51.9188 115.425 54.6287 116.064C54.9731 116.139 55.2725 115.708 54.988 115.455C52.892 113.626 50.1521 112.273 47.7866 110.787Z" fill="#CEAB80"/>
<path fill-rule="evenodd" clip-rule="evenodd" d="M55.2424 113.24C54.7633 113.077 54.5686 113.82 55.0328 113.984C56.1706 114.385 57.2336 114.905 58.4314 115.084C58.6859 115.128 58.8656 114.786 58.6111 114.653C57.5331 114.043 56.4102 113.612 55.2424 113.24Z" fill="#CEAB80"/>
<path fill-rule="evenodd" clip-rule="evenodd" d="M25.9276 44.5984C29.7005 40.5546 34.9407 36.4959 40.4653 35.3065C40.5252 35.3065 40.4953 35.2024 40.4354 35.2173C34.4766 36.2728 29.1616 39.5287 25.5533 44.3159C25.3886 44.539 25.748 44.8066 25.9276 44.6133V44.5984Z" fill="#CEAB80"/>
<path fill-rule="evenodd" clip-rule="evenodd" d="M73.9274 35.6182C79.3472 37.4468 84.2281 39.5579 88.5549 43.3342C88.7496 43.4977 89.064 43.2896 88.9292 43.0517C85.8301 38.1753 79.3921 36.3615 74.137 34.8897C73.6579 34.7559 73.4782 35.4695 73.9424 35.6182H73.9274Z" fill="#CEAB80"/>
<path fill-rule="evenodd" clip-rule="evenodd" d="M94.6784 57.9781C94.6784 58.6025 94.6485 59.2121 94.5437 59.8365C94.5437 59.896 94.6185 59.9257 94.6485 59.8662C94.903 59.2567 94.918 58.6323 94.9329 57.9781C94.9329 57.8146 94.6784 57.8146 94.6784 57.9781Z" fill="#CEAB80"/>
<path fill-rule="evenodd" clip-rule="evenodd" d="M95.2025 59.5693C95.0229 60.5654 95.0228 61.5615 94.9031 62.5576C94.8881 62.6914 95.1127 62.7211 95.1426 62.5873C95.3822 61.621 95.5019 60.6843 95.6816 59.7031C95.7415 59.3909 95.2624 59.2571 95.2025 59.5693Z" fill="#CEAB80"/>
<path fill-rule="evenodd" clip-rule="evenodd" d="M97.1934 66.2144C96.7293 67.8052 96.0256 69.3662 95.7561 71.0165C95.6962 71.3584 96.1304 71.5814 96.325 71.2544C97.2234 69.7825 97.4928 68.0431 97.8522 66.3928C97.942 65.9617 97.2982 65.7833 97.1784 66.2144H97.1934Z" fill="#CEAB80"/>
<path fill-rule="evenodd" clip-rule="evenodd" d="M97.1336 75.0605C97.1336 75.0605 97.1336 74.9267 97.1336 74.8524C97.1336 74.8226 97.0742 74.8226 97.0891 74.8524C97.0891 74.9267 97.0891 74.9862 97.0891 75.0605C97.0891 75.0903 97.1336 75.0903 97.1336 75.0605Z" fill="#CEAB80"/>
<path fill-rule="evenodd" clip-rule="evenodd" d="M79.5117 90.4779C79.4818 90.1805 79.0776 90.1805 79.0476 90.4779C78.868 92.143 78.1493 94.6407 79.3321 96.053C79.4369 96.1868 79.6615 96.0977 79.7064 95.949C79.9459 95.1759 79.7662 94.3582 79.7213 93.5554C79.6614 92.5147 79.6016 91.5037 79.5117 90.463V90.4779Z" fill="#CEAB80"/>
<path fill-rule="evenodd" clip-rule="evenodd" d="M80.3954 98.4464C80.4553 98.595 80.635 98.595 80.6799 98.4464C81.2937 96.9299 80.8296 94.9675 80.635 93.4064C80.59 93.0348 79.9912 93.0199 80.0211 93.4064C80.1858 95.0269 79.7666 96.9299 80.3954 98.4464Z" fill="#CEAB80"/>
<path fill-rule="evenodd" clip-rule="evenodd" d="M82.761 100.9C82.761 99.9184 82.4765 98.9669 82.3418 98.0006C82.1771 96.8261 82.0873 95.6218 82.1472 94.4325C82.1622 93.9865 81.5034 94.0013 81.4584 94.4325C81.2039 96.499 80.9794 99.2048 82.1472 101.063C82.3268 101.346 82.761 101.227 82.776 100.9H82.761Z" fill="#CEAB80"/>
<path fill-rule="evenodd" clip-rule="evenodd" d="M1.32871 76.8001C1.10413 81.5724 1.83777 86.5826 4.0536 90.8643C4.23327 91.2211 4.75729 90.9684 4.66746 90.6116C3.61943 85.9879 2.1372 81.5724 1.76291 76.8001C1.74794 76.5325 1.34368 76.5176 1.32871 76.8001Z" fill="#CEAB80"/>
<path fill-rule="evenodd" clip-rule="evenodd" d="M0.8198 90.5818C0.640137 90.0912 -0.153371 90.2993 0.0262914 90.8048C0.625167 92.4699 1.73307 93.5998 3.00568 94.804C3.29015 95.0716 3.70937 94.6554 3.43988 94.3729C2.37688 93.2579 1.35879 92.0536 0.8198 90.5966V90.5818Z" fill="#CEAB80"/>
<path fill-rule="evenodd" clip-rule="evenodd" d="M151.781 61.4277C151.961 61.8143 152.575 61.5318 152.47 61.1452C151.063 55.912 146.885 52.1507 143.352 48.2555C143.098 47.973 142.723 48.3744 142.948 48.6569C146.317 52.6859 149.565 56.6405 151.781 61.4277Z" fill="#CEAB80"/>
<path fill-rule="evenodd" clip-rule="evenodd" d="M153.653 54.4548C153.443 53.9493 152.62 54.1574 152.814 54.6778C155.015 60.6246 156.153 66.6012 156.737 72.9048C156.782 73.4252 157.531 73.44 157.561 72.9048C157.92 66.5863 156.048 60.2381 153.653 54.4548Z" fill="#CEAB80"/>
<path fill-rule="evenodd" clip-rule="evenodd" d="M20.8519 32.7929C22.933 31.6481 25.074 30.2506 26.9604 28.8085C27.3197 28.5409 27.1401 27.8867 26.631 28.0354C24.2954 28.7341 22.0945 30.4587 20.2081 31.9603C19.714 32.3469 20.3429 33.0753 20.8519 32.7929Z" fill="#CEAB80"/>
<path fill-rule="evenodd" clip-rule="evenodd" d="M148.966 107.828C147.604 111.367 145.179 114.147 142.843 117.061C142.484 117.507 143.023 118.057 143.472 117.685C146.466 115.202 148.472 111.664 149.655 108.021C149.805 107.575 149.116 107.412 148.966 107.828Z" fill="#CEAB80"/>
</svg>
