<svg width="145" height="132" viewBox="0 0 145 132" fill="none" xmlns="http://www.w3.org/2000/svg">
<path fill-rule="evenodd" clip-rule="evenodd" d="M121.682 120.038C121.582 119.93 121.438 119.852 121.309 119.774C121.209 119.712 120.979 119.541 121.094 119.65C120.922 119.588 120.793 119.572 120.606 119.619C120.319 119.712 120.133 120.132 120.262 120.427C120.319 120.551 120.391 120.66 120.477 120.753C120.477 120.769 120.448 120.784 120.434 120.815C120.305 120.97 120.319 121.25 120.477 121.39C120.993 121.809 122.155 121.747 122.041 120.753C122.012 120.458 121.869 120.24 121.668 120.038H121.682Z" fill="#CEAB80"/>
<path fill-rule="evenodd" clip-rule="evenodd" d="M90.8688 117.397C90.2089 117.366 89.6065 117.397 88.9466 117.506C88.5306 117.583 88.1146 117.645 87.6842 117.708C87.4691 117.739 85.4321 118.143 86.9813 117.708C87.1104 117.676 87.1104 117.443 86.9813 117.397C86.3358 117.133 85.5899 116.993 84.8439 116.977C84.2701 116.17 83.2086 115.983 82.1327 116.138C82.0897 116.03 82.018 115.905 81.9032 115.797C80.899 114.802 79.149 114.709 77.7001 115.222C76.6816 114.927 75.5771 115.082 74.6733 115.688C74.5586 115.766 74.6446 115.952 74.7594 115.936C75.0606 115.936 75.3619 115.905 75.6775 115.89C75.8496 115.89 75.8209 115.595 75.6488 115.595C74.329 115.672 76.28 115.346 76.5382 115.315C76.9829 115.206 77.2698 115.206 77.4132 115.315C76.8251 115.564 76.3087 115.921 75.9357 116.356C75.864 116.449 75.9357 116.573 76.0218 116.604C76.9829 116.884 77.8436 116.573 78.3887 115.657C78.4317 115.579 78.4174 115.502 78.3456 115.455C78.2739 115.424 78.2022 115.393 78.1305 115.362C78.819 115.191 79.565 115.191 80.2535 115.253C80.9421 115.253 81.3151 115.595 81.3868 116.278C80.5404 116.527 79.7658 116.931 79.3068 117.381C79.2207 117.459 79.2207 117.661 79.3642 117.676C79.7945 117.707 81.8602 117.257 82.1471 116.496C82.5344 116.449 82.9217 116.449 83.2947 116.48C83.8254 116.465 84.098 116.636 84.098 117.008C83.4381 117.102 82.7926 117.319 82.2618 117.723C82.1471 117.801 82.1901 118.003 82.3192 118.018C82.6778 118.096 85.1739 118.189 85.0161 117.304C85.5755 117.304 86.9957 117.335 85.7046 117.692C85.5468 117.739 85.5755 118.003 85.7333 118.018C87.4547 118.236 89.1331 117.723 90.8545 117.63C90.9979 117.63 91.0123 117.366 90.8545 117.366L90.8688 117.397ZM77.2841 116.34C76.4234 116.107 76.4808 115.874 77.4563 115.626C77.485 115.626 77.5136 115.61 77.5423 115.595C77.5423 115.781 77.4706 116.014 77.2841 116.34ZM80.44 116.993C80.7413 116.838 81.0712 116.729 81.4011 116.636C81.4011 116.729 81.4011 116.806 81.4011 116.9C80.9995 117.412 80.6839 117.443 80.4544 116.977L80.44 116.993ZM83.8971 117.77C83.5098 117.832 83.1225 117.847 82.7209 117.801C83.0795 117.832 83.5385 117.661 83.9976 117.521C83.9689 117.599 83.9402 117.692 83.8971 117.77Z" fill="#CEAB80"/>
<path fill-rule="evenodd" clip-rule="evenodd" d="M120.807 48.2809C118.569 49.7567 117.249 53.5628 117.149 56.2504C114.653 52.8793 107.997 51.4811 108.097 57.3534C108.155 60.3983 110.464 62.8063 112.372 64.7637C114.71 67.1561 117.436 69.3932 120.262 71.0865C120.262 71.1176 120.276 71.1642 120.291 71.1953C120.391 71.4594 120.807 71.537 120.907 71.2263C120.907 71.2263 120.907 71.1953 120.907 71.1797C121.18 71.0088 121.338 70.6049 121.166 70.3098C122.299 66.6124 123.102 62.6509 124.235 58.9069C125.11 56.0485 126.33 52.4754 125.254 49.4926C124.494 47.4109 122.313 47.2866 120.807 48.2809ZM110.88 61.4236C109.317 59.4662 107.739 55.9397 110.823 54.5416C110.923 54.4949 111.009 54.4949 111.11 54.4638C111.038 54.5415 110.995 54.6347 110.981 54.759C110.909 56.965 110.665 59.3574 110.995 61.5634C110.952 61.5168 110.909 61.4858 110.88 61.4392V61.4236ZM123.174 58.3476C122.385 61.0042 119.946 65.9288 119.989 69.4087C119.717 69.2223 119.459 69.0203 119.186 68.8339C119.502 67.4979 119.659 66.1152 119.731 64.7171C119.788 65.3385 119.832 65.9443 119.946 66.5502C119.975 66.7211 120.219 66.7522 120.233 66.5502C120.463 63.0393 120.348 59.4973 120.491 55.9863C120.506 55.5203 119.832 55.3804 119.817 55.862C119.788 56.6077 119.745 57.3534 119.702 58.1146C119.659 56.5922 119.631 55.0853 119.702 53.625C119.731 53.0813 118.971 52.9104 118.913 53.4696C118.454 58.3011 118.168 63.5209 118.569 68.3834C116.102 66.5813 113.706 64.6549 111.655 62.2936C111.655 62.2936 111.655 62.2936 111.655 62.278C112.071 59.8235 111.798 57.1514 111.741 54.6503C111.741 54.4483 111.626 54.3551 111.497 54.324C113.678 53.9357 116.116 56.0174 117.077 57.8816C117.221 58.1612 117.522 58.0991 117.694 57.9127C117.708 59.7458 117.694 61.5634 117.608 63.4121C117.608 63.5519 117.78 63.5985 117.823 63.4432C118.368 61.2683 118.268 59.0312 118.225 56.8097C118.225 56.6854 118.167 56.6232 118.081 56.5922C118.096 56.5456 118.124 56.499 118.139 56.4213C118.454 53.8425 119.43 50.7665 121.295 49.0265C123.791 49.1353 124.881 50.1606 124.551 52.1336C124.508 52.6773 124.436 53.2366 124.321 53.7648C124.078 55.3183 123.59 56.8563 123.145 58.3321L123.174 58.3476Z" fill="#CEAB80"/>
<path fill-rule="evenodd" clip-rule="evenodd" d="M103.808 44.4601C102.345 44.864 101.398 45.3922 100.681 46.3088C100.652 46.3399 100.609 46.3399 100.58 46.402C100.537 46.4641 100.508 46.5418 100.48 46.604C100.279 46.8836 100.121 47.2409 99.9633 47.5982C99.8485 47.5516 99.7051 47.5361 99.5903 47.5827C99.1026 46.0602 97.7829 44.8019 96.4057 44.1028C96.4057 44.0407 96.4057 43.994 96.4201 43.9319C96.5062 43.295 95.6455 43.1241 95.5164 43.7455C95.4016 43.7144 95.2868 43.6678 95.1864 43.6367C94.9282 43.5746 94.6987 43.7921 94.6556 44.0407C94.3544 45.7651 94.4118 47.4429 94.6843 49.1051C94.6843 49.7421 94.7561 50.3635 94.9569 50.9227C94.9856 51.0004 95.043 51.047 95.1004 51.0937C95.7459 53.5171 96.7787 55.8629 97.7398 58.1466C97.7398 58.2553 97.7398 58.3641 97.7398 58.4573C97.7829 58.8612 98.2562 58.9233 98.4284 58.5816C98.6866 58.1 98.8587 57.5563 99.0309 57.0281C101.154 53.2685 103.994 49.5401 104.382 45.0038C104.41 44.6155 104.123 44.3669 103.793 44.4756L103.808 44.4601ZM96.7213 46.2C96.5205 47.1943 96.334 48.1886 96.1045 49.1828C96.0471 49.4314 95.9754 49.6644 95.9037 49.913C95.875 49.8042 95.8319 49.711 95.8032 49.6022C95.875 48.9498 95.8893 48.2662 95.961 47.6293C96.0471 46.8215 96.1619 46.0292 96.2623 45.2214C96.4918 45.3767 96.7357 45.6097 96.9939 45.8428C96.8648 45.9049 96.7644 46.0136 96.7213 46.2ZM96.7644 52.4763C96.6926 52.2743 96.6209 52.0724 96.5349 51.8704C96.8648 51.249 96.9795 50.4878 97.1373 49.8042C97.3669 48.7633 97.5103 47.6914 97.6394 46.6195C97.7972 46.837 97.9263 47.0856 98.0698 47.3341C97.539 48.841 96.8791 50.7363 96.75 52.4763H96.7644ZM102.675 47.9555C102.675 47.9555 102.674 47.9244 102.689 47.9089C102.875 47.3186 102.072 46.8991 101.871 47.4895C101.728 47.9089 101.556 48.3284 101.398 48.7478C101.168 48.6391 100.867 48.6857 100.709 49.0119C100.322 49.8353 99.8629 50.7674 99.4039 51.7461C99.5616 51.047 99.7194 50.3635 99.8916 49.6644C100.164 49.7576 100.451 49.6644 100.566 49.3226C101.125 47.5827 101.814 46.2001 103.363 45.5942C103.205 46.402 102.947 47.1788 102.66 47.9555H102.675Z" fill="#CEAB80"/>
<path fill-rule="evenodd" clip-rule="evenodd" d="M92.2889 95.834C90.5675 96.7351 89.3912 98.04 88.8891 99.9353C88.4731 98.1643 86.5509 96.3622 85.1451 97.5273C83.768 98.6614 83.8684 100.805 84.3418 102.374C84.557 103.073 84.8438 103.741 85.1594 104.394C85.1594 104.503 85.1594 104.611 85.1594 104.72C85.1738 104.875 85.3029 104.938 85.4177 104.922C85.6615 105.435 85.9197 105.932 86.1636 106.429C86.1636 106.507 86.1636 106.569 86.1636 106.646C86.1636 106.74 86.2497 106.771 86.3214 106.755C86.6513 107.423 86.9526 108.107 87.1821 108.821C87.3542 109.334 88.1289 109.163 88.0571 108.604C88.0141 108.324 87.9567 108.045 87.885 107.765C88.344 106.274 88.4731 104.642 88.7027 103.104C88.7457 102.825 88.344 102.747 88.301 103.027C88.0715 104.363 87.7559 105.73 87.6555 107.097C87.426 106.476 87.1391 105.885 86.8235 105.295C87.2251 103.648 87.3542 101.908 87.5407 100.231C87.5694 99.9198 87.1534 99.8266 87.0817 100.153C86.7948 101.504 86.4792 102.903 86.2783 104.301C86.1636 104.083 86.0345 103.866 85.9341 103.648C86.3788 102.017 86.5079 100.246 86.6944 98.5527C86.8235 98.677 86.9526 98.8168 87.0386 98.91C87.4259 99.4071 88.1002 100.495 87.9137 101.194C87.7702 101.753 88.5305 101.939 88.76 101.489C88.7744 101.458 88.7887 101.427 88.7887 101.38C89.0469 101.675 89.6064 101.613 89.7355 101.1C90.1658 99.5625 90.7683 98.3973 91.8012 97.4186C91.1557 101.054 89.3482 104.316 88.0141 107.703C87.7415 108.386 88.717 108.884 88.9895 108.2C90.5388 104.254 92.4323 100.728 92.8484 96.3778C92.877 96.0515 92.5901 95.6787 92.2602 95.8496L92.2889 95.834ZM85.3029 102.079C85.1308 101.598 85.0017 101.085 84.9443 100.572C84.8725 99.9198 85.3459 98.6304 85.9341 98.2886C85.9771 98.2731 86.0201 98.2886 86.0488 98.2886C85.7906 99.5314 85.4894 100.805 85.2885 102.095L85.3029 102.079Z" fill="#CEAB80"/>
<path fill-rule="evenodd" clip-rule="evenodd" d="M135.051 43.3874C135.051 43.3874 134.936 43.3252 134.85 43.3097C118.124 40.125 101.656 35.5266 84.9011 32.6059C78.5176 31.5029 72.2058 30.0582 65.8223 28.9552C64.3304 28.7066 62.1643 28.1474 60.2421 28.2251C60.07 28.1163 59.8404 28.1163 59.6827 28.2717C59.1519 28.3338 58.6642 28.4891 58.2051 28.7066C58.2051 28.5358 58.2051 28.3493 58.1908 28.1784C58.1334 27.4017 57.0575 27.5259 57.0719 28.3027C57.1723 31.1923 56.6989 34.1129 56.6272 37.0024C55.4652 42.9679 54.791 49.0888 54.1742 55.1941C51.09 71.3041 48.3501 87.6005 46.9443 103.788C46.8726 104.208 46.8008 104.643 46.7291 105.062L46.5283 105.031C45.6533 104.876 45.4237 106.32 46.2988 106.491C70.4414 111.431 94.7131 115.362 118.684 121.188C119.759 121.452 120.046 119.619 118.985 119.37C112.027 117.708 105.056 116.154 98.0555 114.678C98.0842 114.678 98.1129 114.678 98.1272 114.663C102.66 112.068 106.605 108.309 110.464 104.456C111.195 105.652 111.956 106.818 112.702 107.998C112.845 108.216 113.06 108.247 113.247 108.169C113.505 108.356 113.878 108.293 113.978 107.858C114.681 104.643 116.36 101.116 117.55 97.5586C117.679 97.4343 117.809 97.31 117.938 97.2013C121.18 94.3117 125.942 90.3968 127.95 85.7363C126.243 97.5275 124.637 109.319 122.829 121.032C122.657 122.12 124.192 122.399 124.379 121.327C128.639 95.6788 133.201 69.7972 136.256 43.9466C136.357 43.1388 135.41 42.8592 135.066 43.4185L135.051 43.3874ZM112.271 95.4302C112.271 94.7156 111.296 94.8554 111.267 95.539C111.267 95.6322 111.267 95.7409 111.267 95.8341C111.267 95.1972 111.267 94.5602 111.282 93.9233C111.282 93.5349 110.88 93.3796 110.593 93.4883C110.593 93.4417 110.593 93.3796 110.593 93.333C110.593 92.5873 109.546 92.7116 109.531 93.4417C109.503 94.9486 109.345 96.4555 109.316 97.9625C109.288 98.7237 109.259 99.4849 109.359 100.231C109.245 100.044 109.13 99.8577 109.015 99.6558C109.245 98.3508 109.072 96.9372 109.173 95.6011C109.273 94.4049 109.431 93.2398 109.603 92.0591C109.632 92.0125 109.632 91.9504 109.618 91.9037C109.618 91.8571 109.632 91.8106 109.646 91.7795C110.808 92.5407 111.913 94.4204 112.372 95.4924C112.343 95.539 112.314 95.6011 112.329 95.6788C112.515 96.9993 112.53 98.3198 112.487 99.6558C112.4 98.2266 112.257 96.7818 112.271 95.4458V95.4302ZM113.706 96.7352C113.577 97.4498 113.433 98.2421 113.29 99.081C113.175 98.0867 113.046 97.1236 112.903 96.1915C113.089 96.1915 113.29 96.1138 113.376 95.9118C113.634 95.9739 113.921 95.8342 113.95 95.4613C113.978 94.9021 114.05 94.3583 114.136 93.8146C114.108 94.7001 114.064 95.5856 114.036 96.4866C113.892 96.4711 113.735 96.5488 113.692 96.7507L113.706 96.7352ZM116.374 96.8439C116.173 97.0303 115.958 97.2168 115.757 97.3877C115.757 96.9993 115.728 96.6265 115.728 96.2381C115.728 94.6069 115.7 93.0067 115.915 91.4066C115.958 91.0804 115.513 90.9872 115.456 91.3134C115.312 92.1834 115.198 93.0533 115.083 93.9233C115.083 93.566 115.083 93.2242 115.083 92.8669C115.083 92.5096 114.724 92.3853 114.452 92.4785C115.04 91.0493 116.991 87.1344 117.45 88.3617C117.479 88.4549 117.493 88.5482 117.522 88.6258C117.278 88.486 116.862 88.6258 116.876 89.0453C116.876 89.3249 116.847 89.6045 116.847 89.8997C116.647 89.791 116.374 89.8376 116.331 90.1483C116.145 91.2979 116.058 92.4475 115.972 93.6126C115.901 94.5447 115.642 95.4924 115.886 96.4089C115.944 96.5954 116.216 96.6575 116.331 96.4866C116.489 96.2536 116.575 95.9895 116.647 95.7254C116.69 95.7254 116.733 95.7254 116.776 95.7099C116.647 96.0983 116.517 96.4866 116.388 96.8439H116.374ZM126.817 84.6954C125.77 87.6005 123.288 90.0551 121.28 92.1834C120.29 93.2242 119.272 94.2185 118.21 95.1817C118.884 92.432 119.071 89.6978 118.024 87.1034C117.895 86.7927 117.565 86.6684 117.292 86.8548C114.696 88.7035 113.448 91.0649 113.017 94.203C112.343 92.5718 110.98 91.1736 109.618 90.661C109.474 90.4901 109.245 90.4279 109.044 90.49C107.652 90.2259 106.361 90.9406 105.845 93.3796C105.357 95.7254 107.179 98.6305 108.183 100.541C108.628 101.365 109.115 102.173 109.589 102.98C105.687 106.802 102.086 110.81 97.3813 113.513C96.9653 113.762 97.037 114.228 97.3095 114.507C81.3292 111.152 65.2628 108.216 49.1965 105.466C49.3686 105.295 49.469 105.047 49.469 104.72C49.3112 94.8554 51.4917 85.3324 53.2561 75.7316C53.6004 74.1781 53.9303 72.6246 54.2172 71.0711C54.4754 69.704 54.7193 68.3213 54.9632 66.9543C56.0247 71.6303 59.0658 76.322 62.7094 80.6563C62.15 82.2098 61.8918 83.9964 61.9348 85.5188C61.0024 84.1828 59.6827 83.173 58.0904 83.1264C55.8812 83.0798 54.4467 84.8197 54.4611 87.2121C54.4898 92.0902 59.7113 95.4769 63.8427 97.947C63.8427 97.947 63.857 97.947 63.8714 97.947C64.5026 98.3198 65.1051 98.6771 65.6502 99.0188C65.6502 99.2674 65.6502 99.516 65.7075 99.749C65.7793 100.091 66.2383 100.401 66.4678 100.013C66.5396 99.8888 66.6113 99.7335 66.683 99.5781C67.1277 99.5937 67.4002 98.9257 67.1133 98.5218C67.8593 96.2225 67.9884 93.131 68.3327 91.0338C68.5335 89.8376 68.7343 88.5637 68.9065 87.2742C71.632 89.9774 74.3002 92.4009 76.3802 94.4049C76.2655 94.669 76.165 94.9331 76.0503 95.1972C75.706 95.9895 76.8393 96.5798 77.1835 95.7875C77.2409 95.6477 77.2983 95.5079 77.3557 95.3681C77.5278 95.539 77.6999 95.7099 77.8721 95.8808C78.4602 96.4711 79.2349 95.4458 78.6754 94.8554C78.4172 94.5913 78.159 94.3273 77.9008 94.0632C79.5074 90.1017 80.9132 86.0625 82.233 81.9923C82.319 82.5671 82.4051 83.1264 82.4912 83.7012C82.3908 84.0119 82.2903 84.307 82.2043 84.6022C82.1326 84.8663 82.4912 85.0061 82.6346 84.8197C82.6346 84.8197 82.6346 84.8042 82.649 84.7887C82.649 84.8508 82.6633 84.8974 82.6777 84.9595C82.5916 85.0838 82.5199 85.2081 82.4481 85.3323C82.3047 85.5654 82.4051 86.0159 82.7494 85.9538C82.7637 85.9538 82.7924 85.9382 82.8068 85.9382C82.8785 86.4664 82.9359 86.9946 82.9933 87.5228C82.9072 87.7714 82.8211 88.0044 82.7494 88.253C82.6777 88.5171 82.8928 88.6569 83.108 88.6414C83.1654 89.2317 83.2228 89.822 83.2515 90.4124C83.2084 90.4435 83.1654 90.4745 83.1224 90.5056C82.5342 90.894 83.0219 91.7639 83.5957 91.6396C83.897 91.7794 84.3273 91.6086 84.3991 91.1736C88.1861 88.7035 92.4179 86.0159 95.9468 82.7069C95.8607 91.9969 96.707 101.52 98.6723 110.562C98.8158 111.183 99.7482 110.934 99.6765 110.313C98.4858 100.65 96.9509 91.2202 97.1804 81.5263C98.5289 80.1281 99.7338 78.6212 100.695 76.9745C101.8 75.1102 101.871 72.143 99.7195 71.2575C99.4183 71.1332 99.1027 71.0711 98.7871 71.0245C100.365 66.9387 103.191 64.1269 106.835 69.5797C109.359 73.3548 109.876 78.6056 109.187 83.0642C109.087 83.7322 110.005 83.9032 110.148 83.2351C110.163 83.1109 110.191 82.971 110.206 82.8312C110.292 82.8312 110.378 82.8312 110.45 82.7536C113.103 80.3145 116.116 78.6522 119.401 77.4249C124.034 75.685 128.926 78.8542 126.817 84.6954ZM107.236 95.9429C106.806 94.669 106.662 93.3175 107.466 92.1679C107.365 92.9446 107.279 93.7059 107.265 94.4981C107.265 94.9642 107.222 95.4613 107.236 95.9585V95.9429ZM74.3289 55.0853C75.4047 53.6716 75.9499 50.6112 76.7819 48.9956C79.4214 43.8068 89.2477 36.0858 90.2662 47.7838C90.5817 51.4191 89.4055 55.4116 88.5161 58.8759C88.43 59.2022 88.3439 59.544 88.2579 59.8702C87.5836 59.4508 86.809 59.4042 85.8909 59.8392C82.5485 61.4548 81.7166 66.7523 81.401 70.2166C81.2862 71.4905 81.2862 72.7489 81.3436 74.0227C81.2145 74.3645 81.071 74.6908 80.9563 75.0326C80.8845 75.2656 81.1284 75.452 81.2862 75.2656C81.3149 75.219 81.3579 75.1723 81.3866 75.1413C81.444 76.0889 81.5588 77.021 81.6735 77.9687C81.6305 78.0774 81.5874 78.2017 81.5588 78.3105C81.5157 78.4814 81.6161 78.6056 81.7596 78.6367C81.8313 79.1494 81.8887 79.662 81.9604 80.1747C80.3825 84.5867 78.7041 88.921 76.954 93.1155C74.3289 90.4434 71.6894 87.8025 69.136 85.0838C69.2651 83.1109 69.1934 81.1534 68.6769 79.3358C68.0601 77.1453 65.808 76.6171 64.3161 78.0308C64.0866 78.2483 63.8714 78.4969 63.6849 78.7765C63.0537 77.9842 62.3939 77.223 61.777 76.3841C59.0658 72.7489 56.9858 68.6631 56.1251 64.0647C55.9816 63.2724 55.9099 62.5112 55.9099 61.8121C56.1251 60.6004 56.3403 59.3886 56.5554 58.1769C59.0945 51.7919 68.5335 51.1705 72.8513 57.7108C73.1669 58.1924 73.8985 58.037 73.9989 57.4312C74.1137 56.6389 74.2428 55.8621 74.3289 55.1009V55.0853ZM90.6391 83.3283C90.7396 83.4837 90.9404 83.5148 91.0982 83.3594C91.3851 83.0487 91.6433 82.6914 91.8871 82.303C91.8011 82.6293 91.7293 82.9555 91.6863 83.2972C91.6433 83.7012 92.1023 83.9653 92.3605 83.639C92.6905 83.2196 92.963 82.738 93.2069 82.2409C93.1065 82.5826 93.0347 82.9399 92.963 83.2972C91.6433 84.4002 90.2948 85.4567 88.9177 86.482C89.5346 85.4722 90.1084 84.4158 90.6535 83.3283H90.6391ZM91.2129 79.1028C91.8585 77.5493 92.4896 75.9802 93.1351 74.4111C93.1638 74.3334 93.1782 74.2558 93.1782 74.1937C93.8811 73.8053 94.7848 73.3547 95.7316 72.9974C95.6599 73.0596 95.6025 73.1372 95.5595 73.246C95.3299 73.8052 95.1004 74.38 94.8565 74.9393C94.6414 74.7529 94.3401 74.7374 94.125 75.0481C93.9672 75.2811 93.8237 75.5452 93.6803 75.7938C93.4651 75.452 92.9487 75.3588 92.7478 75.8404C92.2888 76.9589 91.758 78.0463 91.2129 79.1183V79.1028ZM84.4564 88.5015C84.356 88.7967 84.686 89.0297 84.8868 88.7967C85.0159 88.6569 85.1163 88.5015 85.2311 88.3462C85.2311 88.6103 85.4893 88.7812 85.7475 88.6258C86.35 88.2841 86.8664 87.7093 87.3254 87.0568C87.3111 87.1034 87.2967 87.1344 87.2824 87.181C87.225 87.3519 87.2537 87.5073 87.3254 87.6471C86.35 88.3307 85.3602 89.0142 84.3847 89.6822C84.3417 88.9365 84.27 88.1908 84.1982 87.4452C85.6471 85.4101 86.6799 82.9244 87.7558 80.6718C88.9321 78.2172 89.9936 75.7161 91.0121 73.1839C90.9834 73.9606 90.883 74.7374 90.7682 75.4831C88.4587 79.6465 86.0344 84.0274 84.4708 88.486L84.4564 88.5015ZM87.9566 71.3818C88.6308 69.3778 89.2477 67.3892 89.9936 65.6959C90.051 65.8823 90.1227 66.0687 90.1801 66.2551C90.2518 66.5192 90.2949 66.7989 90.3666 67.0785C89.5633 68.4767 88.7599 69.9059 87.9566 71.3818ZM89.2333 65.0124C87.971 67.5757 86.9381 70.2322 85.9053 72.9198C85.1737 74.815 84.1982 76.6327 83.3662 78.4969C83.8253 77.0521 84.2843 75.6229 84.7433 74.1781C86.2065 71.1021 87.2681 67.6378 88.5017 64.6861C88.6452 64.3288 88.3439 64.0492 88.057 64.0958C88.2435 63.5676 88.4157 63.0549 88.5878 62.5112C89.0468 63.1792 89.3624 63.956 89.6493 64.7327C89.4772 64.7327 89.3194 64.8104 89.219 65.0124H89.2333ZM86.4504 62.2781C85.2598 65.2454 83.8109 68.1194 82.5342 71.0555C82.5342 70.807 82.5342 70.574 82.5629 70.3254C84.2126 67.731 85.1307 64.2356 86.1922 61.346C86.7086 61.1441 87.2537 61.1596 87.7988 61.5791C87.1963 63.8317 86.5221 66.0843 85.8479 68.3524C84.7146 70.605 83.5527 72.8732 82.6346 75.2034C82.5916 74.6597 82.5486 74.1315 82.5342 73.5878C84.686 70.3564 86.0487 66.3639 87.2394 62.6821C87.4258 62.1228 86.6799 61.7033 86.4504 62.2781ZM67.6154 85.9848C67.6872 86.0625 67.7732 86.1402 67.845 86.2179C67.6728 88.1753 67.3716 90.1328 67.0273 92.0747C66.9986 91.3445 66.9269 90.6143 66.8265 89.8686C66.8695 89.822 66.9125 89.7754 66.9269 89.6977C67.056 89.2627 67.1277 88.8122 67.1851 88.3462C67.3572 88.3617 67.515 88.284 67.5724 88.051C67.7158 87.3985 67.6871 86.6839 67.6011 85.9848H67.6154ZM67.9884 81.4331C67.7015 80.532 67.3716 79.662 67.0703 78.8542C66.9699 78.559 66.7117 78.4813 66.4965 78.5435C66.4678 78.3571 66.4391 78.1706 66.4248 77.9687C66.4248 77.8755 66.3818 77.7978 66.3387 77.7357C67.4289 78.0153 67.931 80.9514 67.9884 81.402C67.9884 81.402 67.9884 81.402 67.9884 81.4175V81.4331ZM60.5434 88.2064C60.8303 90.3968 61.0311 93.1932 62.0783 95.1972C61.7627 94.9797 61.4471 94.7622 61.1315 94.5447C61.1315 93.4107 60.6007 91.997 60.4573 90.9872C60.1847 89.0142 59.9982 87.0257 59.7687 85.0527C60.7011 85.7829 61.4901 86.8859 61.8487 87.7248C61.9635 88.0044 62.193 88.1131 62.4082 88.0976C62.5086 89.7599 62.523 91.6086 62.6808 93.3951C62.566 93.0067 62.4512 92.6029 62.3652 92.2145C62.0352 90.8629 61.7914 89.4802 61.5762 88.0976C61.4614 87.383 60.4286 87.4762 60.529 88.2064H60.5434ZM59.5105 93.2709C59.0658 92.898 58.6211 92.5407 58.2051 92.1368C58.1477 91.0959 57.9326 90.0706 57.8465 89.0297C57.7748 88.1908 57.7461 87.3519 57.7174 86.513C57.8178 87.4607 57.9469 88.3928 58.0904 89.3405C58.2912 90.5677 58.4203 92.1523 59.2953 93.0223C59.3527 93.0689 59.4101 93.0999 59.4818 93.0999C59.4818 93.1621 59.4962 93.2087 59.5105 93.2709ZM63.1828 87.5539C63.1541 87.3364 63.025 87.2432 62.8816 87.2121C62.8529 87.15 62.8242 87.1034 62.8099 87.0412C62.9246 86.948 63.025 86.8237 63.025 86.6062C63.0107 85.0061 63.1685 83.2817 63.6275 81.6816C63.6706 81.7282 63.7136 81.7748 63.7423 81.8214C63.7853 83.0798 63.8714 84.3381 63.9575 85.5809C63.9575 85.5498 63.9575 85.5033 63.9431 85.4722C63.857 84.9285 63.0681 84.9906 63.1398 85.5499C63.3263 87.1034 63.4123 88.7501 63.5271 90.4124C63.4123 89.4492 63.3119 88.5015 63.1972 87.5384L63.1828 87.5539ZM64.3878 79.631C64.5456 79.3203 64.7177 79.0096 64.9186 78.7144C65.1194 78.4037 65.3059 78.2017 65.4924 78.0463V78.0774C65.5211 78.326 65.5497 78.5746 65.5784 78.8387C65.3633 78.8853 65.1911 79.0717 65.2629 79.3668C65.3633 79.895 65.435 80.4077 65.5211 80.9359C65.1481 80.5009 64.7608 80.0815 64.4021 79.6465L64.3878 79.631ZM56.7132 90.4745C55.4939 88.7656 54.7336 86.482 56.4981 84.8353C56.5698 84.7731 56.6415 84.711 56.7132 84.6643C56.6128 86.4354 56.412 88.5637 56.7132 90.4745ZM128.782 79.864C127.549 71.1798 114.567 77.3473 110.277 81.6039C110.363 75.6539 107.451 60.8955 100.867 65.1832C98.9305 66.4416 97.7686 68.6631 97.0657 71.1643C95.5595 71.5216 94.0389 72.4226 92.7909 73.2926C92.547 73.0751 92.1167 73.044 91.8871 73.4169C91.8871 72.7023 91.8584 71.91 91.8154 71.0711C92.0162 70.5273 92.2458 69.9991 92.4466 69.4554C92.6761 68.8029 92.0019 68.3213 91.5716 68.5854C91.5285 68.2126 91.4855 67.8553 91.4281 67.4824C91.6289 67.0785 91.8298 66.6591 92.0449 66.2551C92.3892 65.6182 91.4568 65.1677 91.1125 65.7581C90.6822 63.7074 90.0653 61.8432 89.1759 60.7091C90.8543 55.2407 92.0449 49.384 90.6391 43.9C89.262 38.5715 85.0302 39.457 81.3005 41.3989C77.5708 43.3563 75.0605 48.9179 74.4723 52.4288C74.3719 52.056 73.7838 52.056 73.7407 52.4754C73.6977 52.9415 73.6547 53.2988 73.5973 53.6095C73.5543 53.6561 73.5112 53.7028 73.4969 53.7649L73.296 54.5883C72.6362 55.6136 71.4025 53.2211 69.7672 52.4133C67.5724 51.3414 65.6502 50.9841 63.2402 51.2482C60.529 51.5433 58.4633 53.2988 57.0001 55.567C58.3486 47.846 59.7113 40.125 61.2749 32.4351C61.3323 32.1399 60.8876 31.969 60.8016 32.2642C59.654 35.9927 58.6785 39.8143 57.8035 43.6515C58.2481 40.5134 58.6928 37.3753 59.0802 34.2216C59.1232 33.8954 58.865 33.7556 58.6498 33.7866C58.6928 33.0254 58.7646 32.2642 58.8076 31.5185C59.0228 31.7671 59.4101 31.8603 59.6109 31.5341C69.8819 34.9673 80.612 35.6664 91.2129 37.3286C105.285 39.5191 119.114 43.8379 133.1 46.6032C133.875 46.7585 134.076 45.4536 133.315 45.2982C121.022 42.9524 108.857 39.8609 96.6353 37.0956C84.5425 34.3614 71.9189 33.1031 59.697 31.3942C59.9552 30.9592 60.0413 30.7573 60.2851 30.1669C60.3282 30.0427 60.3425 29.9184 60.3138 29.8096C63.6992 29.6543 67.4576 30.7728 70.5992 31.4097C77.2266 32.7458 83.8539 33.8332 90.51 34.9673C105.314 37.4995 119.86 41.9115 134.621 44.8011C134.664 44.8011 134.693 44.8011 134.721 44.8011C132.412 56.3748 130.547 68.0883 128.797 79.8329L128.782 79.864Z" fill="#CEAB80"/>
<path fill-rule="evenodd" clip-rule="evenodd" d="M112.515 55.9082C112.845 58.2384 112.458 60.8795 113.089 63.1321C113.161 63.3961 113.476 63.3029 113.534 63.0854C114.179 60.8328 113.62 57.9899 113.103 55.7528C113.017 55.38 112.458 55.5353 112.501 55.9082H112.515Z" fill="#CEAB80"/>
<path fill-rule="evenodd" clip-rule="evenodd" d="M114.624 58.8609C114.309 60.7407 114.194 62.9778 114.968 64.7332C115.011 64.8575 115.198 64.8264 115.184 64.6866C114.997 62.7292 114.682 60.896 114.94 58.923C114.968 58.7055 114.653 58.6434 114.624 58.8609Z" fill="#CEAB80"/>
<path fill-rule="evenodd" clip-rule="evenodd" d="M116.346 58.783C116.417 60.4297 116.374 62.1541 116.733 63.7698C116.776 63.9251 116.991 63.863 116.991 63.7076C116.934 62.0609 116.661 60.4142 116.518 58.7675C116.518 58.6432 116.346 58.6587 116.346 58.783Z" fill="#CEAB80"/>
<path fill-rule="evenodd" clip-rule="evenodd" d="M120.907 51.7457C121.151 55.1324 120.678 58.5346 121.094 61.9058C121.122 62.0922 121.366 62.1077 121.409 61.9058C122.112 58.5968 121.926 55.0237 121.596 51.6681C121.553 51.202 120.879 51.2641 120.922 51.7457H120.907Z" fill="#CEAB80"/>
<path fill-rule="evenodd" clip-rule="evenodd" d="M122.414 50.2541C122.414 52.4756 122.414 54.6971 122.7 56.9031C122.729 57.1051 123.016 57.1361 123.045 56.9031C123.231 54.6505 123.116 52.429 123.016 50.1764C123.002 49.757 122.428 49.8346 122.428 50.2385L122.414 50.2541Z" fill="#CEAB80"/>
<path fill-rule="evenodd" clip-rule="evenodd" d="M19.0293 34.6719C18.685 39.2237 18.2547 43.8066 18.6707 48.3739C18.685 48.5759 19.0006 48.6069 19.0149 48.3894C19.2875 43.8532 19.5027 39.3324 19.7609 34.8117C19.7896 34.2991 19.058 34.1437 19.0149 34.6719H19.0293Z" fill="#CEAB80"/>
<path fill-rule="evenodd" clip-rule="evenodd" d="M22.472 34.005C21.64 41.7104 21.267 49.5401 21.3387 57.2922C21.3387 57.5097 21.6543 57.5097 21.683 57.2922C22.5581 49.6023 22.3859 41.8191 23.1032 34.1137C23.1462 33.6787 22.5294 33.5544 22.4864 33.9894L22.472 34.005Z" fill="#CEAB80"/>
<path fill-rule="evenodd" clip-rule="evenodd" d="M35.8847 98.0101C35.8416 98.4451 36.4011 98.5538 36.5015 98.1188C36.731 97.0625 36.9462 96.006 37.1614 94.9497C37.2761 94.9497 37.3766 94.8409 37.3766 94.67C37.3766 94.437 37.3766 94.204 37.3766 93.9709C40.1451 80.3 41.5509 66.0543 41.9239 52.1192C41.9239 51.6221 41.1349 51.591 41.1206 52.0881C40.5755 63.7084 38.7537 75.0646 37.2474 86.4985C37.2474 67.5145 39.3849 48.8257 40.4034 29.8262C40.4177 29.5621 40.0447 29.4844 40.0304 29.764C38.352 50.1307 34.7227 71.1032 36.6019 91.6252C36.3437 93.7379 36.1142 95.8663 35.899 97.9946L35.8847 98.0101Z" fill="#CEAB80"/>
<path fill-rule="evenodd" clip-rule="evenodd" d="M46.2132 45.9971C47.7194 39.2238 48.121 32.1087 48.3792 25.1644C48.4079 24.512 47.4755 24.31 47.4325 24.9935C47.0165 31.9844 45.998 38.8665 45.3668 45.8418C45.3094 46.4476 46.084 46.5875 46.2132 45.9971Z" fill="#CEAB80"/>
<path fill-rule="evenodd" clip-rule="evenodd" d="M87.9423 23.3932C87.9853 23.6883 88.3439 23.7816 88.473 23.5019C89.1903 21.8863 88.8317 19.7424 88.7169 18.018C88.6739 17.3655 87.7558 17.4743 87.7988 18.1112C87.8562 18.9346 87.8992 19.7579 87.9136 20.5813C87.9423 21.5134 87.8132 22.4611 87.9423 23.3932Z" fill="#CEAB80"/>
<path fill-rule="evenodd" clip-rule="evenodd" d="M128.883 123.798C134.176 90.0089 141.177 71.755 144.921 37.733C145.007 36.9096 143.931 36.7076 143.759 37.5155C143.73 37.6553 143.701 37.8106 143.673 37.966C143.615 37.9039 143.544 37.8572 143.443 37.8106C142.568 37.4844 141.679 37.1737 140.804 36.8785C141.966 36.9407 143.113 36.9873 144.261 37.0184C145.308 37.0184 145.15 35.2629 144.103 35.2473C139.054 35.2473 134.162 34.5949 129.328 33.7094C126.66 33.1035 123.977 32.5753 121.295 32.0782C117.192 31.1771 113.089 30.2139 108.915 29.4216C108.7 29.3906 108.527 29.5304 108.441 29.7168C106.161 29.2818 103.894 28.8158 101.642 28.3031C101.642 28.241 101.613 28.1788 101.613 28.1167C101.843 28.008 102.029 27.7283 101.914 27.4331C101.728 26.9671 101.484 26.4855 101.226 26.0194C99.8918 19.6656 96.908 13.3894 95.1723 7.25296C95.1293 7.12868 95.0432 7.06653 94.9571 7.05099C94.5124 5.51301 94.0821 3.97503 93.6661 2.43704C93.6087 2.18848 93.4079 2.09525 93.207 2.07972C93.1784 1.87776 93.0062 1.69133 92.8197 1.73794C92.3033 1.83115 91.9734 2.09525 91.8443 2.60791C91.8299 2.60791 91.8156 2.60791 91.8012 2.60791C91.4713 2.62344 91.1414 2.67008 90.8114 2.68561C90.8975 2.68561 90.9979 2.68558 91.084 2.60791C91.1987 2.49916 91.3278 2.39044 91.4426 2.29723C91.5 2.3283 91.5287 2.39045 91.6004 2.40599C92.0021 2.48367 92.1742 2.06418 92.0881 1.73794C92.2746 1.56705 92.4611 1.41174 92.6476 1.24085C93.0923 0.852471 92.8915 -0.126259 92.2316 0.0135579C76.4665 3.35362 61.2751 8.97734 45.7538 13.3893C38.567 15.4244 31.3515 17.3508 24.2077 19.5879C18.6848 21.3123 10.5082 23.161 5.1862 26.8739C3.8808 27.0293 2.58976 27.138 1.29871 27.169C1.1696 27.169 1.06919 27.2312 0.983116 27.2933C0.724906 27.2933 0.438013 27.5264 0.552773 27.8837C0.696223 28.3653 0.825329 28.8624 0.968779 29.344C0.581464 29.0644 -0.0784135 29.2974 0.0076564 29.9343L0.0363525 30.0897C0.0937325 30.5246 0.567113 30.8509 0.940083 30.5868C1.02615 30.6023 1.12657 30.5868 1.22699 30.5402C1.25568 30.5402 1.27002 30.5247 1.29871 30.5091C7.23753 51.4972 8.04085 56.1111 12.6743 77.4565C13.4202 80.8897 17.5659 90.6303 21.3817 100.247C21.2669 100.34 24.7241 109.49 24.7528 109.676C25.1975 112.317 25.2118 112.069 25.9577 114.632C26.8328 117.615 27.5357 121.048 28.8554 123.829C29.0706 124.264 29.6301 124.14 29.6301 123.627C29.6301 123.41 29.6157 123.192 29.6014 122.975C29.7018 123.332 29.7735 123.689 29.8739 124.046C30.0461 124.683 31.0359 124.606 31.0789 123.922C31.0789 123.829 31.0789 123.736 31.0933 123.627C31.1219 123.627 31.1506 123.627 31.1793 123.627C31.2367 123.72 31.2654 123.845 31.3515 123.922C31.5523 124.171 31.8679 124.155 32.04 123.86C32.083 123.767 32.0974 123.658 32.1261 123.549C35.0525 123.223 38.0793 121.732 40.7618 120.691C44.0755 119.401 48.0777 118.33 51.0041 116.201C75.0606 121.576 99.3754 126.796 123.748 129.064C123.69 129.126 123.647 129.189 123.618 129.282C123.59 129.391 123.547 129.499 123.518 129.608C123.088 130.897 124.981 131.255 124.981 129.888C124.981 129.763 124.981 129.655 124.981 129.53C124.981 129.391 124.938 129.266 124.866 129.173C125.282 129.204 125.684 129.251 126.1 129.297C126.172 129.297 126.244 129.297 126.301 129.266C126.143 129.732 125.957 130.198 125.813 130.68C125.455 131.861 126.989 132.389 127.305 131.193C127.908 128.956 128.51 126.672 129.256 124.497C129.371 124.155 129.184 123.86 128.94 123.782L128.883 123.798ZM43.473 15.3623C51.1045 13.2495 58.65 10.826 66.2098 8.4336C70.0686 7.22186 73.9417 6.05675 77.8292 4.92268C80.6839 4.11485 83.5529 3.35359 86.4362 2.65451C87.7416 2.23506 89.0757 1.97098 90.4385 1.8467C90.1803 2.1574 90.4241 2.60794 90.7397 2.68561C76.5238 3.78861 63.4125 10.2512 49.9282 14.772C41.8233 17.4906 33.5606 19.852 25.3409 22.089C20.6071 23.3785 15.7585 24.9009 10.8812 25.9418C21.4391 21.4677 32.456 18.4228 43.4873 15.3623H43.473ZM2.14507 30.0586C2.41762 29.9188 2.69017 29.7945 2.94838 29.6547C3.19225 31.4567 3.4648 33.2433 3.76605 35.0299C3.24963 33.3676 2.69017 31.7209 2.13072 30.0741L2.14507 30.0586ZM25.2405 104.239C25.054 103.136 25.1114 101.955 24.638 101.023C23.2896 98.4289 19.0865 92.0595 17.2934 87.0727C14.783 80.0819 13.5637 72.6405 11.8136 65.4011C13.7932 71.5841 15.8302 77.7516 17.6663 83.9346C21.2096 95.8035 23.1748 92.5566 25.4987 104.752C25.4126 104.581 25.3266 104.426 25.2405 104.255V104.239ZM27.7796 116.31C27.7796 116.31 27.7652 116.263 27.7509 116.248C27.5357 115.595 27.3205 114.927 27.1053 114.275C26.4311 111.851 26.0151 109.272 25.6278 106.756C25.8143 107.206 25.9864 107.672 26.1586 108.138C26.7611 111.183 27.3922 114.213 28.0808 117.226C27.966 116.931 27.88 116.621 27.7652 116.31H27.7796ZM31.8248 120.163C31.3228 118.423 30.5194 116.605 30.1895 115.611C29.4436 113.358 28.5685 111.183 27.6218 109.039C26.1155 106.336 25.5417 105.435 24.7097 102.08C24.1646 99.9203 22.185 94.7782 20.3345 89.403C13.5637 69.6889 7.39533 50.0213 3.76605 29.2508C4.42592 28.909 5.10013 28.5672 5.76 28.241C18.025 27.2622 30.9354 22.058 42.4401 18.516C58.693 13.5292 74.8885 4.95373 91.916 3.92841C92.2172 3.91287 92.3894 3.71093 92.4468 3.46237C92.5902 3.4313 92.705 3.33807 92.791 3.19825C94.3833 10.7017 97.0228 17.879 98.3139 25.4602C98.4573 26.2991 99.6336 26.1903 99.5762 25.398C99.8488 26.268 100.136 27.138 100.423 28.0079C99.4615 27.7904 98.5003 27.5885 97.5536 27.3399C96.1908 26.9982 94.828 26.6564 93.4653 26.3146C93.537 26.1903 93.58 26.0661 93.537 25.8952C93.2501 24.932 92.6046 24.1086 92.2029 23.192C91.6291 21.9026 91.2131 20.5355 90.8114 19.184C90.0942 16.8226 89.4773 14.4147 88.8748 12.0067C89.2048 12.0067 89.5204 11.9601 89.8503 11.9601C90.6823 11.9601 90.5532 10.562 89.7212 10.562C89.2909 10.562 88.8605 10.6086 88.4302 10.6086C88.301 10.5154 88.1289 10.5464 87.9998 10.6241C87.842 10.6241 87.6842 10.6396 87.5264 10.6552C87.4691 10.3755 87.2539 10.127 86.967 10.158C86.3645 10.1891 85.719 10.4843 85.1021 10.8416C80.067 11.3542 74.8885 12.6747 70.0112 14.5856C69.9251 14.5856 69.839 14.6322 69.753 14.6788C69.6669 14.7098 69.5952 14.7565 69.5091 14.7875C65.2773 15.8905 61.0599 17.0712 56.7277 17.646C56.5699 17.6615 56.4695 17.7392 56.3835 17.8324C54.6907 17.4906 53.0124 17.1333 51.3053 16.7915C50.2438 16.5896 49.9569 18.3606 51.0184 18.5626C51.0471 18.5626 51.0902 18.5625 51.1189 18.5781C51.0328 18.6713 50.9754 18.8111 50.9754 18.9665C50.9754 19.5413 50.9324 20.1316 50.918 20.7064C50.7459 20.7841 50.5737 20.8462 50.4016 20.9084C50.4016 20.4734 50.4016 20.0539 50.3729 19.619C50.3586 19.184 49.6987 19.1529 49.67 19.5879C49.627 20.1472 49.5696 20.7064 49.5266 21.2501C45.3378 22.8347 40.8478 23.5493 36.8312 25.5223C30.1465 27.0758 23.4617 28.7692 17.1356 31.4568C17.1356 31.3169 17.1356 31.1771 17.1356 31.0218C17.1356 30.5402 16.404 30.5091 16.3609 30.9907C16.3323 31.2704 16.3179 31.55 16.3036 31.8296C15.4716 32.2024 14.6252 32.5442 13.8075 32.9481C13.5206 32.7772 13.0903 32.9947 12.9612 33.3831C12.7603 33.4918 12.5595 33.5851 12.373 33.6783C11.7275 34.02 12.0861 35.1541 12.7747 34.8279C12.9038 34.7658 13.0329 34.7191 13.1477 34.657C16.031 47.691 20.0476 60.3522 24.0642 73.0289C24.0642 73.3707 24.0499 73.7125 24.0355 74.0542C24.0355 74.2096 24.265 74.2096 24.2794 74.0542C24.2794 73.961 24.2937 73.8678 24.3081 73.7901C24.8675 75.5456 25.4126 77.3011 25.9721 79.0721C26.0869 80.5169 26.2446 81.9616 26.4598 83.4064C26.5172 83.8103 27.0767 83.7637 27.048 83.3443C27.0336 83.0491 27.048 82.754 27.0193 82.4588C27.7509 84.8201 28.4681 87.1814 29.171 89.5583C29.171 89.5894 29.171 89.6205 29.171 89.6515C29.171 89.6981 29.1997 89.7137 29.214 89.7448C30.6916 94.7471 32.0974 99.7805 33.3454 104.876C33.3741 105.016 33.4458 105.109 33.5319 105.187C33.1733 105.327 32.8146 105.451 32.4417 105.528C31.7388 105.668 31.8248 106.756 32.5564 106.725C33.6897 106.678 34.493 106.15 35.6693 105.575C36.0279 105.404 36.6017 105.062 37.0751 104.69C36.071 111.929 36.6591 108.496 36.0853 110.205C35.4828 110.469 35.3967 112.457 36.1857 112.644C40.0589 113.498 41.809 114.073 45.6964 114.943C43.3439 115.067 40.8048 116.092 38.7965 116.807C36.4152 117.646 34.0914 118.733 31.9109 120.069L31.8248 120.163ZM87.1965 19.8675C87.2826 18.2674 87.2539 16.6672 87.0961 15.0827C87.0387 14.5079 86.221 14.5856 86.2641 15.1759C86.3788 16.9159 86.2928 18.6092 86.1493 20.3491C86.0489 21.7317 85.7763 23.161 86.135 24.497C86.1493 24.5436 86.178 24.5747 86.2067 24.6057C85.5755 24.4659 84.9587 24.3106 84.3418 24.1552C85.6042 20.6598 85.6329 16.4808 86.0632 12.8145C86.1063 12.4883 85.6616 12.3951 85.5899 12.7213C84.8583 16.31 83.5816 20.2559 83.6676 23.9999C83.2086 23.8911 82.7495 23.7824 82.2762 23.6736C83.1512 22.058 83.0795 19.9141 83.1799 18.081C83.2946 16.2634 83.2373 14.4613 83.266 12.6437C83.266 12.6281 83.2516 12.6126 83.2516 12.5971C83.2803 12.5971 83.3233 12.5971 83.352 12.5971C83.4668 12.8922 83.7967 13.1097 84.141 12.8767C84.4279 12.6747 84.7435 12.5349 85.0304 12.364C85.9915 12.2397 86.9526 12.131 87.9137 12.0844C88.3728 14.9118 88.9466 17.6615 89.7786 20.4268C90.2233 21.9026 90.8975 24.7922 92.2029 26.0505C90.3094 25.569 88.4015 25.134 86.4936 24.6834C86.5653 24.6524 86.637 24.6213 86.6657 24.5281C87.1678 23.0833 87.0817 21.4055 87.1534 19.8831L87.1965 19.8675ZM79.9092 18.5315C79.7227 19.9141 79.3928 21.5142 79.8375 22.8502C79.9236 23.1299 80.3109 23.161 80.4256 22.8813C80.9564 21.623 80.8847 20.1005 81.0138 18.7334C81.2003 16.9158 81.4442 15.0982 81.6737 13.2806C81.7024 13.0631 81.602 12.9388 81.4728 12.8456C81.8745 12.768 82.2762 12.7213 82.6778 12.6592C82.5487 14.3991 82.3479 16.1235 82.1901 17.8479C82.018 19.6811 81.4585 21.6851 81.8028 23.5027C80.8704 23.2853 79.9379 23.0522 78.9911 22.8347C79.6223 19.7122 79.6941 16.2789 80.0097 13.0942C80.3109 13.032 80.6265 12.9854 80.9421 12.9233C80.899 12.9854 80.8417 13.0165 80.8273 13.1097C80.4687 14.9118 80.1388 16.6983 79.8949 18.516L79.9092 18.5315ZM73.2675 21.5453C72.8228 21.4366 72.3638 21.3434 71.9191 21.2346C72.2203 19.619 72.163 17.7703 72.1056 16.2633C72.1056 16.1857 72.0625 16.1546 72.0482 16.108C74.4438 15.4089 76.782 14.57 78.9625 13.5602C79.0772 13.5136 79.1346 13.4049 79.1633 13.2961C79.192 13.2961 79.2207 13.2806 79.2494 13.2806C78.5895 16.2478 77.7575 19.5102 77.7862 22.5706C76.6242 22.3065 75.4623 22.0269 74.3004 21.7628C74.6159 20.2559 74.5872 18.5315 74.4725 17.1178C74.4295 16.6051 73.7409 16.6828 73.7552 17.1955C73.7839 18.6247 73.411 20.085 73.2819 21.5298L73.2675 21.5453ZM70.2838 18.6558C70.3555 17.9722 70.3698 17.2887 70.3842 16.5896C70.7571 16.4964 71.1301 16.3876 71.4887 16.2789C71.4887 16.2944 71.4744 16.31 71.4744 16.3255C71.46 17.4751 71.3453 18.6091 71.1875 19.7432C71.1301 20.1627 71.044 20.5822 70.9723 21.0016C70.628 20.9239 70.2694 20.8462 69.9251 20.7685C70.1977 20.1161 70.212 19.3393 70.2838 18.6402V18.6558ZM68.964 20.5666C68.6628 20.5044 68.3615 20.4268 68.0459 20.3647C68.1894 19.2927 68.1894 18.1742 68.3041 17.1178C68.6628 17.0401 69.0214 16.9314 69.38 16.8537C69.337 17.3974 69.2939 17.9411 69.2222 18.4849C69.1218 19.1684 68.921 19.8986 68.9497 20.5977L68.964 20.5666ZM67.4148 20.2093C67.1565 20.1472 66.884 20.085 66.6258 20.0229C66.5971 19.1684 66.6688 18.314 66.7692 17.4595C66.8266 17.4285 66.8983 17.413 66.9701 17.3819C67.1852 17.3353 67.4004 17.2887 67.6156 17.2421C67.4148 18.2053 67.2283 19.2461 67.4148 20.1937V20.2093ZM65.4208 19.7588C64.6175 19.5879 63.8285 19.4015 63.0252 19.2306C63.9002 18.7956 64.7896 18.3606 65.6934 17.9567C65.5786 18.5315 65.4782 19.1529 65.4208 19.7588ZM50.7459 23.6426C50.5737 26.4234 50.3012 29.1886 49.9426 31.9383C50.2151 29.2197 50.3729 26.4855 50.4016 23.7513C50.5164 23.7202 50.6311 23.6892 50.7459 23.6581V23.6426ZM33.5749 73.2464C33.2593 80.3926 31.8679 87.6786 31.9683 94.8714C31.208 92.1372 30.4047 89.403 29.6014 86.6688C29.5153 67.1411 30.419 47.9551 31.7244 28.4429C32.3699 28.272 33.0155 28.1167 33.661 27.9613C33.7758 28.1478 33.9909 28.2565 34.2205 28.1011C34.5074 27.9147 34.8086 27.7594 35.0955 27.5885C39.8006 26.4234 44.5345 25.3359 49.2253 24.0309C48.1494 35.7911 46.1698 47.5201 44.1185 59.2647C44.6923 50.3009 44.9362 41.2905 45.0939 32.3733C45.0939 31.8451 44.2476 31.7985 44.2333 32.3423C43.5877 46.7123 42.7844 60.9736 41.3786 75.2194C40.8048 78.6527 40.2597 82.1014 39.7576 85.5347C38.8539 91.376 38.0362 97.2483 37.2186 103.121C36.7308 103.167 36.0279 103.726 35.8414 103.866C35.4111 104.177 34.9664 104.472 34.5074 104.736C34.5074 104.643 34.5073 104.565 34.493 104.457C34.1774 103.152 33.8044 101.862 33.4745 100.557C32.8433 90.304 34.1487 80.3305 34.6365 70.0772C35.282 56.5772 35.698 43.046 36.4726 29.5615C36.5013 29.1265 35.8845 28.9867 35.8414 29.4372C34.536 44.0092 34.2061 58.6278 33.5749 73.2464ZM25.6422 73.7901C25.2835 72.6405 24.9249 71.5065 24.5663 70.3569C25.513 58.7987 25.4844 47.1318 26.0725 35.5581C26.0868 35.2008 25.5704 35.092 25.5561 35.4649C24.7958 46.588 24.4085 57.7733 24.1216 68.9276C21.4104 60.3211 18.7422 51.7147 16.4183 42.9839C17.2934 39.8458 17.1786 36.3814 17.1212 33.0569C21.726 31.2082 26.4455 29.8256 31.1937 28.5983C28.3677 46.1996 27.3062 65.2147 28.5829 83.251C28.0091 81.3868 27.4353 79.5071 26.8615 77.6429C26.8184 62.9621 29.1567 48.5766 29.3001 33.8647C29.3001 33.3521 28.5972 33.4453 28.5829 33.9424C28.1812 47.0696 25.4413 60.5542 25.6565 73.8057L25.6422 73.7901ZM15.7585 40.3895C15.2277 38.3544 14.6969 36.3193 14.2235 34.2531C14.8547 33.9735 15.5002 33.7249 16.1458 33.4608C15.9593 35.76 15.8302 38.0747 15.7585 40.3895ZM41.3356 118.966C38.3375 120.178 35.2389 121.017 32.2122 122.089C32.1978 121.856 32.1404 121.623 32.0974 121.374C37.0321 118.656 42.1676 117.413 47.6617 116.248C45.4956 117.025 43.3582 118.143 41.3212 118.966H41.3356ZM126.803 127.682C126.688 127.573 126.545 127.48 126.344 127.449C95.7174 124.279 66.0089 116.03 35.6693 111.075C36.2144 108.061 36.6734 104.581 37.1468 101.318C37.1468 103.897 37.1612 106.476 37.2759 109.071C37.3333 110.174 38.9256 110.018 38.8682 108.9C38.0075 92.3391 41.5221 91.609 43.2865 75.2349C43.6021 73.3551 43.932 71.4754 44.2763 69.6112C47.3891 52.8176 52.9693 36.2571 52.0082 18.9043C52.0082 18.8577 51.9939 18.8267 51.9795 18.7956C56.4982 19.65 61.0025 20.5666 65.5069 21.5142C65.6073 21.9648 65.7938 22.3532 66.1094 22.6017C66.2672 22.726 66.5254 22.7104 66.6114 22.4774C66.6975 22.2444 66.7262 22.0114 66.7405 21.7784C68.1177 22.0735 69.4804 22.3997 70.8575 22.7104C70.8575 22.757 70.8575 22.7881 70.8575 22.8347C70.8862 23.1454 71.2879 23.2231 71.4027 22.9435C71.417 22.9124 71.4313 22.8813 71.4457 22.8502C72.0625 22.9901 72.665 23.1299 73.2819 23.2697C73.2819 23.2697 73.2819 23.2697 73.2819 23.2852C73.3249 23.5493 73.6261 23.6115 73.7552 23.3785C75.161 23.6892 76.5525 24.031 77.9583 24.3417C78.0874 24.5902 78.3456 24.6368 78.5465 24.4815C83.8971 25.7088 89.2478 26.9826 94.5698 28.3497C101.871 30.2295 109.302 31.5034 116.718 32.8705C121.596 34.2065 126.602 35.2629 131.609 35.9775C135.367 36.9096 139.111 37.9971 142.783 39.3331C143.027 39.4263 143.242 39.3952 143.429 39.2865C136.371 73.1843 132.441 92.5256 126.703 126.703C126.645 127.014 126.746 127.278 126.889 127.449C126.86 127.526 126.846 127.604 126.817 127.682H126.803Z" fill="#CEAB80"/>
<path fill-rule="evenodd" clip-rule="evenodd" d="M43.7026 88.4241C42.6841 94.343 41.9956 100.169 41.6943 106.181C41.6943 106.352 41.9382 106.414 41.9525 106.227C42.7128 100.324 43.2006 94.3741 44.0182 88.4862C44.0469 88.2532 43.7313 88.1911 43.7026 88.4241Z" fill="#CEAB80"/>
<path fill-rule="evenodd" clip-rule="evenodd" d="M113.936 123.13C114.151 123.13 114.223 122.742 114.008 122.664C110.909 121.39 107.251 121.39 103.98 121.095C103.55 121.064 103.45 121.685 103.866 121.809C107.05 122.664 110.651 123.27 113.922 123.146L113.936 123.13Z" fill="#CEAB80"/>
</svg>
