<?xml version="1.0" encoding="UTF-8"?>
<svg id="Design" xmlns="http://www.w3.org/2000/svg" viewBox="0 0 281.62 351.33">
  <defs>
    <style>
      .cls-1 {
        fill: #fcfcfc;
      }

      .cls-1, .cls-2, .cls-3 {
        stroke-width: 0px;
      }

      .cls-4 {
        stroke-dasharray: 0 0 1 1;
      }

      .cls-4, .cls-5, .cls-6, .cls-7, .cls-8, .cls-9, .cls-10 {
        fill: none;
        stroke: #c5ac84;
        stroke-miterlimit: 10;
      }

      .cls-2 {
        fill: #c5ac84;
      }

      .cls-5 {
        stroke-dasharray: 0 0 .99 .99;
      }

      .cls-6 {
        stroke-dasharray: 0 0 .99 .99;
      }

      .cls-3 {
        fill: #d2b897;
      }

      .cls-7 {
        stroke-dasharray: 0 0 1 1;
      }

      .cls-9 {
        stroke-dasharray: 0 0 .99 .99;
      }

      .cls-10 {
        stroke-dasharray: 0 0 .99 .99;
      }
    </style>
  </defs>
  <g>
    <path class="cls-1" d="M252.18,3.57H29.43c-.76,16.92-12.2,30.51-26.43,31.41v281.36c14.23.9,25.67,14.5,26.43,31.41h222.75c.76-16.91,12.2-30.51,26.43-31.41V34.98c-14.23-.9-25.67-14.5-26.43-31.41Z"/>
    <path class="cls-2" d="M255.15,1.79V0H26.47v1.79c0,16.36-11.2,29.68-24.96,29.68H0v288.41h1.5c13.77,0,24.96,13.31,24.96,29.67v1.79h228.68v-1.79c0-16.36,11.2-29.67,24.96-29.67h1.5V31.46h-1.5c-13.77,0-24.96-13.31-24.96-29.68ZM278.61,316.35c-14.23.9-25.67,14.5-26.43,31.41H29.43c-.76-16.91-12.2-30.51-26.43-31.41V34.98c14.23-.9,25.67-14.5,26.43-31.41h222.75c.76,16.92,12.2,30.51,26.43,31.41v281.36Z"/>
  </g>
  <g>
    <polyline class="cls-8" points="248.35 341.81 248.35 342.31 247.85 342.31"/>
    <line class="cls-7" x1="246.85" y1="342.31" x2="32.81" y2="342.31"/>
    <polyline class="cls-8" points="32.31 342.31 31.81 342.31 31.81 341.81"/>
    <path class="cls-6" d="M31.8,340.81c-.4-15.64-11.09-28.26-24.28-28.57"/>
    <polyline class="cls-8" points="7.02 312.24 6.52 312.24 6.52 311.74"/>
    <line class="cls-4" x1="6.52" y1="310.74" x2="6.52" y2="40.02"/>
    <polyline class="cls-8" points="6.52 39.52 6.52 39.02 7.02 39.02"/>
    <path class="cls-10" d="M8.01,39c13.1-.61,23.62-13.34,23.8-28.98"/>
    <polyline class="cls-8" points="31.81 9.52 31.81 9.02 32.31 9.02"/>
    <line class="cls-7" x1="33.31" y1="9.02" x2="247.35" y2="9.02"/>
    <polyline class="cls-8" points="247.85 9.02 248.35 9.02 248.35 9.52"/>
    <path class="cls-9" d="M248.37,10.52c.4,15.6,11.09,28.19,24.28,28.5"/>
    <polyline class="cls-8" points="273.15 39.02 273.65 39.02 273.65 39.52"/>
    <line class="cls-4" x1="273.65" y1="40.52" x2="273.65" y2="311.24"/>
    <polyline class="cls-8" points="273.65 311.74 273.65 312.24 273.15 312.24"/>
    <path class="cls-5" d="M272.15,312.26c-13.1.62-23.62,13.38-23.8,29.05"/>
  </g>
  <g>
    <path class="cls-3" d="M129.36,17.69c-.85,0-1.71.06-2.56.19-.85.1-1.63.34-2.39.67-.75.35-1.44.8-2.04,1.38-.61.58-1.11,1.31-1.47,2.2-.36.86-.51,1.85-.45,2.95.04,1.09.41,2.09,1.11,2.98-.4.28-.68.58-.81.88-.15.33-.18.63-.11.91.1.28.27.51.57.72.3.18.68.28,1.13.29-.17-.28-.25-.61-.22-1.05.05-.41.23-.71.53-.89.85.44,1.73.75,2.63.91.9.19,1.83.14,2.84-.13.85-.22,1.46-.57,1.81-1.08.38-.51.53-1.04.49-1.62-.17-1.27-.87-1.89-2.14-1.9-.5,0-.95.12-1.33.4-.35.28-.56.58-.63.94-.13.76.14,1.5.81,2.19-1.11.27-2.11.19-2.96-.2-.85-.41-1.47-1-1.89-1.77-.4-.77-.59-1.63-.53-2.6.08-.96.46-1.85,1.17-2.66.15.33.37.61.67.89.3.28.62.49.95.62.17.1.38.13.6.13.18,0,.35-.02.48-.12.15-.08.23-.18.3-.33.05-.15.03-.33-.1-.56-.2-.43-.24-.89-.12-1.35.13-.46.36-.84.71-1.19.35-.33.81-.61,1.33-.81.53-.2,1.08-.3,1.63-.29.83,0,1.55.21,2.2.6.65.41,1.17.9,1.59,1.49.45.56.72,1.2.87,1.86.15.64.12,1.27-.06,1.83.33.1.6.08.83-.07.23-.12.4-.33.56-.61.13-.28.2-.58.26-.94.03-.36,0-.71-.09-1.04.6.31,1.05.77,1.37,1.36.3.59.37,1.3.24,2.11-.08.56-.23,1.04-.46,1.47-.2.4-.48.84-.81,1.21-.33.4-.68.81-1.09,1.19-.4.41-.81.81-1.21,1.26-.18.18-.2.35-.03.48.15.13.43.1.8-.12.38-.2.78-.43,1.18-.65.4-.2.83-.43,1.26-.65,0,.69-.23,1.32-.72,1.93-.48.58-1.06,1.06-1.69,1.44-.65.38-1.33.63-2.01.7-.68.1-1.2,0-1.63-.32-.22-.18-.32-.41-.3-.64.05-.23.23-.3.53-.25-.14-.89-.92-1.33-2.32-1.34-.38,0-.73.1-1.08.3-.35.2-.66.45-.86.73-.23.28-.35.61-.43.94-.05.36.02.66.19.94-.43.12-.73.35-.88.68-.18.33-.21.69-.13,1.04.12.64.42,1.1.84,1.41.42.31.95.59,1.57.82-.11.99.27,1.63,1.12,1.94.85.31,1.93.37,3.26.15.05.23,0,.41-.15.53-.15.15-.33.25-.53.35-.2.1-.38.2-.55.33-.15.13-.2.28-.15.48.12.48.29.94.52,1.4.22.43.47.84.79,1.2.32.36.72.64,1.17.87.47.26,1,.39,1.58.44.63.08,1.25,0,1.91-.17.63-.17,1.06-.5,1.24-.96.05-.15.05-.33-.02-.48-.1-.15-.22-.26-.4-.33-.17-.1-.38-.16-.58-.18-.23-.03-.45,0-.65.07-.2.1-.35.2-.5.33-.13.1-.25.23-.4.33-.13.13-.28.2-.43.28-.15.07-.33.07-.55.02-.25-.08-.5-.26-.67-.54-.2-.31-.32-.64-.39-.99-.1-.36-.1-.69-.07-.99.05-.31.15-.48.3-.53.3-.05.5,0,.63.21.1.18.35.44.72.74.2.23.4.31.6.28.2-.05.23-.25.13-.64-.07-.33-.2-.69-.37-1.07-.15-.36-.27-.71-.37-1.07-.1-.33-.1-.64-.04-.92.08-.28.28-.51.63-.66.17.46.3.81.42,1.05.1.23.35.46.72.64.15.08.33.13.53.13.18,0,.35-.02.48-.1.15-.07.23-.18.28-.33.03-.15-.02-.36-.2-.64-.2-.31-.3-.69-.27-1.15.03-.43.21-.94.54-1.5.58-.94,1.07-2.08,1.45-3.35.38-1.29.57-2.64.58-3.99,0-1.45-.28-2.8-.9-4.07-.62-1.28-1.51-2.45-2.69-3.5.45.13.9.13,1.33.04.43-.1.8-.25,1.13-.48.3-.25.53-.53.68-.89.15-.35.16-.76.03-1.19-.4.33-.83.55-1.23.68-.43.15-.85.2-1.28.19-.63,0-1.28-.09-1.9-.27-.65-.18-1.3-.39-1.98-.62-.65-.26-1.33-.47-1.98-.65-.68-.21-1.33-.31-2-.32h0ZM152.21,17.85c-.65,0-1.3.09-1.96.29-.68.17-1.33.37-2.01.62-.65.22-1.31.42-1.96.6-.65.17-1.31.25-1.96.24-.4,0-.83-.06-1.23-.21-.43-.13-.85-.36-1.28-.7-.13.43-.11.84.04,1.19.15.36.37.64.7.89.3.23.67.39,1.1.49.43.1.88.11,1.36-.02-1.24,1.03-2.15,2.2-2.78,3.46-.61,1.27-.92,2.61-.93,4.06,0,1.35.16,2.7.52,3.99.34,1.27.81,2.42,1.38,3.37.59,1.07.69,1.96.26,2.65-.18.28-.23.48-.2.63.02.15.1.26.25.33.15.08.33.1.53.11.18,0,.35-.05.53-.12.38-.15.6-.35.73-.61.1-.25.23-.61.36-1.06.38.16.6.38.65.67.05.28.05.59-.03.92-.1.36-.23.71-.38,1.06-.15.38-.28.74-.38,1.07-.13.38-.1.58.1.64.18.03.38-.05.6-.28.38-.3.63-.55.73-.73.1-.2.33-.25.6-.2.2.05.33.23.35.54.05.31.02.63-.08.99-.1.36-.25.69-.43.99-.2.28-.4.45-.66.53-.23.05-.4.05-.55-.03-.15-.08-.27-.15-.42-.28-.13-.1-.28-.23-.4-.33-.12-.13-.3-.23-.47-.33-.2-.08-.4-.1-.65-.08-.23.02-.43.07-.63.17-.18.08-.33.18-.43.33-.08.15-.1.33,0,.48.17.46.6.79,1.25.98.65.18,1.28.26,1.9.19,1.2-.12,2.14-.57,2.74-1.3.61-.76,1.06-1.62,1.35-2.56.05-.2,0-.36-.17-.48-.15-.13-.35-.23-.55-.33-.2-.1-.38-.21-.52-.36-.15-.13-.17-.31-.1-.53.68.13,1.3.16,1.85.17.55-.02,1.03-.09,1.43-.27.38-.15.68-.4.88-.71.2-.31.28-.71.23-1.22.65-.23,1.18-.5,1.61-.8.43-.3.71-.76.84-1.39.05-.35.03-.71-.12-1.04-.15-.33-.45-.56-.87-.69.18-.28.26-.58.21-.94-.05-.33-.2-.66-.42-.94-.22-.28-.52-.54-.87-.74-.35-.21-.73-.31-1.1-.31-1.38,0-2.13.42-2.32,1.31.33-.05.5.03.52.28.02.25-.08.46-.28.61-.4.3-.96.4-1.63.29-.68-.08-1.33-.34-1.98-.72-.65-.39-1.22-.87-1.67-1.46-.47-.61-.72-1.25-.71-1.94.43.23.85.46,1.25.67.37.23.78.46,1.17.67.37.23.65.28.8.16.15-.12.15-.3-.02-.51-.4-.46-.8-.87-1.17-1.28-.37-.38-.72-.79-1.05-1.2-.32-.38-.6-.82-.82-1.22-.22-.43-.4-.92-.47-1.48-.12-.82-.01-1.53.31-2.11.33-.58.79-1.04,1.39-1.34-.1.33-.13.69-.11,1.04.02.36.1.66.22.94.12.28.3.49.52.61.25.15.52.18.85.08-.2-.56-.22-1.2-.06-1.83.15-.66.46-1.29.89-1.85.43-.58.99-1.06,1.64-1.46.66-.38,1.38-.58,2.19-.57.58,0,1.1.11,1.63.32.5.21.95.49,1.3.82.35.36.57.74.69,1.2.12.46.07.92-.16,1.35-.08.18-.08.35-.03.51.05.15.15.28.27.38.12.08.3.13.48.13.2,0,.4-.02.58-.12.33-.13.65-.33.96-.6.33-.28.56-.56.73-.88.7.82,1.07,1.71,1.11,2.68.04.97-.16,1.83-.59,2.59-.43.76-1.06,1.34-1.92,1.74-.83.38-1.81.44-2.91.16.68-.68.94-1.42.82-2.18-.05-.36-.27-.66-.65-.95-.37-.28-.82-.41-1.33-.42-1.25,0-1.96.6-2.14,1.87-.08.58.07,1.12.47,1.63.4.51.97.87,1.75,1.11,1.03.29,1.98.34,2.88.17.88-.15,1.73-.45,2.61-.87.3.18.47.49.5.89.05.43-.03.76-.18,1.04.45,0,.83-.1,1.11-.27.3-.2.48-.43.56-.71.1-.28.08-.58-.04-.91-.12-.31-.37-.61-.8-.9.71-.89,1.09-1.85,1.15-2.94.03-1.09-.11-2.09-.46-2.98-.34-.89-.82-1.63-1.39-2.22-.6-.59-1.27-1.05-2.02-1.41-.78-.34-1.55-.6-2.4-.7-.83-.13-1.68-.21-2.56-.22h0ZM128.31,28.13c.15,0,.22.08.22.23s-.08.23-.23.23c-.18,0-.25-.08-.25-.23s.08-.23.25-.23h0ZM138.77,28.76c.22.64.29,1.32.24,1.98s-.21,1.32-.46,1.93c-.28.61-.66,1.19-1.14,1.69-.48.53-1.06.93-1.71,1.23-.6.28-1.28.47-2.09.65-.78.15-1.58.24-2.38.29-.8.05-1.58-.01-2.31-.14-.75-.13-1.33-.34-1.8-.65-.4-.28-.55-.59-.42-.92.1-.35.35-.48.76-.35,1.13.34,2.25.45,3.41.33,1.18-.12,2.26-.44,3.29-.94,1.06-.53,1.96-1.21,2.8-2.09.81-.86,1.42-1.87,1.83-3.01h0ZM132.21,38.58c.18,0,.25.08.25.2,0,.18-.08.25-.25.25-.15,0-.23-.08-.22-.26,0-.13.08-.2.23-.2h0ZM144.12,27.22c.15,0,.23.08.22.2,0,.18-.08.25-.23.25-.18,0-.25-.08-.25-.26,0-.13.08-.2.25-.2h0ZM144.29,35.74c.18,0,.25.08.25.21,0,.18-.08.25-.25.25-.15,0-.23-.08-.22-.26,0-.13.08-.2.23-.2h0ZM142.63,28.79c.39,1.15,1.01,2.17,1.81,3.04.8.9,1.72,1.59,2.74,2.13,1.02.51,2.13.85,3.28.99,1.18.14,2.33.04,3.46-.28.43-.13.68,0,.78.36.07.33-.08.64-.46.91-.45.3-1.06.5-1.79.62-.73.12-1.51.17-2.33.14-.8-.03-1.6-.14-2.41-.32-.8-.16-1.5-.39-2.08-.7-.65-.31-1.22-.72-1.7-1.26-.45-.51-.82-1.1-1.07-1.71-.25-.61-.42-1.27-.46-1.94s.03-1.35.21-1.98h0Z"/>
    <path class="cls-3" d="M84.21,17.68c.37.53.85,1.02,1.45,1.38.57.39,1.18.57,1.8.52-.52-.46-.97-.97-1.34-1.56-.37-.59-.67-1.2-.89-1.84-.22-.64-.39-1.3-.51-1.99-.12-.69-.22-1.32-.29-1.96-.18.33-.33.74-.48,1.19-.15.48-.23.96-.29,1.45-.03.48-.03.99.07,1.47.07.48.24.92.49,1.33h0ZM85.6,20.31c.4.18.8.36,1.2.59.4.21.82.41,1.25.57.43.13.85.23,1.28.24.43.03.88-.07,1.33-.3.53-.25.96-.53,1.31-.85.38-.33.68-.73.96-1.27-.4-.13-.8-.23-1.23-.29-.45-.05-.88-.11-1.3-.19-.43-.08-.8-.21-1.18-.36-.35-.18-.62-.44-.85-.79-.15-.31-.22-.61-.22-.94.03-.33.05-.66.13-.99.08-.33.15-.66.26-.99.1-.36.15-.66.18-.97-.35.3-.68.6-.98.98-.28.35-.53.73-.71,1.11-.18.41-.28.81-.28,1.24-.03.43.07.86.27,1.3.05.1.15.23.27.33.12.1.27.21.4.33.12.1.22.21.3.31.1.08.1.18.05.31-.05.13-.18.2-.38.23-.18.02-.4.05-.65.05-.23,0-.48.02-.75.05-.25.05-.48.15-.65.3h0ZM90,29.47c.07,1.09.29,2.11.66,3.11.37.97.84,1.83,1.44,2.58.62.74,1.35,1.31,2.22,1.69.85.39,1.83.5,2.93.38.38-.05.7-.15,1.01-.3.3-.18.55-.35.78-.6.2-.23.35-.51.48-.81.1-.28.13-.61.11-.94-.07-.69-.34-1.22-.84-1.63-.5-.39-1.07-.57-1.8-.5-.13.02-.2.1-.25.2-.05.13-.08.23-.08.35s.05.25.1.36c.07.1.17.18.27.21.48,0,.78.18.87.56,0,.13-.03.25-.13.38-.08.15-.18.25-.3.38-.13.1-.25.2-.43.28-.15.05-.3.07-.48.1-.88.07-1.71-.11-2.48-.53-.75-.41-1.4-.98-1.9-1.69-.52-.69-.84-1.51-1.01-2.42-.17-.94-.11-1.86.19-2.79.25.36.57.69.97,1.05.37.33.8.64,1.22.9.45.26.92.46,1.38.64.48.16.95.24,1.4.21.33-.02.68-.07,1.03-.14.35-.07.68-.2.98-.37.3-.2.55-.43.73-.71.2-.28.31-.61.33-1.01-.28.05-.55.05-.85,0-.28-.08-.53-.13-.8-.23-.25-.08-.5-.16-.78-.23-.25-.08-.53-.11-.78-.11-.23.03-.48.07-.73.15-.28.07-.55.12-.83.2-.28.05-.55.07-.83.05-.28,0-.53-.08-.8-.24-.25-.15-.47-.41-.7-.77-.2-.36-.37-.84-.52-1.45-.12-.58-.12-1.17.01-1.75.13-.61.38-1.19.76-1.77.38-.58.86-1.09,1.42-1.57.58-.48,1.24-.91,1.99-1.26.88-.38,1.89-.62,3.01-.74,1.15-.09,2.33-.06,3.56.08,1.23.14,2.46.37,3.68.74,1.23.39,2.35.86,3.4,1.4.82.46,1.7.88,2.6,1.31.9.41,1.83.78,2.8,1.09.98.31,1.95.55,2.96.71,1.03.16,2.06.22,3.08.12,0-.08-.02-.2-.02-.41,0-.18,0-.31-.02-.38-2.03-.04-3.96-.38-5.81-1.01-1.83-.65-3.55-1.42-5.15-2.35-1.05-.62-2.2-1.11-3.45-1.47-1.25-.39-2.53-.65-3.81-.76-1.28-.14-2.53-.15-3.79,0-1.23.12-2.34.39-3.32.82-1.06.45-1.96,1.06-2.72,1.81-.76.73-1.39,1.59-1.87,2.55-.48.94-.79,1.98-1,3.12-.18,1.12-.22,2.26-.12,3.46h0ZM101.79,22.43c.05.41.17.79.39,1.1.22.31.5.56.82.74.32.21.7.34,1.1.44.38.08.78.11,1.13.06.3,0,.58-.07.83-.2.28-.13.53-.28.73-.48.2-.18.38-.38.51-.63.1-.23.15-.48.16-.74-.05-.53-.17-.99-.39-1.35-.22-.38-.45-.64-.72-.82-.27-.18-.55-.23-.78-.23-.23.02-.38.15-.43.4-.08.15-.23.25-.43.33-.2.07-.43.12-.7.12-.25.02-.48,0-.7-.06-.23-.05-.4-.13-.53-.21.02.43.15.69.37.84.22.13.5.18.78.21.3.03.58,0,.85-.02.25-.02.45,0,.58.08.12.1.17.21.17.36-.03.15-.08.3-.2.46-.13.13-.25.25-.43.35-.2.1-.38.18-.6.2-.15.02-.33-.03-.5-.16-.17-.15-.37-.28-.55-.41-.2-.15-.42-.28-.65-.36-.23-.1-.5-.11-.8-.03h0ZM113.95,27.07c.25-.05.48-.12.75-.2.25-.1.53-.18.8-.25.28-.1.55-.17.85-.22.28-.07.55-.1.8-.1-.1.15-.18.28-.25.4-.08.1-.05.25.02.48.35.05.68,0,.98-.17.3-.17.58-.4.86-.63.28-.25.56-.48.83-.68.3-.23.63-.33,1.01-.35-.12-.13-.35-.26-.67-.31-.35-.08-.75-.13-1.23-.13-.48.02-.98.04-1.51.14-.53.07-1.03.2-1.48.37-.45.17-.83.4-1.18.68-.33.28-.53.58-.58.96h0ZM103.23,13.7c.25-.1.53-.2.78-.25.28-.05.53-.07.75-.05.25,0,.45.08.63.21.2.13.3.33.37.61.02.15.02.3-.05.41-.08.13-.15.23-.25.3-.1.08-.23.15-.38.2-.13.03-.28.05-.43.05,0,.25.07.46.25.61.17.15.42.26.73.31-.13.18-.18.35-.13.56.02.2.1.38.22.54.12.15.27.26.47.33.18.05.38.05.58-.05.55-.33.96-.68,1.21-1.06.23-.38.36-.86.34-1.42,0-.36-.12-.69-.34-1.02-.2-.31-.47-.61-.8-.84-.35-.26-.7-.46-1.12-.59-.43-.13-.85-.18-1.28-.14-.4.05-.73.2-1.01.45-.28.25-.46.53-.53.84h0ZM115.39,17.82c.12.23.25.49.35.77.1.28.17.56.24.87.07.28.15.59.25.84.1.28.2.51.35.71.17.26.37.46.62.59.25.15.5.26.78.31.28.08.53.13.8.18.28.03.55.08.78.16-.02-.56-.19-1.12-.47-1.63-.27-.54-.6-.99-1.02-1.43-.4-.41-.82-.74-1.3-1-.5-.23-.95-.36-1.38-.37h0ZM96.47,29.82c0-.1.05-.15.15-.18.1,0,.15.05.17.16,0,.1-.05.15-.15.18-.1,0-.15-.03-.17-.15h0ZM88.46,20.89c-.02-.1.03-.15.13-.18.1-.02.15.03.17.13,0,.13-.03.18-.13.18-.13.03-.18-.03-.17-.13h0Z"/>
    <path class="cls-3" d="M197.36,18.47c-.36.53-.86,1.01-1.44,1.36-.6.38-1.21.55-1.83.5.53-.46.98-.96,1.37-1.54.38-.58.68-1.19.91-1.82.26-.63.44-1.29.57-1.98.13-.68.21-1.32.29-1.95.17.33.35.74.47,1.22.15.46.24.94.27,1.43.05.48.02.99-.06,1.47-.08.48-.26.91-.54,1.32h0ZM195.96,21.08c-.4.17-.83.35-1.23.58-.4.23-.83.4-1.23.55-.43.12-.85.22-1.28.22-.45.02-.88-.08-1.35-.31-.5-.26-.95-.54-1.3-.87-.35-.33-.67-.74-.92-1.28.38-.13.78-.22,1.23-.27.43-.05.85-.1,1.28-.17.43-.07.8-.2,1.18-.35.35-.18.66-.43.86-.78.15-.3.23-.61.23-.94s-.05-.66-.12-.99c-.07-.33-.15-.66-.24-.99-.1-.36-.15-.66-.14-.97.32.31.65.64.95,1,.3.36.52.74.7,1.12.17.41.27.81.29,1.25,0,.43-.11.86-.28,1.29-.08.1-.18.23-.3.33-.13.1-.25.2-.38.33-.13.1-.25.2-.33.3-.08.07-.1.18-.05.3.08.13.17.2.38.23.18.03.4.05.65.06s.5.03.75.06c.25.05.48.16.68.31h0ZM191.41,30.17c-.08,1.09-.31,2.11-.7,3.1-.36.96-.87,1.82-1.47,2.56-.63.73-1.36,1.29-2.22,1.66-.88.38-1.86.47-2.96.33-.38-.05-.7-.16-1-.31-.3-.18-.55-.36-.75-.61-.22-.23-.37-.51-.47-.82-.12-.28-.15-.61-.09-.94.08-.69.36-1.22.84-1.62.5-.38,1.11-.55,1.81-.47.13.03.2.1.27.21.05.13.07.23.05.36,0,.13-.03.25-.1.36-.08.1-.15.18-.28.2-.48,0-.78.17-.88.55,0,.13.05.25.12.38.07.15.17.25.3.38.12.1.28.2.42.28.15.05.33.08.48.11.88.08,1.71-.09,2.49-.49.78-.4,1.41-.96,1.94-1.66.51-.68.86-1.5,1.04-2.41.16-.94.11-1.85-.18-2.8-.25.35-.58.68-.96,1.04-.4.33-.81.63-1.26.88-.45.25-.91.45-1.38.62-.48.15-.95.22-1.41.19-.33-.03-.68-.08-1.03-.16-.35-.08-.68-.21-.98-.39-.27-.21-.52-.44-.72-.72-.2-.28-.3-.61-.29-1.02.28.05.55.05.83,0,.28-.07.55-.12.8-.2.25-.1.5-.18.78-.25.28-.07.53-.1.78-.1.22.03.48.08.75.16.25.08.53.13.8.21.28.05.55.08.83.06.28,0,.55-.07.8-.22.25-.15.48-.4.71-.76.2-.36.41-.84.56-1.45.13-.58.13-1.17-.01-1.75-.12-.61-.37-1.2-.74-1.78-.37-.59-.82-1.1-1.39-1.59-.57-.49-1.22-.92-1.95-1.28-.88-.39-1.9-.65-3.03-.78-1.15-.11-2.33-.09-3.56.03-1.23.12-2.46.34-3.69.69-1.23.37-2.36.82-3.4,1.35-.86.45-1.74.85-2.64,1.28-.91.4-1.84.75-2.82,1.05-.96.3-1.96.52-2.97.67-1,.15-2.03.19-3.09.08.03-.08.03-.2.03-.41,0-.18.03-.3.03-.38,2.03-.01,3.99-.33,5.83-.92,1.86-.62,3.57-1.38,5.21-2.28,1.03-.6,2.19-1.08,3.45-1.42,1.26-.37,2.54-.62,3.82-.71,1.3-.12,2.56-.11,3.79.05,1.23.14,2.33.42,3.31.86,1.05.46,1.95,1.08,2.7,1.85.77.74,1.37,1.61,1.84,2.58.47.94.79,1.99.96,3.13.17,1.12.19,2.26.08,3.46h0ZM179.72,22.97c-.03.41-.18.79-.38,1.09-.23.3-.5.56-.86.73-.33.2-.68.33-1.08.43-.4.07-.78.1-1.15.04-.3,0-.58-.08-.83-.21-.28-.13-.5-.28-.72-.49-.2-.18-.37-.38-.47-.64-.12-.23-.17-.48-.15-.74.03-.53.16-.99.39-1.34.23-.38.48-.63.76-.81.28-.18.53-.23.75-.22.25.03.38.16.45.41.05.15.2.26.4.33.22.08.45.13.7.13.25.03.48,0,.7-.05s.4-.1.53-.2c-.03.43-.16.69-.38.84-.23.13-.48.18-.78.2-.3.02-.58,0-.83-.03-.28-.03-.48,0-.58.07-.15.1-.2.2-.18.36,0,.15.07.31.17.46.12.13.27.26.45.36.18.1.38.18.58.21.18.03.35-.02.53-.15.18-.15.35-.28.55-.4.18-.15.4-.28.63-.35.23-.1.5-.1.8-.02h0ZM167.5,27.44c-.23-.05-.48-.13-.75-.21-.25-.1-.53-.18-.8-.26-.28-.1-.55-.18-.83-.24-.28-.08-.55-.11-.83-.11.1.15.2.28.25.41.07.1.07.25-.03.48-.35.05-.68,0-.98-.19-.27-.18-.57-.41-.82-.64-.27-.26-.57-.49-.85-.69-.3-.23-.62-.34-.98-.36.1-.13.33-.25.68-.3.33-.07.73-.12,1.21-.12.48.03.98.06,1.5.16.55.08,1.03.21,1.48.39.45.18.85.41,1.17.7.32.28.52.59.57.97h0ZM178.4,14.22c-.25-.11-.5-.21-.78-.26-.25-.05-.5-.08-.75-.06-.23.03-.45.07-.63.2-.18.13-.3.33-.35.61-.05.15-.03.3.02.41.07.13.15.23.25.31.1.08.22.15.37.21.15.03.28.05.43.05.02.25-.05.46-.26.61-.18.15-.4.25-.7.3.1.18.15.36.12.56-.05.2-.13.38-.25.53-.13.15-.28.25-.45.33-.2.05-.38.05-.58-.05-.57-.34-.97-.69-1.22-1.08-.22-.38-.35-.87-.32-1.43.03-.36.13-.69.36-1.01.23-.3.48-.61.83-.83.33-.25.71-.45,1.13-.58.4-.12.83-.17,1.28-.12.38.05.73.21,1,.47.27.26.42.54.5.84h0ZM166.21,18.17c-.15.23-.25.48-.36.76-.1.28-.2.56-.28.86-.08.28-.16.58-.26.84-.1.28-.2.51-.33.71-.18.25-.4.46-.63.58-.25.15-.53.25-.78.3-.28.08-.55.12-.83.17-.28.02-.53.07-.78.15.05-.56.21-1.12.49-1.62.28-.53.63-.99,1.04-1.42.4-.4.86-.73,1.34-.98.48-.22.93-.35,1.38-.35h0ZM184.94,30.43c0-.1-.02-.15-.12-.18-.13,0-.18.05-.18.15-.03.1.02.15.12.18.1,0,.15-.02.18-.15h0ZM193.1,21.61c0-.1-.05-.15-.15-.18-.1,0-.15.02-.18.13,0,.13.05.18.15.18.1.03.15-.02.18-.13h0Z"/>
  </g>
  <g>
    <path class="cls-3" d="M152.24,332.1c.85,0,1.71-.07,2.56-.2.85-.1,1.63-.35,2.38-.68.75-.36,1.43-.81,2.03-1.4.6-.58,1.11-1.32,1.46-2.21.35-.86.5-1.86.43-2.95-.05-1.09-.42-2.09-1.13-2.98.4-.28.68-.58.8-.89.15-.33.18-.64.1-.91-.1-.28-.28-.51-.58-.71-.3-.18-.68-.28-1.13-.28.17.28.25.61.22,1.04-.05.41-.23.71-.53.89-.85-.43-1.73-.74-2.63-.89-.9-.18-1.83-.13-2.83.15-.85.23-1.46.58-1.81,1.09-.38.51-.53,1.04-.48,1.63.17,1.27.88,1.88,2.15,1.88.5,0,.95-.13,1.33-.41.35-.28.55-.58.63-.94.13-.76-.15-1.5-.82-2.19,1.1-.28,2.11-.2,2.96.18.85.41,1.48.99,1.9,1.76.4.76.6,1.63.55,2.59-.08.97-.45,1.85-1.16,2.67-.15-.33-.38-.61-.68-.89-.3-.28-.63-.48-.95-.61-.18-.1-.38-.13-.6-.13-.18,0-.35.02-.48.13-.15.08-.23.18-.3.33-.05.15-.03.33.1.56.2.43.25.89.12,1.35-.13.46-.35.84-.7,1.19-.35.33-.8.61-1.33.81-.53.2-1.08.3-1.63.3-.83,0-1.55-.21-2.21-.59-.65-.41-1.18-.89-1.6-1.48-.45-.56-.73-1.2-.88-1.86-.15-.64-.12-1.27.05-1.83-.33-.1-.6-.08-.83.08-.23.13-.4.33-.55.61-.13.28-.2.59-.25.94-.03.36,0,.71.1,1.04-.6-.31-1.05-.76-1.38-1.35-.3-.59-.37-1.3-.25-2.11.08-.56.23-1.04.45-1.47.2-.41.48-.84.8-1.22.33-.41.68-.81,1.08-1.19.4-.41.8-.81,1.21-1.27.18-.18.2-.36.03-.48-.15-.13-.43-.1-.8.13-.38.2-.78.43-1.18.66-.4.2-.83.43-1.25.66,0-.69.23-1.32.7-1.93.48-.58,1.05-1.07,1.68-1.45.65-.38,1.33-.63,2.01-.71.68-.1,1.2,0,1.63.31.23.18.33.41.3.64-.05.23-.23.3-.53.25.15.89.93,1.32,2.33,1.33.38,0,.73-.1,1.08-.31.35-.2.65-.46.85-.74.23-.28.35-.61.43-.94.05-.36-.02-.66-.2-.94.43-.13.73-.36.88-.69.18-.33.2-.69.13-1.04-.12-.64-.43-1.09-.85-1.4-.43-.3-.95-.58-1.58-.81.1-.99-.27-1.63-1.13-1.93-.85-.31-1.93-.36-3.26-.13-.05-.23,0-.41.15-.53.15-.15.33-.26.53-.36.2-.1.38-.2.55-.33.15-.13.2-.28.15-.48-.13-.48-.3-.94-.53-1.4-.22-.43-.48-.84-.8-1.2-.33-.36-.73-.64-1.18-.87-.48-.25-1-.38-1.58-.43-.63-.08-1.25,0-1.91.18-.63.18-1.05.51-1.23.97-.05.15-.05.33.02.48.1.15.23.25.4.33.18.1.38.15.58.18.23.03.45,0,.65-.08.2-.1.35-.2.5-.33.13-.1.25-.23.4-.33.13-.13.28-.2.43-.28.15-.08.33-.08.55-.02.25.08.5.25.68.53.2.3.33.64.4.99.1.36.1.69.07.99-.05.31-.15.48-.3.53-.3.05-.5,0-.63-.2-.1-.18-.35-.43-.73-.74-.2-.23-.4-.31-.6-.28-.2.05-.23.26-.13.64.07.33.2.69.38,1.07.15.36.28.71.38,1.07.1.33.1.64.05.92-.08.28-.28.51-.63.66-.17-.46-.3-.81-.42-1.04-.1-.23-.35-.46-.73-.64-.15-.08-.33-.13-.53-.13-.18,0-.35.02-.48.1-.15.07-.23.18-.28.33-.03.15.02.36.2.63.2.31.3.69.27,1.15-.03.43-.2.94-.53,1.5-.58.94-1.06,2.08-1.43,3.35-.38,1.3-.55,2.64-.56,3.99,0,1.45.3,2.8.92,4.07.63,1.27,1.53,2.44,2.7,3.49-.45-.13-.9-.13-1.33-.03-.43.1-.8.25-1.13.48-.3.25-.53.53-.68.89-.15.36-.15.76-.03,1.19.4-.33.83-.56,1.23-.68.43-.15.85-.2,1.28-.2.63,0,1.28.08,1.91.26.65.18,1.3.38,1.98.61.65.26,1.33.46,1.98.64.68.2,1.33.31,2.01.31h0ZM129.39,332.07c.65,0,1.3-.1,1.96-.3.68-.18,1.33-.38,2.01-.63.65-.23,1.3-.43,1.96-.61.65-.18,1.3-.25,1.96-.25.4,0,.83.05,1.23.2.43.13.85.36,1.28.69.13-.43.1-.84-.05-1.19-.15-.36-.38-.64-.7-.89-.3-.23-.68-.38-1.1-.48-.43-.1-.88-.1-1.35.02,1.23-1.04,2.13-2.21,2.76-3.48.6-1.27.91-2.62.91-4.07,0-1.35-.17-2.69-.55-3.99-.35-1.27-.83-2.42-1.4-3.36-.6-1.07-.7-1.96-.27-2.65.18-.28.23-.48.2-.63-.02-.15-.1-.26-.25-.33-.15-.08-.33-.1-.53-.1-.18,0-.35.05-.53.13-.38.15-.6.36-.73.61-.1.25-.23.61-.35,1.07-.38-.15-.6-.38-.65-.66-.05-.28-.05-.58.03-.92.1-.36.23-.71.38-1.07.15-.38.28-.74.38-1.07.13-.38.1-.58-.1-.64-.18-.02-.38.05-.6.28-.38.3-.63.56-.73.74-.1.2-.33.25-.6.2-.2-.05-.33-.23-.35-.53-.05-.31-.02-.63.08-.99.1-.36.25-.69.43-.99.2-.28.4-.46.65-.53.23-.05.4-.05.55.03.15.08.28.15.43.28.13.1.28.23.4.33.13.13.3.23.48.33.2.08.4.1.65.08.23-.03.43-.08.63-.18.18-.08.33-.18.43-.33.08-.15.1-.33,0-.48-.18-.46-.6-.79-1.25-.97-.65-.18-1.28-.26-1.91-.18-1.2.13-2.13.58-2.74,1.32-.6.76-1.06,1.63-1.33,2.57-.05.2,0,.36.18.48.15.13.35.23.55.33.2.1.38.2.53.36.15.13.18.31.1.53-.68-.13-1.3-.15-1.86-.15-.55.03-1.03.1-1.43.28-.38.15-.68.41-.88.71-.2.31-.28.71-.23,1.22-.65.23-1.18.51-1.61.81-.43.31-.7.76-.83,1.4-.05.36-.03.71.12,1.04.15.33.45.56.88.69-.18.28-.25.58-.2.94.05.33.2.66.43.94.23.28.53.53.88.74.35.2.73.31,1.1.31,1.38,0,2.13-.43,2.31-1.32-.33.05-.5-.03-.53-.28-.02-.25.08-.46.28-.61.4-.3.95-.41,1.63-.3.68.08,1.33.33,1.98.71.65.38,1.23.87,1.68,1.45.48.61.73,1.25.73,1.93-.43-.23-.85-.46-1.25-.66-.38-.23-.78-.46-1.18-.66-.38-.23-.65-.28-.8-.15-.15.13-.15.3.02.51.4.46.8.86,1.18,1.27.38.38.73.79,1.05,1.2.33.38.6.81.83,1.22.23.43.4.92.48,1.48.12.81.02,1.53-.3,2.11-.33.58-.78,1.04-1.38,1.35.1-.33.13-.69.1-1.04-.02-.36-.1-.66-.22-.94-.13-.28-.3-.48-.53-.61-.25-.15-.53-.18-.85-.08.2.56.22,1.19.07,1.83-.15.66-.45,1.3-.88,1.85-.43.58-.98,1.07-1.63,1.47-.65.38-1.38.58-2.18.58-.58,0-1.1-.1-1.63-.31-.5-.2-.95-.48-1.3-.82-.35-.36-.58-.74-.7-1.2-.12-.46-.07-.91.15-1.35.08-.18.08-.36.03-.51-.05-.15-.15-.28-.28-.38-.12-.08-.3-.13-.48-.13-.2,0-.4.02-.58.13-.33.13-.65.33-.95.61-.33.28-.55.56-.73.89-.7-.81-1.08-1.7-1.13-2.67-.05-.97.15-1.83.58-2.59.43-.76,1.05-1.35,1.91-1.75.83-.38,1.81-.45,2.91-.18-.68.69-.93,1.42-.81,2.19.05.36.28.66.65.94.38.28.83.41,1.33.41,1.25,0,1.96-.61,2.13-1.88.08-.59-.07-1.12-.48-1.63-.4-.51-.98-.87-1.75-1.1-1.03-.28-1.98-.33-2.88-.16-.88.15-1.73.46-2.61.89-.3-.18-.48-.48-.5-.89-.05-.43.03-.76.18-1.04-.45,0-.83.1-1.1.28-.3.2-.48.43-.55.71-.1.28-.08.58.05.91.13.31.38.61.8.89-.7.89-1.08,1.85-1.13,2.95-.03,1.09.12,2.08.47,2.97.35.89.83,1.63,1.4,2.21.6.59,1.28,1.04,2.03,1.4.78.33,1.56.59,2.41.69.83.13,1.68.21,2.56.21h0ZM153.23,321.65c-.15,0-.23-.08-.23-.23s.08-.23.23-.23c.18,0,.25.08.25.23s-.08.23-.25.23h0ZM142.77,321.08c-.23-.64-.3-1.32-.25-1.98s.2-1.32.45-1.93c.28-.61.65-1.19,1.13-1.7.48-.53,1.05-.94,1.71-1.24.6-.28,1.28-.48,2.08-.66.78-.15,1.58-.25,2.38-.3.8-.05,1.58,0,2.31.13.75.13,1.33.33,1.81.64.4.28.55.59.43.92-.1.36-.35.48-.75.35-1.13-.33-2.26-.43-3.41-.31-1.18.13-2.26.45-3.29.96-1.05.53-1.96,1.22-2.79,2.11-.8.86-1.41,1.88-1.81,3.02h0ZM149.28,311.22c-.18,0-.25-.08-.25-.2,0-.18.08-.25.25-.25.15,0,.23.08.23.25,0,.13-.08.2-.23.2h0ZM137.43,322.65c-.15,0-.23-.08-.23-.2,0-.18.08-.25.23-.25.18,0,.25.08.25.25,0,.13-.08.2-.25.2h0ZM137.21,314.13c-.18,0-.25-.08-.25-.2,0-.18.07-.25.25-.25.15,0,.23.08.23.25,0,.13-.08.2-.23.2h0ZM138.91,321.08c-.4-1.14-1.03-2.16-1.83-3.03-.8-.89-1.73-1.58-2.76-2.11-1.03-.51-2.13-.84-3.29-.97-1.18-.13-2.33-.03-3.46.3-.43.13-.68,0-.78-.36-.07-.33.08-.64.45-.92.45-.3,1.05-.51,1.78-.63.73-.13,1.51-.18,2.33-.15.8.03,1.6.13,2.41.31.8.15,1.51.38,2.08.69.65.31,1.23.71,1.7,1.25.45.51.83,1.09,1.08,1.7.25.61.42,1.27.47,1.93s-.03,1.35-.2,1.98h0Z"/>
    <path class="cls-3" d="M197.39,331.84c-.38-.53-.85-1.02-1.45-1.37-.58-.38-1.18-.56-1.81-.51.53.46.98.97,1.35,1.55.38.58.68,1.2.9,1.83.23.63.4,1.3.52,1.98.12.68.22,1.32.3,1.96.18-.33.33-.74.48-1.19.15-.48.23-.97.28-1.45.03-.48.03-.99-.07-1.47-.08-.48-.25-.91-.5-1.32h0ZM195.99,329.22c-.4-.18-.8-.36-1.2-.58-.4-.2-.83-.41-1.25-.56-.43-.13-.85-.23-1.28-.23-.43-.03-.88.07-1.33.3-.53.25-.95.53-1.31.86-.38.33-.68.74-.95,1.27.4.13.8.23,1.23.28.45.05.88.1,1.3.18.43.08.8.2,1.18.36.35.18.63.43.85.79.15.31.23.61.22.94-.03.33-.05.66-.13.99-.08.33-.15.66-.25.99-.1.36-.15.66-.18.97.35-.3.68-.61.98-.99.28-.36.53-.74.7-1.12.18-.41.28-.81.28-1.25.03-.43-.07-.86-.27-1.3-.05-.1-.15-.23-.28-.33-.13-.1-.28-.2-.4-.33-.13-.1-.23-.2-.3-.31-.1-.08-.1-.18-.05-.31.05-.13.18-.2.38-.23.18-.03.4-.05.65-.05.23,0,.48-.03.75-.05.25-.05.48-.15.65-.31h0ZM191.54,320.09c-.07-1.09-.3-2.11-.67-3.1-.38-.97-.85-1.83-1.45-2.57-.63-.74-1.35-1.3-2.23-1.68-.85-.38-1.83-.49-2.93-.36-.38.05-.7.15-1,.3-.3.18-.55.36-.78.61-.2.23-.35.51-.48.81-.1.28-.13.61-.1.94.07.69.35,1.22.85,1.63.5.38,1.08.56,1.81.49.13-.02.2-.1.25-.2.05-.13.08-.23.08-.36s-.05-.25-.1-.36c-.08-.1-.18-.18-.28-.21-.48,0-.78-.18-.88-.56,0-.13.03-.25.13-.38.08-.15.18-.25.3-.38.13-.1.25-.2.43-.28.15-.05.3-.07.48-.1.88-.07,1.71.1,2.48.51.75.41,1.4.97,1.9,1.68.53.69.85,1.5,1.03,2.42.17.94.12,1.86-.18,2.8-.25-.36-.58-.69-.98-1.04-.38-.33-.8-.64-1.23-.89-.45-.25-.93-.46-1.38-.64-.48-.15-.95-.23-1.4-.2-.33.02-.68.07-1.03.15-.35.08-.68.2-.98.38-.3.2-.55.43-.73.71-.2.28-.3.61-.33,1.02.28-.05.55-.05.85,0,.28.08.53.13.8.23.25.08.5.15.78.23.25.08.53.1.78.1.23-.03.48-.08.73-.15.28-.07.55-.13.83-.2.28-.05.55-.07.83-.05.28,0,.53.08.8.23.25.15.48.41.7.76.2.36.38.84.53,1.45.12.58.12,1.17,0,1.75-.13.61-.38,1.19-.75,1.78-.38.58-.85,1.09-1.41,1.58-.58.48-1.23.91-1.98,1.27-.88.38-1.88.63-3.01.76-1.15.1-2.33.07-3.56-.05-1.23-.13-2.46-.36-3.69-.72-1.23-.38-2.36-.84-3.41-1.38-.83-.46-1.7-.87-2.61-1.3-.9-.41-1.83-.77-2.81-1.07-.98-.31-1.96-.54-2.96-.69-1.03-.15-2.06-.21-3.08-.1,0,.08.02.2.02.41,0,.18,0,.31.02.38,2.03.03,3.96.36,5.82.97,1.83.64,3.56,1.4,5.16,2.32,1.05.61,2.21,1.1,3.46,1.45,1.25.38,2.53.64,3.81.74,1.28.13,2.53.13,3.79-.02,1.23-.13,2.33-.4,3.31-.84,1.05-.46,1.96-1.07,2.71-1.83.75-.74,1.38-1.6,1.86-2.57.48-.94.78-1.98.98-3.13.18-1.12.2-2.26.1-3.46h0ZM179.79,327.2c-.05-.41-.17-.79-.4-1.09-.23-.3-.5-.56-.83-.74-.33-.2-.7-.33-1.1-.43-.38-.08-.78-.1-1.13-.05-.3,0-.58.08-.83.2-.28.13-.53.28-.73.48-.2.18-.38.38-.5.63-.1.23-.15.48-.15.74.05.53.17.99.4,1.35.22.38.45.64.73.81.28.18.55.23.78.23.23-.03.38-.15.43-.41.08-.15.23-.25.43-.33.2-.08.43-.13.7-.13.25-.03.48,0,.7.05.23.05.4.13.53.2-.02-.43-.15-.69-.38-.84-.23-.13-.5-.18-.78-.2-.3-.03-.58,0-.85.02-.25.03-.45,0-.58-.08-.13-.1-.18-.21-.18-.36.03-.15.08-.3.2-.46.13-.13.25-.25.43-.35.2-.1.38-.18.6-.2.15-.03.33.03.5.15.18.15.38.28.55.41.2.15.43.28.65.36.23.1.5.1.8.03h0ZM167.6,322.63c-.25.05-.48.13-.75.2-.25.1-.53.18-.8.25-.28.1-.55.18-.85.23-.28.07-.55.1-.8.1.1-.15.18-.28.25-.41.08-.1.05-.25-.03-.48-.35-.05-.68,0-.98.18-.3.18-.58.41-.85.63-.28.25-.55.48-.83.69-.3.23-.63.33-1,.35.12.13.35.26.68.31.35.08.75.13,1.23.13.48-.02.98-.05,1.51-.15.53-.08,1.03-.2,1.48-.38.45-.18.83-.41,1.18-.69.33-.28.53-.58.58-.96h0ZM178.4,335.94c-.25.1-.53.2-.78.26-.28.05-.53.07-.75.05-.25,0-.45-.08-.63-.2-.2-.13-.3-.33-.38-.61-.03-.15-.02-.3.05-.41.08-.13.15-.23.25-.3.1-.08.23-.15.38-.2.13-.03.28-.05.43-.05,0-.25-.07-.46-.25-.61-.18-.15-.43-.25-.73-.31.13-.18.18-.36.13-.56-.02-.2-.1-.38-.22-.53-.13-.15-.28-.25-.48-.33-.18-.05-.38-.05-.58.05-.55.33-.95.69-1.21,1.07-.23.38-.35.87-.33,1.42,0,.36.12.69.35,1.02.2.3.48.61.8.84.35.25.7.46,1.13.59.43.13.85.18,1.28.13.4-.05.73-.2,1-.46.28-.25.45-.53.53-.84h0ZM166.21,331.89c-.12-.23-.25-.48-.35-.76-.1-.28-.17-.56-.25-.86-.08-.28-.15-.58-.25-.84-.1-.28-.2-.51-.35-.71-.18-.25-.38-.46-.63-.59-.25-.15-.5-.25-.78-.31-.28-.08-.53-.13-.8-.18-.28-.03-.55-.08-.78-.15.02.56.2,1.12.48,1.63.28.53.6.99,1.03,1.42.4.41.83.74,1.3.99.5.23.95.36,1.38.36h0ZM185.06,319.78c0,.1-.05.15-.15.18-.1,0-.15-.05-.18-.15,0-.1.05-.15.15-.18.1,0,.15.02.18.15h0ZM193.13,328.66c.02.1-.03.15-.13.18-.1.02-.15-.03-.18-.13,0-.13.03-.18.13-.18.13-.03.18.03.18.13h0Z"/>
    <path class="cls-3" d="M84.24,331.72c.35-.53.85-1.01,1.43-1.37.6-.38,1.2-.56,1.83-.51-.53.46-.98.97-1.36,1.55-.38.58-.68,1.19-.9,1.83-.25.63-.43,1.3-.55,1.98-.13.68-.2,1.32-.28,1.96-.18-.33-.35-.74-.48-1.22-.15-.46-.25-.94-.27-1.42-.05-.48-.02-.99.05-1.47.08-.48.25-.91.53-1.32h0ZM85.62,329.1c.4-.18.83-.35,1.23-.58.4-.23.83-.41,1.23-.56.43-.13.85-.23,1.28-.23.45-.03.88.08,1.35.31.5.25.95.54,1.3.87.35.33.68.74.93,1.27-.38.13-.78.23-1.23.28-.43.05-.85.1-1.28.18-.43.08-.8.2-1.18.35-.35.18-.65.43-.85.79-.15.3-.23.61-.23.94s.05.66.12.99c.07.33.15.66.25.99.1.36.15.66.15.97-.33-.3-.65-.64-.95-.99-.3-.36-.53-.74-.7-1.12-.17-.41-.27-.81-.3-1.25,0-.43.1-.86.28-1.3.08-.1.18-.23.3-.33.13-.1.25-.2.38-.33.13-.1.25-.2.33-.31.08-.07.1-.18.05-.3-.08-.13-.18-.2-.38-.23-.18-.03-.4-.05-.65-.05s-.5-.03-.75-.05c-.25-.05-.48-.15-.68-.31h0ZM90.12,319.98c.08-1.09.3-2.11.68-3.1.35-.96.85-1.83,1.46-2.56.63-.74,1.36-1.3,2.21-1.68.88-.38,1.86-.48,2.96-.35.38.05.7.15,1,.31.3.18.55.36.75.61.23.23.38.51.48.81.13.28.15.61.1.94-.08.69-.35,1.22-.83,1.63-.5.38-1.1.56-1.81.48-.13-.02-.2-.1-.28-.2-.05-.13-.08-.23-.05-.36,0-.13.03-.25.1-.36.08-.1.15-.18.28-.2.48,0,.78-.18.88-.56,0-.13-.05-.25-.13-.38-.08-.15-.18-.25-.3-.38-.12-.1-.28-.2-.43-.28-.15-.05-.33-.08-.48-.1-.88-.08-1.71.1-2.48.51-.78.41-1.41.96-1.93,1.68-.5.69-.85,1.5-1.03,2.41-.15.94-.1,1.86.2,2.8.25-.36.58-.68.95-1.04.4-.33.8-.63,1.26-.89.45-.25.9-.46,1.38-.63.48-.15.95-.23,1.41-.2.33.02.68.08,1.03.15.35.08.68.2.98.38.28.2.53.43.73.71.2.28.3.61.3,1.02-.28-.05-.55-.05-.83,0-.28.08-.55.13-.8.2-.25.1-.5.18-.78.25-.28.08-.53.1-.78.1-.23-.03-.48-.08-.75-.16-.25-.08-.53-.13-.8-.2-.28-.05-.55-.08-.83-.05-.28,0-.55.08-.8.23-.25.15-.48.41-.7.76-.2.36-.4.84-.55,1.45-.13.58-.13,1.17.02,1.75.12.61.37,1.2.75,1.78.38.59.83,1.09,1.4,1.58.58.48,1.23.92,1.95,1.27.88.38,1.91.64,3.03.77,1.15.1,2.33.08,3.56-.05,1.23-.13,2.46-.35,3.69-.71,1.23-.38,2.36-.84,3.39-1.37.85-.46,1.73-.86,2.63-1.29.9-.41,1.83-.76,2.81-1.07.95-.3,1.96-.53,2.96-.68,1-.15,2.03-.2,3.09-.1-.03.08-.03.2-.03.41,0,.18-.03.31-.03.38-2.03.02-3.99.35-5.82.96-1.86.63-3.56,1.4-5.2,2.31-1.03.61-2.18,1.09-3.44,1.44-1.25.38-2.53.63-3.81.73-1.3.13-2.56.13-3.79-.03-1.23-.13-2.33-.41-3.31-.84-1.05-.46-1.96-1.07-2.71-1.83-.78-.74-1.38-1.6-1.85-2.57-.48-.94-.8-1.98-.97-3.13-.17-1.12-.2-2.26-.1-3.46h0ZM101.85,327.11c.03-.41.18-.79.38-1.09.23-.3.5-.56.85-.74.33-.2.68-.33,1.08-.43.4-.07.78-.1,1.15-.05.3,0,.58.08.83.2.28.13.5.28.73.48.2.18.38.38.48.64.13.23.18.48.15.74-.03.53-.15.99-.38,1.35-.23.38-.48.64-.75.81-.28.18-.53.23-.75.23-.25-.03-.38-.15-.45-.41-.05-.15-.2-.25-.4-.33-.23-.08-.45-.13-.7-.13-.25-.03-.48,0-.7.05s-.4.1-.53.2c.03-.43.15-.69.38-.84.23-.13.48-.18.78-.2.3-.03.58,0,.83.03.28.03.48,0,.58-.08.15-.1.2-.2.18-.36,0-.15-.07-.31-.18-.46-.13-.13-.28-.25-.45-.36-.18-.1-.38-.18-.58-.2-.18-.03-.35.02-.53.15-.18.15-.35.28-.55.41-.18.15-.4.28-.63.36-.23.1-.5.1-.8.03h0ZM114.05,322.57c.23.05.48.13.75.2.25.1.53.18.8.26.28.1.55.18.83.23.28.08.55.1.83.1-.1-.15-.2-.28-.25-.41-.07-.1-.07-.25.03-.48.35-.05.68,0,.98.18.28.18.58.41.83.64.28.25.58.48.85.69.3.23.63.33.98.36-.1.13-.33.26-.68.31-.33.07-.73.13-1.2.12-.48-.02-.98-.05-1.5-.15-.55-.08-1.03-.2-1.48-.38-.45-.18-.85-.41-1.18-.69-.33-.28-.53-.58-.58-.97h0ZM103.22,335.86c.25.1.5.21.78.26.25.05.5.08.75.05.23-.03.45-.08.63-.2.18-.13.3-.33.35-.61.05-.15.03-.3-.02-.41-.08-.13-.15-.23-.25-.31-.1-.08-.23-.15-.38-.2-.15-.03-.28-.05-.43-.05-.02-.25.05-.46.25-.61.18-.15.4-.25.7-.3-.1-.18-.15-.36-.12-.56.05-.2.13-.38.25-.53.13-.15.28-.25.45-.33.2-.05.38-.05.58.05.58.33.98.69,1.23,1.07.23.38.35.87.32,1.42-.03.36-.13.69-.35,1.02-.23.3-.48.61-.83.84-.33.25-.7.46-1.13.58-.4.13-.83.18-1.28.13-.38-.05-.73-.2-1-.46-.28-.25-.43-.53-.5-.84h0ZM115.39,331.83c.15-.23.25-.48.35-.76.1-.28.2-.56.28-.86.08-.28.15-.58.25-.84.1-.28.2-.51.33-.71.18-.25.4-.46.63-.58.25-.15.53-.25.78-.3.28-.08.55-.13.83-.18.28-.02.53-.08.78-.15-.05.56-.2,1.12-.48,1.63-.28.53-.63.99-1.03,1.42-.4.41-.85.74-1.33.99-.48.23-.93.35-1.38.35h0ZM96.6,319.68c0,.1.02.15.12.18.13,0,.18-.05.18-.15.03-.1-.02-.15-.13-.18-.1,0-.15.02-.18.15h0ZM88.48,328.54c0,.1.05.15.15.18.1,0,.15-.03.18-.13,0-.13-.05-.18-.15-.18-.1-.03-.15.02-.18.13h0Z"/>
  </g>
</svg>