<svg width="1021" height="166" viewBox="0 0 1021 166" fill="none" xmlns="http://www.w3.org/2000/svg">
<g clip-path="url(#clip0_149_118)">
<path d="M1017.91 55.8209L2.153 55.5545C0.973084 55.5542 0.0289628 56.2651 0.0287349 57.1344C0.0285069 58.0036 0.972255 58.7151 2.15217 58.7154L1017.88 58.9818C1019.06 58.9821 1020 58.2712 1020 57.4019C1020 56.5327 1019.06 55.8212 1017.88 55.8209L1017.91 55.8209Z" fill="#D2B897"/>
<path d="M1017.91 50.0535L2.15452 49.7871C1.76121 49.787 1.4465 50.0238 1.44643 50.3134C1.44635 50.6029 1.76093 50.8399 2.15424 50.84L1017.88 51.1064C1018.27 51.1065 1018.59 50.8697 1018.59 50.5802C1018.59 50.2906 1018.27 50.0536 1017.88 50.0535L1017.91 50.0535Z" fill="#D2B897"/>
<path d="M516.837 42.1506C518.463 42.151 519.774 41.5719 520.875 40.4658C521.977 39.3598 522.502 37.9375 522.502 36.3834C522.503 34.8293 521.978 33.5648 520.877 32.4582C519.777 31.3516 518.439 30.7454 516.84 30.745C515.241 30.7445 513.903 31.3237 512.802 32.4561C511.7 33.5621 511.097 34.9053 511.096 36.3804C511.096 37.9345 511.672 39.3308 512.799 40.4637C513.9 41.5703 515.238 42.1502 516.837 42.1506ZM521.246 28.6125C521.246 27.4271 521.456 26.1628 521.902 24.6879C522.27 23.2919 522.925 21.8696 523.817 20.5528C524.709 19.236 525.889 17.972 527.358 16.708C528.827 15.444 530.61 14.4172 532.813 13.6012C532 12.1259 530.899 11.0983 529.562 10.6501C528.304 10.123 526.993 10.2807 525.655 11.0179C525.131 11.2285 524.685 11.5971 524.318 12.1238C524.029 12.5716 523.741 13.0193 523.426 13.5197C523.137 13.9674 522.901 14.2571 522.613 14.5468C522.403 14.8365 522.088 14.9154 521.669 14.8363C521.302 14.7571 521.092 14.3883 521.013 13.7298C520.935 13.1502 520.935 12.4127 520.935 11.5698C520.936 10.7269 520.936 9.80494 520.857 8.8303C520.858 7.88203 520.648 7.0654 520.334 6.24875C519.81 4.98424 519.233 3.74606 518.578 2.48152C517.923 1.21698 516.953 0.400155 515.694 0.110074C514.593 0.847333 513.78 1.87442 513.124 3.13862C512.389 4.40279 512.179 5.71979 512.31 7.19492C512.388 7.93249 512.598 8.67009 512.965 9.32871C513.332 10.0664 513.699 10.804 514.066 11.5416C514.354 12.2793 514.642 13.0169 514.799 13.7018C515.009 14.4394 514.956 15.1769 514.641 15.9144C513.541 14.2019 512.125 12.9636 510.604 12.2783C509.058 11.6194 507.589 11.3819 506.173 11.6186C504.705 11.8289 503.525 12.5135 502.502 13.4615C501.532 14.4885 501.033 15.7528 501.111 17.3859C503.183 16.4909 504.94 16.1226 506.644 16.3601C508.27 16.5713 509.659 17.2565 510.76 18.2841C511.94 19.3117 512.831 20.7343 513.329 22.4203C513.905 24.1326 514.14 26.1082 513.983 28.2682C515.163 27.0041 516.107 25.4502 516.789 23.7646C517.445 22.0526 517.892 20.2879 518.18 18.4441C518.391 16.6003 518.47 14.7564 518.339 12.7545C518.182 10.8315 517.895 8.98757 517.449 7.27529C518.996 9.64638 519.729 12.7548 519.571 16.5215C519.412 20.2883 518.467 24.0021 516.841 27.6104C517.496 27.4525 518.309 27.5317 519.279 27.7691C520.171 28.059 520.826 28.2963 521.193 28.5861L521.246 28.6125ZM554.385 41.9497C555.643 41.792 556.378 41.2127 556.509 40.2381C556.719 39.2636 556.431 38.3152 555.776 37.4985C556.431 37.2089 557.165 37.1301 557.899 37.2883C558.634 37.4465 559.368 37.6575 560.18 37.8157C560.915 38.053 561.649 38.1058 562.383 38.1851C563.117 38.2643 563.851 38.0274 564.507 37.5271C565.608 36.6318 566.5 35.5257 567.077 34.1298C567.733 32.7339 567.812 31.5486 567.367 30.4948C565.295 30.4943 563.014 30.2829 560.602 29.8345C558.111 29.3861 555.594 28.8586 553.025 28.2784C550.455 27.7509 547.86 27.2497 545.29 26.8013C542.642 26.4318 540.072 26.1941 537.555 26.2724C535.064 26.2718 532.626 26.7189 530.344 27.4559C528.063 28.1928 525.991 29.5357 523.998 31.379C527.014 29.8257 530.187 28.7992 533.491 28.3523C536.794 27.9054 539.888 27.8271 542.773 28.1967C545.709 28.4872 548.148 29.2254 550.219 30.2796C552.29 31.3074 553.601 32.4931 554.125 33.8366C552.499 32.5192 550.297 31.3859 547.413 30.5949C544.477 29.7776 541.592 29.4081 538.656 29.4863C536.007 29.4856 533.49 30.0118 531.287 30.9595C529.085 31.9335 527.092 33.0393 525.466 34.2769C525.623 34.6457 525.675 35.0935 525.754 35.6731C525.753 36.1999 525.753 36.6477 525.596 36.9901C527.432 35.8842 529.215 34.9101 530.815 34.0939C532.44 33.2778 534.486 32.9886 536.846 33.0682C539.73 33.148 542.142 33.4384 544.135 33.9657C546.049 34.493 547.674 35.152 548.932 35.9689C550.191 36.7858 551.213 37.7607 552.026 38.7092C552.838 39.7367 553.651 40.7905 554.306 41.9761L554.385 41.9497ZM563.956 39.1338C565.293 39.4239 566.604 39.3715 567.863 38.9241C569.2 38.5556 570.223 37.8974 571.167 37.081C572.111 36.2647 572.872 35.3167 573.449 34.2632C574.026 33.157 574.341 32.0507 574.341 30.9444C574.421 28.5738 573.739 26.6507 572.35 25.0962C570.961 23.5417 569.335 22.6457 567.421 22.5135C568.313 21.9869 569.257 21.8554 570.148 22.1454C571.04 22.4354 571.852 23.0415 572.718 23.7793C573.53 24.517 574.185 25.4128 574.788 26.5193C575.443 27.6257 575.81 28.6531 576.046 29.8386C577.148 28.0477 577.384 26.4409 576.624 24.8076C575.969 23.1743 574.868 21.9096 573.374 20.9609C572.64 20.5129 571.748 20.1439 570.726 19.9856C569.703 19.7746 568.733 19.7744 567.842 19.9058C566.95 20.0637 566.216 20.3532 565.56 20.8008C564.983 21.2485 564.537 21.8279 564.38 22.5654C564.301 23.4609 564.537 24.1986 564.903 24.9362C565.349 25.5948 565.795 26.3325 566.293 27.0702C566.817 27.8079 567.315 28.6246 567.839 29.3623C568.285 30.179 568.494 31.0483 568.494 32.0229C568.572 33.2082 568.205 34.5252 567.234 35.8683C566.264 37.2641 565.162 38.3175 563.93 39.1074L563.956 39.1338ZM516.471 39.6481C515.946 39.648 515.736 39.4109 515.737 38.9104C515.737 38.2519 515.947 37.9358 516.471 37.936C516.995 37.9361 517.362 38.2259 517.362 38.9108C517.362 39.4376 517.074 39.6483 516.471 39.6481Z" fill="#D2B897"/>
<path d="M314.704 40.3863C316.33 40.3867 317.641 39.7812 318.743 38.6751C319.844 37.5691 320.369 36.1468 320.37 34.619C320.37 33.0912 319.846 31.8003 318.745 30.6936C317.644 29.587 316.307 28.9808 314.707 28.9804C313.108 28.98 311.77 29.5855 310.669 30.6915C309.567 31.7976 308.964 33.1409 308.963 34.616C308.963 36.0911 309.54 37.5664 310.667 38.673C311.768 39.7796 313.105 40.3859 314.704 40.3863ZM314.338 37.8837C313.813 37.8836 313.604 37.6728 313.604 37.146C313.604 36.4874 313.814 36.1714 314.338 36.1715C314.863 36.1717 315.23 36.4615 315.23 37.1464C315.229 37.6732 314.941 37.8839 314.338 37.8837Z" fill="#D2B897"/>
<path d="M717.712 39.2535C716.086 39.253 714.697 38.7258 713.596 37.5402C712.574 36.4336 711.971 35.09 711.971 33.5358C711.972 31.9817 712.549 30.7175 713.598 29.6114C714.7 28.4263 716.089 27.8998 717.715 27.9003C719.341 27.9007 720.599 28.4279 721.7 29.6135C722.88 30.7202 723.404 32.0637 723.404 33.5388C723.403 35.093 722.878 36.4363 721.698 37.5423C720.597 38.7274 719.259 39.2539 717.712 39.2535ZM718.001 36.8038C718.526 36.8039 718.814 36.5142 718.814 35.9874C718.814 35.4079 718.526 35.0917 718.002 35.0916C717.425 35.0914 717.11 35.3811 717.11 35.987C717.11 36.5138 717.398 36.8036 718.001 36.8038Z" fill="#D2B897"/>
<path d="M479.499 41.9298C478.162 41.7714 477.427 41.2708 477.297 40.2171C477.087 39.2424 477.376 38.3733 478.032 37.5569C477.376 37.2669 476.642 37.1877 475.908 37.3192C475.174 37.4507 474.439 37.6086 473.705 37.8455C472.892 38.0033 472.158 38.1348 471.424 38.2136C470.69 38.2925 470.034 38.0552 469.3 37.5546C468.199 36.6587 467.308 35.4731 466.731 34.1559C466.076 32.7597 465.998 31.5743 466.444 30.4681C468.515 30.4686 470.797 30.2585 473.288 29.8114C475.726 29.3642 478.217 28.838 480.813 28.3382C483.383 27.7594 485.979 27.3123 488.549 26.8652C491.197 26.4971 493.767 26.287 496.284 26.3404C498.853 26.3411 501.213 26.7104 503.494 27.4486C505.775 28.2658 507.925 29.5307 509.838 31.4541C506.824 29.8202 503.73 28.8711 500.426 28.4224C497.122 27.9737 493.95 27.8939 491.066 28.2092C488.129 28.5772 485.69 29.2351 483.618 30.2882C481.547 31.394 480.314 32.579 479.789 33.9223C481.337 32.5793 483.539 31.4735 486.503 30.6577C489.387 29.8419 492.324 29.4739 495.182 29.5537C497.83 29.5544 500.347 30.0028 502.549 30.9517C504.83 32.0059 506.744 33.0864 508.369 34.3512C508.212 34.7199 508.159 35.1677 508.081 35.6945C508.08 36.2213 508.159 36.6692 508.29 37.0116C506.376 35.9048 504.672 34.9297 502.994 34.1918C501.369 33.3748 499.376 33.0055 496.964 33.0838C494.08 33.1621 491.667 33.4512 489.753 33.9775C487.76 34.5565 486.213 35.241 484.902 36.0572C483.643 36.8735 482.62 37.7688 481.807 38.7959C480.994 39.823 480.259 40.8764 479.604 41.9826L479.499 41.9298ZM469.85 39.1088C468.513 39.3982 467.202 39.3979 465.944 38.9498C464.685 38.5016 463.584 37.9218 462.64 37.105C461.67 36.2882 460.936 35.3397 460.36 34.2069C459.783 33.1795 459.469 32.0731 459.469 30.8877C459.391 28.596 460.047 26.6733 461.463 25.1196C462.854 23.4868 464.558 22.6707 466.394 22.5394C465.502 22.0124 464.637 21.8804 463.745 22.17C462.801 22.4595 461.988 22.9861 461.175 23.7234C460.284 24.4607 459.628 25.4088 459.051 26.5413C458.474 27.5685 458.028 28.6747 457.791 29.8073C456.691 28.0948 456.455 26.488 457.216 24.855C457.872 23.2221 458.973 21.958 460.521 20.9311C461.255 20.4835 462.147 20.194 463.09 20.0362C464.113 19.8257 465.083 19.826 465.975 19.9579C466.866 20.1162 467.6 20.4061 468.256 20.8541C468.911 21.3021 469.278 21.908 469.435 22.6456C469.514 23.4622 469.356 24.2787 468.91 24.9371C468.543 25.6746 468.018 26.412 467.52 27.1494C466.995 27.8868 466.497 28.6242 466.051 29.4407C465.526 30.2571 465.316 31.1527 465.316 32.1009C465.237 33.2863 465.682 34.5244 466.574 35.947C467.543 37.3434 468.644 38.3973 469.877 39.1352L469.85 39.1088Z" fill="#D2B897"/>
<path fill-rule="evenodd" clip-rule="evenodd" d="M575.231 36.8457L717.714 34.8021L717.714 33.6168L576.832 31.2882C577.645 32.8425 576.543 34.9758 575.205 36.8457L575.231 36.8457Z" fill="#D2B897"/>
<path fill-rule="evenodd" clip-rule="evenodd" d="M457.108 36.8147L314.679 34.6964L314.68 33.5111L455.484 31.2563C454.67 32.8102 455.771 34.9441 457.108 36.8147Z" fill="#D2B897"/>
<path d="M795.298 42.2248C796.924 42.2253 798.235 41.6461 799.336 40.5401C800.438 39.434 800.963 38.0118 800.963 36.4576C800.963 34.9035 800.439 33.639 799.338 32.5324C798.237 31.4258 796.9 30.8196 795.301 30.8192C793.701 30.8188 792.364 31.3979 791.263 32.5303C790.161 33.6363 789.558 34.9795 789.557 36.4546C789.557 38.0088 790.133 39.405 791.26 40.5379C792.361 41.6446 793.698 42.2244 795.298 42.2248ZM799.707 28.6867C799.707 27.5014 799.917 26.2371 800.363 24.7621C800.731 23.3661 801.386 21.9439 802.278 20.627C803.17 19.3102 804.35 18.0462 805.819 16.7822C807.288 15.5182 809.071 14.4914 811.274 13.6754C810.461 12.2001 809.36 11.1725 808.023 10.7243C806.765 10.1972 805.454 10.3549 804.116 11.0921C803.592 11.3027 803.146 11.6713 802.779 12.1981C802.49 12.6458 802.202 13.0935 801.887 13.5939C801.598 14.0416 801.362 14.3313 801.074 14.621C800.864 14.9107 800.549 14.9896 800.13 14.9105C799.763 14.8314 799.553 14.4625 799.475 13.804C799.396 13.2245 799.396 12.4869 799.396 11.644C799.397 10.8011 799.397 9.87916 799.318 8.90452C799.319 7.95624 799.109 7.13962 798.795 6.32297C798.271 5.05846 797.694 3.82028 797.039 2.55574C796.384 1.2912 795.414 0.474373 794.155 0.184292C793.054 0.921551 792.241 1.94864 791.585 3.21284C790.85 4.47701 790.64 5.79401 790.771 7.26914C790.849 8.00671 791.059 8.7443 791.426 9.40293C791.793 10.1406 792.16 10.8782 792.527 11.6159C792.815 12.3535 793.103 13.0911 793.26 13.776C793.47 14.5136 793.417 15.2511 793.102 15.9886C792.002 14.2762 790.586 13.0378 789.065 12.3525C787.519 11.6936 786.05 11.4561 784.634 11.6928C783.166 11.9032 781.986 12.5877 780.963 13.5357C779.992 14.5628 779.494 15.827 779.572 17.4602C781.644 16.5651 783.401 16.1968 785.105 16.4343C786.731 16.6455 788.12 17.3307 789.221 18.3583C790.401 19.3859 791.292 20.8085 791.79 22.4945C792.366 24.2068 792.601 26.1825 792.444 28.3424C793.624 27.0783 794.568 25.5244 795.25 23.8388C795.906 22.1268 796.353 20.3621 796.641 18.5183C796.852 16.6745 796.931 14.8306 796.8 12.8287C796.643 10.9057 796.355 9.06179 795.91 7.34951C797.457 9.7206 798.19 12.829 798.032 16.5958C797.873 20.3625 796.928 24.0763 795.302 27.6846C795.957 27.5267 796.77 27.606 797.74 27.8433C798.632 28.1333 799.287 28.3705 799.654 28.6604L799.707 28.6867ZM832.846 42.0239C834.104 41.8662 834.839 41.2869 834.97 40.3123C835.18 39.3378 834.892 38.3894 834.236 37.5727C834.892 37.2831 835.626 37.2043 836.36 37.3625C837.095 37.5207 837.829 37.7317 838.641 37.8899C839.376 38.1272 840.11 38.1801 840.844 38.2593C841.578 38.3385 842.312 38.1016 842.968 37.6013C844.069 36.706 844.961 35.5999 845.538 34.204C846.194 32.8081 846.273 31.6228 845.828 30.569C843.756 30.5685 841.475 30.3572 839.063 29.9087C836.572 29.4603 834.055 28.9328 831.486 28.3526C828.916 27.8251 826.321 27.324 823.751 26.8755C821.103 26.506 818.533 26.2683 816.016 26.3466C813.525 26.346 811.087 26.7931 808.805 27.5301C806.524 28.267 804.452 29.6099 802.459 31.4532C805.475 29.8999 808.648 28.8734 811.952 28.4265C815.255 27.9796 818.349 27.9014 821.234 28.2709C824.17 28.5614 826.609 29.2996 828.68 30.3538C830.751 31.3816 832.061 32.5673 832.586 33.9109C830.96 32.5934 828.758 31.4601 825.874 30.6691C822.937 29.8518 820.053 29.4823 817.117 29.5605C814.468 29.5598 811.951 30.086 809.748 31.0337C807.546 32.0077 805.553 33.1135 803.927 34.3511C804.084 34.7199 804.136 35.1678 804.215 35.7473C804.215 36.2741 804.214 36.7219 804.057 37.0643C805.893 35.9584 807.676 34.9843 809.276 34.1681C810.901 33.352 812.947 33.0628 815.307 33.1424C818.191 33.2222 820.603 33.5126 822.596 34.0399C824.509 34.5673 826.135 35.2262 827.393 36.0431C828.652 36.86 829.674 37.8349 830.487 38.7834C831.299 39.8109 832.112 40.8648 832.767 42.0503L832.846 42.0239ZM842.417 39.208C843.754 39.4981 845.065 39.4457 846.324 38.9983C847.661 38.6299 848.684 37.9716 849.628 37.1553C850.572 36.3389 851.333 35.3909 851.91 34.3374C852.487 33.2312 852.802 32.125 852.802 31.0186C852.882 28.648 852.2 26.7249 850.811 25.1704C849.422 23.6159 847.796 22.7199 845.882 22.5877C846.774 22.0611 847.718 21.9297 848.609 22.2197C849.501 22.5096 850.313 23.1157 851.178 23.8535C851.991 24.5912 852.646 25.487 853.249 26.5935C853.904 27.7 854.271 28.7274 854.507 29.9128C855.609 28.1219 855.845 26.5151 855.085 24.8818C854.43 23.2485 853.329 21.9838 851.835 21.0351C851.101 20.5872 850.209 20.2182 849.187 20.0598C848.164 19.8488 847.194 19.8486 846.302 19.9801C845.411 20.1379 844.677 20.4274 844.021 20.8751C843.444 21.3227 842.998 21.9021 842.841 22.6396C842.762 23.5352 842.998 24.2728 843.364 25.0104C843.81 25.6691 844.256 26.4067 844.754 27.1444C845.278 27.8821 845.776 28.6988 846.3 29.4365C846.746 30.2532 846.955 31.1225 846.955 32.0971C847.033 33.2825 846.666 34.5994 845.695 35.9425C844.725 37.3384 843.623 38.3917 842.391 39.1816L842.417 39.208ZM794.932 39.7223C794.407 39.7222 794.197 39.4851 794.198 38.9846C794.198 38.3261 794.408 38.01 794.932 38.0102C795.456 38.0103 795.823 38.3002 795.823 38.985C795.823 39.5118 795.535 39.7225 794.932 39.7223Z" fill="#D2B897"/>
<path d="M757.96 42.0041C756.622 41.8457 755.888 41.345 755.758 40.2913C755.548 39.3167 755.837 38.4475 756.492 37.6311C755.837 37.3411 755.103 37.2619 754.369 37.3934C753.634 37.525 752.9 37.6828 752.166 37.9197C751.353 38.0775 750.619 38.209 749.885 38.2879C749.151 38.3667 748.495 38.1295 747.761 37.6288C746.66 36.7329 745.769 35.5473 745.192 34.2301C744.537 32.8339 744.459 31.6485 744.905 30.5423C746.976 30.5429 749.258 30.3327 751.749 29.8856C754.187 29.4384 756.678 28.9122 759.274 28.4125C761.844 27.8336 764.44 27.3865 767.01 26.9394C769.658 26.5713 772.228 26.3613 774.745 26.4146C777.314 26.4153 779.674 26.7847 781.955 27.5228C784.236 28.34 786.386 29.6049 788.299 31.5283C785.285 29.8944 782.191 28.9453 778.887 28.4966C775.583 28.048 772.411 27.9681 769.526 28.2834C766.59 28.6514 764.151 29.3093 762.079 30.3624C760.008 31.4682 758.775 32.6532 758.25 33.9965C759.798 32.6535 762 31.5477 764.963 30.732C767.848 29.9161 770.785 29.5481 773.643 29.6279C776.291 29.6286 778.808 30.0771 781.01 31.0259C783.291 32.0802 785.205 33.1606 786.83 34.4254C786.673 34.7942 786.62 35.2419 786.542 35.7687C786.541 36.2956 786.62 36.7434 786.751 37.0858C784.837 35.979 783.133 35.004 781.455 34.266C779.83 33.449 777.837 33.0797 775.425 33.1581C772.541 33.2363 770.128 33.5254 768.214 34.0518C766.221 34.6307 764.674 35.3152 763.363 36.1314C762.104 36.9477 761.081 37.843 760.268 38.8701C759.455 39.8972 758.72 40.9506 758.065 42.0568L757.96 42.0041ZM748.311 39.183C746.974 39.4724 745.663 39.4721 744.405 39.024C743.146 38.5758 742.045 37.9961 741.101 37.1792C740.131 36.3624 739.397 35.4139 738.821 34.2811C738.244 33.2537 737.93 32.1473 737.93 30.9619C737.852 28.6702 738.508 26.7475 739.924 25.1938C741.315 23.561 743.019 22.7449 744.855 22.6136C743.963 22.0866 743.098 21.9547 742.206 22.2442C741.262 22.5337 740.449 23.0603 739.636 23.7976C738.745 24.5349 738.089 25.483 737.512 26.6156C736.935 27.6427 736.489 28.7489 736.252 29.8815C735.152 28.1691 734.916 26.5622 735.677 24.9293C736.333 23.2963 737.434 22.0322 738.982 21.0053C739.716 20.5577 740.607 20.2682 741.551 20.1104C742.574 19.8999 743.544 19.9002 744.436 20.0321C745.327 20.1904 746.061 20.4803 746.717 20.9283C747.372 21.3763 747.739 21.9822 747.896 22.7198C747.975 23.5364 747.817 24.3529 747.371 25.0113C747.004 25.7488 746.479 26.4862 745.981 27.2236C745.456 27.961 744.958 28.6985 744.512 29.5149C743.987 30.3313 743.777 31.2269 743.777 32.1752C743.698 33.3605 744.143 34.5986 745.035 36.0213C746.004 37.4176 747.105 38.4715 748.338 39.2094L748.311 39.183Z" fill="#D2B897"/>
<path d="M233.264 42.0764C234.89 42.0768 236.201 41.4976 237.302 40.3916C238.404 39.2856 238.929 37.8633 238.929 36.3092C238.929 34.7551 238.405 33.4906 237.304 32.384C236.203 31.2773 234.866 30.6712 233.267 30.6707C231.667 30.6703 230.33 31.2495 229.229 32.3818C228.127 33.4879 227.524 34.8311 227.523 36.3062C227.523 37.8603 228.099 39.2565 229.226 40.3895C230.327 41.4961 231.664 42.076 233.264 42.0764ZM237.699 28.5383C237.699 27.3529 237.909 26.0886 238.355 24.6136C238.723 23.2177 239.379 21.7954 240.27 20.4786C241.162 19.1618 242.343 17.8977 243.811 16.6338C245.28 15.3698 247.063 14.3429 249.266 13.5269C248.453 12.0516 247.352 11.024 246.015 10.5759C244.757 10.0487 243.446 10.2065 242.108 10.9436C241.584 11.1542 241.138 11.5229 240.771 12.0496C240.482 12.4973 240.194 12.9451 239.879 13.4455C239.59 13.8932 239.354 14.1829 239.066 14.4725C238.856 14.7622 238.541 14.8412 238.122 14.762C237.755 14.6829 237.545 14.3141 237.467 13.6556C237.388 13.076 237.388 12.3385 237.389 11.4956C237.389 10.6527 237.389 9.73072 237.311 8.75608C237.311 7.80781 237.101 6.99118 236.787 6.17453C236.263 4.91002 235.686 3.67184 235.031 2.4073C234.376 1.14277 233.406 0.325936 232.147 0.0358548C231.046 0.773114 230.233 1.8002 229.577 3.0644C228.843 4.32857 228.632 5.64557 228.763 7.1207C228.842 7.85827 229.051 8.59587 229.418 9.25449C229.785 9.99213 230.152 10.7298 230.519 11.4674C230.807 12.205 231.095 12.9427 231.252 13.6276C231.462 14.3652 231.409 15.1027 231.095 15.8402C229.994 14.1277 228.578 12.8893 227.058 12.2041C225.511 11.5451 224.042 11.3077 222.626 11.5444C221.158 11.7547 219.978 12.4393 218.955 13.3873C217.985 14.4143 217.486 15.6786 217.564 17.3117C219.636 16.4167 221.393 16.0484 223.097 16.2859C224.723 16.497 226.112 17.1823 227.213 18.2099C228.393 19.2375 229.284 20.6601 229.782 22.3461C230.358 24.0584 230.594 26.034 230.436 28.1939C231.616 26.9299 232.56 25.376 233.243 23.6904C233.898 21.9784 234.345 20.2136 234.634 18.3698C234.844 16.526 234.923 14.6822 234.792 12.6802C234.636 10.7573 234.348 8.91335 233.902 7.20107C235.449 9.57216 236.182 12.6806 236.024 16.4473C235.865 20.214 234.921 23.9279 233.294 27.5362C233.949 27.3783 234.762 27.4575 235.732 27.6948C236.624 27.9848 237.279 28.2221 237.646 28.5119L237.699 28.5383ZM270.812 41.8755C272.07 41.7178 272.805 41.1385 272.936 40.1639C273.146 39.1893 272.858 38.241 272.202 37.4242C272.858 37.1347 273.592 37.0558 274.326 37.2141C275.06 37.3723 275.795 37.5832 276.607 37.7415C277.341 37.9787 278.076 38.0316 278.81 38.1108C279.544 38.1901 280.278 37.9532 280.934 37.4529C282.035 36.5576 282.927 35.4515 283.504 34.0556C284.16 32.6597 284.239 31.4743 283.794 30.4206C281.722 30.42 279.441 30.2087 277.029 29.7603C274.538 29.3118 272.021 28.7843 269.452 28.2042C266.882 27.6767 264.287 27.1755 261.717 26.727C259.069 26.3576 256.499 26.1198 253.982 26.1982C251.491 26.1975 249.053 26.6447 246.771 27.3816C244.49 28.1186 242.418 29.4615 240.425 31.3048C243.441 29.7515 246.614 28.725 249.917 28.2781C253.221 27.8311 256.315 27.7529 259.2 28.1225C262.136 28.413 264.574 29.1512 266.646 30.2053C268.717 31.2332 270.027 32.4189 270.552 33.7624C268.926 32.4449 266.724 31.3117 263.84 30.5207C260.903 29.7034 258.019 29.3338 255.083 29.4121C252.434 29.4114 249.917 29.9376 247.714 30.8853C245.512 31.8593 243.518 32.9651 241.892 34.2027C242.05 34.5715 242.102 35.0193 242.181 35.5988C242.18 36.1257 242.18 36.5734 242.023 36.9158C243.859 35.81 245.642 34.8359 247.241 34.0197C248.867 33.2036 250.913 32.9143 253.272 32.994C256.157 33.0738 258.569 33.3642 260.561 33.8915C262.475 34.4188 264.101 35.0778 265.359 35.8947C266.618 36.7116 267.64 37.6865 268.453 38.6349C269.265 39.6625 270.078 40.7163 270.733 41.9018L270.812 41.8755ZM280.409 39.0595C281.746 39.3496 283.057 39.2973 284.316 38.8498C285.653 38.4814 286.676 37.8232 287.62 37.0068C288.564 36.1905 289.325 35.2424 289.902 34.1889C290.479 33.0828 290.794 31.9765 290.794 30.8702C290.874 28.4995 290.192 26.5765 288.803 25.022C287.414 23.4675 285.788 22.5715 283.874 22.4393C284.766 21.9127 285.71 21.7812 286.601 22.0712C287.493 22.3612 288.306 22.9673 289.171 23.705C289.983 24.4428 290.639 25.3386 291.241 26.445C291.897 27.5515 292.263 28.5789 292.499 29.7643C293.601 27.9734 293.837 26.3667 293.077 24.7334C292.422 23.1 291.321 21.8354 289.827 20.8867C289.093 20.4387 288.201 20.0697 287.179 19.9114C286.156 19.7004 285.186 19.7002 284.295 19.8316C283.403 19.9894 282.669 20.279 282.013 20.7266C281.436 21.1743 280.99 21.7536 280.833 22.4912C280.754 23.3867 280.99 24.1243 281.357 24.862C281.802 25.5206 282.248 26.2583 282.746 26.996C283.27 27.7337 283.768 28.5504 284.292 29.288C284.738 30.1047 284.947 30.974 284.947 31.9487C285.025 33.134 284.658 34.451 283.687 35.7941C282.717 37.1899 281.615 38.2433 280.383 39.0332L280.409 39.0595ZM232.897 39.5739C232.373 39.5738 232.163 39.3366 232.163 38.8362C232.164 38.1776 232.374 37.8616 232.898 37.8617C233.422 37.8619 233.789 38.1517 233.789 38.8366C233.789 39.3634 233.501 39.5741 232.897 39.5739Z" fill="#D2B897"/>
<path d="M195.925 41.8556C194.588 41.6972 193.854 41.1966 193.723 40.1429C193.514 39.1682 193.803 38.299 194.458 37.4826C193.803 37.1927 193.069 37.1135 192.334 37.245C191.6 37.3765 190.866 37.5344 190.132 37.7713C189.319 37.9291 188.585 38.0606 187.851 38.1394C187.116 38.2183 186.461 37.981 185.727 37.4803C184.626 36.5845 183.735 35.3989 183.158 34.0817C182.503 32.6854 182.425 31.5001 182.871 30.3939C184.942 30.3944 187.223 30.1843 189.714 29.7371C192.153 29.29 194.644 28.7638 197.24 28.264C199.81 27.6852 202.406 27.2381 204.975 26.7909C207.624 26.4229 210.193 26.2128 212.711 26.2662C215.28 26.2668 217.64 26.6362 219.921 27.3744C222.202 28.1915 224.352 29.4565 226.265 31.3799C223.25 29.7459 220.157 28.7968 216.853 28.3482C213.549 27.8995 210.377 27.8197 207.492 28.135C204.555 28.503 202.117 29.1609 200.045 30.214C197.973 31.3198 196.741 32.5048 196.216 33.848C197.763 32.505 199.966 31.3993 202.929 30.5835C205.814 29.7677 208.751 29.3997 211.609 29.4795C214.257 29.4802 216.774 29.9286 218.976 30.8775C221.257 31.9317 223.171 33.0122 224.796 34.277C224.639 34.6457 224.586 35.0935 224.507 35.6203C224.507 36.1471 224.586 36.5949 224.717 36.9374C222.803 35.8306 221.099 34.8555 219.421 34.1175C217.796 33.3005 215.803 32.9312 213.391 33.0096C210.506 33.0879 208.094 33.377 206.18 33.9033C204.187 34.4823 202.64 35.1668 201.328 35.983C200.07 36.7992 199.047 37.6946 198.234 38.7217C197.421 39.7487 196.686 40.8022 196.03 41.9083L195.925 41.8556ZM186.277 39.0346C184.94 39.324 183.629 39.3237 182.37 38.8755C181.112 38.4274 180.011 37.8476 179.067 37.0308C178.097 36.214 177.363 35.2655 176.787 34.1327C176.21 33.1052 175.896 31.9988 175.896 30.8135C175.818 28.5218 176.474 26.5991 177.89 25.0453C179.28 23.4126 180.985 22.5964 182.82 22.4652C181.929 21.9382 181.064 21.8062 180.172 22.0957C179.228 22.3852 178.415 22.9119 177.602 23.6492C176.71 24.3865 176.055 25.3346 175.478 26.4671C174.9 27.4943 174.454 28.6005 174.218 29.7331C173.117 28.0206 172.882 26.4138 173.643 24.7808C174.299 23.1478 175.4 21.8838 176.947 20.8569C177.682 20.4093 178.573 20.1197 179.517 19.9619C180.54 19.7515 181.51 19.7517 182.402 19.8837C183.293 20.042 184.027 20.3319 184.682 20.7799C185.338 21.2278 185.705 21.8338 185.862 22.5714C185.94 23.388 185.783 24.2045 185.337 24.8629C184.97 25.6004 184.445 26.3378 183.947 27.0752C183.422 27.8126 182.924 28.55 182.478 29.3665C181.953 30.1829 181.743 31.0784 181.743 32.0267C181.664 33.212 182.109 34.4502 183 35.8728C183.97 37.2692 185.071 38.3231 186.303 39.0609L186.277 39.0346Z" fill="#D2B897"/>
<path d="M255.356 81.8824C255.907 81.2503 256.379 80.8553 256.851 80.7764C257.323 80.6185 257.795 80.6186 258.267 80.7768C258.817 80.856 259.289 80.9351 259.761 81.0933C260.312 81.2515 260.784 81.3306 261.255 81.3308C261.413 80.5406 261.02 79.8293 260.233 79.2759C259.447 78.7225 258.975 78.0112 258.739 77.1419C258.504 76.3516 258.583 75.4033 259.055 74.4552C259.448 73.507 259.685 72.6378 259.921 71.8476C260.786 72.164 261.73 72.5593 262.91 72.9548C264.011 73.4292 264.797 74.1406 265.19 75.247C265.505 75.7212 265.662 76.3535 265.662 76.9857C265.661 77.6178 265.661 78.25 265.74 78.8032C265.818 79.3564 265.976 79.9096 266.211 80.3048C266.447 80.6999 266.919 80.9371 267.706 81.0164C267.785 80.2261 267.864 79.2779 267.864 78.3296C267.864 77.3813 267.943 76.4331 268.179 75.6429C268.415 74.8527 268.809 74.2997 269.517 73.9048C270.225 73.5098 271.326 73.5101 272.899 73.8266C271.562 74.8536 270.932 75.8807 270.932 77.1451C271.01 78.3304 271.167 79.5949 271.403 80.7803C271.639 82.0447 271.56 83.23 271.323 84.3363C271.087 85.4425 269.986 86.3905 267.94 87.2592C266.367 87.812 264.951 87.9697 263.85 87.5743C262.67 87.1788 261.647 86.5464 260.782 85.8349C259.839 85.0445 258.974 84.254 258.187 83.4636C257.322 82.6731 256.378 82.1197 255.356 81.8824ZM269.64 104.171C268.303 103.775 267.044 103.222 266.101 102.431C265.078 101.641 264.371 100.771 263.82 99.7438C263.349 98.7164 263.113 97.61 263.113 96.4246C263.113 95.2393 263.35 94.133 263.822 93.1059C264.766 93.2642 265.552 93.4224 266.339 93.5016C267.047 93.5808 267.912 93.5811 268.856 93.5813C269.17 95.3199 269.799 96.9005 270.9 98.4023C271.922 99.8249 273.181 101.011 274.596 101.88C274.045 102.828 273.337 103.46 272.393 103.855C271.449 104.25 270.584 104.329 269.64 104.171ZM263.377 90.2609C265.501 90.2615 267.468 89.7878 269.356 88.761C271.244 87.8133 272.66 86.0751 273.762 83.7047C274.155 84.8112 273.919 85.9964 273.21 87.1026C272.502 88.2877 271.558 89.2358 270.378 90.0257C269.198 90.7366 267.939 91.2104 266.602 91.3681C265.343 91.5258 264.242 91.1304 263.377 90.2609ZM276.327 100.458C275.069 99.3516 273.889 98.0869 272.71 96.6642C271.609 95.1625 270.901 93.5819 270.587 91.7642C271.61 90.8953 272.476 90.0262 273.341 89.1572C274.207 88.2882 274.915 87.3401 275.387 86.3919C275.859 86.9452 276.488 87.4985 277.196 88.0519C277.904 88.5262 278.611 89.0796 279.319 89.6329C279.948 90.2653 280.499 90.8186 280.971 91.4509C281.442 92.0042 281.678 92.7154 281.757 93.5057C281.756 94.2169 281.678 95.0071 281.441 95.8763C281.205 96.6664 280.812 97.3776 280.34 98.0886C279.867 98.7207 279.317 99.2737 278.609 99.6686C277.979 100.143 277.192 100.458 276.327 100.458ZM287.972 89.3191C286.792 88.7656 286.006 87.9752 285.691 86.9478C285.377 85.9204 285.456 84.8931 285.85 83.945C286.243 82.9178 286.873 82.2067 287.895 81.6538C288.839 81.1009 289.941 81.1012 291.199 81.6547C292.379 82.2082 293.165 82.9986 293.401 84.105C293.715 85.1324 293.636 86.1597 293.243 87.1078C292.849 88.135 292.22 88.8461 291.276 89.399C290.332 89.8729 289.23 89.8726 287.972 89.3191ZM257.941 123.818C259.514 121.211 261.01 119.472 262.347 118.604C263.763 117.735 265.1 117.182 266.438 116.945C267.775 116.787 269.112 116.709 270.528 116.788C271.865 116.789 273.281 116.473 274.698 115.841C273.99 115.367 273.125 114.576 272.102 113.47C271.001 112.363 270.372 111.257 270.294 110.15C271.395 111.336 272.889 112.205 274.777 112.917C276.743 113.629 278.71 114.262 280.755 114.894C282.8 115.448 284.687 116.002 286.418 116.555C288.148 117.109 289.407 117.741 290.193 118.532C289.092 117.425 287.912 116.319 286.575 115.291C285.239 114.184 283.98 113.157 282.722 112.129C281.542 111.022 280.363 109.995 279.262 108.967C278.239 107.861 277.296 106.833 276.667 105.727C276.745 105.41 276.982 105.015 277.218 104.62C277.454 104.225 277.611 103.909 277.768 103.672C279.184 105.174 280.835 106.676 282.644 108.257C284.453 109.917 286.341 111.419 288.385 112.921C290.351 114.344 292.475 115.767 294.52 117.111C296.643 118.455 298.688 119.561 300.812 120.589C300.419 118.693 299.476 116.796 298.139 114.899C296.802 113.002 295.308 111.026 293.814 108.971C292.241 106.837 290.826 104.624 289.489 102.253C288.153 99.8819 287.288 97.1949 286.974 94.35C287.21 93.7178 287.525 93.0067 287.84 92.2166C288.155 91.4264 288.548 91.1104 288.942 91.1896C288.705 94.4294 289.333 97.5115 290.827 100.594C292.321 103.597 293.972 106.442 295.781 109.051C297.668 111.738 299.319 114.109 300.734 116.164C302.228 118.298 302.778 120.037 302.463 121.38C303.879 121.933 305.374 122.487 307.025 123.041C308.677 123.673 310.329 124.227 311.902 124.78C313.554 125.334 315.048 125.729 316.621 125.967C318.116 126.204 319.453 126.284 320.554 126.126C318.273 124.94 316.307 123.754 314.577 122.489C312.768 121.225 311.195 119.881 309.701 118.379C308.836 117.588 308.05 116.64 307.263 115.691C306.477 114.664 305.691 113.715 304.826 112.846C303.882 111.897 302.859 111.028 301.758 110.316C300.657 109.605 299.399 109.051 297.904 108.735C300.029 107.471 301.995 107.077 303.726 107.393C305.535 107.789 306.951 108.342 308.052 108.975C308.76 107.711 309.075 106.683 308.918 105.893C308.761 105.182 308.289 104.55 307.581 104.075C306.873 103.522 306.008 103.127 304.985 102.81C303.963 102.494 302.862 102.177 301.839 101.703C300.738 101.308 299.794 100.754 298.929 100.201C298.064 99.5684 297.435 98.699 297.121 97.6716C297.986 97.3557 298.93 97.1189 300.11 97.0402C301.29 96.8824 302.47 96.8828 303.728 97.0411C304.908 97.1205 306.01 97.3578 307.032 97.5952C308.055 97.9115 308.92 98.2278 309.549 98.7021C309.943 96.5686 309.471 94.1978 308.056 91.7477C306.72 89.2186 304.832 86.9265 302.552 84.7132C304.204 85.0298 305.855 85.5834 307.664 86.5321C309.473 87.4809 310.967 88.5876 312.304 89.9313C313.641 91.2751 314.663 92.6977 315.371 94.2784C316 95.78 316.078 97.3605 315.448 98.8617C316.392 98.6249 317.494 98.1511 318.831 97.5192C320.09 96.8084 321.113 96.0974 321.742 95.3074C322.293 96.4138 322.292 97.4411 321.82 98.3893C321.348 99.3374 320.718 100.207 319.932 100.918C319.145 101.708 318.437 102.34 317.729 102.972C317.099 103.525 316.863 103.999 317.02 104.473C317.177 104.71 317.492 104.789 318.2 104.631C318.829 104.552 319.537 104.473 320.324 104.395C321.111 104.316 321.897 104.395 322.684 104.553C323.47 104.791 324.1 105.344 324.414 106.134C323.863 106.687 323.234 107.082 322.526 107.398C321.818 107.635 321.11 107.951 320.48 108.267C319.772 108.583 319.143 108.978 318.592 109.452C318.041 110.005 317.648 110.637 317.333 111.427C316.861 113.007 316.782 114.588 317.096 116.168C317.331 117.828 317.96 119.329 318.825 120.752C319.769 122.096 320.948 123.36 322.443 124.388C323.858 125.495 325.589 126.206 327.476 126.602C324.645 125.574 322.443 124.072 320.949 121.938C319.455 119.804 318.59 117.749 318.433 115.773C318.198 113.798 318.67 112.217 319.772 111.111C320.873 109.926 322.682 110.006 325.042 111.113C323.704 112.377 322.76 113.641 322.366 114.984C321.894 116.328 321.894 117.592 322.365 118.777C322.837 119.963 323.623 120.99 324.803 121.86C325.983 122.729 327.399 123.204 329.129 123.362C331.489 123.521 334.085 123.206 337.153 122.416C340.142 121.548 343.289 120.442 346.672 118.942C349.976 117.52 353.437 115.783 356.978 113.65C360.597 111.596 364.058 109.464 367.441 107.173C368.228 107.489 369.093 107.647 369.958 107.727C370.745 107.806 371.768 107.727 372.869 107.49C371.295 108.991 369.171 110.571 366.417 112.309C363.742 114.047 360.674 115.785 357.291 117.522C353.908 119.181 350.368 120.839 346.592 122.419C342.816 123.998 339.119 125.341 335.5 126.446C331.802 127.551 328.341 128.42 325.037 129.051C321.733 129.603 318.901 129.84 316.463 129.602C315.204 129.523 313.946 129.838 312.687 130.628C311.35 131.339 310.563 132.445 310.405 133.947C310.169 135.29 310.247 136.633 310.64 137.898C311.033 139.162 310.954 140.427 310.56 141.612C310.167 142.718 309.458 143.587 308.436 144.377C307.492 145.088 306.39 145.562 305.368 145.799C305.446 144.93 305.289 144.139 304.975 143.507C304.66 142.875 304.346 142.321 304.031 141.689C303.638 141.136 303.402 140.425 303.245 139.634C303.088 138.923 303.167 137.975 303.561 136.948C304.033 135.525 304.741 134.419 305.528 133.55C306.394 132.76 307.259 132.128 308.203 131.575C309.068 131.022 310.091 130.47 311.035 129.996C311.979 129.522 312.923 128.89 313.632 128.1C311.036 127.704 308.519 127.071 306.238 126.28C303.957 125.489 301.833 124.62 299.946 123.671C299.159 125.804 297.978 127.305 296.641 128.174C295.225 129.043 293.887 129.833 292.628 130.465C291.291 131.176 290.347 131.887 289.639 132.677C288.931 133.546 288.852 134.889 289.48 136.865C287.907 136.39 286.806 135.442 286.099 134.098C285.312 132.676 285.234 131.332 285.864 129.91C285.234 130.068 284.29 130.305 283.032 130.62C281.773 131.015 280.514 131.252 279.177 131.41C277.761 131.567 276.503 131.567 275.323 131.409C274.143 131.171 273.199 130.697 272.649 129.907C272.334 129.353 272.334 128.8 272.492 128.168C272.649 127.615 272.964 127.062 273.279 126.509C273.594 125.877 273.908 125.403 274.302 125.008C274.617 124.533 274.695 124.217 274.695 124.059C274.46 123.585 273.909 123.506 273.044 123.743C272.178 123.98 271.077 124.296 269.661 124.611C268.245 124.927 266.514 125.085 264.626 125.163C262.66 125.163 260.458 124.688 257.941 123.818ZM347.792 146.284C347.792 144.783 347.242 143.36 346.141 142.095C345.04 140.752 343.939 139.487 342.838 138.222C341.816 136.958 341.03 135.614 340.558 134.271C340.165 132.848 340.559 131.347 341.975 129.688C341.896 130.794 342.132 131.742 342.604 132.691C343.154 133.56 343.783 134.43 344.491 135.378C345.277 136.247 345.985 137.196 346.614 138.144C347.322 139.172 347.715 140.278 347.872 141.543C348.108 140.673 348.108 139.804 347.794 138.777C347.558 137.749 347.244 136.722 347.008 135.774C347.952 135.774 349.053 136.09 350.39 136.723C351.727 137.276 352.75 138.146 353.457 139.252C353.379 138.146 352.829 137.277 351.964 136.565C351.02 135.854 350.076 135.3 348.975 134.747C347.874 134.194 346.851 133.64 345.908 133.087C344.964 132.533 344.335 131.901 344.099 131.111C343.627 129.688 344.021 128.266 345.201 126.844C345.909 127.792 346.459 128.741 346.931 129.689C347.403 130.716 348.111 131.507 349.29 132.139C349.133 131.428 348.976 130.717 348.74 130.006C348.426 129.215 348.269 128.504 348.111 127.793C347.954 127.081 347.876 126.37 347.955 125.659C348.034 124.948 348.27 124.316 348.663 123.684C349.371 122.657 350.394 121.946 351.81 121.63C353.305 121.235 354.799 120.998 356.451 120.762C355.271 121.789 354.563 122.816 354.169 123.843C353.855 124.87 353.854 125.898 354.09 126.846C354.404 127.794 354.876 128.664 355.584 129.533C356.292 130.403 357.078 131.272 357.943 132.221C356.37 132.141 354.875 131.588 353.302 130.56C351.808 129.532 350.707 128.347 350 127.003C349.685 127.714 349.685 128.504 350.078 129.295C350.392 130.085 350.943 130.875 351.572 131.745C352.201 132.614 352.83 133.484 353.537 134.353C354.245 135.222 354.717 136.171 355.031 137.04C355.974 139.727 355.738 142.335 354.243 144.705C353.535 143.757 352.906 142.729 352.356 141.465C351.805 140.279 351.019 139.331 349.918 138.619C349.603 139.172 349.446 139.805 349.367 140.516C349.288 141.227 349.209 141.938 349.13 142.649C349.051 143.36 348.894 144.072 348.736 144.704C348.5 145.336 348.185 145.889 347.792 146.284ZM273.332 121.846C274.591 122.4 276.164 122.874 278.13 123.191C280.018 123.587 281.985 123.824 284.03 123.825C286.075 123.825 288.042 123.589 289.851 123.194C291.739 122.799 293.155 122.089 294.099 120.983C290.717 121.219 287.177 121.455 283.322 121.691C279.468 121.927 276.164 122.005 273.332 121.846ZM278.683 117.66C279.469 117.581 280.334 117.66 281.357 117.818C282.38 117.898 283.323 118.056 284.346 118.293C285.369 118.452 286.391 118.689 287.414 118.847C288.436 119.006 289.301 119.006 290.088 119.006C289.302 118.532 288.358 118.215 287.335 117.82C286.234 117.503 285.133 117.266 284.11 117.108C283.009 116.949 282.065 116.949 281.043 117.028C280.099 117.107 279.312 117.344 278.683 117.66ZM278.051 127.932C280.096 128.249 282.377 128.25 284.894 127.934C287.411 127.619 289.771 127.145 291.817 126.593C293.941 126.04 295.593 125.329 296.851 124.618C298.11 123.828 298.504 123.117 297.953 122.485C295.908 123.828 293.626 124.697 291.345 125.249C288.985 125.802 286.861 126.196 284.894 126.433C283.007 126.669 281.355 126.906 280.096 126.985C278.759 127.063 278.129 127.379 278.051 127.932ZM289.231 86.0005C289.625 86.3166 289.939 86.3958 290.254 86.0797C290.569 85.7637 290.569 85.3686 290.254 84.9734C289.94 84.6572 289.546 84.6571 289.232 84.9732C288.917 85.2892 288.917 85.6053 289.231 86.0005ZM321.367 124.783C319.323 123.597 317.907 122.174 316.964 120.514C316.099 118.776 315.47 117.037 315.156 115.14C314.842 113.244 314.685 111.347 314.685 109.372C314.765 107.396 314.686 105.578 314.608 103.919C314.53 102.18 314.216 100.6 313.823 99.2564C313.351 97.9129 312.486 96.8064 311.149 96.0158C312.092 98.1496 312.643 100.125 312.878 102.101C313.114 103.998 313.192 105.894 313.113 107.712C313.033 109.529 313.033 111.189 313.033 112.848C313.032 114.508 313.268 116.009 313.661 117.432C314.132 118.854 314.918 120.198 316.098 121.462C317.278 122.727 319.008 123.834 321.367 124.783Z" fill="#D2B897"/>
<path d="M777.536 82.0187C776.513 82.2555 775.569 82.8084 774.704 83.5984C773.917 84.3884 773.051 85.1784 772.107 85.9684C771.242 86.6794 770.219 87.3113 769.039 87.7061C767.937 88.1009 766.522 87.9425 764.949 87.3889C762.904 86.5191 761.803 85.5706 761.567 84.4642C761.331 83.3578 761.253 82.1724 761.489 80.9081C761.725 79.7228 761.883 78.4585 761.962 77.2732C761.962 76.0088 761.333 74.9814 759.996 73.9537C761.57 73.638 762.671 73.6383 763.379 74.0336C764.087 74.4289 764.48 74.9822 764.716 75.7725C764.951 76.5628 765.03 77.5111 765.03 78.4593C765.029 79.4076 765.108 80.3559 765.186 81.1462C765.973 81.0674 766.445 80.8304 766.681 80.4354C766.917 80.0403 767.074 79.4872 767.153 78.934C767.232 78.3809 767.232 77.7487 767.232 77.1165C767.233 76.4844 767.39 75.8522 767.705 75.3782C768.098 74.2719 768.885 73.5609 769.987 73.0871C771.167 72.6923 772.111 72.2974 772.976 71.9815C773.212 72.7718 773.448 73.6412 773.841 74.5895C774.312 75.5379 774.391 76.4862 774.155 77.2764C773.918 78.1456 773.446 78.8567 772.659 79.4096C771.873 79.9626 771.479 80.6737 771.636 81.464C772.108 81.4641 772.58 81.3852 773.131 81.2273C773.603 81.0694 774.075 80.9905 774.626 80.9116C775.098 80.7537 775.57 80.7538 776.041 80.9119C776.513 80.9911 776.985 81.3863 777.536 82.0187ZM763.214 104.299C762.27 104.457 761.404 104.378 760.46 103.983C759.517 103.587 758.809 102.955 758.258 102.006C759.675 101.138 760.934 99.9525 761.956 98.5304C763.058 97.0292 763.688 95.4489 764.003 93.7105C764.947 93.7108 765.812 93.711 766.52 93.6322C767.307 93.5533 768.093 93.3955 769.037 93.2377C769.509 94.2651 769.745 95.3715 769.744 96.5569C769.744 97.7422 769.508 98.8485 769.036 99.8756C768.485 100.903 767.777 101.772 766.754 102.562C765.81 103.352 764.551 103.905 763.214 104.299ZM769.51 90.393C768.645 91.262 767.543 91.6568 766.285 91.4985C764.947 91.3401 763.689 90.8656 762.509 90.1541C761.33 89.3636 760.386 88.415 759.678 87.2295C758.971 86.123 758.735 84.9376 759.129 83.8314C760.229 86.2023 761.645 87.9412 763.532 88.89C765.42 89.9178 767.386 90.3924 769.51 90.393ZM756.528 100.584C755.663 100.583 754.876 100.267 754.247 99.7927C753.539 99.3974 752.989 98.8441 752.517 98.2118C752.045 97.5005 751.652 96.7892 751.417 95.9989C751.181 95.1296 751.102 94.3393 751.103 93.6281C751.181 92.8379 751.418 92.1268 751.89 91.5737C752.362 90.9417 752.913 90.3886 753.542 89.7566C754.25 89.2036 754.958 88.6507 755.666 88.1767C756.374 87.6237 757.004 87.0707 757.476 86.5177C757.948 87.4661 758.655 88.4146 759.52 89.2841C760.385 90.1535 761.25 91.023 762.273 91.8925C761.958 93.71 761.249 95.2903 760.148 96.7914C758.967 98.2135 757.787 99.4776 756.528 100.584ZM744.916 89.4383C743.657 89.9911 742.556 89.9908 741.612 89.5164C740.668 88.963 740.039 88.2516 739.646 87.2242C739.253 86.2759 739.174 85.2485 739.489 84.2213C739.726 83.1151 740.512 82.325 741.692 81.7722C742.951 81.2194 744.052 81.2197 744.996 81.7731C746.019 82.3265 746.648 83.0379 747.041 84.0653C747.434 85.0136 747.512 86.041 747.197 87.0682C746.882 88.0954 746.096 88.8854 744.916 89.4383ZM774.929 123.953C772.412 124.821 770.209 125.295 768.242 125.294C766.354 125.215 764.624 125.056 763.208 124.74C761.792 124.424 760.691 124.107 759.826 123.87C758.961 123.633 758.41 123.711 758.174 124.186C758.174 124.344 758.253 124.66 758.567 125.134C758.96 125.529 759.275 126.003 759.589 126.636C759.904 127.189 760.218 127.742 760.375 128.295C760.533 128.928 760.532 129.481 760.218 130.034C759.667 130.824 758.723 131.298 757.543 131.534C756.363 131.692 755.104 131.692 753.688 131.533C752.351 131.375 751.093 131.138 749.834 130.742C748.576 130.426 747.632 130.189 747.003 130.03C747.632 131.453 747.552 132.796 746.765 134.218C746.057 135.562 744.956 136.51 743.382 136.983C744.012 135.008 743.934 133.665 743.226 132.795C742.518 132.005 741.575 131.293 740.238 130.582C738.979 129.949 737.642 129.159 736.226 128.289C734.889 127.419 733.71 125.918 732.924 123.784C731.036 124.732 728.912 125.6 726.63 126.39C724.349 127.18 721.832 127.811 719.236 128.205C719.943 128.996 720.887 129.628 721.831 130.103C722.775 130.577 723.797 131.131 724.662 131.684C725.606 132.237 726.471 132.87 727.336 133.66C728.123 134.53 728.83 135.636 729.302 137.059C729.695 138.086 729.773 139.034 729.616 139.746C729.458 140.536 729.222 141.247 728.829 141.8C728.514 142.432 728.199 142.985 727.884 143.617C727.57 144.249 727.412 145.04 727.49 145.909C726.468 145.671 725.367 145.197 724.423 144.486C723.401 143.695 722.693 142.826 722.3 141.719C721.907 140.534 721.829 139.269 722.222 138.005C722.616 136.741 722.695 135.397 722.459 134.054C722.302 132.553 721.516 131.446 720.179 130.734C718.921 129.944 717.662 129.627 716.403 129.706C713.965 129.943 711.133 129.705 707.83 129.151C704.526 128.518 701.065 127.648 697.368 126.54C693.75 125.433 690.053 124.089 686.278 122.507C682.503 120.926 678.963 119.265 675.581 117.605C672.199 115.866 669.132 114.126 666.458 112.387C663.705 110.648 661.582 109.067 660.009 107.565C661.11 107.802 662.133 107.882 662.92 107.803C663.785 107.724 664.65 107.566 665.437 107.25C668.819 109.543 672.279 111.677 675.897 113.733C679.436 115.867 682.897 117.607 686.2 119.03C689.582 120.532 692.729 121.64 695.717 122.51C698.785 123.301 701.381 123.617 703.741 123.46C705.471 123.302 706.887 122.829 708.067 121.96C709.248 121.091 710.034 120.064 710.507 118.878C710.979 117.693 710.979 116.429 710.508 115.085C710.115 113.742 709.171 112.477 707.834 111.213C710.194 110.107 712.004 110.028 713.105 111.214C714.205 112.321 714.677 113.901 714.441 115.877C714.283 117.852 713.417 119.907 711.922 122.04C710.427 124.173 708.224 125.674 705.392 126.7C707.28 126.306 709.01 125.595 710.427 124.489C711.921 123.462 713.102 122.198 714.046 120.855C714.912 119.433 715.541 117.932 715.778 116.272C716.093 114.692 716.015 113.111 715.543 111.531C715.229 110.74 714.835 110.108 714.285 109.555C713.734 109.08 713.105 108.685 712.397 108.369C711.768 108.053 711.06 107.736 710.352 107.499C709.645 107.183 709.015 106.788 708.465 106.234C708.78 105.444 709.409 104.891 710.196 104.654C710.982 104.496 711.769 104.418 712.556 104.497C713.342 104.576 714.05 104.655 714.679 104.734C715.387 104.893 715.702 104.814 715.859 104.577C716.017 104.103 715.781 103.628 715.152 103.075C714.444 102.443 713.736 101.81 712.95 101.02C712.163 100.309 711.534 99.4391 711.063 98.4907C710.591 97.5423 710.591 96.515 711.142 95.4088C711.771 96.1992 712.794 96.9107 714.052 97.6222C715.389 98.2548 716.49 98.7292 717.434 98.9665C716.805 97.4649 716.884 95.8845 717.514 94.3832C718.222 92.8029 719.245 91.3808 720.583 90.0377C721.92 88.6947 723.415 87.5888 725.225 86.641C727.034 85.6932 728.686 85.1404 730.338 84.8248C728.057 87.0368 726.168 89.328 724.83 91.8564C723.414 94.3057 722.941 96.6763 723.334 98.81C723.963 98.336 724.829 98.0202 725.851 97.7043C726.874 97.4675 727.975 97.2308 729.155 97.152C730.414 96.9943 731.594 96.9946 732.774 97.153C733.953 97.2323 734.897 97.4696 735.763 97.786C735.448 98.8132 734.818 99.6823 733.953 100.314C733.087 100.867 732.143 101.42 731.042 101.815C730.019 102.289 728.918 102.605 727.895 102.92C726.872 103.236 726.007 103.631 725.299 104.184C724.591 104.658 724.119 105.29 723.961 106.001C723.804 106.791 724.118 107.819 724.826 109.083C725.927 108.451 727.343 107.899 729.152 107.504C730.883 107.188 732.849 107.584 734.973 108.849C733.478 109.165 732.22 109.718 731.118 110.428C730.017 111.139 728.994 112.008 728.05 112.956C727.184 113.825 726.397 114.773 725.61 115.801C724.824 116.749 724.037 117.697 723.171 118.487C721.676 119.988 720.103 121.331 718.293 122.595C716.562 123.859 714.595 125.043 712.314 126.228C713.415 126.386 714.752 126.308 716.247 126.071C717.82 125.834 719.315 125.44 720.967 124.887C722.54 124.334 724.192 123.781 725.845 123.15C727.497 122.597 728.991 122.044 730.407 121.491C730.093 120.148 730.644 118.41 732.139 116.276C733.556 114.222 735.208 111.852 737.097 109.166C738.907 106.558 740.559 103.714 742.055 100.711C743.55 97.63 744.18 94.5482 743.945 91.3082C744.338 91.2293 744.732 91.5455 745.046 92.3358C745.36 93.1261 745.675 93.8374 745.911 94.4697C745.595 97.3144 744.729 100.001 743.391 102.371C742.054 104.742 740.637 106.954 739.063 109.087C737.568 111.141 736.073 113.117 734.735 115.013C733.398 116.909 732.453 118.805 732.059 120.702C734.184 119.675 736.229 118.569 738.353 117.226C740.399 115.883 742.523 114.462 744.49 113.04C746.535 111.539 748.424 110.038 750.233 108.379C752.043 106.799 753.695 105.298 755.112 103.797C755.269 104.034 755.426 104.35 755.662 104.745C755.898 105.14 756.134 105.536 756.212 105.852C755.583 106.958 754.639 107.985 753.616 109.091C752.514 110.118 751.334 111.145 750.154 112.251C748.895 113.278 747.636 114.305 746.298 115.411C744.961 116.438 743.781 117.544 742.679 118.65C743.466 117.86 744.725 117.228 746.455 116.675C748.186 116.123 750.074 115.57 752.119 115.017C754.165 114.386 756.132 113.754 758.098 113.043C759.986 112.333 761.481 111.464 762.583 110.279C762.504 111.385 761.874 112.491 760.773 113.597C759.75 114.703 758.884 115.493 758.176 115.967C759.592 116.6 761.008 116.916 762.345 116.917C763.761 116.838 765.098 116.917 766.435 117.076C767.772 117.313 769.11 117.867 770.525 118.736C771.862 119.606 773.356 121.345 774.929 123.953ZM685.066 146.372C684.672 145.977 684.358 145.423 684.122 144.791C683.965 144.159 683.808 143.448 683.729 142.736C683.651 142.025 683.573 141.314 683.494 140.603C683.416 139.891 683.258 139.259 682.944 138.706C681.842 139.417 681.056 140.365 680.505 141.55C679.954 142.814 679.324 143.842 678.616 144.79C677.122 142.419 676.887 139.811 677.831 137.124C678.146 136.255 678.618 135.307 679.327 134.438C680.035 133.569 680.664 132.7 681.294 131.831C681.923 130.962 682.474 130.171 682.789 129.381C683.182 128.591 683.183 127.801 682.868 127.09C682.16 128.433 681.058 129.618 679.564 130.645C677.99 131.672 676.495 132.224 674.922 132.303C675.788 131.355 676.574 130.486 677.283 129.617C677.991 128.748 678.463 127.879 678.778 126.931C679.014 125.982 679.014 124.955 678.7 123.928C678.307 122.9 677.599 121.873 676.42 120.845C678.071 121.083 679.566 121.32 681.06 121.716C682.476 122.032 683.499 122.744 684.206 123.771C684.6 124.403 684.835 125.036 684.914 125.747C684.992 126.458 684.913 127.169 684.756 127.88C684.598 128.592 684.441 129.303 684.126 130.093C683.89 130.804 683.732 131.515 683.575 132.226C684.755 131.594 685.463 130.804 685.935 129.777C686.408 128.829 686.958 127.881 687.667 126.933C688.846 128.356 689.239 129.778 688.767 131.2C688.531 131.991 687.901 132.623 686.957 133.175C686.013 133.728 684.99 134.281 683.889 134.834C682.787 135.387 681.843 135.94 680.899 136.651C680.034 137.362 679.483 138.231 679.404 139.337C680.112 138.231 681.135 137.362 682.472 136.809C683.81 136.178 684.911 135.862 685.855 135.862C685.619 136.81 685.304 137.837 685.068 138.865C684.753 139.892 684.753 140.761 684.988 141.63C685.146 140.366 685.54 139.26 686.248 138.233C686.877 137.285 687.585 136.337 688.372 135.468C689.081 134.519 689.71 133.65 690.261 132.781C690.733 131.833 690.969 130.885 690.891 129.779C692.306 131.438 692.699 132.94 692.306 134.362C691.833 135.705 691.046 137.049 690.023 138.313C688.922 139.577 687.82 140.841 686.719 142.184C685.617 143.448 685.066 144.87 685.066 146.372ZM759.512 121.973C756.68 122.131 753.376 122.051 749.522 121.813C745.668 121.574 742.128 121.336 738.745 121.099C739.689 122.205 741.105 122.917 742.993 123.312C744.802 123.708 746.768 123.945 748.813 123.946C750.859 123.947 752.825 123.71 754.713 123.315C756.68 123 758.253 122.526 759.512 121.973ZM754.19 117.784C753.561 117.467 752.774 117.23 751.831 117.151C750.808 117.072 749.864 117.071 748.763 117.229C747.74 117.387 746.639 117.624 745.537 117.939C744.515 118.334 743.571 118.65 742.784 119.124C743.571 119.124 744.436 119.124 745.458 118.967C746.481 118.809 747.504 118.572 748.526 118.414C749.549 118.178 750.493 118.02 751.516 117.941C752.538 117.783 753.404 117.704 754.19 117.784ZM754.791 128.057C754.712 127.504 754.083 127.187 752.746 127.108C751.487 127.029 749.835 126.791 747.947 126.554C745.981 126.316 743.857 125.92 741.498 125.366C739.217 124.813 736.936 123.943 734.891 122.599C734.34 123.231 734.733 123.942 735.991 124.733C737.25 125.444 738.901 126.156 741.025 126.71C743.07 127.263 745.43 127.738 747.947 128.055C750.464 128.372 752.745 128.372 754.791 128.057ZM743.658 86.119C743.973 85.7239 743.973 85.4078 743.658 85.0917C743.344 84.7755 742.95 84.7754 742.636 85.0914C742.321 85.4864 742.321 85.8816 742.635 86.1977C742.95 86.5139 743.264 86.435 743.658 86.119ZM711.502 124.884C713.862 123.937 715.592 122.831 716.773 121.567C717.953 120.303 718.74 118.96 719.212 117.537C719.606 116.115 719.842 114.614 719.843 112.954C719.843 111.295 719.844 109.635 719.765 107.818C719.687 106 719.766 104.104 720.003 102.207C720.239 100.232 720.791 98.2562 721.735 96.1228C720.398 96.9127 719.532 98.0188 719.06 99.362C718.666 100.705 718.351 102.286 718.272 104.024C718.193 105.684 718.114 107.501 718.192 109.477C718.191 111.452 718.033 113.349 717.718 115.245C717.403 117.142 716.773 118.88 715.908 120.618C714.963 122.278 713.547 123.7 711.502 124.884Z" fill="#D2B897"/>
<path d="M40.3505 76.9265C40.3501 78.2436 40.7956 79.113 41.6608 79.561C41.2143 82.6164 41.6067 85.7511 42.812 88.9387C44.0173 92.1263 46.7962 93.9182 51.1487 94.3671C53.5609 94.8155 55.4489 94.2629 56.9438 92.7355C58.3601 91.2081 59.0685 89.5488 59.069 87.8103C58.8596 86.4932 58.2568 85.4657 57.2606 84.6752C56.2907 83.9111 55.1895 83.621 54.0882 83.8578C52.7771 83.8575 52.0166 84.3051 51.8066 85.1743C51.8064 86.0435 52.1209 86.7021 52.7763 87.1501C53.222 87.361 53.6414 87.5454 54.0872 87.6509C54.5329 87.7564 54.7426 88.0462 54.7425 88.4677C54.9519 89.5741 54.6895 90.2852 53.9291 90.6011C53.1686 90.917 52.3557 91.2065 51.4641 91.417C49.7074 91.4165 48.4227 90.7577 47.5316 89.4404C46.6667 88.1231 46.1164 86.7006 45.907 85.1727C45.6981 81.8801 46.9575 78.8775 49.6851 76.1388C52.4128 73.4 56.0578 71.8205 60.699 71.3739L60.6985 73.0071C58.7319 73.4544 57.7614 74.7711 57.7608 76.9574C57.7605 78.0638 58.206 78.9858 59.0711 79.7499C59.9362 80.5141 60.9325 80.9094 62.0075 80.9097C63.0825 80.91 64.079 80.5151 64.9445 79.7515C65.81 78.9878 66.2559 78.066 66.2562 76.9597C66.2567 74.9841 65.287 73.5614 63.3207 72.6917L63.3209 71.7171C68.3289 72.1662 72.3663 74.3008 75.4331 78.1211C78.4736 81.9677 79.7835 86.4987 79.3626 91.7668C79.3624 92.2146 79.1526 92.4252 78.7069 92.4251C78.0514 92.4249 77.5008 92.2141 77.0814 91.7662C76.4261 90.8967 75.7709 89.8429 75.1157 88.6311C74.4605 87.4192 73.3593 87.0501 71.8384 87.4712C70.9731 87.6817 70.3699 88.1293 70.0289 88.7878C69.6878 89.4462 69.5303 90.1047 69.5302 90.7632C69.5299 91.6325 69.5822 92.4754 69.6868 93.2393C69.7915 94.0032 69.7389 94.5037 69.5291 94.7144C69.3193 94.925 68.7162 95.162 67.7197 95.3724C66.7495 95.6356 65.6482 95.925 64.442 96.2408C63.2357 96.5829 62.1606 97.1095 61.164 97.8731C60.1936 98.6367 59.5903 99.7956 59.3539 101.323C59.1439 102.192 59.3534 103.009 60.0087 103.8C60.664 104.564 61.5292 105.064 62.6304 105.275C64.1511 105.723 64.9116 105.171 64.912 103.643C65.122 102.536 64.9124 102.01 64.2569 102.009C63.6014 102.009 63.2868 101.798 63.2869 101.351C63.2872 100.244 64.3886 99.7178 66.5649 99.7184C68.7412 99.7189 70.498 99.5087 71.8092 99.0612C73.7759 98.4032 75.5068 96.9813 77.0544 94.7427C77.2643 94.2949 77.6576 94.137 78.2082 94.2425C78.7588 94.348 79.021 94.5061 79.0209 94.7432C79.2304 95.6652 79.0728 96.8242 78.5218 98.2464C77.9708 99.6687 77.2626 100.722 76.3971 101.38C75.2956 102.486 73.8793 103.856 72.1483 105.489C70.3911 107.121 69.2108 108.833 68.5548 110.571C67.453 112.757 67.5838 113.969 68.8947 114.18C69.3404 114.391 69.8124 114.286 70.3632 113.864C70.9139 113.417 71.6219 113.101 72.4873 112.89C72.0413 113.76 71.674 114.471 71.333 115.024C71.0182 115.577 70.8345 116.288 70.8343 117.157C70.6242 118.264 70.8337 119.133 71.4891 119.844C72.1444 120.503 73.3506 120.398 75.0814 119.45C75.2906 121.268 75.8933 122.743 76.8894 123.955C77.8592 125.167 79.1177 125.641 80.7172 125.431C80.2194 123.903 79.9052 122.349 79.6696 120.821C79.4602 119.24 79.3558 117.581 79.3562 115.842C79.3574 111.47 79.6731 107.229 80.4084 103.173C81.0649 99.1163 81.3807 94.9545 81.3818 90.7927C81.5931 84.866 79.8638 79.9925 76.2464 76.1721C72.6552 72.3253 68.0148 70.2432 62.325 70.031C59.0474 70.0301 55.6125 70.2926 52.125 70.8449C48.6376 71.4498 45.5695 72.4763 42.9471 74.0297C41.1901 74.8985 40.3245 75.8992 40.3242 76.9792L40.3505 76.9265ZM87.2552 90.7415C87.2541 94.9034 87.5676 99.0654 88.2221 103.122C88.8765 107.179 89.1901 111.393 89.1889 115.792C89.1884 117.557 89.0831 119.19 88.8467 120.771C88.6366 122.298 88.2953 123.852 87.8754 125.38C89.3961 125.591 90.6548 125.117 91.6515 123.906C92.622 122.695 93.2254 121.22 93.4619 119.402C95.2184 120.325 96.3983 120.457 97.054 119.798C97.7097 119.087 97.9197 118.218 97.7102 117.112C97.7104 116.242 97.5533 115.531 97.2126 114.978C96.8981 114.425 96.5049 113.713 96.0594 112.844C96.9246 113.055 97.6325 113.398 98.183 113.819C98.7335 114.267 99.2317 114.373 99.6513 114.136C100.962 113.688 101.068 112.503 99.9669 110.527C99.3118 108.762 98.1061 107.076 96.376 105.442C94.6197 103.809 93.2041 102.438 92.1294 101.332C91.2643 100.673 90.5566 99.6456 90.0064 98.1967C89.4561 96.7742 89.2991 95.6151 89.5091 94.6933C89.5091 94.4825 89.7714 94.2982 90.322 94.193C90.8727 94.0878 91.2398 94.2459 91.4756 94.6938C92.9958 96.9332 94.7522 98.356 96.7186 99.0151C98.0295 99.4632 99.76 99.6744 101.962 99.675C104.165 99.6756 105.292 100.229 105.292 101.309C105.292 101.757 104.977 101.967 104.243 101.967C103.588 101.967 103.378 102.52 103.587 103.6C103.587 105.128 104.347 105.681 105.92 105.234C107.022 105.024 107.887 104.523 108.543 103.76C109.198 102.996 109.408 102.179 109.199 101.284C108.99 99.7558 108.334 98.5967 107.233 97.8325C106.132 97.0683 105.057 96.5149 103.904 96.1985C102.803 95.8821 101.78 95.5921 100.784 95.3284C99.8136 95.1174 99.2106 94.8802 98.9747 94.6694C98.7387 94.4586 98.7126 93.9581 98.8177 93.1943C98.9228 92.4304 98.9755 91.6139 98.9757 90.7183C98.9759 90.0597 98.8712 89.4012 98.6616 88.7426C98.452 88.084 97.7966 87.6361 96.6954 87.425C95.1747 86.9768 94.0734 87.3717 93.4175 88.5832C92.7617 89.7947 92.1059 90.8218 91.4502 91.7172C91.0043 92.1649 90.5847 92.3755 90.139 92.3754C89.4835 92.3753 89.1689 92.1644 89.169 91.7166C88.7246 86.4483 90.0368 81.918 93.1056 78.073C96.1482 74.2281 100.187 72.0955 105.274 71.6754L105.614 72.6501C103.385 73.308 102.284 74.7301 102.283 76.9164C102.493 78.0228 102.991 78.9449 103.751 79.709C104.563 80.4731 105.507 80.8684 106.582 80.8687C107.657 80.869 108.654 80.4742 109.519 79.7105C110.385 78.9468 110.831 78.025 110.831 76.9187C110.832 74.7324 109.862 73.4151 107.895 72.9668L107.896 71.3336C112.484 71.7826 116.128 73.364 118.855 76.1042C121.581 78.8444 122.839 81.8476 122.628 85.1402C122.418 86.6679 121.867 88.0902 121.001 89.407C120.136 90.7238 118.824 91.382 117.068 91.3815C116.202 91.1706 115.363 90.8806 114.603 90.5643C113.843 90.248 113.581 89.5104 113.791 88.4305C113.791 87.9827 114.001 87.7193 114.447 87.6141C114.892 87.5088 115.312 87.3509 115.758 87.1139C116.413 86.6663 116.728 86.0079 116.728 85.1386C116.519 84.2693 115.759 83.8213 114.448 83.821C113.346 83.61 112.324 83.8731 111.327 84.6367C110.357 85.4004 109.753 86.4538 109.517 87.7708C109.517 89.5357 110.224 91.169 111.64 92.6972C113.055 94.2253 114.969 94.779 117.355 94.3318C121.708 93.8851 124.514 92.0947 125.695 88.9077C126.902 85.7208 127.27 82.6127 126.851 79.5307C127.716 79.0831 128.162 78.2139 128.163 76.8969C128.163 75.7906 127.298 74.8157 125.541 73.946C122.92 72.4175 119.878 71.3631 116.365 70.7563C112.878 70.2023 109.496 69.938 106.218 69.9371C100.502 70.1463 95.8603 72.2261 92.2409 76.0709C88.6477 79.9157 86.9421 84.7884 87.1765 90.6888L87.2552 90.7415Z" fill="#D2B897"/>
<path d="M890.416 77.1492C890.416 78.4663 890.861 79.3356 891.726 79.7836C891.28 82.8391 891.672 85.9738 892.877 89.1613C894.083 92.3489 896.862 94.1408 901.214 94.5898C903.626 95.0382 905.514 94.4855 907.009 92.9581C908.426 91.4307 909.134 89.7714 909.134 88.0329C908.925 86.7158 908.322 85.6884 907.326 84.8979C906.356 84.1337 905.255 83.8437 904.154 84.0805C902.843 84.0801 902.082 84.5277 901.872 85.3969C901.872 86.2662 902.186 86.9248 902.842 87.3728C903.287 87.5836 903.707 87.7681 904.153 87.8736C904.598 87.9791 904.808 88.2689 904.808 88.6903C905.017 89.7967 904.755 90.5078 903.994 90.8237C903.234 91.1396 902.421 91.4292 901.53 91.6397C899.773 91.6392 898.488 90.9803 897.597 89.6631C896.732 88.3458 896.182 86.9232 895.972 85.3954C895.764 82.1027 897.023 79.1002 899.751 76.3614C902.478 73.6227 906.123 72.0432 910.764 71.5966L910.764 73.2297C908.797 73.677 907.827 74.9938 907.826 77.1801C907.826 78.2864 908.271 79.2085 909.137 79.9726C910.002 80.7367 910.998 81.1321 912.073 81.1324C913.148 81.1327 914.144 80.7378 915.01 79.9741C915.875 79.2105 916.321 78.2887 916.322 77.1823C916.322 75.2068 915.352 73.7841 913.386 72.9143L913.386 71.9397C918.394 72.3888 922.432 74.5235 925.498 78.3437C928.539 82.1903 929.849 86.7213 929.428 91.9894C929.428 92.4372 929.218 92.6479 928.772 92.6478C928.117 92.6476 927.566 92.4367 927.147 91.9888C926.491 91.1194 925.836 90.0656 925.181 88.8537C924.526 87.6419 923.425 87.2728 921.904 87.6939C921.038 87.9044 920.435 88.352 920.094 89.0104C919.753 89.6689 919.596 90.3274 919.596 90.9859C919.595 91.8551 919.648 92.6981 919.752 93.462C919.857 94.2259 919.804 94.7264 919.595 94.937C919.385 95.1477 918.782 95.3846 917.785 95.5951C916.815 95.8582 915.714 96.1477 914.507 96.4635C913.301 96.8056 912.226 97.3321 911.229 98.0958C910.259 98.8594 909.656 100.018 909.419 101.546C909.209 102.415 909.419 103.232 910.074 104.022C910.729 104.786 911.595 105.287 912.696 105.498C914.216 105.946 914.977 105.393 914.977 103.865C915.187 102.759 914.978 102.232 914.322 102.232C913.667 102.232 913.352 102.021 913.352 101.573C913.353 100.467 914.454 99.9405 916.63 99.941C918.807 99.9416 920.563 99.7313 921.875 99.2839C923.841 98.6259 925.572 97.2039 927.12 94.9653C927.33 94.5176 927.723 94.3597 928.274 94.4652C928.824 94.5707 929.086 94.7288 929.086 94.9659C929.296 95.8878 929.138 97.0468 928.587 98.4691C928.036 99.8913 927.328 100.945 926.462 101.603C925.361 102.709 923.945 104.078 922.214 105.711C920.457 107.344 919.276 109.056 918.62 110.794C917.518 112.98 917.649 114.192 918.96 114.403C919.406 114.614 919.878 114.508 920.429 114.087C920.979 113.639 921.687 113.324 922.553 113.113C922.107 113.982 921.739 114.693 921.398 115.246C921.084 115.799 920.9 116.511 920.9 117.38C920.69 118.486 920.899 119.355 921.554 120.067C922.21 120.726 923.416 120.621 925.147 119.673C925.356 121.49 925.959 122.966 926.955 124.177C927.925 125.389 929.183 125.864 930.783 125.654C930.285 124.126 929.971 122.571 929.735 121.044C929.526 119.463 929.421 117.804 929.422 116.065C929.423 111.692 929.739 107.452 930.474 103.395C931.13 99.339 931.446 95.1772 931.447 91.0153C931.659 85.0887 929.929 80.2151 926.312 76.3947C922.721 72.548 918.08 70.4658 912.39 70.2536C909.113 70.2528 905.678 70.5153 902.19 71.0675C898.703 71.6724 895.635 72.6989 893.012 74.2524C891.255 75.1212 890.39 76.1219 890.39 77.2019L890.416 77.1492ZM937.347 90.9642C937.346 95.1261 937.659 99.288 938.314 103.345C938.968 107.401 939.282 111.616 939.281 116.015C939.28 117.78 939.175 119.413 938.938 120.993C938.728 122.521 938.387 124.075 937.967 125.603C939.488 125.814 940.746 125.34 941.743 124.129C942.714 122.917 943.317 121.442 943.554 119.625C945.31 120.547 946.49 120.679 947.146 120.021C947.801 119.31 948.011 118.441 947.802 117.334C947.802 116.465 947.645 115.754 947.304 115.201C946.99 114.647 946.597 113.936 946.151 113.067C947.016 113.278 947.724 113.62 948.275 114.042C948.825 114.49 949.323 114.595 949.743 114.358C951.054 113.911 951.159 112.725 950.058 110.75C949.403 108.985 948.198 107.298 946.468 105.665C944.711 104.031 943.296 102.661 942.221 101.555C941.356 100.896 940.648 99.8683 940.098 98.4194C939.548 96.9969 939.391 95.8378 939.601 94.9159C939.601 94.7052 939.863 94.5209 940.414 94.4157C940.964 94.3104 941.331 94.4686 941.567 94.9164C943.087 97.1558 944.844 98.5787 946.81 99.2377C948.121 99.6859 949.852 99.8971 952.054 99.8976C954.257 99.8982 955.384 100.452 955.384 101.532C955.383 101.979 955.069 102.19 954.335 102.19C953.679 102.19 953.469 102.743 953.679 103.823C953.678 105.351 954.439 105.904 956.012 105.457C957.113 105.246 957.979 104.746 958.634 103.982C959.29 103.219 959.5 102.402 959.291 101.506C959.081 99.9785 958.426 98.8193 957.325 98.0552C956.224 97.291 955.149 96.7375 953.995 96.4211C952.894 96.1048 951.872 95.8147 950.875 95.5511C949.905 95.3401 949.302 95.1029 949.066 94.8921C948.83 94.6813 948.804 94.1808 948.909 93.4169C949.014 92.6531 949.067 91.8365 949.067 90.9409C949.068 90.2824 948.963 89.6238 948.753 88.9653C948.544 88.3067 947.888 87.8587 946.787 87.6477C945.266 87.1995 944.165 87.5943 943.509 88.8058C942.853 90.0174 942.198 91.0445 941.542 91.9399C941.096 92.3876 940.676 92.5982 940.231 92.5981C939.575 92.5979 939.26 92.3871 939.261 91.9393C938.816 86.671 940.128 82.1407 943.197 78.2957C946.24 74.4507 950.278 72.3182 955.365 71.898L955.706 72.8727C953.477 73.5307 952.375 74.9528 952.375 77.1391C952.584 78.2455 953.082 79.1676 953.842 79.9316C954.655 80.6957 955.599 81.0911 956.674 81.0914C957.749 81.0917 958.745 80.6968 959.611 79.9332C960.476 79.1695 960.922 78.2477 960.923 77.1413C960.923 74.955 959.953 73.6377 957.987 73.1894L957.987 71.5563C962.576 72.0053 966.22 73.5867 968.946 76.3269C971.672 79.0671 972.93 82.0703 972.72 85.3628C972.509 86.8906 971.958 88.3128 971.093 89.6297C970.227 90.9465 968.916 91.6047 967.159 91.6042C966.294 91.3932 965.455 91.1033 964.695 90.787C963.934 90.4707 963.672 89.7331 963.882 88.6531C963.883 88.2053 964.092 87.942 964.538 87.8367C964.984 87.7315 965.404 87.5736 965.849 87.3366C966.505 86.889 966.82 86.2305 966.82 85.3613C966.61 84.492 965.85 84.044 964.539 84.0436C963.438 83.8326 962.415 84.0958 961.419 84.8594C960.448 85.623 959.845 86.6765 959.609 87.9935C959.608 89.7583 960.316 91.3917 961.731 92.9198C963.147 94.448 965.061 95.0016 967.447 94.5545C971.8 94.1078 974.606 92.3174 975.786 89.1304C976.993 85.9435 977.361 82.8353 976.943 79.7533C977.808 79.3057 978.254 78.4366 978.254 77.1196C978.255 76.0132 977.389 75.0384 975.633 74.1687C973.011 72.6402 969.97 71.5858 966.457 70.979C962.969 70.4249 959.587 70.1606 956.31 70.1598C950.593 70.369 945.952 72.4487 942.333 76.2936C938.739 80.1384 937.034 85.011 937.268 90.9115L937.347 90.9642Z" fill="#D2B897"/>
<path d="M482.633 85.0242C480.142 85.0236 477.625 85.2336 475.134 85.6018C472.643 85.8909 470.362 86.6278 468.159 87.6018C465.956 88.6286 463.963 89.9714 462.206 91.6568C460.449 93.3685 458.98 95.5017 457.93 98.0829C456.907 100.585 456.461 103.482 456.67 106.643C456.826 109.831 457.927 112.702 459.971 115.284C458.791 116.1 457.978 116.996 457.611 117.865C457.165 118.839 457.086 119.709 457.321 120.525C457.61 121.342 458.134 122.001 458.999 122.607C459.89 123.134 460.991 123.424 462.303 123.424C461.778 122.607 461.569 121.659 461.648 120.395C461.805 119.209 462.304 118.34 463.195 117.814C465.686 119.079 468.282 119.949 470.93 120.397C473.578 120.925 476.305 120.767 479.242 119.951C481.733 119.294 483.516 118.267 484.539 116.766C485.641 115.291 486.087 113.737 485.93 112.025C485.407 108.337 483.362 106.545 479.612 106.544C478.144 106.544 476.807 106.912 475.705 107.728C474.682 108.545 474.079 109.414 473.869 110.467C473.501 112.68 474.314 114.814 476.306 116.816C473.081 117.632 470.118 117.394 467.627 116.287C465.136 115.101 463.302 113.415 462.044 111.202C460.864 108.989 460.288 106.46 460.42 103.668C460.63 100.849 461.758 98.2683 463.804 95.9245C464.25 96.8728 464.905 97.6896 465.796 98.5064C466.688 99.3232 467.631 99.9029 468.601 100.272C469.126 100.562 469.703 100.641 470.358 100.641C470.883 100.641 471.381 100.562 471.748 100.273C472.194 100.036 472.404 99.7462 472.64 99.2984C472.797 98.8507 472.719 98.3238 472.352 97.6652C471.775 96.4007 471.618 95.0836 471.986 93.7403C472.353 92.397 473.009 91.2909 474.058 90.2638C475.081 89.2895 476.418 88.4996 477.965 87.8942C479.513 87.3151 481.138 86.9994 482.738 86.9998C485.176 87.0005 487.3 87.5805 489.214 88.7137C491.128 89.8995 492.674 91.296 493.906 93.0085C495.217 94.642 496.029 96.4861 496.474 98.4091C496.92 100.253 496.84 102.097 496.316 103.73C497.259 104.02 498.072 103.941 498.754 103.52C499.41 103.151 499.934 102.572 500.38 101.755C500.748 100.939 500.958 100.043 501.115 99.0161C501.194 97.9889 501.116 96.9615 500.827 95.9868C502.584 96.8829 503.921 98.2003 504.864 99.9127C505.755 101.625 505.965 103.68 505.597 106.05C505.387 107.683 504.941 109.079 504.285 110.344C503.708 111.529 502.894 112.793 501.924 113.899C500.98 115.084 499.931 116.269 498.75 117.375C497.57 118.56 496.39 119.745 495.21 121.062C494.685 121.589 494.633 122.089 495.131 122.458C495.576 122.827 496.389 122.748 497.491 122.09C498.592 121.511 499.772 120.826 500.952 120.168C502.132 119.589 503.391 118.904 504.624 118.246C504.623 120.248 503.967 122.092 502.551 123.856C501.161 125.542 499.456 126.964 497.62 128.069C495.706 129.175 493.713 129.912 491.746 130.122C489.753 130.412 488.207 130.121 486.974 129.226C486.319 128.699 486.005 128.04 486.083 127.381C486.241 126.723 486.739 126.486 487.631 126.644C487.186 124.063 484.905 122.798 480.788 122.797C479.687 122.796 478.664 123.086 477.615 123.691C476.592 124.271 475.701 125.008 475.124 125.824C474.468 126.641 474.101 127.589 473.864 128.564C473.707 129.591 473.943 130.487 474.44 131.303C473.182 131.672 472.316 132.33 471.87 133.304C471.346 134.279 471.293 135.306 471.503 136.334C471.869 138.178 472.76 139.521 473.992 140.391C475.251 141.287 476.797 142.077 478.633 142.763C478.344 145.634 479.444 147.504 481.935 148.374C484.426 149.27 487.598 149.403 491.505 148.745C491.663 149.404 491.505 149.931 491.059 150.299C490.613 150.747 490.115 151.037 489.512 151.326C488.935 151.616 488.411 151.906 487.886 152.274C487.44 152.643 487.309 153.091 487.44 153.67C487.807 155.066 488.331 156.41 488.986 157.727C489.641 158.992 490.375 160.177 491.345 161.205C492.288 162.232 493.468 163.049 494.805 163.734C496.195 164.472 497.742 164.841 499.446 165C501.281 165.211 503.117 165.001 505.031 164.475C506.867 163.948 508.125 163 508.624 161.657C508.781 161.209 508.781 160.709 508.546 160.261C508.257 159.813 507.89 159.523 507.366 159.286C506.842 158.996 506.265 158.838 505.688 158.759C505.033 158.68 504.351 158.758 503.774 158.969C503.197 159.259 502.751 159.548 502.305 159.943C501.938 160.233 501.571 160.602 501.125 160.891C500.758 161.26 500.312 161.47 499.866 161.707C499.421 161.918 498.922 161.918 498.241 161.786C497.507 161.575 496.772 161.048 496.248 160.231C495.672 159.336 495.279 158.387 495.069 157.36C494.781 156.332 494.781 155.358 494.86 154.489C495.018 153.593 495.306 153.093 495.752 152.935C496.644 152.777 497.22 152.935 497.587 153.515C497.876 154.042 498.61 154.779 499.711 155.649C500.287 156.308 500.89 156.545 501.467 156.466C502.044 156.308 502.123 155.729 501.835 154.622C501.625 153.648 501.258 152.62 500.734 151.514C500.289 150.486 499.922 149.459 499.634 148.405C499.346 147.43 499.346 146.561 499.477 145.745C499.687 144.928 500.29 144.27 501.313 143.822C501.837 145.139 502.204 146.193 502.571 146.852C502.859 147.51 503.593 148.169 504.694 148.696C505.14 148.907 505.664 149.065 506.241 149.065C506.766 149.066 507.264 148.987 507.631 148.776C508.077 148.565 508.287 148.249 508.444 147.802C508.523 147.354 508.366 146.774 507.868 145.958C507.291 145.062 506.977 143.955 507.056 142.638C507.135 141.374 507.633 139.899 508.604 138.293C510.283 135.554 511.699 132.235 512.802 128.547C513.904 124.781 514.429 120.856 514.43 116.958C514.431 112.743 513.541 108.818 511.707 105.13C509.872 101.442 507.225 98.0431 503.764 95.013C505.075 95.3821 506.413 95.3825 507.671 95.093C508.93 94.8036 510.031 94.3561 510.975 93.6978C511.867 92.9605 512.523 92.1441 512.969 91.1169C513.415 90.0898 513.415 88.9044 513.048 87.64C511.868 88.6143 510.609 89.2725 509.456 89.6409C508.197 90.0884 506.965 90.2198 505.706 90.2194C503.871 90.219 501.957 89.9814 500.121 89.4804C498.207 88.9531 496.293 88.3731 494.301 87.7141C492.387 86.976 490.394 86.3696 488.48 85.8687C486.488 85.2886 484.574 84.972 482.607 84.9715L482.633 85.0242ZM549.653 85.0418C547.739 85.0413 545.824 85.3305 543.91 85.9359C541.917 86.4622 540.003 87.0412 538.036 87.7782C536.122 88.4362 534.208 89.0416 532.294 89.5416C530.379 90.0679 528.465 90.2781 526.551 90.2776C525.371 90.2773 524.113 90.1189 522.959 89.6972C521.701 89.3281 520.468 88.6692 519.21 87.6943C518.843 88.9585 518.921 90.1439 519.367 91.1713C519.812 92.1987 520.467 93.0155 521.437 93.7533C522.329 94.412 523.43 94.8601 524.662 95.1502C525.921 95.4403 527.232 95.4406 528.648 95.0722C525.028 98.1005 522.405 101.498 520.543 105.185C518.785 108.872 517.893 112.797 517.891 117.011C517.89 120.936 518.414 124.835 519.514 128.602C520.536 132.29 521.951 135.636 523.628 138.349C525.384 141.458 525.698 144.039 524.439 146.041C523.914 146.857 523.783 147.437 523.862 147.885C523.94 148.332 524.15 148.622 524.596 148.859C525.041 149.097 525.566 149.149 526.142 149.15C526.667 149.15 527.165 148.992 527.69 148.781C528.791 148.334 529.447 147.754 529.814 147.017C530.102 146.279 530.47 145.252 530.837 143.909C531.938 144.357 532.594 145.016 532.751 145.832C532.908 146.649 532.908 147.545 532.671 148.493C532.383 149.52 532.015 150.547 531.569 151.601C531.123 152.707 530.756 153.734 530.467 154.709C530.1 155.815 530.178 156.394 530.755 156.553C531.28 156.632 531.857 156.395 532.512 155.737C533.614 154.841 534.348 154.104 534.637 153.603C534.925 153.024 535.581 152.866 536.394 153.024C536.997 153.183 537.364 153.683 537.416 154.579C537.573 155.474 537.494 156.423 537.205 157.45C536.917 158.477 536.471 159.452 535.946 160.321C535.369 161.137 534.766 161.638 534.031 161.874C533.376 162.032 532.852 162.032 532.406 161.795C531.96 161.584 531.593 161.347 531.147 160.978C530.78 160.688 530.335 160.319 529.968 160.029C529.601 159.661 529.076 159.371 528.578 159.054C527.975 158.844 527.399 158.764 526.664 158.843C526.009 158.922 525.406 159.054 524.829 159.37C524.304 159.607 523.885 159.896 523.57 160.344C523.36 160.792 523.281 161.292 523.57 161.74C524.094 163.083 525.326 164.032 527.24 164.559C529.154 165.087 530.989 165.298 532.824 165.088C536.364 164.72 539.065 163.377 540.849 161.244C542.606 159.032 543.944 156.503 544.758 153.791C544.915 153.211 544.758 152.763 544.234 152.394C543.788 152.025 543.211 151.736 542.608 151.446C542.031 151.156 541.507 150.839 541.062 150.418C540.616 150.049 540.537 149.522 540.774 148.864C542.766 149.233 544.602 149.313 546.227 149.313C547.853 149.234 549.243 149.024 550.423 148.497C551.524 148.05 552.416 147.313 552.993 146.444C553.57 145.548 553.806 144.363 553.649 142.888C555.564 142.23 557.111 141.413 558.37 140.518C559.628 139.623 560.415 138.306 560.783 136.462C560.941 135.435 560.862 134.408 560.417 133.433C559.971 132.485 559.106 131.8 557.848 131.43C558.372 130.614 558.582 129.745 558.451 128.691C558.294 127.743 557.849 126.768 557.193 125.951C556.538 125.135 555.647 124.397 554.624 123.817C553.602 123.211 552.501 122.921 551.4 122.921C547.362 122.92 545.159 124.183 544.634 126.765C545.578 126.607 546.102 126.844 546.181 127.582C546.259 128.319 545.97 128.899 545.367 129.346C544.187 130.242 542.561 130.531 540.595 130.241C538.602 130.029 536.688 129.291 534.774 128.184C532.861 127.078 531.183 125.655 529.846 123.969C528.457 122.203 527.723 120.333 527.724 118.357C528.982 119.016 530.214 119.675 531.394 120.281C532.495 120.94 533.675 121.599 534.855 122.205C535.956 122.864 536.769 123.022 537.214 122.653C537.66 122.285 537.66 121.758 537.136 121.178C535.957 119.861 534.777 118.675 533.676 117.49C532.575 116.383 531.553 115.197 530.583 114.012C529.639 112.905 528.827 111.641 528.172 110.455C527.516 109.191 526.992 107.794 526.783 106.161C526.417 103.79 526.706 101.736 527.676 100.024C528.647 98.3122 529.958 96.9954 531.715 96.1003C531.426 97.0749 531.347 98.1021 531.426 99.1295C531.504 100.157 531.714 101.052 532.081 101.869C532.448 102.686 532.972 103.265 533.627 103.634C534.361 104.082 535.174 104.162 536.118 103.846C535.542 102.212 535.463 100.369 535.91 98.5248C536.356 96.602 537.222 94.7584 538.481 93.1256C539.74 91.4137 541.34 90.0181 543.254 88.8332C545.168 87.7274 547.292 87.1221 549.652 87.1227C551.357 87.1232 552.877 87.4133 554.424 88.0196C555.892 88.5995 557.229 89.4164 558.252 90.3913C559.274 91.4188 559.955 92.5253 560.322 93.8688C560.689 95.186 560.531 96.5293 559.875 97.7935C559.665 98.3203 559.665 98.8208 559.796 99.2686C559.954 99.7164 560.242 100.085 560.609 100.375C560.976 100.586 561.5 100.744 561.998 100.744C562.575 100.744 563.178 100.666 563.677 100.376C564.647 100.007 565.591 99.4018 566.483 98.6118C567.453 97.7955 568.109 96.9791 568.607 96.031C570.678 98.4022 571.779 100.984 571.909 103.776C572.066 106.595 571.462 109.097 570.229 111.309C568.97 113.521 567.134 115.233 564.643 116.392C562.204 117.497 559.346 117.707 556.121 116.916C558.114 114.915 558.849 112.781 558.482 110.569C558.325 109.541 557.67 108.645 556.569 107.829C555.468 107.012 554.131 106.643 552.662 106.642C548.992 106.641 546.92 108.406 546.421 112.119C546.21 113.832 546.629 115.386 547.809 116.861C548.988 118.337 550.666 119.364 552.947 120.05C555.962 120.867 558.768 121.026 561.416 120.5C563.986 120.053 566.477 119.184 569.073 117.92C569.965 118.448 570.463 119.317 570.541 120.502C570.698 121.767 570.462 122.715 570.016 123.531C571.327 123.532 572.454 123.242 573.241 122.716C574.133 122.136 574.631 121.452 574.867 120.635C575.156 119.819 575.078 118.949 574.711 117.975C574.344 117.079 573.61 116.209 572.352 115.393C574.398 112.812 575.526 109.994 575.658 106.806C575.737 103.619 575.292 100.748 574.27 98.1661C573.248 95.5844 571.833 93.4504 570.155 91.7378C568.399 90.0252 566.407 88.7076 564.204 87.6797C561.923 86.7045 559.642 85.9664 557.152 85.676C554.713 85.3065 552.222 85.0952 549.653 85.0945L549.653 85.0418ZM479.767 115.395C480.213 115.395 480.423 115.606 480.423 116.053C480.423 116.501 480.213 116.712 479.767 116.712C479.243 116.712 479.033 116.501 479.033 116.053C479.033 115.605 479.243 115.395 479.767 115.395ZM510.419 117.009C511.074 118.854 511.309 120.855 511.151 122.778C510.993 124.701 510.573 126.624 509.839 128.389C509.026 130.153 507.924 131.865 506.534 133.34C505.144 134.894 503.439 136.079 501.525 136.947C499.768 137.763 497.775 138.342 495.415 138.869C493.134 139.316 490.774 139.605 488.44 139.762C486.08 139.92 483.799 139.761 481.675 139.392C479.473 139.022 477.769 138.442 476.379 137.547C475.199 136.73 474.754 135.834 475.121 134.886C475.41 133.859 476.144 133.49 477.324 133.859C480.628 134.835 483.931 135.125 487.314 134.757C490.775 134.389 493.922 133.442 496.964 131.968C500.058 130.414 502.707 128.413 505.12 125.832C507.48 123.304 509.238 120.354 510.419 117.036L510.419 117.009ZM491.375 145.69C491.899 145.69 492.109 145.901 492.109 146.27C492.109 146.796 491.899 147.007 491.375 147.007C490.929 147.007 490.719 146.796 490.719 146.269C490.72 145.9 490.929 145.69 491.375 145.69ZM526.1 112.43C526.545 112.43 526.755 112.667 526.755 113.01C526.755 113.537 526.545 113.747 526.099 113.747C525.575 113.747 525.365 113.536 525.365 113.01C525.365 112.641 525.575 112.43 526.1 112.43ZM526.749 137.191C527.273 137.191 527.483 137.428 527.483 137.771C527.483 138.297 527.273 138.508 526.748 138.508C526.303 138.508 526.093 138.297 526.093 137.77C526.093 137.402 526.303 137.191 526.749 137.191ZM521.746 117.012C522.925 120.332 524.76 123.282 527.119 125.812C529.478 128.394 532.204 130.396 535.219 131.951C538.234 133.427 541.459 134.376 544.868 134.746C548.329 135.116 551.711 134.827 555.015 133.853C556.274 133.485 557.008 133.854 557.296 134.881C557.506 135.856 557.086 136.725 555.984 137.541C554.673 138.436 552.89 139.015 550.766 139.384C548.642 139.752 546.361 139.909 543.922 139.83C541.563 139.75 539.229 139.46 536.869 138.932C534.51 138.484 532.465 137.825 530.76 136.929C528.847 136.033 527.169 134.873 525.753 133.319C524.443 131.843 523.316 130.131 522.582 128.366C521.848 126.601 521.324 124.678 521.194 122.755C521.063 120.832 521.273 118.83 521.772 116.986L521.746 117.012Z" fill="#D2B897"/>
<path d="M350.247 85.8592C351.347 87.4136 352.737 88.81 354.519 89.8378C356.223 90.9445 357.98 91.4718 359.816 91.3143C358.269 89.9705 356.958 88.495 355.857 86.8089C354.757 85.1228 353.866 83.3314 353.211 81.4873C352.556 79.6433 352.032 77.7203 351.665 75.7182C351.298 73.7162 351.011 71.8723 350.775 70.0284C350.25 71.0028 349.831 72.1617 349.384 73.505C348.938 74.901 348.728 76.3233 348.57 77.7194C348.491 79.1154 348.491 80.5905 348.779 82.013C348.989 83.4091 349.513 84.6736 350.247 85.8592ZM354.361 93.4728C355.541 93.9999 356.721 94.5007 357.9 95.1595C359.08 95.7394 360.339 96.3455 361.571 96.7936C362.829 97.1627 364.062 97.4528 365.32 97.4532C366.579 97.5325 367.89 97.2431 369.227 96.5586C370.774 95.8214 372.033 95.0052 373.056 94.0572C374.158 93.0829 375.049 91.9241 375.863 90.3702C374.683 90.0011 373.503 89.711 372.271 89.5527C370.933 89.3943 369.701 89.2623 368.443 89.0249C367.184 88.8138 366.083 88.4447 364.982 87.9966C363.959 87.4696 363.147 86.7318 362.491 85.7043C362.046 84.8086 361.836 83.9393 361.837 82.9647C361.916 81.9901 361.995 81.0418 362.205 80.0936C362.415 79.1191 362.651 78.1708 362.939 77.2226C363.228 76.1954 363.386 75.2999 363.465 74.4043C362.442 75.2996 361.471 76.1686 360.606 77.2747C359.793 78.3018 359.058 79.4079 358.534 80.5141C358.009 81.6993 357.72 82.8846 357.72 84.1226C357.641 85.387 357.929 86.6251 358.532 87.8896C358.689 88.1794 358.977 88.5482 359.344 88.8644C359.711 89.1543 360.157 89.4441 360.524 89.813C360.891 90.1029 361.179 90.419 361.415 90.7088C361.703 90.9196 361.703 91.2357 361.572 91.6045C361.415 91.9732 361.048 92.1838 360.471 92.2627C359.946 92.3416 359.291 92.4204 358.557 92.4202C357.901 92.4201 357.167 92.4989 356.354 92.5777C355.62 92.7356 354.964 93.0251 354.44 93.4728L354.361 93.4728ZM367.438 120.002C367.647 123.189 368.328 126.139 369.429 129.011C370.529 131.803 371.918 134.332 373.7 136.466C375.535 138.6 377.659 140.234 380.254 141.341C382.745 142.448 385.629 142.739 388.854 142.371C389.956 142.213 390.926 141.923 391.791 141.476C392.683 140.949 393.417 140.449 394.073 139.712C394.65 139.053 395.096 138.237 395.463 137.341C395.752 136.525 395.831 135.577 395.752 134.602C395.543 132.6 394.731 131.046 393.263 129.86C391.795 128.753 390.09 128.226 387.966 128.462C387.599 128.541 387.39 128.752 387.232 129.042C387.075 129.41 387.022 129.7 387.022 130.069C387.022 130.438 387.179 130.807 387.31 131.096C387.52 131.386 387.835 131.623 388.123 131.702C389.513 131.703 390.404 132.23 390.692 133.336C390.692 133.705 390.613 134.074 390.325 134.442C390.115 134.89 389.8 135.18 389.433 135.549C389.066 135.838 388.699 136.128 388.174 136.365C387.728 136.523 387.283 136.575 386.784 136.654C384.215 136.864 381.776 136.363 379.496 135.177C377.293 133.991 375.38 132.358 373.912 130.303C372.365 128.3 371.422 125.929 370.898 123.269C370.375 120.529 370.533 117.869 371.425 115.156C372.159 116.183 373.129 117.158 374.282 118.186C375.383 119.134 376.641 120.03 377.874 120.768C379.184 121.506 380.6 122.086 381.911 122.613C383.301 123.061 384.717 123.272 386.028 123.194C386.972 123.115 388.02 122.984 389.043 122.747C390.066 122.536 391.036 122.168 391.901 121.641C392.793 121.062 393.527 120.377 394.026 119.561C394.603 118.744 394.918 117.796 394.97 116.611C394.158 116.769 393.345 116.768 392.479 116.61C391.667 116.399 390.933 116.241 390.12 115.951C389.386 115.74 388.652 115.503 387.839 115.292C387.105 115.081 386.292 115.002 385.558 115.002C384.902 115.08 384.168 115.238 383.434 115.449C382.621 115.659 381.808 115.817 380.995 116.028C380.182 116.186 379.369 116.238 378.557 116.185C377.744 116.185 377.01 115.948 376.197 115.526C375.463 115.078 374.808 114.34 374.126 113.313C373.549 112.285 373.025 110.863 372.58 109.098C372.214 107.412 372.214 105.7 372.581 104.014C372.949 102.249 373.684 100.537 374.785 98.8517C375.887 97.1398 377.277 95.6651 378.903 94.2695C380.608 92.8738 382.496 91.61 384.725 90.5832C387.295 89.4776 390.232 88.7408 393.562 88.3729C396.944 88.0841 400.406 88.164 403.998 88.5337C407.59 88.9034 411.208 89.5629 414.8 90.6175C418.392 91.7247 421.721 93.069 424.815 94.5976C427.253 95.9416 429.822 97.1276 432.47 98.3664C435.118 99.5524 437.845 100.58 440.703 101.477C443.561 102.373 446.445 103.032 449.381 103.481C452.396 103.93 455.412 104.062 458.427 103.773C458.427 103.562 458.349 103.194 458.349 102.588C458.349 102.061 458.349 101.692 458.27 101.481C452.318 101.401 446.655 100.451 441.202 98.6847C435.827 96.8395 430.767 94.6255 426.048 91.9638C422.955 90.1982 419.572 88.7749 415.902 87.7466C412.231 86.6393 408.482 85.9008 404.733 85.61C400.983 85.2403 397.312 85.2393 393.615 85.6861C390.023 86.054 386.771 86.8697 383.913 88.1333C380.819 89.4496 378.17 91.24 375.967 93.4521C373.764 95.5852 371.928 98.1134 370.511 100.905C369.121 103.644 368.228 106.673 367.651 109.992C367.125 113.258 367.072 116.577 367.359 120.054L367.438 120.002ZM401.871 99.333C402.028 100.518 402.395 101.625 403.05 102.521C403.705 103.416 404.518 104.154 405.488 104.655C406.432 105.235 407.559 105.63 408.713 105.92C409.814 106.131 410.994 106.21 412.016 106.079C412.908 106.079 413.721 105.842 414.455 105.5C415.268 105.131 416.002 104.684 416.579 104.105C417.156 103.578 417.681 102.998 418.048 102.261C418.337 101.603 418.494 100.865 418.494 100.128C418.338 98.5734 417.971 97.2562 417.316 96.2024C416.66 95.0959 416.005 94.3582 415.192 93.8312C414.38 93.3041 413.567 93.1722 412.911 93.1721C412.256 93.2509 411.81 93.6196 411.652 94.3571C411.443 94.8048 410.997 95.0944 410.394 95.3314C409.817 95.5419 409.135 95.6998 408.322 95.6996C407.588 95.7784 406.932 95.6992 406.251 95.541C405.595 95.3828 405.071 95.1719 404.704 94.9611C404.782 96.2255 405.149 96.9631 405.804 97.4111C406.46 97.78 407.273 97.9383 408.086 97.9912C408.977 98.0704 409.79 97.9916 410.576 97.9128C411.311 97.834 411.887 97.9132 412.281 98.124C412.648 98.4138 412.805 98.73 412.805 99.1514C412.726 99.5992 412.595 100.047 412.228 100.468C411.861 100.837 411.493 101.206 410.969 101.495C410.392 101.785 409.867 102.022 409.212 102.074C408.766 102.153 408.268 101.995 407.744 101.626C407.219 101.178 406.643 100.809 406.118 100.44C405.542 99.9924 404.86 99.6235 404.205 99.4126C403.549 99.1227 402.736 99.1224 401.845 99.3329L401.871 99.333ZM437.606 112.566C438.34 112.408 438.996 112.197 439.809 111.987C440.543 111.697 441.356 111.46 442.169 111.25C442.981 110.96 443.794 110.723 444.66 110.592C445.473 110.381 446.285 110.302 447.02 110.303C446.731 110.75 446.495 111.119 446.285 111.488C446.075 111.777 446.128 112.225 446.363 112.884C447.386 113.042 448.356 112.884 449.222 112.358C450.113 111.831 450.926 111.173 451.713 110.515C452.526 109.777 453.339 109.119 454.152 108.513C455.044 107.855 455.988 107.539 457.089 107.487C456.722 107.118 456.067 106.749 455.096 106.591C454.074 106.38 452.894 106.221 451.504 106.221C450.115 106.3 448.646 106.378 447.099 106.668C445.552 106.904 444.084 107.246 442.773 107.773C441.461 108.299 440.334 108.958 439.311 109.774C438.367 110.59 437.763 111.459 437.606 112.566ZM405.916 73.915C406.65 73.6254 407.463 73.3095 408.197 73.178C409.01 73.0202 409.744 72.9677 410.399 73.0205C411.134 73.0207 411.71 73.2316 412.235 73.6005C412.812 73.9694 413.126 74.5754 413.336 75.3657C413.414 75.8135 413.414 76.2613 413.178 76.551C412.968 76.9197 412.732 77.2094 412.443 77.4464C412.155 77.657 411.788 77.894 411.342 78.0256C410.975 78.1045 410.529 78.1834 410.083 78.1833C410.083 78.9208 410.293 79.5267 410.817 79.9747C411.341 80.4226 412.076 80.7125 412.941 80.8708C412.574 81.3975 412.416 81.898 412.573 82.5039C412.652 83.0834 412.861 83.6103 413.228 84.0581C413.595 84.506 414.041 84.7959 414.618 85.0331C415.142 85.1913 415.719 85.1915 416.322 84.8755C417.948 83.9013 419.128 82.8744 419.863 81.7682C420.519 80.6621 420.886 79.2661 420.808 77.6329C420.808 76.6056 420.441 75.6309 419.786 74.6825C419.209 73.7867 418.397 72.9173 417.427 72.2321C416.404 71.4943 415.356 70.8882 414.123 70.5191C412.865 70.15 411.633 69.9916 410.374 70.1494C409.194 70.3071 408.25 70.7283 407.437 71.492C406.624 72.2293 406.126 73.0457 405.889 73.9413L405.916 73.915ZM441.677 85.6724C442.044 86.331 442.411 87.0687 442.699 87.8853C442.987 88.702 443.223 89.5186 443.433 90.3879C443.642 91.2045 443.878 92.1002 444.166 92.8378C444.454 93.6545 444.743 94.3131 445.188 94.8927C445.712 95.6304 446.289 96.2364 447.023 96.6053C447.757 97.0533 448.491 97.3433 449.304 97.5015C450.117 97.7388 450.851 97.8707 451.664 98.029C452.477 98.1082 453.289 98.2401 453.945 98.4774C453.867 96.8442 453.369 95.2373 452.556 93.7356C451.744 92.1813 450.8 90.864 449.542 89.5993C448.363 88.4136 447.104 87.465 445.715 86.7271C444.247 86.0682 442.909 85.6991 441.677 85.6988L441.677 85.6724ZM386.421 120.902C386.422 120.612 386.579 120.454 386.867 120.375C387.156 120.376 387.313 120.534 387.392 120.823C387.392 121.113 387.234 121.271 386.946 121.35C386.657 121.35 386.5 121.271 386.421 120.902ZM362.725 95.1081C362.646 94.8184 362.804 94.6603 363.092 94.5814C363.381 94.5024 363.538 94.6605 363.617 94.9503C363.616 95.3191 363.538 95.4771 363.249 95.477C362.882 95.556 362.725 95.3979 362.725 95.1081Z" fill="#D2B897"/>
<path d="M682.04 85.9456C681.017 87.4995 679.548 88.8952 677.843 89.922C676.086 91.0279 674.303 91.5543 672.468 91.3957C674.015 90.0527 675.327 88.578 676.455 86.8925C677.556 85.2069 678.448 83.416 679.104 81.5723C679.839 79.7286 680.364 77.8058 680.731 75.804C681.099 73.8022 681.309 71.9584 681.546 70.1146C682.07 71.0893 682.568 72.2485 682.934 73.671C683.38 75.0145 683.668 76.4106 683.746 77.8067C683.903 79.2028 683.824 80.6779 683.588 82.1003C683.378 83.4963 682.853 84.7605 682.04 85.9456ZM678 93.5571C676.82 94.0836 675.561 94.5838 674.407 95.242C673.227 95.9002 671.968 96.4267 670.788 96.8742C669.53 97.2427 668.297 97.5321 667.039 97.5318C665.728 97.6104 664.469 97.3203 663.08 96.6351C661.611 95.8972 660.274 95.0803 659.252 94.1317C658.23 93.1568 657.26 91.9976 656.526 90.4433C657.627 90.0748 658.807 89.7853 660.145 89.6276C661.403 89.4699 662.636 89.3386 663.894 89.1018C665.153 88.8914 666.254 88.5229 667.356 88.0754C668.378 87.5489 669.27 86.8116 669.847 85.7844C670.293 84.8889 670.503 84.0197 670.504 83.0451C670.504 82.0705 670.347 81.1222 670.137 80.1738C669.928 79.1992 669.692 78.2508 669.404 77.3025C669.116 76.2751 668.958 75.3795 668.959 74.4839C669.902 75.3797 670.872 76.3283 671.764 77.3558C672.655 78.3833 673.31 79.4898 673.834 80.5963C674.358 81.7818 674.646 82.9672 674.725 84.2052C674.724 85.4696 674.436 86.7075 673.911 87.9718C673.675 88.2615 673.386 88.6302 673.019 88.9462C672.652 89.2358 672.285 89.5255 671.918 89.8941C671.55 90.1838 671.183 90.4998 670.947 90.7895C670.737 91.0002 670.659 91.3162 670.79 91.685C671.026 92.0539 671.314 92.2647 671.891 92.3439C672.415 92.423 673.071 92.5022 673.805 92.5024C674.539 92.5026 675.273 92.5818 676.007 92.661C676.741 92.8193 677.397 93.1092 678 93.5571ZM664.83 120.079C664.62 123.266 663.937 126.216 662.835 129.087C661.812 131.879 660.343 134.407 658.559 136.541C656.723 138.674 654.599 140.306 652.081 141.412C649.512 142.518 646.627 142.807 643.402 142.437C642.301 142.279 641.357 141.989 640.466 141.541C639.574 141.014 638.84 140.513 638.264 139.775C637.608 139.116 637.163 138.3 636.875 137.404C636.508 136.587 636.429 135.639 636.587 134.665C636.797 132.663 637.611 131.109 639.027 129.924C640.495 128.818 642.252 128.292 644.324 128.529C644.691 128.608 644.9 128.819 645.136 129.109C645.293 129.478 645.346 129.767 645.293 130.136C645.293 130.505 645.214 130.874 645.005 131.163C644.795 131.453 644.559 131.69 644.192 131.769C642.802 131.769 641.91 132.295 641.622 133.402C641.622 133.77 641.779 134.139 641.988 134.508C642.198 134.956 642.513 135.246 642.88 135.614C643.247 135.904 643.692 136.194 644.138 136.431C644.584 136.59 645.082 136.642 645.528 136.722C648.097 136.933 650.536 136.433 652.817 135.248C655.099 134.064 656.935 132.431 658.482 130.377C659.951 128.375 660.974 126.005 661.499 123.344C661.946 120.605 661.789 117.945 660.925 115.231C660.19 116.258 659.22 117.233 658.118 118.26C656.938 119.208 655.758 120.103 654.447 120.84C653.135 121.577 651.798 122.157 650.408 122.683C649.018 123.13 647.602 123.341 646.291 123.261C645.348 123.182 644.299 123.05 643.276 122.813C642.254 122.602 641.284 122.233 640.419 121.706C639.606 121.126 638.872 120.441 638.295 119.624C637.692 118.808 637.404 117.859 637.405 116.674C638.217 116.832 639.03 116.832 639.843 116.675C640.656 116.464 641.469 116.306 642.203 116.096C642.937 115.806 643.671 115.569 644.484 115.359C645.297 115.148 646.031 115.069 646.766 115.07C647.421 115.149 648.155 115.307 648.968 115.518C649.702 115.729 650.515 115.887 651.328 116.098C652.14 116.256 652.953 116.309 653.766 116.257C654.579 116.257 655.392 116.02 656.126 115.599C656.86 115.151 657.516 114.414 658.198 113.387C658.775 112.36 659.379 110.937 659.825 109.173C660.192 107.487 660.193 105.775 659.748 104.089C659.381 102.324 658.647 100.611 657.546 98.9253C656.446 97.2129 655.109 95.7374 653.431 94.3409C651.727 92.9444 649.84 91.6795 647.69 90.6517C645.12 89.5447 642.105 88.8063 638.802 88.4367C635.419 88.1461 631.958 88.2242 628.366 88.592C624.774 88.9598 621.155 89.6174 617.562 90.6701C613.97 91.7755 610.64 93.118 607.624 94.645C605.133 95.9877 602.563 97.1724 599.914 98.4097C597.266 99.5944 594.538 100.621 591.68 101.516C588.874 102.411 585.937 103.068 583.001 103.515C580.064 103.962 577.048 104.093 573.955 103.803C574.033 103.592 574.033 103.223 574.033 102.618C574.034 102.091 574.112 101.722 574.112 101.511C580.064 101.434 585.807 100.487 591.183 98.7235C596.637 96.8811 601.619 94.6698 606.418 92.0106C609.434 90.2465 612.817 88.825 616.488 87.7987C620.159 86.6933 623.909 85.9567 627.659 85.668C631.487 85.3002 635.158 85.3012 638.776 85.7499C642.368 86.1196 645.619 86.9371 648.477 88.2022C651.571 89.52 654.218 91.3119 656.42 93.5251C658.701 95.6594 660.457 98.1886 661.872 100.981C663.261 103.721 664.231 106.75 664.728 110.069C665.251 113.336 665.303 116.655 665.014 120.132L664.83 120.079ZM630.408 99.3924C630.329 100.578 629.883 101.684 629.306 102.579C628.65 103.475 627.837 104.212 626.815 104.712C625.871 105.292 624.822 105.686 623.642 105.976C622.462 106.186 621.36 106.265 620.259 106.133C619.368 106.133 618.555 105.895 617.821 105.553C617.008 105.184 616.353 104.736 615.697 104.156C615.121 103.629 614.596 103.05 614.308 102.312C613.941 101.653 613.784 100.916 613.863 100.178C613.942 98.6241 614.309 97.3072 614.965 96.2537C615.621 95.1476 616.355 94.4102 617.168 93.8836C617.981 93.357 618.716 93.2255 619.371 93.2257C620.105 93.3049 620.472 93.6738 620.682 94.4114C620.839 94.8592 621.258 95.1491 621.861 95.3863C622.517 95.5972 623.172 95.7554 623.906 95.7556C624.641 95.8348 625.296 95.756 625.978 95.5981C626.66 95.4402 627.158 95.3087 627.525 95.019C627.446 96.2833 627.079 97.0208 626.423 97.4684C625.768 97.837 625.033 97.9949 624.142 98.0473C623.25 98.1261 622.438 98.0469 621.703 97.9677C620.891 97.8884 620.314 97.9673 619.999 98.1779C619.553 98.4676 619.422 98.7836 619.474 99.2051C619.474 99.6529 619.684 100.101 619.998 100.522C620.365 100.891 620.811 101.26 621.309 101.55C621.833 101.84 622.41 102.077 623.013 102.13C623.538 102.209 624.036 102.051 624.56 101.682C625.085 101.235 625.583 100.866 626.186 100.498C626.711 100.05 627.367 99.6813 628.022 99.4708C628.678 99.1812 629.491 99.1814 630.382 99.3924L630.408 99.3924ZM594.666 112.606C594.011 112.448 593.277 112.237 592.464 112.026C591.73 111.736 590.917 111.499 590.104 111.288C589.292 110.998 588.479 110.761 587.666 110.629C586.853 110.418 586.04 110.339 585.228 110.338C585.516 110.786 585.804 111.155 585.961 111.524C586.171 111.814 586.171 112.262 585.882 112.92C584.86 113.078 583.89 112.919 582.998 112.392C582.186 111.865 581.321 111.207 580.56 110.548C579.748 109.81 578.856 109.151 578.07 108.545C577.179 107.887 576.235 107.57 575.212 107.517C575.501 107.149 576.156 106.78 577.205 106.622C578.175 106.412 579.329 106.254 580.745 106.254C582.135 106.334 583.603 106.413 585.15 106.703C586.775 106.941 588.165 107.284 589.476 107.811C590.787 108.338 591.967 108.997 592.937 109.814C593.88 110.63 594.483 111.5 594.64 112.606L594.666 112.606ZM626.377 73.9722C625.643 73.6823 624.909 73.366 624.096 73.2341C623.362 73.0758 622.628 73.023 621.893 73.0755C621.238 73.1543 620.556 73.2858 620.058 73.6545C619.533 74.0231 619.166 74.6289 619.035 75.4191C618.877 75.8668 618.956 76.3146 619.113 76.6044C619.323 76.9733 619.559 77.2631 619.847 77.5002C620.135 77.711 620.503 77.9482 620.948 78.08C621.394 78.1591 621.761 78.2383 622.207 78.2384C622.285 78.976 622.049 79.5817 621.472 80.0294C620.948 80.477 620.292 80.7666 619.427 80.9244C619.715 81.4513 619.872 81.9519 619.793 82.5577C619.636 83.1371 619.426 83.6639 619.059 84.1116C618.692 84.5593 618.246 84.8489 617.721 85.0859C617.144 85.2438 616.62 85.2436 616.017 84.9274C614.339 83.9523 613.159 82.9247 612.426 81.8182C611.77 80.7117 611.404 79.3155 611.483 77.6824C611.562 76.6551 611.85 75.6806 612.506 74.7325C613.162 73.8371 613.896 72.968 614.945 72.2834C615.889 71.5461 617.017 70.9406 618.249 70.5721C619.429 70.2037 620.688 70.0459 621.999 70.2043C623.1 70.3627 624.123 70.7844 624.935 71.5485C625.748 72.2862 626.194 73.1029 626.403 73.9986L626.377 73.9722ZM590.688 85.711C590.242 86.3694 589.953 87.1068 589.665 87.9233C589.376 88.7398 589.087 89.5563 588.851 90.4255C588.641 91.242 588.405 92.1376 588.116 92.875C587.828 93.6915 587.539 94.35 587.172 94.9294C586.647 95.6668 585.992 96.2725 585.336 96.6411C584.602 97.0887 583.789 97.3782 583.055 97.5361C582.242 97.7729 581.429 97.9044 580.616 98.0622C579.803 98.1411 579.069 98.2726 578.335 98.5094C578.492 96.8763 578.912 95.2697 579.726 93.7684C580.539 92.2145 581.562 90.8977 582.742 89.6337C583.922 88.4486 585.234 87.5007 586.65 86.7635C588.039 86.1054 589.377 85.737 590.688 85.7373L590.688 85.711ZM645.846 120.97C645.846 120.68 645.768 120.522 645.479 120.443C645.112 120.443 644.955 120.601 644.955 120.89C644.876 121.18 645.033 121.338 645.322 121.417C645.61 121.417 645.768 121.338 645.846 120.97ZM669.609 95.1881C669.609 94.8983 669.452 94.7402 669.163 94.6611C668.875 94.6611 668.717 94.74 668.639 95.0298C668.639 95.3986 668.796 95.5566 669.084 95.5567C669.373 95.6358 669.53 95.4778 669.609 95.1881Z" fill="#D2B897"/>
</g>
<defs>
<clipPath id="clip0_149_118">
<rect width="165" height="1020" fill="white" transform="translate(0 165) rotate(-89.985)"/>
</clipPath>
</defs>
</svg>
