<svg width="256" height="256" viewBox="0 0 256 256" fill="none" xmlns="http://www.w3.org/2000/svg">
<path d="M68.7 7C64.3 8.3 60.2 11.9 58.1 16.3C57 18.6 56.8 20.1 56.6 26.9L56.4 34.9H48.7C35.2 34.9 27.6 37.6 20.2 45.1C15.5 49.8 12.8 54.5 11.2 60.8C10.1 65.2 10 67.5 10 142C10 205.6 10.2 219.4 10.8 222.6C13.4 234.8 23.9 245.5 36.2 248.4C41.8 249.7 214.1 249.7 219.6 248.4C226.1 246.9 230.5 244.3 235.7 239.1C240.8 234.1 243.3 229.7 244.9 223.4C246.2 218.2 246.2 66.7 244.9 61.1C242 48.8 231.2 38.4 218.8 35.8C216.4 35.3 211.5 34.9 207.1 34.9H199.4L199.2 26.9C198.9 17.8 198.1 15.2 194.4 11.5C191 8.1 188.1 6.9 182.7 6.6C176.5 6.3 172.8 7.5 169 11C164.8 15 163.7 18.1 163.4 27.3L163.1 35H127.8H92.7L92.4 27C92.1 17.8 91.5 16 87.5 11.7C84 8 80.1 6.5 74.3 6.5C72 6.5 69.5 6.8 68.7 7ZM59.7 61.2C61.6 63.9 65.5 66.6 68.9 67.5C72.4 68.5 80.1 67.9 82.8 66.5C87.4 64.1 91.7 58 91.8 54C91.8 51.2 92.8 51.7 93.6 54.9C95.7 64.3 91.2 73.8 82.6 77.9C79.8 79.2 78.6 79.4 74.1 79.4C69.3 79.4 68.6 79.2 65.2 77.4C60.7 75 57.4 71.3 55.7 66.9C54.2 63.1 54 57.8 55.1 54.1L55.9 51.5L56.9 55.1C57.6 57.2 58.8 59.9 59.7 61.2ZM165 58C166 61 169.5 64.6 172.8 66.4C175.8 68 183.3 68.5 187 67.6C192.8 66 197.6 60.9 198.9 54.8L199.6 51.6L200.4 53.9C201.6 57.3 201.2 64.8 199.5 68.2C197.5 72.3 194.6 75.3 190.6 77.5C187.2 79.4 186.6 79.5 181.4 79.5C174.7 79.5 171.7 78.2 167.1 73.7C162.2 68.8 160.2 61 162.3 54.2L163.1 51.7L163.6 53.7C163.9 54.7 164.4 56.7 165 58ZM227.9 130.8V163.4L226.2 167.9C221.4 180.4 211.2 192.7 197.7 202.4C191 207.2 176.1 214.7 166.8 217.9L159.9 220.3H100.8C62.4 220.3 41 220.1 39.6 219.7C36.2 218.7 32 215.6 30.1 212.5L28.4 209.7L28.1 154L28 98.3H127.9H227.8V130.8H227.9ZM226.4 211.4C224.8 214.7 222.7 216.7 218.9 218.8C216.7 220 215.6 220.1 203.2 220.2L189.8 220.4L192.1 219.1C197.3 216.1 206.4 209.9 210.5 206.6C215.4 202.6 222.7 195.1 225.7 191L227.6 188.4L227.8 198.5C227.9 208 227.9 208.4 226.4 211.4Z" fill="#002855"/>
<path d="M95.3998 120.1C83.0998 123.4 74.5998 136.5 76.6998 148.9C77.8998 155.8 80.4998 160.1 88.5998 167.8C104.7 183.4 124.4 197.3 129 196.2C135.2 194.9 158.4 177.3 170.3 164.9C180.1 154.7 182.1 144.6 176.5 133.4C171.8 123.9 162.4 118.7 151.2 119.5C141 120.2 133.4 124.6 129.9 131.8C129.1 133.4 128.5 135.2 128.5 135.7C128.5 136.3 128.3 136.7 127.9 136.7C127.6 136.7 127.3 136.2 127.3 135.7C127.3 132.3 122.4 125.8 117.7 123C112.1 119.7 102 118.4 95.3998 120.1Z" fill="#002855"/>
</svg>
