<?xml version="1.0" encoding="UTF-8"?>
<svg id="Design" xmlns="http://www.w3.org/2000/svg" viewBox="0 0 164.91 16.64">
  <defs>
    <style>
      .cls-1, .cls-2 {
        fill: #c5ac84;
        stroke-width: 0px;
      }

      .cls-2 {
        fill-rule: evenodd;
      }
    </style>
  </defs>
  <path class="cls-1" d="M82.19,16.64c.64,0,1.17-.23,1.61-.67.44-.44.67-1,.67-1.61s-.23-1.11-.67-1.55c-.44-.44-.97-.67-1.61-.67s-1.17.23-1.61.67c-.44.44-.64.97-.64,1.55,0,.62.2,1.17.64,1.61.44.44.97.67,1.61.67h0ZM80.43,11.28c.15-.12.41-.2.76-.32.38-.09.7-.12.97-.06-.64-1.44-1.03-2.9-1.08-4.4-.06-1.49.23-2.73.85-3.66-.18.67-.29,1.4-.35,2.17-.06.79-.03,1.52.06,2.25.12.73.29,1.44.56,2.11.26.67.64,1.29,1.11,1.79-.06-.85.03-1.64.26-2.31.21-.67.56-1.23,1.03-1.64.44-.41,1-.67,1.64-.76.67-.09,1.38.06,2.2.41.03-.64-.18-1.14-.56-1.55-.41-.38-.88-.65-1.47-.73-.56-.09-1.14,0-1.76.26-.62.26-1.17.76-1.61,1.44-.12-.3-.15-.59-.06-.88.06-.26.18-.56.29-.85.15-.29.29-.59.44-.88.15-.26.23-.56.26-.85.06-.59-.03-1.11-.32-1.61-.26-.5-.59-.91-1.03-1.2-.5.12-.88.44-1.14.94-.26.5-.5,1-.7,1.49-.12.32-.2.65-.2,1.03-.03.38-.03.76-.03,1.08s0,.62-.03.85c-.03.26-.12.41-.26.44-.18.03-.29,0-.38-.12-.12-.12-.21-.23-.32-.41-.12-.21-.23-.38-.35-.56-.15-.21-.32-.35-.53-.44-.53-.29-1.05-.35-1.55-.15-.53.18-.97.59-1.29,1.17.88.32,1.58.73,2.17,1.23.59.5,1.05,1,1.41,1.52.35.53.62,1.08.76,1.64.18.59.26,1.08.26,1.55h0ZM67.25,16.55c.26-.47.59-.88.91-1.29.32-.38.73-.76,1.23-1.08.5-.32,1.14-.59,1.9-.79.79-.2,1.76-.32,2.9-.35.94-.03,1.76.09,2.4.41.64.32,1.35.7,2.08,1.14-.06-.15-.06-.32-.06-.53.03-.23.06-.41.12-.56-.64-.5-1.44-.94-2.32-1.32-.88-.38-1.87-.59-2.93-.59-1.17-.03-2.31.12-3.49.44-1.14.32-2.02.76-2.67,1.29.2-.53.73-1,1.55-1.41.82-.41,1.79-.7,2.96-.82,1.14-.15,2.37-.12,3.69.06,1.32.18,2.58.59,3.78,1.2-.79-.73-1.61-1.26-2.52-1.55-.91-.29-1.88-.47-2.87-.47-1-.03-2.02.06-3.08.21-1.03.18-2.05.38-3.08.59-1.03.23-2.02.44-3.02.62-.97.18-1.88.26-2.7.26-.18.41-.15.88.12,1.44.23.56.59,1,1.03,1.35.26.21.56.29.85.26.29-.03.59-.06.88-.15.32-.06.62-.15.91-.21.29-.06.59-.03.85.09-.26.32-.38.7-.29,1.08.06.38.35.62.85.67h0ZM63.44,15.44c-.5-.32-.94-.73-1.32-1.29-.38-.53-.53-1.06-.5-1.52,0-.38.09-.73.26-1.05.2-.29.41-.62.62-.91.2-.3.38-.59.56-.85.15-.29.23-.59.2-.94-.06-.29-.23-.53-.47-.7-.26-.18-.56-.29-.91-.35-.35-.06-.73-.06-1.14.03-.41.06-.76.21-1.06.38-.59.38-1.03.88-1.29,1.52-.29.64-.2,1.29.23,1.99.09-.47.23-.88.5-1.32.23-.44.5-.79.82-1.08.35-.29.67-.53,1.03-.65.35-.12.73-.06,1.08.15-.76.06-1.41.41-1.96,1.03-.56.62-.82,1.38-.79,2.31,0,.44.12.88.35,1.32.23.41.53.79.91,1.11.38.32.79.59,1.32.73.5.18,1.03.2,1.55.09h0ZM82.34,15.65c-.23,0-.35-.09-.35-.29,0-.26.12-.38.35-.38.21,0,.29.12.29.38,0,.2-.09.29-.29.29h0Z"/>
  <path class="cls-1" d="M162.62,15.97c.64,0,1.17-.24,1.61-.67.44-.44.67-1,.67-1.61s-.23-1.11-.67-1.55c-.44-.44-.97-.67-1.61-.67s-1.17.24-1.61.67c-.44.44-.64.97-.64,1.55s.21,1.17.64,1.61c.44.44.97.67,1.61.67h0ZM162.77,14.97c-.23,0-.35-.09-.35-.29,0-.26.12-.38.35-.38.21,0,.29.12.29.38,0,.21-.09.29-.29.29h0Z"/>
  <path class="cls-1" d="M2.26,15.47c-.62,0-1.14-.21-1.58-.67-.47-.44-.67-.97-.67-1.58s.2-1.11.67-1.55c.44-.47.97-.67,1.58-.67s1.2.21,1.64.67c.41.44.64.97.64,1.55,0,.62-.23,1.14-.64,1.58-.44.47-1,.67-1.64.67h0ZM2.14,14.5c.23,0,.35-.12.35-.32,0-.23-.12-.35-.35-.35-.21,0-.32.12-.32.35,0,.21.12.32.32.32h0Z"/>
  <path class="cls-1" d="M97.04,16.55c-.26-.44-.56-.85-.88-1.26-.32-.41-.73-.76-1.23-1.08-.53-.32-1.14-.59-1.93-.82-.76-.2-1.73-.32-2.87-.35-.97-.03-1.76.12-2.4.44-.67.29-1.35.67-2.11,1.11.06-.15.09-.32.09-.53-.03-.2-.06-.38-.12-.53.64-.5,1.41-.94,2.31-1.35.88-.38,1.88-.56,2.93-.56,1.14-.03,2.31.12,3.46.44,1.17.32,2.05.76,2.67,1.29-.21-.53-.7-1-1.52-1.44-.82-.41-1.79-.67-2.96-.82-1.14-.12-2.4-.09-3.72.09-1.32.18-2.55.56-3.75,1.2.76-.76,1.61-1.26,2.52-1.58.91-.29,1.85-.44,2.87-.44,1-.03,2.02.06,3.08.21,1.03.18,2.05.35,3.08.59,1.03.21,2.02.41,2.99.59,1,.18,1.9.26,2.72.26.18.44.15.91-.12,1.47-.23.53-.59,1-1.03,1.35-.29.2-.56.29-.85.26-.29-.03-.59-.09-.91-.15-.29-.09-.59-.15-.88-.21s-.59-.03-.85.09c.26.32.38.67.29,1.05-.06.41-.35.62-.88.67h0ZM100.88,15.44c.5-.29.94-.7,1.32-1.26.35-.56.53-1.05.5-1.52,0-.38-.09-.73-.29-1.06-.18-.32-.38-.62-.59-.91-.21-.29-.41-.59-.56-.88-.18-.26-.23-.59-.21-.91.06-.29.21-.53.47-.7.26-.18.56-.29.91-.35.35-.06.73-.06,1.14.03.38.06.73.18,1.03.35.62.41,1.05.91,1.32,1.55.29.65.21,1.29-.23,1.96-.09-.44-.26-.88-.5-1.29-.23-.44-.5-.82-.85-1.11-.32-.29-.64-.5-1.03-.62-.35-.12-.7-.06-1.05.15.73.06,1.41.38,1.96,1.03.56.62.82,1.38.79,2.29,0,.47-.12.91-.35,1.32-.23.44-.53.82-.91,1.14-.38.32-.82.56-1.32.73-.5.18-1.03.18-1.55.06h0Z"/>
  <path class="cls-2" d="M58.95,14.53l-56.7-.82v-.47l56.05-.91c-.32.62.12,1.47.64,2.2h0Z"/>
  <path class="cls-2" d="M105.95,14.53l56.67-.82v-.47l-56.02-.91c.32.62-.12,1.47-.64,2.2h0Z"/>
</svg>