<svg width="1673" height="1155" viewBox="0 0 1673 1155" fill="none" xmlns="http://www.w3.org/2000/svg">
<path d="M1484.83 4V62.3043C1485.05 62.3454 1547.33 73.8559 1572.43 97.2869C1597.56 120.76 1606.31 173.915 1606.31 173.915H1668.97V395.508H1669L1669 976.363L1609.54 976.463C1609.53 976.499 1599.91 1035.28 1570.72 1059.27C1544.6 1080.73 1485.2 1088.83 1485.11 1088.84L1485.24 1148.81L188.558 1151L188.427 1092.7C188.204 1092.65 125.899 1081.25 100.753 1057.86C75.5956 1034.46 66.7169 981.435 66.6928 981.291L4.03372 981.396V855.243H4V176.137H63.4633C63.4762 176.059 73.2302 117.331 102.466 93.4C128.65 71.9673 188.145 63.9702 188.145 63.9702V4H1484.83Z" fill="white" stroke="url(#paint0_linear_135_131)" stroke-width="8"/>
<defs>
<linearGradient id="paint0_linear_135_131" x1="-40296.4" y1="577.545" x2="2314.16" y2="577.545" gradientUnits="userSpaceOnUse">
<stop stop-color="#926C2E"/>
<stop offset="0.524038" stop-color="#B8995F"/>
<stop offset="1" stop-color="#DBC28B"/>
</linearGradient>
</defs>
</svg>
