<svg width="136" height="48" viewBox="0 0 136 48" fill="none" xmlns="http://www.w3.org/2000/svg">
<path d="M68.0889 0.0866698C66.2534 0.0843212 64.7723 0.733739 63.5273 1.97554C62.2824 3.21735 61.6882 4.81524 61.686 6.56192C61.6837 8.30859 62.274 9.73037 63.5158 10.9754C64.7576 12.2203 66.2666 12.9032 68.0725 12.9055C69.8784 12.9078 71.389 12.2584 72.6341 10.987C73.879 9.74522 74.5619 8.23626 74.564 6.57839C74.5662 4.83172 73.9169 3.26184 72.6456 1.98721C71.4038 0.742225 69.8948 0.0889805 68.0889 0.0866698ZM63.0662 15.2971C63.0645 16.6293 62.8259 18.05 62.3205 19.7072C61.904 21.2757 61.1618 22.8734 60.1534 24.3524C59.1449 25.8313 57.8109 27.2506 56.1512 28.6696C54.4915 30.0885 52.4769 31.2405 49.989 32.155C50.9046 33.8141 52.1465 34.9702 53.6557 35.4755C55.076 36.0694 56.5564 35.8936 58.0673 35.0666C58.6597 34.8305 59.1635 34.4167 59.5788 33.8252C59.9051 33.3223 60.2313 32.8194 60.5873 32.2574C60.9136 31.7545 61.1805 31.4292 61.5065 31.104C61.7438 30.7786 62.0992 30.6903 62.5727 30.7797C62.9871 30.8691 63.2234 31.2838 63.3113 32.024C63.3992 32.6755 63.3982 33.5044 63.397 34.4517C63.3958 35.3991 63.3944 36.4353 63.4819 37.5307C63.4805 38.5965 63.7161 39.5146 64.0702 40.4328C64.6605 41.8545 65.31 43.2468 66.0483 44.6688C66.7866 46.0907 67.8808 47.0099 69.3014 47.3374C70.5459 46.51 71.4651 45.3566 72.207 43.9365C73.0378 42.5166 73.2765 41.0366 73.1306 39.3786C73.0429 38.5495 72.8071 37.7203 72.3936 36.9797C71.9802 36.1502 71.5668 35.3207 71.1534 34.4913C70.8288 33.6619 70.5042 32.8326 70.3275 32.0626C70.0918 31.2334 70.152 30.4045 70.5083 29.5761C71.7493 31.502 73.3461 32.8954 75.0622 33.6673C76.808 34.4097 78.4655 34.6783 80.0645 34.4139C81.7226 34.1791 83.0558 33.4111 84.2118 32.3468C85.3086 31.1937 85.8729 29.7734 85.7865 27.9378C83.4464 28.9413 81.4624 29.3532 79.5384 29.0843C77.7032 28.8452 76.1352 28.0734 74.8932 26.9173C73.5625 25.761 72.558 24.161 71.9979 22.2656C71.3491 20.3405 71.0855 18.1198 71.2662 15.6924C69.9322 17.1117 68.8642 18.8571 68.092 20.7508C67.3495 22.6741 66.8436 24.657 66.5153 26.7289C66.2759 28.8009 66.1844 30.8731 66.3295 33.1233C66.5044 35.2846 66.8274 37.3574 67.3282 39.2823C65.5849 36.6157 64.7605 33.1213 64.9435 28.888C65.1266 24.6548 66.1977 20.4819 68.0384 16.4284C67.298 16.6051 66.3804 16.5151 65.2854 16.2473C64.2792 15.9203 63.5394 15.6529 63.1254 15.3268L63.0662 15.2971ZM25.6947 0.269268C24.2735 0.445078 23.4437 1.09531 23.2943 2.1905C23.056 3.28557 23.3803 4.35175 24.1192 5.27045C23.3787 5.59515 22.5497 5.68291 21.721 5.50422C20.8923 5.32553 20.0636 5.08763 19.1461 4.90883C18.3175 4.64133 17.4887 4.58106 16.6599 4.49118C15.831 4.40131 15.0018 4.66669 14.2609 5.22823C13.0163 6.2332 12.0081 7.47531 11.3548 9.04352C10.6127 10.6116 10.5221 11.9437 11.0239 13.1285C13.3627 13.1315 15.938 13.3717 18.661 13.8784C21.4728 14.3853 24.3141 14.981 27.2145 15.6361C30.115 16.2319 33.0451 16.7981 35.9457 17.3051C38.9353 17.7234 41.8362 17.9935 44.6784 17.9084C47.4908 17.912 50.2447 17.4122 52.8213 16.5866C55.398 15.7609 57.7387 14.2541 59.9913 12.1846C56.5845 13.927 53.0009 15.077 49.2701 15.5755C45.5392 16.074 42.0458 16.1583 38.7898 15.7397C35.4745 15.4098 32.7223 14.5773 30.3851 13.3902C28.0478 12.2326 26.5692 10.8985 25.9791 9.38788C27.8127 10.8705 30.2978 12.1467 33.5532 13.039C36.8678 13.9609 40.1238 14.3796 43.4396 14.295C46.4297 14.2988 49.2725 13.7104 51.7606 12.6478C54.2488 11.5556 56.5004 10.3151 58.3376 8.92601C58.1605 8.51132 58.102 8.00796 58.014 7.35655C58.0147 6.76445 58.0154 6.26117 58.1935 5.87654C56.1196 7.11729 54.1051 8.21008 52.298 9.12551C50.4613 10.0409 48.1518 10.3636 45.4874 10.2714C42.231 10.1784 39.5078 9.84926 37.2586 9.25429C35.0983 8.65943 33.2637 7.91697 31.8439 6.99741C30.424 6.07785 29.2708 4.98099 28.3544 3.91405C27.4382 2.75829 26.522 1.57293 25.7836 0.239771L25.6947 0.269268ZM14.8553 3.4231C13.3459 3.09552 11.8656 3.15283 10.4439 3.65429C8.93357 4.06682 7.77804 4.80547 6.7111 5.72185C5.64415 6.63823 4.78425 7.7029 4.13143 8.88625C3.47853 10.1288 3.1217 11.3718 3.12011 12.6152C3.02788 15.2795 3.79485 17.4416 5.36166 19.1903C6.92847 20.9389 8.76267 21.9479 10.9236 22.0987C9.9163 22.6895 8.85034 22.8361 7.8442 22.5092C6.83806 22.1822 5.9212 21.5001 4.9453 20.67C4.02862 19.8399 3.28979 18.8324 2.61047 17.5881C1.87194 16.3438 1.45895 15.1886 1.19421 13.8561C-0.0517631 15.8676 -0.320519 17.6732 0.535667 19.5097C1.27344 21.3462 2.51503 22.7688 4.20113 23.8367C5.02942 24.3411 6.03543 24.7568 7.18979 24.9359C8.34406 25.1742 9.43943 25.1756 10.4462 25.0289C11.453 24.8526 12.2823 24.528 13.0231 24.0256C13.675 23.5232 14.1792 22.8725 14.3578 22.0438C14.4479 21.0374 14.1826 20.2081 13.7691 19.3787C13.2668 18.6379 12.7646 17.8083 12.2032 16.9787C11.6121 16.149 11.0508 15.2305 10.4598 14.4008C9.95767 13.4824 9.72209 12.5052 9.72349 11.4098C9.63638 10.0775 10.0527 8.59779 11.1501 7.08935C12.2474 5.52171 13.4924 4.3391 14.8849 3.45274L14.8553 3.4231ZM68.4998 2.89965C69.0918 2.9004 69.3283 3.16714 69.3276 3.72963C69.3267 4.46975 69.0894 4.82471 68.4973 4.82395C67.9052 4.8232 67.4911 4.49701 67.4921 3.72728C67.4929 3.13519 67.8188 2.89877 68.4998 2.89965Z" fill="#D2B897"/>
<path d="M110.247 0.379885C111.757 0.559445 112.585 1.12299 112.732 2.30736C112.967 3.40304 112.64 4.37958 111.899 5.29638C112.639 5.62298 113.467 5.71285 114.297 5.56589C115.126 5.41893 115.955 5.24236 116.784 4.97698C117.702 4.80052 118.531 4.65356 119.36 4.56581C120.189 4.47806 120.929 4.74545 121.757 5.30899C122.999 6.31714 124.004 7.65064 124.654 9.13171C125.392 10.7017 125.479 12.034 124.974 13.2768C122.635 13.2738 120.059 13.5073 117.246 14.007C114.492 14.5068 111.679 15.0953 108.748 15.654C105.845 16.3016 102.914 16.8011 100.012 17.3007C97.0214 17.7113 94.1198 17.9444 91.2779 17.8816C88.3766 17.8779 85.7127 17.46 83.1382 16.6278C80.5637 15.7068 78.138 14.2826 75.9796 12.1187C79.3818 13.9586 82.8738 15.0288 86.6033 15.5369C90.3329 16.0449 93.9149 16.1383 97.1719 15.7872C100.488 15.377 103.242 14.6404 105.583 13.4592C107.923 12.2188 109.316 10.8884 109.91 9.37929C108.162 10.8869 105.673 12.1271 102.327 13.0406C99.0689 13.9541 95.7527 14.3644 92.5259 14.2714C89.5358 14.2676 86.6944 13.7607 84.209 12.6917C81.6349 11.5042 79.4753 10.2877 77.6416 8.86433C77.8198 8.45009 77.8796 7.94688 77.9692 7.3549C77.97 6.76281 77.8818 6.25941 77.7343 5.87436C79.8938 7.12052 81.8167 8.21836 83.7104 9.04971C85.5447 9.96981 87.7941 10.3872 90.5178 10.3018C93.7745 10.2172 96.4985 9.89501 98.6604 9.30568C100.911 8.65726 102.659 7.88977 104.14 6.97392C105.562 6.05799 106.718 5.05291 107.638 3.8995C108.557 2.7461 109.387 1.56297 110.129 0.320523L110.247 0.379885ZM121.138 3.56152C122.648 3.2378 124.128 3.2397 125.549 3.7448C126.969 4.2499 128.212 4.90278 129.276 5.82189C130.37 6.74104 131.198 7.80787 131.848 9.08171C132.497 10.2371 132.851 11.481 132.849 12.8132C132.935 15.3889 132.192 17.5491 130.591 19.2937C129.02 21.1272 127.094 22.0425 125.022 22.1879C126.028 22.7812 127.004 22.9305 128.011 22.6062C129.077 22.2819 129.996 21.6909 130.915 20.8632C131.922 20.0355 132.664 18.9707 133.317 17.6986C133.97 16.5448 134.474 15.3021 134.743 14.0294C135.983 15.9553 136.248 17.7615 135.387 19.5959C134.644 21.4304 133.399 22.8499 131.651 24.0022C130.821 24.5045 129.814 24.8288 128.748 25.0051C127.593 25.2404 126.498 25.239 125.492 25.0897C124.485 24.9108 123.657 24.5841 122.917 24.0799C122.178 23.5756 121.764 22.8942 121.588 22.065C121.5 21.1472 121.679 20.2297 122.183 19.4902C122.599 18.6618 123.192 17.8336 123.755 17.0054C124.349 16.1772 124.912 15.349 125.417 14.4319C126.01 13.5149 126.248 12.5087 126.249 11.4429C126.34 10.1108 125.838 8.71876 124.834 7.11882C123.74 5.54837 122.499 4.3626 121.108 3.53189L121.138 3.56152Z" fill="#D2B897"/>
</svg>
