<svg width="1255" height="1831" viewBox="0 0 1255 1831" fill="none" xmlns="http://www.w3.org/2000/svg">
<path d="M62.1299 214.406C46.5384 217.316 39.9918 191.319 60.1691 188.313C88.2212 184.156 100.745 237.174 62.541 242.099C5.48805 249.453 -9.34445 143.768 23.5464 89.6624C51.5036 43.6469 124.369 72.3946 99.0056 98.0405C73.6417 123.686 38.6003 52.089 92.5855 23.2134C145.053 -4.86278 246.73 5.52987 239.456 63.2171C234.585 101.846 182.15 89.1827 186.261 60.8188C189.234 40.4172 214.946 47.0365 212.068 62.8014" stroke="#EEBF8C" stroke-width="1.44" stroke-linecap="round" stroke-linejoin="round"/>
<path d="M222.062 24.6834C255.49 42.4948 312.765 68.8441 331.013 40.736C359.697 -3.3608 298.628 -11.0034 319.311 38.3057C334.207 73.8326 416.307 75.1117 445.435 48.3786C481.33 15.4739 418.901 -17.8466 404.258 12.8837C394.928 32.4858 414.442 46.6199 429.907 35.6836C443.695 25.9305 419.375 11.093 419.28 30.5672C419.217 46.9396 434.872 78.3414 484.493 47.9309" stroke="#EEBF8C" stroke-width="1.44" stroke-linecap="round" stroke-linejoin="round"/>
<path d="M24.432 224.51C42.0476 258.31 68.1072 316.221 40.3082 334.672C-3.30384 363.675 -10.8624 301.927 37.9046 322.84C73.0409 337.902 74.3059 420.915 47.8667 450.366C15.3238 486.66 -17.6303 423.537 12.7304 408.732C32.1171 399.298 46.0957 419.028 35.2797 434.665C25.6338 448.607 10.9594 424.017 30.2195 423.921C46.4119 423.857 77.4685 439.686 47.424 489.858" stroke="#EEBF8C" stroke-width="1.44" stroke-linecap="round" stroke-linejoin="round"/>
<path d="M64.2489 65.4219C28.4485 82.8496 2.76835 215.684 62.13 214.405" stroke="#EEBF8C" stroke-width="1.44" stroke-linecap="round" stroke-linejoin="round"/>
<path d="M64.2488 65.4223C81.39 29.1599 212.669 2.77856 211.562 62.8321" stroke="#EEBF8C" stroke-width="1.44" stroke-linecap="round" stroke-linejoin="round"/>
<path d="M239.614 61.7453C260.677 69.7716 311.31 72.9054 325.004 47.2275" stroke="#EEBF8C" stroke-width="1.44" stroke-linecap="round" stroke-linejoin="round"/>
<path d="M484.556 47.9618C421.146 109.774 333.922 72.9042 325.035 47.1943" stroke="#EEBF8C" stroke-width="1.44" stroke-linecap="round" stroke-linejoin="round"/>
<path d="M61.0864 242.257C69.0245 263.554 72.1238 314.75 46.7283 328.596" stroke="#EEBF8C" stroke-width="1.44" stroke-linecap="round" stroke-linejoin="round"/>
<path d="M47.4555 489.923C108.588 425.808 72.1237 337.615 46.6965 328.629" stroke="#EEBF8C" stroke-width="1.44" stroke-linecap="round" stroke-linejoin="round"/>
<path fill-rule="evenodd" clip-rule="evenodd" d="M484.556 47.9621C481.14 21.0052 497.175 -4.6407 514.569 10.6445C531.71 25.7378 510.552 47.4505 484.556 47.9621Z" stroke="#EEBF8C" stroke-width="1.44" stroke-linecap="round" stroke-linejoin="round"/>
<path fill-rule="evenodd" clip-rule="evenodd" d="M47.4555 489.922C20.795 486.469 -4.56892 502.681 10.5482 520.269C25.4756 537.6 46.9495 516.208 47.4555 489.922Z" stroke="#EEBF8C" stroke-width="1.44" stroke-linecap="round" stroke-linejoin="round"/>
<path fill-rule="evenodd" clip-rule="evenodd" d="M61.877 62.2562C44.546 67.4685 24.8748 63.4074 17.8538 53.1426C9.75762 41.279 17.8222 24.7147 33.6667 32.8689C27.2467 15.6331 43.5972 10.0051 53.9705 16.4965C64.5019 23.0519 66.9055 44.8924 61.877 62.2242V62.2562Z" stroke="#EEBF8C" stroke-width="1.44" stroke-linecap="round" stroke-linejoin="round"/>
<path d="M1192.34 214.406C1207.93 217.316 1214.48 191.319 1194.3 188.313C1166.25 184.156 1153.73 237.174 1191.93 242.099C1248.98 249.453 1263.82 143.768 1230.92 89.6624C1202.97 43.6469 1130.1 72.3946 1155.47 98.0405C1180.83 123.686 1215.87 52.089 1161.89 23.2134C1109.42 -4.86278 1007.74 5.52987 1015.02 63.2171C1019.89 101.846 1072.32 89.1827 1068.21 60.8188C1065.24 40.4172 1039.53 47.0365 1042.4 62.8014" stroke="#EEBF8C" stroke-width="1.44" stroke-linecap="round" stroke-linejoin="round"/>
<path d="M1032.41 24.6834C998.981 42.4948 941.707 68.8441 923.459 40.736C894.774 -3.3608 955.844 -11.0034 935.16 38.3057C920.265 73.8326 838.164 75.1117 809.037 48.3786C773.141 15.4739 835.571 -17.8466 850.213 12.8837C859.543 32.4858 840.03 46.6199 824.565 35.6836C810.776 25.9305 835.096 11.093 835.191 30.5672C835.254 46.9396 819.6 78.3414 769.979 47.9309" stroke="#EEBF8C" stroke-width="1.44" stroke-linecap="round" stroke-linejoin="round"/>
<path d="M1230.04 224.51C1212.42 258.31 1186.36 316.221 1214.16 334.672C1257.78 363.675 1265.33 301.927 1216.57 322.84C1181.43 337.902 1180.17 420.915 1206.57 450.366C1239.12 486.66 1272.07 423.537 1241.71 408.732C1222.32 399.298 1208.34 419.028 1219.16 434.665C1228.81 448.607 1243.48 424.017 1224.22 423.921C1208.03 423.857 1176.97 439.686 1207.02 489.858" stroke="#EEBF8C" stroke-width="1.44" stroke-linecap="round" stroke-linejoin="round"/>
<path d="M1190.22 65.4219C1226.02 82.8496 1251.7 215.684 1192.34 214.405" stroke="#EEBF8C" stroke-width="1.44" stroke-linecap="round" stroke-linejoin="round"/>
<path d="M1190.22 65.4223C1173.08 29.1599 1041.8 2.77856 1042.91 62.8321" stroke="#EEBF8C" stroke-width="1.44" stroke-linecap="round" stroke-linejoin="round"/>
<path d="M1014.86 61.7453C993.795 69.7716 943.162 72.9054 929.468 47.2275" stroke="#EEBF8C" stroke-width="1.44" stroke-linecap="round" stroke-linejoin="round"/>
<path d="M769.947 47.9618C833.357 109.774 920.581 72.9042 929.468 47.1943" stroke="#EEBF8C" stroke-width="1.44" stroke-linecap="round" stroke-linejoin="round"/>
<path d="M1193.42 242.257C1185.48 263.554 1182.38 314.75 1207.77 328.596" stroke="#EEBF8C" stroke-width="1.44" stroke-linecap="round" stroke-linejoin="round"/>
<path d="M1207.05 489.923C1145.91 425.808 1182.38 337.615 1207.81 328.629" stroke="#EEBF8C" stroke-width="1.44" stroke-linecap="round" stroke-linejoin="round"/>
<path fill-rule="evenodd" clip-rule="evenodd" d="M769.947 47.9621C773.363 21.0052 757.329 -4.6407 739.934 10.6445C722.793 25.7378 743.951 47.4505 769.947 47.9621Z" stroke="#EEBF8C" stroke-width="1.44" stroke-linecap="round" stroke-linejoin="round"/>
<path fill-rule="evenodd" clip-rule="evenodd" d="M1207.05 489.922C1233.71 486.469 1259.07 502.681 1243.95 520.269C1229.03 537.6 1207.55 516.208 1207.05 489.922Z" stroke="#EEBF8C" stroke-width="1.44" stroke-linecap="round" stroke-linejoin="round"/>
<path fill-rule="evenodd" clip-rule="evenodd" d="M1192.63 62.2562C1209.96 67.4685 1229.63 63.4074 1236.65 53.1426C1244.75 41.279 1236.68 24.7147 1220.84 32.8689C1227.26 15.6331 1210.91 10.0051 1200.53 16.4965C1190 23.0519 1187.6 44.8924 1192.63 62.2242V62.2562Z" stroke="#EEBF8C" stroke-width="1.44" stroke-linecap="round" stroke-linejoin="round"/>
<path d="M62.1299 1616.01C46.5384 1613.1 39.9918 1639.1 60.1691 1642.1C88.2212 1646.26 100.745 1593.24 62.541 1588.31C5.48805 1580.96 -9.34445 1686.65 23.5464 1740.75C51.5036 1786.77 124.369 1758.02 99.0056 1732.37C73.6417 1706.73 38.6003 1778.32 92.5855 1807.2C145.053 1835.28 246.73 1824.88 239.456 1767.2C234.585 1728.57 182.15 1741.23 186.261 1769.59C189.234 1790 214.946 1783.38 212.068 1767.61" stroke="#EEBF8C" stroke-width="1.44" stroke-linecap="round" stroke-linejoin="round"/>
<path d="M222.062 1805.7C255.49 1787.88 312.765 1761.54 331.013 1789.64C359.697 1833.74 298.628 1841.38 319.311 1792.07C334.207 1756.55 416.307 1755.27 445.435 1782C481.33 1814.91 418.901 1848.23 404.258 1817.53C394.928 1797.93 414.442 1783.79 429.907 1794.73C443.695 1804.48 419.375 1819.32 419.28 1799.84C419.217 1783.47 434.872 1752.07 484.493 1782.48" stroke="#EEBF8C" stroke-width="1.44" stroke-linecap="round" stroke-linejoin="round"/>
<path d="M24.432 1605.87C42.0476 1572.07 68.1072 1514.16 40.3082 1495.71C-3.30384 1466.7 -10.8624 1528.45 37.9046 1507.54C73.0409 1492.48 74.3059 1409.46 47.8667 1380.01C15.3238 1343.72 -17.6303 1406.84 12.7304 1421.65C32.1171 1431.08 46.0957 1411.35 35.2797 1395.71C25.6338 1381.77 10.9594 1406.36 30.2195 1406.46C46.4119 1406.52 77.4685 1390.69 47.424 1340.52" stroke="#EEBF8C" stroke-width="1.44" stroke-linecap="round" stroke-linejoin="round"/>
<path d="M64.2489 1764.96C28.4485 1747.53 2.76835 1614.69 62.13 1615.97" stroke="#EEBF8C" stroke-width="1.44" stroke-linecap="round" stroke-linejoin="round"/>
<path d="M64.2488 1764.96C81.39 1801.22 212.669 1827.6 211.562 1767.55" stroke="#EEBF8C" stroke-width="1.44" stroke-linecap="round" stroke-linejoin="round"/>
<path d="M239.614 1768.67C260.677 1760.64 311.31 1757.51 325.004 1783.19" stroke="#EEBF8C" stroke-width="1.44" stroke-linecap="round" stroke-linejoin="round"/>
<path d="M484.556 1782.45C421.146 1720.64 333.922 1757.51 325.035 1783.22" stroke="#EEBF8C" stroke-width="1.44" stroke-linecap="round" stroke-linejoin="round"/>
<path d="M61.0864 1588.12C69.0245 1566.83 72.1238 1515.63 46.7283 1501.78" stroke="#EEBF8C" stroke-width="1.44" stroke-linecap="round" stroke-linejoin="round"/>
<path d="M47.4555 1340.49C108.588 1404.6 72.1237 1492.8 46.6965 1501.78" stroke="#EEBF8C" stroke-width="1.44" stroke-linecap="round" stroke-linejoin="round"/>
<path fill-rule="evenodd" clip-rule="evenodd" d="M484.556 1782.45C481.14 1809.41 497.175 1835.05 514.569 1819.77C531.71 1804.67 510.552 1782.96 484.556 1782.45Z" stroke="#EEBF8C" stroke-width="1.44" stroke-linecap="round" stroke-linejoin="round"/>
<path fill-rule="evenodd" clip-rule="evenodd" d="M47.4555 1340.49C20.795 1343.94 -4.56892 1327.73 10.5482 1310.14C25.4756 1292.81 46.9495 1314.2 47.4555 1340.49Z" stroke="#EEBF8C" stroke-width="1.44" stroke-linecap="round" stroke-linejoin="round"/>
<path fill-rule="evenodd" clip-rule="evenodd" d="M61.877 1768.15C44.546 1762.94 24.8748 1767 17.8538 1777.27C9.75762 1789.13 17.8222 1805.7 33.6667 1797.54C27.2467 1814.78 43.5972 1820.41 53.9705 1813.91C64.5019 1807.36 66.9055 1785.52 61.877 1768.19V1768.15Z" stroke="#EEBF8C" stroke-width="1.44" stroke-linecap="round" stroke-linejoin="round"/>
<path d="M1192.34 1616.01C1207.93 1613.1 1214.48 1639.1 1194.3 1642.1C1166.25 1646.26 1153.73 1593.24 1191.93 1588.31C1248.98 1580.96 1263.82 1686.65 1230.92 1740.75C1202.97 1786.77 1130.1 1758.02 1155.47 1732.37C1180.83 1706.73 1215.87 1778.32 1161.89 1807.2C1109.42 1835.28 1007.74 1824.88 1015.02 1767.2C1019.89 1728.57 1072.32 1741.23 1068.21 1769.59C1065.24 1790 1039.53 1783.38 1042.4 1767.61" stroke="#EEBF8C" stroke-width="1.44" stroke-linecap="round" stroke-linejoin="round"/>
<path d="M1032.41 1805.7C998.981 1787.88 941.707 1761.54 923.459 1789.64C894.774 1833.74 955.844 1841.38 935.16 1792.07C920.265 1756.55 838.164 1755.27 809.037 1782C773.141 1814.91 835.571 1848.23 850.213 1817.53C859.543 1797.93 840.03 1783.79 824.565 1794.73C810.776 1804.48 835.096 1819.32 835.191 1799.84C835.254 1783.47 819.6 1752.07 769.979 1782.48" stroke="#EEBF8C" stroke-width="1.44" stroke-linecap="round" stroke-linejoin="round"/>
<path d="M1230.04 1605.87C1212.42 1572.07 1186.36 1514.16 1214.16 1495.71C1257.78 1466.7 1265.33 1528.45 1216.57 1507.54C1181.43 1492.48 1180.17 1409.46 1206.57 1380.01C1239.12 1343.72 1272.07 1406.84 1241.71 1421.65C1222.32 1431.08 1208.34 1411.35 1219.16 1395.71C1228.81 1381.77 1243.48 1406.36 1224.22 1406.46C1208.03 1406.52 1176.97 1390.69 1207.02 1340.52" stroke="#EEBF8C" stroke-width="1.44" stroke-linecap="round" stroke-linejoin="round"/>
<path d="M1190.22 1764.96C1226.02 1747.53 1251.7 1614.69 1192.34 1615.97" stroke="#EEBF8C" stroke-width="1.44" stroke-linecap="round" stroke-linejoin="round"/>
<path d="M1190.22 1764.96C1173.08 1801.22 1041.8 1827.6 1042.91 1767.55" stroke="#EEBF8C" stroke-width="1.44" stroke-linecap="round" stroke-linejoin="round"/>
<path d="M1014.86 1768.67C993.795 1760.64 943.162 1757.51 929.468 1783.19" stroke="#EEBF8C" stroke-width="1.44" stroke-linecap="round" stroke-linejoin="round"/>
<path d="M769.947 1782.45C833.357 1720.64 920.581 1757.51 929.468 1783.22" stroke="#EEBF8C" stroke-width="1.44" stroke-linecap="round" stroke-linejoin="round"/>
<path d="M1193.42 1588.12C1185.48 1566.83 1182.38 1515.63 1207.77 1501.78" stroke="#EEBF8C" stroke-width="1.44" stroke-linecap="round" stroke-linejoin="round"/>
<path d="M1207.05 1340.49C1145.91 1404.6 1182.38 1492.8 1207.81 1501.78" stroke="#EEBF8C" stroke-width="1.44" stroke-linecap="round" stroke-linejoin="round"/>
<path fill-rule="evenodd" clip-rule="evenodd" d="M769.947 1782.45C773.363 1809.41 757.329 1835.05 739.934 1819.77C722.793 1804.67 743.951 1782.96 769.947 1782.45Z" stroke="#EEBF8C" stroke-width="1.44" stroke-linecap="round" stroke-linejoin="round"/>
<path fill-rule="evenodd" clip-rule="evenodd" d="M1207.05 1340.49C1233.71 1343.94 1259.07 1327.73 1243.95 1310.14C1229.03 1292.81 1207.55 1314.2 1207.05 1340.49Z" stroke="#EEBF8C" stroke-width="1.44" stroke-linecap="round" stroke-linejoin="round"/>
<path fill-rule="evenodd" clip-rule="evenodd" d="M1192.63 1768.15C1209.96 1762.94 1229.63 1767 1236.65 1777.27C1244.75 1789.13 1236.68 1805.7 1220.84 1797.54C1227.26 1814.78 1210.91 1820.41 1200.53 1813.91C1190 1807.36 1187.6 1785.52 1192.63 1768.19V1768.15Z" stroke="#EEBF8C" stroke-width="1.44" stroke-linecap="round" stroke-linejoin="round"/>
<path fill-rule="evenodd" clip-rule="evenodd" d="M626.208 96.5674C596.227 80.7386 575.037 49.3368 578.864 26.3451C583.292 -0.228147 615.487 -11.8679 626.208 19.9816C639.775 -11.6121 668.998 2.394 674.564 24.7782C680.225 47.4501 655.335 79.9072 626.208 96.5674Z" stroke="#EEBF8C" stroke-width="1.44" stroke-linecap="round" stroke-linejoin="round"/>
<path d="M626.556 96.5674C547.08 139.001 362.196 164.2 325.035 47.1943" stroke="#EEBF8C" stroke-width="1.44" stroke-linecap="round" stroke-linejoin="round"/>
<path d="M626.556 96.5674C706.032 139.001 884.085 162.441 929.468 47.1943" stroke="#EEBF8C" stroke-width="1.44" stroke-linecap="round" stroke-linejoin="round"/>
<path d="M626.556 96.5685C667.416 113.74 747.967 101.749 769.947 47.9629" stroke="#EEBF8C" stroke-width="1.44" stroke-linecap="round" stroke-linejoin="round"/>
<path d="M626.556 96.5685C585.695 113.74 505.144 101.749 483.164 47.9629" stroke="#EEBF8C" stroke-width="1.44" stroke-linecap="round" stroke-linejoin="round"/>
<path d="M928.867 48.6982C935.445 152.849 1034.88 169.125 1038.29 131.839C1043.16 78.6291 979.405 111.054 1028.49 137.467C1043.67 145.622 1073.62 134.462 1073.43 99.7022" stroke="#EEBF8C" stroke-width="1.44" stroke-linecap="round" stroke-linejoin="round"/>
<path d="M325.035 47.1943C318.457 151.345 219.026 169.124 215.61 131.838C210.74 78.6281 274.497 111.053 225.414 137.467C210.234 145.621 180.284 134.461 180.474 99.7012" stroke="#EEBF8C" stroke-width="1.44" stroke-linecap="round" stroke-linejoin="round"/>
<path d="M1206.32 329.204C1103.31 322.552 1087.22 222.016 1124.06 218.562C1176.69 213.637 1144.62 278.104 1118.5 228.475C1110.43 213.126 1121.47 182.843 1155.85 183.035" stroke="#EEBF8C" stroke-width="1.44" stroke-linecap="round" stroke-linejoin="round"/>
<path d="M46.6965 328.628C149.702 321.976 165.799 221.439 128.924 217.986C76.2983 213.061 108.367 277.528 134.49 227.899C142.554 212.55 131.517 182.267 97.1397 182.459" stroke="#EEBF8C" stroke-width="1.44" stroke-linecap="round" stroke-linejoin="round"/>
<path fill-rule="evenodd" clip-rule="evenodd" d="M626.556 96.5681C611.122 88.4139 600.243 72.2973 602.204 60.4656C604.481 46.8113 621.021 40.8315 626.556 57.204C633.545 40.9595 648.567 48.1544 651.414 59.6662C654.323 71.338 641.515 88.0302 626.556 96.5681Z" stroke="#EEBF8C" stroke-width="1.44" stroke-linecap="round" stroke-linejoin="round"/>
<path fill-rule="evenodd" clip-rule="evenodd" d="M141.384 154.351C146.571 154.351 150.809 150.067 150.809 144.822C150.809 139.578 146.571 135.293 141.384 135.293C136.198 135.293 131.96 139.578 131.96 144.822C131.96 150.067 136.198 154.351 141.384 154.351Z" fill="#EEBF8C"/>
<path fill-rule="evenodd" clip-rule="evenodd" d="M155.394 163.976C158.399 163.976 160.834 161.514 160.834 158.476C160.834 155.438 158.399 152.976 155.394 152.976C152.39 152.976 149.955 155.438 149.955 158.476C149.955 161.514 152.39 163.976 155.394 163.976Z" fill="#EEBF8C"/>
<path fill-rule="evenodd" clip-rule="evenodd" d="M166.369 172.131C168.488 172.131 170.227 170.372 170.227 168.229C170.227 166.087 168.488 164.328 166.369 164.328C164.25 164.328 162.51 166.087 162.51 168.229C162.51 170.372 164.25 172.131 166.369 172.131Z" fill="#EEBF8C"/>
<path fill-rule="evenodd" clip-rule="evenodd" d="M118.93 133.118C125.318 133.118 130.505 127.874 130.505 121.415C130.505 114.955 125.318 109.711 118.93 109.711C112.542 109.711 107.355 114.955 107.355 121.415C107.355 127.874 112.542 133.118 118.93 133.118Z" stroke="#EEBF8C" stroke-width="1.44" stroke-linecap="round" stroke-linejoin="round"/>
<path d="M929.468 47.1943C904.989 146.26 1004.93 203.5 1035.73 139.769" stroke="#EEBF8C" stroke-width="1.44" stroke-linecap="round" stroke-linejoin="round"/>
<path d="M325.035 47.1943C349.514 146.26 248.975 203.5 218.172 139.769" stroke="#EEBF8C" stroke-width="1.44" stroke-linecap="round" stroke-linejoin="round"/>
<path d="M928.867 1783.19C904.389 1684.12 1004.93 1628.35 1035.73 1692.11" stroke="#EEBF8C" stroke-width="1.44" stroke-linecap="round" stroke-linejoin="round"/>
<path d="M325.035 1783.19C349.514 1684.12 248.975 1628.35 218.172 1692.11" stroke="#EEBF8C" stroke-width="1.44" stroke-linecap="round" stroke-linejoin="round"/>
<path d="M928.867 1783.19C935.445 1679.03 1034.88 1662.76 1038.29 1700.04C1043.16 1753.25 979.405 1720.83 1028.49 1694.42C1043.67 1686.26 1073.62 1697.42 1073.43 1732.18" stroke="#EEBF8C" stroke-width="1.44" stroke-linecap="round" stroke-linejoin="round"/>
<path d="M325.035 1783.19C318.457 1679.03 219.026 1662.76 215.61 1700.04C210.74 1753.25 274.497 1720.83 225.414 1694.42C210.234 1686.26 180.284 1697.42 180.474 1732.18" stroke="#EEBF8C" stroke-width="1.44" stroke-linecap="round" stroke-linejoin="round"/>
<path d="M626.556 1753.06C615.329 1695.92 481.52 1710.37 483.164 1782.45" stroke="#EEBF8C" stroke-width="1.44" stroke-linecap="round" stroke-linejoin="round"/>
<path fill-rule="evenodd" clip-rule="evenodd" d="M626.556 1829.65C596.575 1813.82 575.385 1782.42 579.212 1759.43C583.64 1732.85 615.835 1721.21 626.556 1753.06C640.123 1721.47 669.346 1735.47 674.912 1757.86C680.573 1780.53 655.683 1812.99 626.556 1829.65Z" stroke="#EEBF8C" stroke-width="1.44" stroke-linecap="round" stroke-linejoin="round"/>
<path d="M626.556 1753.06C637.783 1695.92 771.592 1710.37 769.947 1782.45" stroke="#EEBF8C" stroke-width="1.44" stroke-linecap="round" stroke-linejoin="round"/>
<path d="M48.1829 328.629C146.16 353.379 201.315 251.723 138.253 220.577" stroke="#EEBF8C" stroke-width="1.44" stroke-linecap="round" stroke-linejoin="round"/>
<path d="M1206.32 328.629C1108.34 353.379 1053.19 251.723 1116.25 220.577" stroke="#EEBF8C" stroke-width="1.44" stroke-linecap="round" stroke-linejoin="round"/>
<path d="M48.1829 1501.78C146.16 1477.03 201.315 1578.69 138.253 1609.84" stroke="#EEBF8C" stroke-width="1.44" stroke-linecap="round" stroke-linejoin="round"/>
<path d="M1206.32 1501.78C1108.34 1477.03 1053.19 1578.69 1116.25 1609.84" stroke="#EEBF8C" stroke-width="1.44" stroke-linecap="round" stroke-linejoin="round"/>
<path d="M1206.32 1501.18C1103.31 1507.83 1087.22 1608.36 1124.06 1611.82C1176.69 1616.74 1144.62 1552.28 1118.5 1601.9C1110.43 1617.25 1121.47 1647.54 1155.85 1647.34" stroke="#EEBF8C" stroke-width="1.44" stroke-linecap="round" stroke-linejoin="round"/>
<path d="M46.6965 1501.78C149.702 1508.43 165.799 1608.97 128.924 1612.43C76.2983 1617.35 108.367 1552.88 134.49 1602.51C142.554 1617.86 131.517 1648.14 97.1397 1647.95" stroke="#EEBF8C" stroke-width="1.44" stroke-linecap="round" stroke-linejoin="round"/>
<path d="M626.556 96.5674C550.021 178.078 362.196 217.922 325.035 47.1943" stroke="#EEBF8C" stroke-width="1.44" stroke-linecap="round" stroke-linejoin="round"/>
<path d="M626.556 96.5674C703.09 178.078 892.276 217.922 929.468 47.1943" stroke="#EEBF8C" stroke-width="1.44" stroke-linecap="round" stroke-linejoin="round"/>
<path d="M626.556 1753.06C611.976 1659.4 362.196 1612.46 325.035 1783.18" stroke="#EEBF8C" stroke-width="1.44" stroke-linecap="round" stroke-linejoin="round"/>
<path d="M626.556 1753.06C658.846 1659.4 892.276 1612.46 929.468 1783.18" stroke="#EEBF8C" stroke-width="1.44" stroke-linecap="round" stroke-linejoin="round"/>
<path d="M1190.22 65.4234C1171.09 53.1121 1106.64 34.821 1093.67 65.7111C1079.47 99.5113 1129.85 106.099 1125.61 76.8713C1121.59 49.0509 1097.34 77.7986 1122.64 80.8684C1132.06 82.0196 1141.46 77.9905 1137.15 66.0309" stroke="#EEBF8C" stroke-width="1.44" stroke-linecap="round" stroke-linejoin="round"/>
<path d="M1189.78 64.9434C1201.96 84.2897 1220.05 149.46 1189.53 162.57C1156.1 176.928 1149.58 125.988 1178.49 130.273C1206 134.334 1177.57 158.861 1174.54 133.279C1173.4 123.75 1177.38 114.252 1189.21 118.601" stroke="#EEBF8C" stroke-width="1.44" stroke-linecap="round" stroke-linejoin="round"/>
<path d="M64.2488 65.4234C83.3824 53.1121 147.836 34.821 160.802 65.7111C175.002 99.5113 124.622 106.099 128.86 76.8713C132.877 49.0509 157.134 77.7986 131.833 80.8684C122.409 82.0196 113.016 77.9905 117.317 66.0309" stroke="#EEBF8C" stroke-width="1.44" stroke-linecap="round" stroke-linejoin="round"/>
<path d="M64.7233 64.9434C52.5474 84.2897 34.4574 149.46 65.0079 162.57C98.4364 176.928 104.951 125.988 76.0453 130.273C48.5309 134.334 76.9625 158.861 79.9986 133.279C81.1371 123.75 77.1522 114.252 65.3242 118.601" stroke="#EEBF8C" stroke-width="1.44" stroke-linecap="round" stroke-linejoin="round"/>
<path d="M1190.22 1764.96C1171.09 1777.27 1106.64 1795.56 1093.67 1764.67C1079.47 1730.87 1129.85 1724.28 1125.61 1753.51C1121.59 1781.33 1097.34 1752.58 1122.64 1749.51C1132.06 1748.36 1141.46 1752.39 1137.15 1764.35" stroke="#EEBF8C" stroke-width="1.44" stroke-linecap="round" stroke-linejoin="round"/>
<path d="M1189.78 1765.44C1201.96 1746.09 1220.05 1680.92 1189.53 1667.81C1156.1 1653.45 1149.58 1704.39 1178.49 1700.11C1206 1696.05 1177.57 1671.52 1174.54 1697.1C1173.4 1706.63 1177.38 1716.13 1189.21 1711.78" stroke="#EEBF8C" stroke-width="1.44" stroke-linecap="round" stroke-linejoin="round"/>
<path d="M64.2488 1764.96C83.3824 1777.27 147.836 1795.56 160.802 1764.67C175.002 1730.87 124.622 1724.28 128.86 1753.51C132.877 1781.33 157.134 1752.58 131.833 1749.51C122.409 1748.36 113.016 1752.39 117.317 1764.35" stroke="#EEBF8C" stroke-width="1.44" stroke-linecap="round" stroke-linejoin="round"/>
<path d="M64.7233 1765.44C52.5474 1746.09 34.4574 1680.92 65.0079 1667.81C98.4364 1653.45 104.951 1704.39 76.0453 1700.11C48.5309 1696.05 76.9625 1671.52 79.9986 1697.1C81.1371 1706.63 77.1522 1716.13 65.3242 1711.78" stroke="#EEBF8C" stroke-width="1.44" stroke-linecap="round" stroke-linejoin="round"/>
<path d="M48.183 328.629C120.796 366.554 221.271 523.531 127.69 690.421C34.1095 857.311 96.0328 943.586 144.199 906.812C192.365 870.038 148.31 800.743 118.044 829.043C87.7785 857.343 129.999 882.062 142.807 858.75C155.647 835.439 133.067 710.375 84.9954 673.473C42.6168 640.952 13.1416 698.767 44.8623 722.654C76.583 746.541 88.2213 698.511 66.2097 686.392" stroke="#EEBF8C" stroke-width="1.44" stroke-linecap="round" stroke-linejoin="round"/>
<path d="M48.1829 328.629C119.879 383.15 172.536 537.921 92.7436 680.348" stroke="#EEBF8C" stroke-width="1.44" stroke-linecap="round" stroke-linejoin="round"/>
<path d="M47.4557 492.544C68.7715 582.752 -101.692 864.537 117.444 914.901" stroke="#EEBF8C" stroke-width="1.44" stroke-linecap="round" stroke-linejoin="round"/>
<path fill-rule="evenodd" clip-rule="evenodd" d="M633.735 117.161C637.309 120.967 637.15 127.01 633.387 130.624C629.623 134.237 623.646 134.077 620.072 130.272C616.499 126.467 616.657 120.423 620.42 116.81C624.184 113.196 630.161 113.356 633.735 117.161Z" fill="#EEBF8C"/>
<path fill-rule="evenodd" clip-rule="evenodd" d="M630.699 139.609C632.754 141.815 632.66 145.269 630.509 147.379C628.327 149.458 624.911 149.394 622.824 147.187C620.768 144.981 620.863 141.527 623.014 139.417C625.196 137.338 628.611 137.434 630.699 139.609Z" fill="#EEBF8C"/>
<path fill-rule="evenodd" clip-rule="evenodd" d="M630.098 155.502C631.553 157.069 631.489 159.531 629.971 161.002C628.422 162.473 625.986 162.409 624.532 160.874C623.077 159.307 623.14 156.845 624.658 155.374C626.208 153.903 628.643 153.967 630.098 155.502Z" fill="#EEBF8C"/>
<path d="M1206.32 328.629C1133.71 366.554 1033.23 523.531 1126.81 690.421C1220.39 857.311 1158.47 943.586 1110.3 906.812C1062.14 870.038 1106.19 800.743 1136.46 829.043C1166.72 857.343 1124.5 882.062 1111.7 858.75C1098.86 835.439 1121.44 710.375 1169.51 673.473C1211.89 640.952 1241.36 698.767 1209.64 722.654C1177.92 746.541 1166.28 698.511 1188.29 686.392" stroke="#EEBF8C" stroke-width="1.44" stroke-linecap="round" stroke-linejoin="round"/>
<path d="M1206.32 328.629C1134.62 383.15 1081.97 537.921 1161.76 680.348" stroke="#EEBF8C" stroke-width="1.44" stroke-linecap="round" stroke-linejoin="round"/>
<path d="M1207.05 492.544C1185.73 582.752 1356.2 864.537 1137.06 914.901" stroke="#EEBF8C" stroke-width="1.44" stroke-linecap="round" stroke-linejoin="round"/>
<path d="M48.183 1501.78C120.796 1463.86 221.271 1306.88 127.69 1139.99C34.1095 973.1 96.0328 886.825 144.199 923.599C192.365 960.373 148.31 1029.67 118.044 1001.37C87.7785 973.068 129.999 948.349 142.807 971.661C155.647 994.972 133.067 1120.04 84.9954 1156.94C42.6168 1189.46 13.1416 1131.64 44.8623 1107.76C76.583 1083.87 88.2213 1131.9 66.2097 1144.02" stroke="#EEBF8C" stroke-width="1.44" stroke-linecap="round" stroke-linejoin="round"/>
<path d="M48.1829 1501.78C119.879 1447.26 172.536 1292.49 92.7436 1150.06" stroke="#EEBF8C" stroke-width="1.44" stroke-linecap="round" stroke-linejoin="round"/>
<path d="M47.4557 1337.83C68.7715 1247.63 -101.692 965.842 117.444 915.478" stroke="#EEBF8C" stroke-width="1.44" stroke-linecap="round" stroke-linejoin="round"/>
<path d="M1206.32 1501.78C1133.71 1463.86 1033.23 1306.88 1126.81 1139.99C1220.39 973.1 1158.47 886.825 1110.3 923.599C1062.14 960.373 1106.19 1029.67 1136.46 1001.37C1166.72 973.068 1124.5 948.349 1111.7 971.661C1098.86 994.972 1121.44 1120.04 1169.51 1156.94C1211.89 1189.46 1241.36 1131.64 1209.64 1107.76C1177.92 1083.87 1166.28 1131.9 1188.29 1144.02" stroke="#EEBF8C" stroke-width="1.44" stroke-linecap="round" stroke-linejoin="round"/>
<path d="M1206.32 1501.78C1134.62 1447.26 1081.97 1292.49 1161.76 1150.06" stroke="#EEBF8C" stroke-width="1.44" stroke-linecap="round" stroke-linejoin="round"/>
<path d="M1207.05 1337.83C1185.73 1247.63 1356.2 965.842 1137.06 915.478" stroke="#EEBF8C" stroke-width="1.44" stroke-linecap="round" stroke-linejoin="round"/>
<path d="M1198.64 888.968C1209.01 880.654 1220.52 876.113 1230.29 877.488C1251.1 880.398 1260.87 905.788 1236.3 915.03C1261.22 925.135 1250.94 948.702 1233.64 953.658C1223.78 956.472 1211.29 951.676 1199.81 942.85" stroke="#EEBF8C" stroke-width="1.44" stroke-linecap="round" stroke-linejoin="round"/>
<path d="M56.216 888.968C45.8428 880.654 34.331 876.113 24.5586 877.488C3.7488 880.398 -6.02358 905.788 18.5497 915.03C-6.37147 925.135 3.90692 948.702 21.2062 953.658C31.0735 956.472 43.5657 951.676 55.0459 942.85" stroke="#EEBF8C" stroke-width="1.44" stroke-linecap="round" stroke-linejoin="round"/>
<path fill-rule="evenodd" clip-rule="evenodd" d="M1151.86 597.494C1154.49 615.593 1166.44 631.902 1178.62 634.012C1192.66 636.442 1204.14 622.053 1190.13 610.956C1208.28 609.581 1206.42 592.218 1196.23 585.439C1185.89 578.563 1165.33 585.566 1151.89 597.494H1151.86Z" stroke="#EEBF8C" stroke-width="1.44" stroke-linecap="round" stroke-linejoin="round"/>
<path d="M1207.05 489.922C1164.07 501.849 1146.2 548.025 1151.86 597.494" stroke="#EEBF8C" stroke-width="1.44" stroke-linecap="round" stroke-linejoin="round"/>
<path fill-rule="evenodd" clip-rule="evenodd" d="M102.643 597.494C100.018 615.593 88.0631 631.902 75.8872 634.012C61.8453 636.442 50.3652 622.053 64.3754 610.956C46.2222 609.581 48.0881 592.218 58.2716 585.439C68.6133 578.563 89.1701 585.566 102.611 597.494H102.643Z" stroke="#EEBF8C" stroke-width="1.44" stroke-linecap="round" stroke-linejoin="round"/>
<path d="M47.4556 489.922C90.435 501.849 108.304 548.025 102.643 597.494" stroke="#EEBF8C" stroke-width="1.44" stroke-linecap="round" stroke-linejoin="round"/>
<path fill-rule="evenodd" clip-rule="evenodd" d="M1151.86 1230.26C1154.49 1212.16 1166.44 1195.86 1178.62 1193.75C1192.66 1191.31 1204.14 1205.7 1190.13 1216.8C1208.28 1218.18 1206.42 1235.54 1196.23 1242.32C1185.89 1249.19 1165.33 1242.19 1151.89 1230.26H1151.86Z" stroke="#EEBF8C" stroke-width="1.44" stroke-linecap="round" stroke-linejoin="round"/>
<path d="M1207.05 1337.83C1164.07 1325.91 1146.2 1279.73 1151.86 1230.26" stroke="#EEBF8C" stroke-width="1.44" stroke-linecap="round" stroke-linejoin="round"/>
<path fill-rule="evenodd" clip-rule="evenodd" d="M102.643 1230.26C100.018 1212.16 88.0631 1195.86 75.8872 1193.75C61.8453 1191.31 50.3652 1205.7 64.3754 1216.8C46.2222 1218.18 48.0881 1235.54 58.2716 1242.32C68.6133 1249.19 89.1701 1242.19 102.611 1230.26H102.643Z" stroke="#EEBF8C" stroke-width="1.44" stroke-linecap="round" stroke-linejoin="round"/>
<path d="M47.4556 1337.83C90.435 1325.91 108.304 1279.73 102.643 1230.26" stroke="#EEBF8C" stroke-width="1.44" stroke-linecap="round" stroke-linejoin="round"/>
<path fill-rule="evenodd" clip-rule="evenodd" d="M55.2987 759.139C58.5878 763.2 57.9869 769.212 53.9388 772.538C49.9224 775.863 43.9767 775.256 40.6876 771.163C37.3985 767.102 37.9994 761.09 42.0475 757.764C46.064 754.439 52.0097 755.046 55.2987 759.139Z" fill="#EEBF8C"/>
<path fill-rule="evenodd" clip-rule="evenodd" d="M50.5866 781.3C52.4841 783.666 52.1363 787.12 49.796 789.006C47.4873 790.925 44.0401 790.573 42.1741 788.207C40.2766 785.873 40.6245 782.387 42.9648 780.5C45.2735 778.582 48.7207 778.934 50.5866 781.268V781.3Z" fill="#EEBF8C"/>
<path fill-rule="evenodd" clip-rule="evenodd" d="M48.8154 797.097C50.1437 798.76 49.9223 801.222 48.2778 802.565C46.6332 803.908 44.198 803.684 42.8697 802.022C41.5415 800.359 41.7628 797.896 43.4074 796.553C45.0519 795.21 47.4871 795.434 48.8154 797.097Z" fill="#EEBF8C"/>
<path d="M117.443 914.903C74.8119 902.016 57.3861 867.832 49.1001 818.331" stroke="#EEBF8C" stroke-width="1.44" stroke-linecap="round" stroke-linejoin="round"/>
<path fill-rule="evenodd" clip-rule="evenodd" d="M1199.17 759.139C1195.88 763.2 1196.48 769.212 1200.53 772.538C1204.55 775.863 1210.49 775.256 1213.78 771.163C1217.07 767.102 1216.47 761.09 1212.42 757.764C1208.41 754.439 1202.46 755.046 1199.17 759.139Z" fill="#EEBF8C"/>
<path fill-rule="evenodd" clip-rule="evenodd" d="M1203.92 781.3C1202.02 783.666 1202.37 787.12 1204.71 789.006C1207.02 790.925 1210.46 790.573 1212.33 788.207C1214.23 785.873 1213.88 782.387 1211.54 780.5C1209.23 778.582 1205.78 778.934 1203.92 781.268V781.3Z" fill="#EEBF8C"/>
<path fill-rule="evenodd" clip-rule="evenodd" d="M1205.69 797.097C1204.36 798.76 1204.58 801.222 1206.23 802.565C1207.87 803.908 1210.3 803.684 1211.63 802.022C1212.96 800.359 1212.74 797.896 1211.1 796.553C1209.45 795.21 1207.02 795.434 1205.69 797.097Z" fill="#EEBF8C"/>
<path d="M1137.06 914.903C1179.69 902.016 1197.12 867.832 1205.4 818.331" stroke="#EEBF8C" stroke-width="1.44" stroke-linecap="round" stroke-linejoin="round"/>
<path fill-rule="evenodd" clip-rule="evenodd" d="M55.2987 1070.63C58.5878 1066.57 57.9869 1060.56 53.9388 1057.23C49.9224 1053.91 43.9767 1054.52 40.6876 1058.61C37.3985 1062.67 37.9994 1068.68 42.0475 1072.01C46.064 1075.33 52.0097 1074.73 55.2987 1070.63Z" fill="#EEBF8C"/>
<path fill-rule="evenodd" clip-rule="evenodd" d="M50.5866 1048.5C52.4841 1046.17 52.1363 1042.68 49.796 1040.8C47.4873 1038.88 44.0401 1039.23 42.1741 1041.6C40.2766 1043.93 40.6245 1047.42 42.9648 1049.3C45.2735 1051.22 48.7207 1050.87 50.5866 1048.5Z" fill="#EEBF8C"/>
<path fill-rule="evenodd" clip-rule="evenodd" d="M48.8154 1032.71C50.1437 1031.04 49.9223 1028.58 48.2778 1027.24C46.6332 1025.9 44.198 1026.12 42.8697 1027.78C41.5415 1029.45 41.7628 1031.91 43.4074 1033.25C45.0519 1034.59 47.4871 1034.37 48.8154 1032.71Z" fill="#EEBF8C"/>
<path d="M117.443 914.901C74.8119 927.788 57.3861 961.972 49.1001 1011.47" stroke="#EEBF8C" stroke-width="1.44" stroke-linecap="round" stroke-linejoin="round"/>
<path fill-rule="evenodd" clip-rule="evenodd" d="M1199.17 1070.63C1195.88 1066.57 1196.48 1060.56 1200.53 1057.23C1204.55 1053.91 1210.49 1054.52 1213.78 1058.61C1217.07 1062.67 1216.47 1068.68 1212.42 1072.01C1208.41 1075.33 1202.46 1074.73 1199.17 1070.63Z" fill="#EEBF8C"/>
<path fill-rule="evenodd" clip-rule="evenodd" d="M1203.92 1048.5C1202.02 1046.17 1202.37 1042.68 1204.71 1040.8C1207.02 1038.88 1210.46 1039.23 1212.33 1041.6C1214.23 1043.93 1213.88 1047.42 1211.54 1049.3C1209.23 1051.22 1205.78 1050.87 1203.92 1048.5Z" fill="#EEBF8C"/>
<path fill-rule="evenodd" clip-rule="evenodd" d="M1205.69 1032.71C1204.36 1031.04 1204.58 1028.58 1206.23 1027.24C1207.87 1025.9 1210.3 1026.12 1211.63 1027.78C1212.96 1029.45 1212.74 1031.91 1211.1 1033.25C1209.45 1034.59 1207.02 1034.37 1205.69 1032.71Z" fill="#EEBF8C"/>
<path d="M1137.06 914.901C1179.69 927.788 1197.12 961.972 1205.4 1011.47" stroke="#EEBF8C" stroke-width="1.44" stroke-linecap="round" stroke-linejoin="round"/>
<path fill-rule="evenodd" clip-rule="evenodd" d="M771.244 1732.08C775.513 1735.09 781.364 1734.04 784.369 1729.72C787.341 1725.4 786.298 1719.49 782.06 1716.45C777.79 1713.44 771.908 1714.5 768.935 1718.81C765.962 1723.13 767.006 1729.05 771.244 1732.08Z" fill="#EEBF8C"/>
<path fill-rule="evenodd" clip-rule="evenodd" d="M792.75 1725.66C795.216 1727.38 798.6 1726.78 800.308 1724.31C802.016 1721.82 801.415 1718.4 798.98 1716.67C796.513 1714.94 793.129 1715.55 791.421 1718.01C789.713 1720.51 790.314 1723.93 792.75 1725.66Z" fill="#EEBF8C"/>
<path fill-rule="evenodd" clip-rule="evenodd" d="M808.183 1722.72C809.922 1723.96 812.326 1723.52 813.528 1721.76C814.761 1720 814.318 1717.57 812.579 1716.35C810.839 1715.11 808.436 1715.55 807.234 1717.31C806.001 1719.07 806.443 1721.5 808.183 1722.72Z" fill="#EEBF8C"/>
<path d="M929.468 1783.18C913.592 1741.17 878.582 1726.1 829.151 1721.4" stroke="#EEBF8C" stroke-width="1.44" stroke-linecap="round" stroke-linejoin="round"/>
<path fill-rule="evenodd" clip-rule="evenodd" d="M483.227 1732.08C478.958 1735.09 473.107 1734.04 470.103 1729.72C467.13 1725.4 468.174 1719.49 472.411 1716.45C476.681 1713.44 482.532 1714.5 485.536 1718.81C488.509 1723.13 487.465 1729.05 483.196 1732.08H483.227Z" fill="#EEBF8C"/>
<path fill-rule="evenodd" clip-rule="evenodd" d="M461.754 1725.66C459.287 1727.38 455.903 1726.78 454.195 1724.31C452.487 1721.82 453.088 1718.4 455.523 1716.67C457.99 1714.94 461.374 1715.55 463.082 1718.01C464.79 1720.51 464.189 1723.93 461.754 1725.66Z" fill="#EEBF8C"/>
<path fill-rule="evenodd" clip-rule="evenodd" d="M446.289 1722.72C444.549 1723.96 442.146 1723.52 440.944 1721.76C439.71 1720 440.153 1717.57 441.893 1716.35C443.632 1715.11 446.036 1715.55 447.237 1717.31C448.439 1719.07 448.028 1721.5 446.289 1722.72Z" fill="#EEBF8C"/>
<path d="M325.035 1783.18C340.912 1741.17 375.921 1726.1 425.352 1721.4" stroke="#EEBF8C" stroke-width="1.44" stroke-linecap="round" stroke-linejoin="round"/>
<path fill-rule="evenodd" clip-rule="evenodd" d="M771.244 98.3276C775.513 95.3217 781.364 96.377 784.369 100.662C787.341 104.979 786.298 110.895 782.06 113.933C777.79 116.938 771.908 115.883 768.935 111.598C765.962 107.281 767.006 101.333 771.244 98.3276Z" fill="#EEBF8C"/>
<path fill-rule="evenodd" clip-rule="evenodd" d="M792.75 104.723C795.216 102.996 798.6 103.604 800.308 106.066C802.016 108.56 801.415 111.982 798.98 113.709C796.513 115.435 793.129 114.828 791.421 112.366C789.713 109.871 790.314 106.45 792.75 104.723Z" fill="#EEBF8C"/>
<path fill-rule="evenodd" clip-rule="evenodd" d="M808.183 107.666C809.922 106.419 812.326 106.866 813.528 108.625C814.761 110.384 814.318 112.814 812.579 114.029C810.839 115.276 808.436 114.829 807.234 113.07C806.001 111.311 806.443 108.881 808.183 107.666Z" fill="#EEBF8C"/>
<path d="M929.468 47.1943C913.592 89.2126 878.582 104.274 829.151 108.975" stroke="#EEBF8C" stroke-width="1.44" stroke-linecap="round" stroke-linejoin="round"/>
<path fill-rule="evenodd" clip-rule="evenodd" d="M483.227 99.7983C478.958 96.7924 473.107 97.8477 470.103 102.133C467.13 106.45 468.174 112.365 472.411 115.403C476.681 118.409 482.532 117.354 485.536 113.069C488.509 108.752 487.465 102.836 483.196 99.7983H483.227Z" fill="#EEBF8C"/>
<path fill-rule="evenodd" clip-rule="evenodd" d="M461.754 106.194C459.287 104.467 455.903 105.075 454.195 107.537C452.487 110.031 453.088 113.453 455.523 115.179C457.99 116.906 461.374 116.299 463.082 113.836C464.79 111.342 464.189 107.921 461.754 106.194Z" fill="#EEBF8C"/>
<path fill-rule="evenodd" clip-rule="evenodd" d="M446.289 109.167C444.549 107.952 442.146 108.368 440.944 110.127C439.71 111.885 440.153 114.316 441.893 115.531C443.632 116.746 446.036 116.33 447.237 114.572C448.439 112.813 448.028 110.383 446.289 109.167Z" fill="#EEBF8C"/>
<path d="M325.035 47.1943C340.912 89.2126 375.921 105.745 425.352 110.446" stroke="#EEBF8C" stroke-width="1.44" stroke-linecap="round" stroke-linejoin="round"/>
<path fill-rule="evenodd" clip-rule="evenodd" d="M1112.83 154.351C1118.02 154.351 1122.26 150.067 1122.26 144.822C1122.26 139.578 1118.02 135.293 1112.83 135.293C1107.65 135.293 1103.41 139.578 1103.41 144.822C1103.41 150.067 1107.65 154.351 1112.83 154.351Z" fill="#EEBF8C"/>
<path fill-rule="evenodd" clip-rule="evenodd" d="M1098.86 163.976C1101.86 163.976 1104.3 161.514 1104.3 158.476C1104.3 155.438 1101.86 152.976 1098.86 152.976C1095.85 152.976 1093.42 155.438 1093.42 158.476C1093.42 161.514 1095.85 163.976 1098.86 163.976Z" fill="#EEBF8C"/>
<path fill-rule="evenodd" clip-rule="evenodd" d="M1087.85 172.131C1089.97 172.131 1091.71 170.372 1091.71 168.229C1091.71 166.087 1089.97 164.328 1087.85 164.328C1085.73 164.328 1083.99 166.087 1083.99 168.229C1083.99 170.372 1085.73 172.131 1087.85 172.131Z" fill="#EEBF8C"/>
<path fill-rule="evenodd" clip-rule="evenodd" d="M1135.29 133.118C1141.68 133.118 1146.86 127.874 1146.86 121.415C1146.86 114.955 1141.68 109.711 1135.29 109.711C1128.9 109.711 1123.71 114.955 1123.71 121.415C1123.71 127.874 1128.9 133.118 1135.29 133.118Z" stroke="#EEBF8C" stroke-width="1.44" stroke-linecap="round" stroke-linejoin="round"/>
<path fill-rule="evenodd" clip-rule="evenodd" d="M141.384 1694.86C146.571 1694.86 150.809 1690.58 150.809 1685.33C150.809 1680.09 146.571 1675.8 141.384 1675.8C136.198 1675.8 131.96 1680.09 131.96 1685.33C131.96 1690.58 136.198 1694.86 141.384 1694.86Z" fill="#EEBF8C"/>
<path fill-rule="evenodd" clip-rule="evenodd" d="M155.394 1677.14C158.399 1677.14 160.834 1674.68 160.834 1671.64C160.834 1668.61 158.399 1666.14 155.394 1666.14C152.39 1666.14 149.955 1668.61 149.955 1671.64C149.955 1674.68 152.39 1677.14 155.394 1677.14Z" fill="#EEBF8C"/>
<path fill-rule="evenodd" clip-rule="evenodd" d="M166.369 1665.79C168.488 1665.79 170.227 1664.04 170.227 1661.89C170.227 1659.75 168.488 1657.99 166.369 1657.99C164.25 1657.99 162.51 1659.75 162.51 1661.89C162.51 1664.04 164.25 1665.79 166.369 1665.79Z" fill="#EEBF8C"/>
<path fill-rule="evenodd" clip-rule="evenodd" d="M118.93 1720.44C125.318 1720.44 130.505 1715.2 130.505 1708.74C130.505 1702.28 125.318 1697.04 118.93 1697.04C112.542 1697.04 107.355 1702.28 107.355 1708.74C107.355 1715.2 112.542 1720.44 118.93 1720.44Z" stroke="#EEBF8C" stroke-width="1.44" stroke-linecap="round" stroke-linejoin="round"/>
<path fill-rule="evenodd" clip-rule="evenodd" d="M1112.83 1694.86C1118.02 1694.86 1122.26 1690.58 1122.26 1685.33C1122.26 1680.09 1118.02 1675.8 1112.83 1675.8C1107.65 1675.8 1103.41 1680.09 1103.41 1685.33C1103.41 1690.58 1107.65 1694.86 1112.83 1694.86Z" fill="#EEBF8C"/>
<path fill-rule="evenodd" clip-rule="evenodd" d="M1098.86 1677.14C1101.86 1677.14 1104.3 1674.68 1104.3 1671.64C1104.3 1668.61 1101.86 1666.14 1098.86 1666.14C1095.85 1666.14 1093.42 1668.61 1093.42 1671.64C1093.42 1674.68 1095.85 1677.14 1098.86 1677.14Z" fill="#EEBF8C"/>
<path fill-rule="evenodd" clip-rule="evenodd" d="M1087.85 1665.79C1089.97 1665.79 1091.71 1664.04 1091.71 1661.89C1091.71 1659.75 1089.97 1657.99 1087.85 1657.99C1085.73 1657.99 1083.99 1659.75 1083.99 1661.89C1083.99 1664.04 1085.73 1665.79 1087.85 1665.79Z" fill="#EEBF8C"/>
<path fill-rule="evenodd" clip-rule="evenodd" d="M1135.29 1720.44C1141.68 1720.44 1146.86 1715.2 1146.86 1708.74C1146.86 1702.28 1141.68 1697.04 1135.29 1697.04C1128.9 1697.04 1123.71 1702.28 1123.71 1708.74C1123.71 1715.2 1128.9 1720.44 1135.29 1720.44Z" stroke="#EEBF8C" stroke-width="1.44" stroke-linecap="round" stroke-linejoin="round"/>
<path fill-rule="evenodd" clip-rule="evenodd" d="M635.067 1543.77C620.804 1536.26 610.715 1521.29 612.55 1510.35C614.637 1497.72 629.976 1492.19 635.067 1507.32C641.519 1492.29 655.403 1498.94 658.059 1509.62C660.748 1520.39 648.919 1535.84 635.067 1543.77Z" stroke="#EEBF8C" stroke-width="1.44" stroke-linecap="round" stroke-linejoin="round"/>
<path fill-rule="evenodd" clip-rule="evenodd" d="M668.749 1540.38C672.576 1543.96 678.521 1543.74 682.063 1539.87C685.605 1536 685.384 1529.99 681.557 1526.41C677.731 1522.82 671.785 1523.05 668.243 1526.92C664.701 1530.79 664.922 1536.8 668.749 1540.38Z" fill="#EEBF8C"/>
<path fill-rule="evenodd" clip-rule="evenodd" d="M690.918 1537.02C693.101 1539.07 696.548 1538.94 698.604 1536.74C700.628 1534.5 700.501 1531.04 698.319 1528.97C696.137 1526.92 692.69 1527.05 690.634 1529.25C688.61 1531.49 688.736 1534.95 690.918 1537.02Z" fill="#EEBF8C"/>
<path fill-rule="evenodd" clip-rule="evenodd" d="M706.605 1536.26C708.155 1537.73 710.59 1537.63 712.045 1536.06C713.499 1534.5 713.404 1532.04 711.855 1530.56C710.305 1529.09 707.87 1529.19 706.415 1530.76C704.96 1532.32 705.055 1534.79 706.605 1536.26Z" fill="#EEBF8C"/>
<path fill-rule="evenodd" clip-rule="evenodd" d="M602.05 1540.38C598.223 1543.96 592.278 1543.74 588.736 1539.87C585.193 1536 585.415 1529.99 589.242 1526.41C593.068 1522.82 599.014 1523.05 602.556 1526.92C606.098 1530.79 605.877 1536.8 602.05 1540.38Z" fill="#EEBF8C"/>
<path fill-rule="evenodd" clip-rule="evenodd" d="M579.912 1537.02C577.73 1539.07 574.283 1538.94 572.227 1536.74C570.203 1534.5 570.329 1531.04 572.511 1528.97C574.694 1526.92 578.141 1527.05 580.197 1529.25C582.252 1531.49 582.094 1534.95 579.912 1537.02Z" fill="#EEBF8C"/>
<path fill-rule="evenodd" clip-rule="evenodd" d="M564.194 1536.26C562.644 1537.73 560.209 1537.63 558.754 1536.06C557.299 1534.5 557.394 1532.04 558.944 1530.56C560.494 1529.09 562.929 1529.19 564.384 1530.76C565.838 1532.32 565.744 1534.79 564.194 1536.26Z" fill="#EEBF8C"/>
</svg>
