<svg width="1028" height="173" viewBox="0 0 1028 173" fill="none" xmlns="http://www.w3.org/2000/svg">
<g clip-path="url(#clip0_149_92)" filter="url(#filter0_d_149_92)">
<path d="M6.09747 109.446L1021.85 109.446C1023.03 109.446 1023.97 108.735 1023.97 107.866C1023.97 106.996 1023.03 106.285 1021.85 106.285L6.12372 106.285C4.9438 106.285 3.99987 106.996 3.99987 107.866C3.99987 108.735 4.9438 109.446 6.12372 109.446L6.09747 109.446Z" fill="#D2B897"/>
<path d="M6.09738 115.214L1021.85 115.214C1022.24 115.214 1022.56 114.977 1022.56 114.687C1022.56 114.397 1022.24 114.16 1021.85 114.16L6.12363 114.16C5.73032 114.16 5.41571 114.397 5.41571 114.687C5.41571 114.977 5.73032 115.214 6.12363 115.214L6.09738 115.214Z" fill="#D2B897"/>
<path d="M507.169 122.986C505.543 122.986 504.232 123.566 503.131 124.672C502.03 125.779 501.505 127.201 501.505 128.755C501.505 130.309 502.03 131.574 503.131 132.68C504.232 133.786 505.569 134.392 507.169 134.392C508.768 134.392 510.106 133.813 511.207 132.68C512.308 131.574 512.911 130.23 512.911 128.755C512.911 127.201 512.334 125.805 511.207 124.672C510.106 123.566 508.768 122.986 507.169 122.986ZM502.764 136.526C502.764 137.711 502.554 138.975 502.108 140.45C501.741 141.847 501.086 143.269 500.194 144.586C499.303 145.903 498.123 147.167 496.654 148.432C495.186 149.696 493.403 150.723 491.201 151.54C492.013 153.015 493.115 154.042 494.452 154.49C495.711 155.017 497.022 154.859 498.359 154.121C498.883 153.911 499.329 153.542 499.696 153.015C499.984 152.567 500.273 152.12 500.588 151.619C500.876 151.171 501.112 150.881 501.4 150.592C501.61 150.302 501.925 150.223 502.344 150.302C502.711 150.381 502.921 150.75 503 151.408C503.078 151.988 503.078 152.725 503.078 153.568C503.078 154.411 503.078 155.333 503.157 156.308C503.157 157.256 503.367 158.073 503.682 158.889C504.206 160.154 504.783 161.392 505.438 162.656C506.094 163.92 507.064 164.737 508.323 165.027C509.424 164.289 510.237 163.262 510.892 161.997C511.626 160.733 511.836 159.416 511.705 157.941C511.626 157.203 511.417 156.466 511.05 155.807C510.682 155.07 510.315 154.332 509.948 153.595C509.66 152.857 509.371 152.12 509.214 151.435C509.004 150.697 509.057 149.96 509.371 149.222C510.473 150.934 511.889 152.172 513.409 152.857C514.956 153.516 516.425 153.753 517.841 153.516C519.309 153.305 520.489 152.62 521.511 151.672C522.482 150.644 522.98 149.38 522.901 147.747C520.83 148.643 519.073 149.011 517.369 148.774C515.743 148.563 514.353 147.879 513.252 146.851C512.072 145.824 511.181 144.402 510.682 142.716C510.106 141.004 509.87 139.028 510.027 136.868C508.847 138.132 507.903 139.687 507.221 141.372C506.566 143.085 506.12 144.849 505.832 146.693C505.622 148.537 505.543 150.381 505.674 152.383C505.832 154.306 506.12 156.15 506.566 157.862C505.019 155.491 504.285 152.383 504.442 148.616C504.599 144.849 505.543 141.135 507.169 137.527C506.513 137.685 505.701 137.606 504.73 137.369C503.839 137.079 503.183 136.842 502.816 136.552L502.764 136.526ZM469.621 123.197C468.363 123.355 467.629 123.935 467.497 124.909C467.288 125.884 467.576 126.832 468.232 127.649C467.576 127.938 466.842 128.018 466.108 127.859C465.374 127.701 464.639 127.491 463.827 127.333C463.092 127.096 462.358 127.043 461.624 126.964C460.89 126.885 460.156 127.122 459.5 127.622C458.399 128.518 457.507 129.624 456.931 131.02C456.275 132.416 456.196 133.602 456.642 134.655C458.714 134.655 460.995 134.866 463.407 135.314C465.898 135.762 468.415 136.289 470.985 136.868C473.554 137.395 476.15 137.895 478.72 138.343C481.368 138.712 483.938 138.949 486.455 138.87C488.946 138.87 491.384 138.422 493.665 137.685C495.947 136.947 498.018 135.604 500.011 133.76C496.995 135.314 493.823 136.341 490.519 136.789C487.215 137.237 484.121 137.316 481.237 136.947C478.3 136.657 475.862 135.92 473.79 134.866C471.719 133.839 470.408 132.654 469.883 131.31C471.509 132.627 473.712 133.76 476.596 134.55C479.533 135.367 482.417 135.735 485.354 135.656C488.002 135.656 490.519 135.13 492.721 134.181C494.924 133.207 496.917 132.1 498.542 130.862C498.385 130.494 498.333 130.046 498.254 129.466C498.254 128.939 498.254 128.492 498.411 128.149C496.576 129.256 494.793 130.23 493.193 131.047C491.568 131.863 489.523 132.153 487.163 132.074C484.278 131.995 481.866 131.705 479.873 131.178C477.959 130.652 476.334 129.993 475.075 129.177C473.817 128.36 472.794 127.385 471.981 126.437C471.168 125.41 470.355 124.356 469.7 123.171L469.621 123.197ZM460.051 126.016C458.714 125.726 457.403 125.779 456.144 126.226C454.807 126.595 453.784 127.254 452.84 128.07C451.896 128.887 451.136 129.835 450.559 130.889C449.982 131.995 449.668 133.101 449.668 134.208C449.589 136.578 450.271 138.501 451.66 140.055C453.05 141.609 454.676 142.505 456.59 142.637C455.698 143.164 454.754 143.295 453.863 143.006C452.971 142.716 452.158 142.11 451.293 141.372C450.48 140.635 449.825 139.739 449.222 138.633C448.566 137.527 448.199 136.499 447.963 135.314C446.862 137.105 446.626 138.712 447.386 140.345C448.042 141.978 449.143 143.243 450.638 144.191C451.372 144.639 452.263 145.007 453.286 145.166C454.309 145.376 455.279 145.376 456.17 145.245C457.062 145.086 457.796 144.797 458.451 144.349C459.028 143.901 459.474 143.322 459.631 142.584C459.71 141.688 459.474 140.951 459.107 140.213C458.661 139.555 458.215 138.817 457.717 138.08C457.193 137.342 456.695 136.526 456.17 135.788C455.724 134.972 455.515 134.102 455.515 133.128C455.436 131.942 455.803 130.625 456.773 129.282C457.743 127.886 458.845 126.832 460.077 126.042L460.051 126.016ZM507.536 125.489C508.06 125.489 508.27 125.726 508.27 126.226C508.27 126.885 508.06 127.201 507.536 127.201C507.012 127.201 506.644 126.911 506.644 126.226C506.644 125.699 506.933 125.489 507.536 125.489Z" fill="#D2B897"/>
<path d="M709.303 124.697C707.677 124.697 706.366 125.303 705.265 126.409C704.163 127.516 703.639 128.938 703.639 130.466C703.639 131.994 704.163 133.284 705.265 134.391C706.366 135.497 707.703 136.103 709.303 136.103C710.902 136.103 712.239 135.497 713.341 134.391C714.442 133.284 715.045 131.941 715.045 130.466C715.045 128.991 714.468 127.516 713.341 126.409C712.239 125.303 710.902 124.697 709.303 124.697ZM709.67 127.2C710.194 127.2 710.404 127.41 710.404 127.937C710.404 128.596 710.194 128.912 709.67 128.912C709.145 128.912 708.778 128.622 708.778 127.937C708.778 127.41 709.067 127.2 709.67 127.2Z" fill="#D2B897"/>
<path d="M306.295 125.936C307.92 125.936 309.31 126.462 310.411 127.648C311.434 128.754 312.037 130.097 312.037 131.652C312.037 133.206 311.46 134.47 310.411 135.576C309.31 136.762 307.92 137.289 306.295 137.289C304.669 137.289 303.411 136.762 302.309 135.576C301.129 134.47 300.605 133.127 300.605 131.652C300.605 130.097 301.129 128.754 302.309 127.648C303.411 126.462 304.748 125.936 306.295 125.936ZM306.006 128.385C305.482 128.385 305.194 128.675 305.194 129.202C305.194 129.781 305.482 130.097 306.006 130.097C306.583 130.097 306.898 129.808 306.898 129.202C306.898 128.675 306.609 128.385 306.006 128.385Z" fill="#D2B897"/>
<path d="M544.507 123.197C545.844 123.355 546.579 123.856 546.71 124.909C546.919 125.884 546.631 126.753 545.976 127.57C546.631 127.86 547.365 127.939 548.099 127.807C548.834 127.675 549.568 127.517 550.302 127.28C551.115 127.122 551.849 126.99 552.583 126.911C553.317 126.832 553.973 127.069 554.707 127.57C555.808 128.465 556.7 129.651 557.276 130.968C557.932 132.364 558.011 133.549 557.565 134.656C555.494 134.656 553.212 134.866 550.721 135.314C548.283 135.762 545.792 136.289 543.196 136.789C540.627 137.369 538.031 137.817 535.461 138.264C532.813 138.633 530.243 138.844 527.726 138.791C525.157 138.791 522.797 138.422 520.516 137.685C518.234 136.868 516.084 135.604 514.17 133.681C517.186 135.314 520.28 136.262 523.583 136.71C526.887 137.158 530.06 137.237 532.944 136.921C535.881 136.552 538.319 135.894 540.391 134.84C542.462 133.734 543.694 132.548 544.219 131.205C542.672 132.548 540.469 133.655 537.506 134.471C534.622 135.288 531.685 135.657 528.827 135.578C526.179 135.578 523.662 135.13 521.459 134.181C519.178 133.128 517.264 132.048 515.639 130.783C515.796 130.415 515.848 129.967 515.927 129.44C515.927 128.913 515.848 128.465 515.717 128.123C517.631 129.229 519.336 130.204 521.014 130.942C522.639 131.758 524.632 132.127 527.044 132.048C529.929 131.969 532.341 131.679 534.255 131.152C536.248 130.573 537.795 129.888 539.106 129.071C540.364 128.255 541.387 127.359 542.2 126.332C543.013 125.305 543.747 124.251 544.402 123.145L544.507 123.197ZM554.156 126.016C555.494 125.726 556.805 125.726 558.063 126.174C559.322 126.622 560.423 127.201 561.367 128.018C562.337 128.834 563.071 129.783 563.648 130.915C564.225 131.942 564.54 133.049 564.54 134.234C564.618 136.526 563.963 138.449 562.547 140.003C561.157 141.636 559.453 142.453 557.617 142.584C558.509 143.111 559.374 143.243 560.266 142.953C561.21 142.663 562.022 142.136 562.835 141.399C563.727 140.661 564.382 139.713 564.959 138.58C565.536 137.553 565.982 136.447 566.218 135.314C567.319 137.026 567.555 138.633 566.795 140.266C566.139 141.899 565.038 143.164 563.491 144.191C562.757 144.639 561.865 144.929 560.921 145.087C559.899 145.297 558.928 145.297 558.037 145.166C557.145 145.008 556.411 144.718 555.756 144.27C555.1 143.822 554.733 143.216 554.576 142.479C554.497 141.662 554.654 140.846 555.1 140.187C555.467 139.45 555.992 138.712 556.49 137.975C557.014 137.237 557.512 136.499 557.958 135.683C558.483 134.866 558.692 133.971 558.692 133.022C558.771 131.837 558.325 130.599 557.434 129.177C556.464 127.781 555.362 126.727 554.13 125.989L554.156 126.016Z" fill="#D2B897"/>
<path fill-rule="evenodd" clip-rule="evenodd" d="M448.777 128.307L306.295 130.388L306.295 131.573L447.177 133.865C446.364 132.311 447.465 130.177 448.803 128.307L448.777 128.307Z" fill="#D2B897"/>
<path fill-rule="evenodd" clip-rule="evenodd" d="M566.9 128.307L709.329 130.388L709.329 131.573L568.526 133.865C569.338 132.311 568.237 130.177 566.9 128.307Z" fill="#D2B897"/>
<path d="M228.709 122.984C227.083 122.984 225.772 123.564 224.671 124.67C223.57 125.777 223.045 127.199 223.045 128.753C223.045 130.307 223.57 131.572 224.671 132.678C225.772 133.784 227.109 134.39 228.709 134.39C230.308 134.39 231.646 133.811 232.747 132.678C233.848 131.572 234.451 130.228 234.451 128.753C234.451 127.199 233.874 125.803 232.747 124.67C231.646 123.564 230.308 122.984 228.709 122.984ZM224.304 136.524C224.304 137.709 224.094 138.973 223.648 140.449C223.281 141.845 222.626 143.267 221.734 144.584C220.843 145.901 219.663 147.165 218.194 148.43C216.726 149.694 214.943 150.721 212.741 151.538C213.553 153.013 214.655 154.04 215.992 154.488C217.251 155.015 218.562 154.857 219.899 154.119C220.423 153.909 220.869 153.54 221.236 153.013C221.524 152.565 221.813 152.118 222.128 151.617C222.416 151.169 222.652 150.88 222.94 150.59C223.15 150.3 223.465 150.221 223.884 150.3C224.251 150.379 224.461 150.748 224.54 151.406C224.618 151.986 224.619 152.723 224.619 153.566C224.619 154.409 224.619 155.331 224.697 156.306C224.697 157.254 224.907 158.071 225.222 158.887C225.746 160.152 226.323 161.39 226.978 162.654C227.634 163.918 228.604 164.735 229.863 165.025C230.964 164.287 231.777 163.26 232.432 161.995C233.166 160.731 233.376 159.414 233.245 157.939C233.166 157.201 232.957 156.464 232.589 155.805C232.222 155.068 231.855 154.33 231.488 153.593C231.2 152.855 230.911 152.118 230.754 151.433C230.544 150.695 230.597 149.958 230.911 149.22C232.013 150.932 233.429 152.17 234.949 152.855C236.496 153.514 237.965 153.751 239.381 153.514C240.849 153.303 242.029 152.618 243.051 151.67C244.022 150.642 244.52 149.378 244.441 147.745C242.37 148.641 240.613 149.009 238.909 148.772C237.283 148.562 235.893 147.877 234.792 146.849C233.612 145.822 232.721 144.4 232.222 142.714C231.646 141.002 231.41 139.026 231.567 136.866C230.387 138.13 229.443 139.685 228.761 141.37C228.106 143.083 227.66 144.847 227.372 146.691C227.162 148.535 227.083 150.379 227.214 152.381C227.372 154.304 227.66 156.148 228.106 157.86C226.559 155.489 225.825 152.381 225.982 148.614C226.139 144.847 227.083 141.133 228.709 137.525C228.053 137.683 227.24 137.604 226.27 137.367C225.379 137.077 224.723 136.84 224.356 136.55L224.304 136.524ZM191.161 123.195C189.903 123.353 189.169 123.933 189.037 124.907C188.828 125.882 189.116 126.83 189.772 127.647C189.116 127.937 188.382 128.016 187.648 127.858C186.914 127.699 186.179 127.489 185.367 127.331C184.632 127.094 183.898 127.041 183.164 126.962C182.43 126.883 181.696 127.12 181.04 127.62C179.939 128.516 179.047 129.622 178.471 131.018C177.815 132.415 177.736 133.6 178.182 134.653C180.254 134.653 182.535 134.864 184.947 135.312C187.438 135.76 189.955 136.287 192.525 136.866C195.094 137.393 197.69 137.893 200.26 138.341C202.908 138.71 205.478 138.947 207.995 138.868C210.486 138.868 212.924 138.42 215.205 137.683C217.486 136.945 219.558 135.602 221.551 133.758C218.535 135.312 215.363 136.339 212.059 136.787C208.755 137.235 205.661 137.314 202.777 136.945C199.84 136.655 197.402 135.918 195.33 134.864C193.259 133.837 191.948 132.652 191.423 131.308C193.049 132.625 195.252 133.758 198.136 134.548C201.073 135.365 203.957 135.733 206.893 135.654C209.542 135.654 212.059 135.128 214.261 134.179C216.464 133.205 218.457 132.098 220.082 130.86C219.925 130.492 219.873 130.044 219.794 129.464C219.794 128.937 219.794 128.49 219.951 128.147C218.116 129.254 216.333 130.228 214.733 131.045C213.108 131.861 211.063 132.151 208.703 132.072C205.818 131.993 203.406 131.703 201.413 131.176C199.499 130.65 197.874 129.991 196.615 129.175C195.356 128.358 194.334 127.383 193.521 126.435C192.708 125.408 191.895 124.354 191.24 123.169L191.161 123.195ZM181.591 126.014C180.254 125.724 178.943 125.777 177.684 126.224C176.347 126.593 175.324 127.252 174.38 128.068C173.436 128.885 172.676 129.833 172.099 130.887C171.522 131.993 171.207 133.099 171.207 134.206C171.129 136.576 171.811 138.499 173.2 140.053C174.59 141.608 176.216 142.503 178.13 142.635C177.238 143.162 176.294 143.293 175.403 143.004C174.511 142.714 173.698 142.108 172.833 141.37C172.02 140.633 171.365 139.737 170.762 138.631C170.106 137.525 169.739 136.497 169.503 135.312C168.402 137.103 168.166 138.71 168.926 140.343C169.582 141.976 170.683 143.241 172.178 144.189C172.912 144.637 173.803 145.006 174.826 145.164C175.849 145.374 176.819 145.374 177.71 145.243C178.602 145.085 179.336 144.795 179.991 144.347C180.568 143.899 181.014 143.32 181.171 142.582C181.25 141.687 181.014 140.949 180.647 140.211C180.201 139.553 179.755 138.815 179.257 138.078C178.733 137.34 178.235 136.524 177.71 135.786C177.264 134.97 177.055 134.1 177.055 133.126C176.976 131.94 177.343 130.623 178.313 129.28C179.283 127.884 180.385 126.83 181.617 126.04L181.591 126.014ZM229.076 125.487C229.6 125.487 229.81 125.724 229.81 126.224C229.81 126.883 229.6 127.199 229.076 127.199C228.552 127.199 228.184 126.909 228.184 126.224C228.184 125.698 228.473 125.487 229.076 125.487Z" fill="#D2B897"/>
<path d="M266.046 123.195C267.383 123.353 268.118 123.854 268.249 124.907C268.458 125.882 268.17 126.751 267.515 127.568C268.17 127.858 268.904 127.937 269.638 127.805C270.373 127.673 271.107 127.515 271.841 127.278C272.654 127.12 273.388 126.988 274.122 126.909C274.856 126.83 275.512 127.067 276.246 127.568C277.347 128.464 278.239 129.649 278.816 130.966C279.471 132.362 279.55 133.547 279.104 134.654C277.033 134.654 274.751 134.864 272.26 135.312C269.822 135.76 267.331 136.287 264.735 136.787C262.166 137.367 259.57 137.815 257 138.262C254.352 138.631 251.782 138.842 249.265 138.789C246.696 138.789 244.336 138.42 242.055 137.683C239.773 136.866 237.623 135.602 235.709 133.679C238.725 135.312 241.819 136.26 245.122 136.708C248.426 137.156 251.599 137.235 254.483 136.919C257.42 136.55 259.858 135.892 261.93 134.838C264.001 133.732 265.233 132.546 265.758 131.203C264.211 132.546 262.008 133.653 259.045 134.469C256.161 135.286 253.224 135.655 250.366 135.576C247.718 135.576 245.201 135.128 242.998 134.179C240.717 133.126 238.803 132.046 237.178 130.782C237.335 130.413 237.387 129.965 237.466 129.438C237.466 128.911 237.387 128.464 237.256 128.121C239.17 129.227 240.875 130.202 242.553 130.94C244.178 131.756 246.171 132.125 248.583 132.046C251.468 131.967 253.88 131.677 255.794 131.15C257.787 130.571 259.334 129.886 260.645 129.069C261.903 128.253 262.926 127.357 263.739 126.33C264.552 125.303 265.286 124.249 265.941 123.143L266.046 123.195ZM275.695 126.014C277.033 125.724 278.344 125.724 279.602 126.172C280.861 126.62 281.962 127.199 282.906 128.016C283.876 128.832 284.61 129.781 285.187 130.913C285.764 131.941 286.079 133.047 286.079 134.232C286.157 136.524 285.502 138.447 284.086 140.001C282.696 141.634 280.992 142.451 279.156 142.582C280.048 143.109 280.913 143.241 281.805 142.951C282.749 142.661 283.561 142.134 284.374 141.397C285.266 140.659 285.921 139.711 286.498 138.578C287.075 137.551 287.521 136.445 287.757 135.312C288.858 137.024 289.094 138.631 288.334 140.264C287.678 141.897 286.577 143.162 285.03 144.189C284.296 144.637 283.404 144.927 282.46 145.085C281.438 145.295 280.467 145.295 279.576 145.164C278.684 145.006 277.95 144.716 277.295 144.268C276.639 143.82 276.272 143.214 276.115 142.477C276.036 141.66 276.194 140.844 276.639 140.185C277.006 139.448 277.531 138.71 278.029 137.973C278.553 137.235 279.052 136.498 279.497 135.681C280.022 134.864 280.231 133.969 280.231 133.02C280.31 131.835 279.864 130.597 278.973 129.175C278.003 127.779 276.901 126.725 275.669 125.987L275.695 126.014Z" fill="#D2B897"/>
<path d="M790.744 122.984C789.118 122.984 787.807 123.564 786.706 124.67C785.605 125.777 785.08 127.199 785.08 128.753C785.08 130.307 785.605 131.572 786.706 132.678C787.807 133.784 789.144 134.39 790.744 134.39C792.343 134.39 793.681 133.811 794.782 132.678C795.883 131.572 796.486 130.228 796.486 128.753C796.486 127.199 795.909 125.803 794.782 124.67C793.681 123.564 792.343 122.984 790.744 122.984ZM786.313 136.524C786.313 137.709 786.103 138.973 785.657 140.449C785.29 141.845 784.635 143.267 783.743 144.584C782.852 145.901 781.672 147.165 780.203 148.43C778.735 149.694 776.952 150.721 774.749 151.538C775.562 153.013 776.664 154.04 778.001 154.488C779.259 155.015 780.57 154.857 781.908 154.119C782.432 153.909 782.878 153.54 783.245 153.013C783.533 152.565 783.822 152.118 784.136 151.617C784.425 151.169 784.661 150.88 784.949 150.59C785.159 150.3 785.474 150.221 785.893 150.3C786.26 150.379 786.47 150.748 786.549 151.406C786.627 151.986 786.627 152.723 786.627 153.566C786.627 154.409 786.627 155.331 786.706 156.306C786.706 157.254 786.916 158.071 787.23 158.887C787.755 160.152 788.332 161.39 788.987 162.654C789.643 163.918 790.613 164.735 791.871 165.025C792.973 164.287 793.785 163.26 794.441 161.995C795.175 160.731 795.385 159.414 795.254 157.939C795.175 157.201 794.965 156.464 794.598 155.805C794.231 155.068 793.864 154.33 793.497 153.593C793.209 152.855 792.92 152.118 792.763 151.433C792.553 150.695 792.606 149.958 792.92 149.22C794.021 150.932 795.437 152.17 796.958 152.855C798.505 153.514 799.973 153.751 801.389 153.514C802.858 153.303 804.038 152.618 805.06 151.67C806.03 150.642 806.529 149.378 806.45 147.745C804.379 148.641 802.622 149.009 800.917 148.772C799.292 148.562 797.902 147.877 796.801 146.849C795.621 145.822 794.729 144.4 794.231 142.714C793.654 141.002 793.418 139.026 793.576 136.866C792.396 138.13 791.452 139.685 790.77 141.37C790.115 143.083 789.669 144.847 789.38 146.691C789.171 148.535 789.092 150.379 789.223 152.381C789.38 154.304 789.669 156.148 790.115 157.86C788.568 155.489 787.833 152.381 787.991 148.614C788.148 144.847 789.092 141.133 790.718 137.525C790.062 137.683 789.249 137.604 788.279 137.367C787.388 137.077 786.732 136.84 786.365 136.55L786.313 136.524ZM753.196 123.195C751.938 123.353 751.204 123.933 751.072 124.907C750.863 125.882 751.151 126.83 751.807 127.647C751.151 127.937 750.417 128.016 749.683 127.858C748.949 127.699 748.214 127.489 747.402 127.331C746.667 127.094 745.933 127.041 745.199 126.962C744.465 126.883 743.731 127.12 743.075 127.62C741.974 128.516 741.082 129.622 740.506 131.018C739.85 132.415 739.771 133.6 740.217 134.653C742.289 134.653 744.57 134.864 746.982 135.312C749.473 135.76 751.99 136.287 754.56 136.866C757.129 137.393 759.725 137.893 762.295 138.341C764.943 138.71 767.513 138.947 770.03 138.868C772.521 138.868 774.959 138.42 777.24 137.683C779.522 136.945 781.593 135.602 783.586 133.758C780.57 135.312 777.398 136.339 774.094 136.787C770.79 137.235 767.696 137.314 764.812 136.945C761.875 136.655 759.437 135.918 757.365 134.864C755.294 133.837 753.983 132.652 753.458 131.308C755.084 132.625 757.287 133.758 760.171 134.548C763.108 135.365 765.992 135.733 768.929 135.654C771.577 135.654 774.094 135.128 776.296 134.179C778.499 133.205 780.492 132.098 782.117 130.86C781.96 130.492 781.908 130.044 781.829 129.464C781.829 128.937 781.829 128.49 781.986 128.147C780.151 129.254 778.368 130.228 776.768 131.045C775.143 131.861 773.098 132.151 770.738 132.072C767.853 131.993 765.441 131.703 763.448 131.176C761.534 130.65 759.909 129.991 758.65 129.175C757.392 128.358 756.369 127.383 755.556 126.435C754.743 125.408 753.93 124.354 753.275 123.169L753.196 123.195ZM743.6 126.014C742.262 125.724 740.951 125.777 739.693 126.224C738.356 126.593 737.333 127.252 736.389 128.068C735.445 128.885 734.685 129.833 734.108 130.887C733.531 131.993 733.216 133.099 733.216 134.206C733.138 136.576 733.819 138.499 735.209 140.053C736.599 141.608 738.224 142.503 740.139 142.635C739.247 143.162 738.303 143.293 737.412 143.004C736.52 142.714 735.707 142.108 734.842 141.37C734.029 140.633 733.374 139.737 732.771 138.631C732.115 137.525 731.748 136.497 731.512 135.312C730.411 137.103 730.175 138.71 730.935 140.343C731.591 141.976 732.692 143.241 734.186 144.189C734.921 144.637 735.812 145.006 736.835 145.164C737.857 145.374 738.827 145.374 739.719 145.243C740.61 145.085 741.345 144.795 742 144.347C742.577 143.899 743.023 143.32 743.18 142.582C743.259 141.687 743.023 140.949 742.656 140.211C742.21 139.553 741.764 138.815 741.266 138.078C740.742 137.34 740.243 136.524 739.719 135.786C739.273 134.97 739.063 134.1 739.063 133.126C738.985 131.94 739.352 130.623 740.322 129.28C741.292 127.884 742.393 126.83 743.626 126.04L743.6 126.014ZM791.111 125.487C791.635 125.487 791.845 125.724 791.845 126.224C791.845 126.883 791.635 127.199 791.111 127.199C790.587 127.199 790.219 126.909 790.219 126.224C790.219 125.698 790.508 125.487 791.111 125.487Z" fill="#D2B897"/>
<path d="M828.081 123.195C829.419 123.353 830.153 123.854 830.284 124.907C830.494 125.882 830.205 126.751 829.55 127.568C830.205 127.858 830.939 127.937 831.674 127.805C832.408 127.673 833.142 127.515 833.876 127.278C834.689 127.12 835.423 126.988 836.157 126.909C836.891 126.83 837.547 127.067 838.281 127.568C839.382 128.464 840.274 129.649 840.851 130.966C841.506 132.362 841.585 133.547 841.139 134.654C839.068 134.654 836.787 134.864 834.296 135.312C831.857 135.76 829.366 136.287 826.77 136.787C824.201 137.367 821.605 137.815 819.035 138.262C816.387 138.631 813.817 138.842 811.3 138.789C808.731 138.789 806.371 138.42 804.09 137.683C801.809 136.866 799.658 135.602 797.744 133.679C800.76 135.312 803.854 136.26 807.157 136.708C810.461 137.156 813.634 137.235 816.518 136.919C819.455 136.55 821.893 135.892 823.965 134.838C826.036 133.732 827.269 132.546 827.793 131.203C826.246 132.546 824.043 133.653 821.081 134.469C818.196 135.286 815.26 135.655 812.402 135.576C809.753 135.576 807.236 135.128 805.034 134.179C802.752 133.126 800.838 132.046 799.213 130.782C799.37 130.413 799.422 129.965 799.501 129.438C799.501 128.911 799.422 128.464 799.291 128.121C801.205 129.227 802.91 130.202 804.588 130.94C806.214 131.756 808.206 132.125 810.619 132.046C813.503 131.967 815.915 131.677 817.829 131.15C819.822 130.571 821.369 129.886 822.68 129.069C823.939 128.253 824.961 127.357 825.774 126.33C826.587 125.303 827.321 124.249 827.976 123.143L828.081 123.195ZM837.73 126.014C839.068 125.724 840.379 125.724 841.637 126.172C842.896 126.62 843.997 127.199 844.941 128.016C845.911 128.832 846.645 129.781 847.222 130.913C847.799 131.941 848.114 133.047 848.114 134.232C848.192 136.524 847.537 138.447 846.121 140.001C844.731 141.634 843.027 142.451 841.192 142.582C842.083 143.109 842.948 143.241 843.84 142.951C844.784 142.661 845.597 142.134 846.409 141.397C847.301 140.659 847.956 139.711 848.533 138.578C849.11 137.551 849.556 136.445 849.792 135.312C850.893 137.024 851.129 138.631 850.369 140.264C849.713 141.897 848.612 143.162 847.065 144.189C846.331 144.637 845.439 144.927 844.495 145.085C843.473 145.295 842.503 145.295 841.611 145.164C840.72 145.006 839.985 144.716 839.33 144.268C838.674 143.82 838.307 143.214 838.15 142.477C838.071 141.66 838.229 140.844 838.674 140.185C839.042 139.448 839.566 138.71 840.064 137.973C840.589 137.235 841.087 136.498 841.532 135.681C842.057 134.864 842.267 133.969 842.267 133.02C842.345 131.835 841.9 130.597 841.008 129.175C840.038 127.779 838.937 126.725 837.704 125.987L837.73 126.014Z" fill="#D2B897"/>
<path d="M768.64 83.1841C768.089 83.8163 767.617 84.2114 767.145 84.2904C766.673 84.4485 766.201 84.4485 765.729 84.2904C765.179 84.2114 764.707 84.1324 764.235 83.9743C763.684 83.8163 763.212 83.7373 762.74 83.7373C762.583 84.5275 762.976 85.2387 763.763 85.7919C764.549 86.345 765.021 87.0562 765.257 87.9255C765.493 88.7157 765.415 89.664 764.943 90.6123C764.549 91.5605 764.313 92.4298 764.077 93.22C763.212 92.9039 762.268 92.5088 761.088 92.1137C759.987 91.6396 759.2 90.9284 758.807 89.822C758.492 89.3479 758.335 88.7157 758.335 88.0835C758.335 87.4513 758.335 86.8192 758.256 86.266C758.178 85.7128 758.02 85.1597 757.784 84.7646C757.548 84.3694 757.076 84.1324 756.29 84.0534C756.211 84.8436 756.133 85.7919 756.133 86.7401C756.133 87.6884 756.054 88.6367 755.818 89.4269C755.582 90.2172 755.189 90.7703 754.481 91.1654C753.773 91.5605 752.671 91.5605 751.098 91.2444C752.435 90.2171 753.065 89.1899 753.065 87.9255C752.986 86.7401 752.829 85.4758 752.593 84.2904C752.357 83.0261 752.435 81.8407 752.671 80.7344C752.907 79.6281 754.009 78.6798 756.054 77.8105C757.627 77.2574 759.043 77.0993 760.144 77.4944C761.324 77.8896 762.347 78.5217 763.212 79.233C764.156 80.0232 765.021 80.8134 765.808 81.6036C766.673 82.3939 767.617 82.947 768.64 83.1841ZM754.35 60.8996C755.687 61.2947 756.945 61.8479 757.889 62.6381C758.912 63.4283 759.62 64.2976 760.17 65.3249C760.642 66.3522 760.878 67.4585 760.878 68.6439C760.878 69.8292 760.642 70.9355 760.17 71.9628C759.227 71.8048 758.44 71.6467 757.653 71.5677C756.945 71.4887 756.08 71.4887 755.136 71.4887C754.821 69.7502 754.192 68.1697 753.091 66.6683C752.068 65.2459 750.81 64.0605 749.394 63.1913C749.944 62.243 750.652 61.6108 751.596 61.2157C752.54 60.8206 753.406 60.7416 754.35 60.8996ZM760.616 74.8077C758.492 74.8077 756.526 75.2818 754.638 76.3091C752.75 77.2574 751.334 78.9959 750.233 81.3666C749.84 80.2602 750.076 79.0749 750.784 77.9686C751.491 76.7832 752.435 75.835 753.615 75.0447C754.795 74.3335 756.054 73.8594 757.391 73.7013C758.65 73.5433 759.751 73.9384 760.616 74.8077ZM747.663 64.6137C748.922 65.72 750.102 66.9844 751.282 68.4068C752.383 69.9082 753.091 71.4887 753.406 73.3062C752.383 74.1755 751.518 75.0447 750.652 75.914C749.787 76.7832 749.079 77.7315 748.607 78.6798C748.135 78.1266 747.506 77.5735 746.798 77.0203C746.09 76.5462 745.382 75.993 744.674 75.4398C744.045 74.8077 743.494 74.2545 743.022 73.6223C742.55 73.0692 742.314 72.3579 742.236 71.5677C742.236 70.8565 742.314 70.0663 742.55 69.197C742.786 68.4068 743.18 67.6956 743.652 66.9844C744.124 66.3522 744.674 65.799 745.382 65.4039C746.011 64.9298 746.798 64.6137 747.663 64.6137ZM736.021 75.7559C737.201 76.3091 737.988 77.0993 738.303 78.1266C738.617 79.1539 738.539 80.1812 738.145 81.1295C737.752 82.1568 737.123 82.868 736.1 83.4212C735.156 83.9743 734.055 83.9743 732.796 83.4212C731.616 82.868 730.83 82.0778 730.594 80.9715C730.279 79.9442 730.358 78.9169 730.751 77.9686C731.144 76.9413 731.774 76.2301 732.718 75.6769C733.662 75.2028 734.763 75.2028 736.021 75.7559ZM766.044 41.2492C764.471 43.857 762.976 45.5955 761.639 46.4647C760.223 47.334 758.886 47.8872 757.548 48.1242C756.211 48.2823 754.874 48.3613 753.458 48.2823C752.121 48.2823 750.705 48.5984 749.289 49.2305C749.997 49.7047 750.862 50.4949 751.885 51.6012C752.986 52.7076 753.615 53.8139 753.694 54.9202C752.593 53.7349 751.098 52.8656 749.21 52.1544C747.244 51.4432 745.277 50.811 743.232 50.1788C741.187 49.6257 739.299 49.0725 737.568 48.5193C735.838 47.9662 734.579 47.334 733.793 46.5438C734.894 47.6501 736.074 48.7564 737.411 49.7837C738.748 50.89 740.007 51.9173 741.266 52.9446C742.445 54.051 743.625 55.0782 744.727 56.1055C745.749 57.2119 746.693 58.2392 747.322 59.3455C747.244 59.6616 747.008 60.0567 746.772 60.4518C746.536 60.8469 746.379 61.163 746.221 61.4001C744.805 59.8987 743.153 58.3972 741.344 56.8168C739.535 55.1573 737.647 53.6558 735.602 52.1544C733.635 50.732 731.512 49.3096 729.466 47.9662C727.343 46.6228 725.297 45.5165 723.173 44.4892C723.567 46.3857 724.511 48.2823 725.848 50.1788C727.185 52.0754 728.68 54.0509 730.174 56.1055C731.748 58.2392 733.163 60.4518 734.501 62.8225C735.838 65.1932 736.703 67.88 737.018 70.7248C736.782 71.357 736.467 72.0682 736.153 72.8584C735.838 73.6487 735.445 73.9647 735.051 73.8857C735.287 70.6458 734.658 67.5639 733.163 64.482C731.669 61.4791 730.017 58.6343 728.208 56.0265C726.32 53.3397 724.668 50.9691 723.252 48.9145C721.758 46.7808 721.207 45.0423 721.522 43.6989C720.106 43.1458 718.611 42.5926 716.959 42.0394C715.307 41.4073 713.655 40.8541 712.082 40.3009C710.43 39.7478 708.936 39.3527 707.363 39.1156C705.868 38.8785 704.531 38.7995 703.429 38.9576C705.711 40.1429 707.677 41.3282 709.408 42.5926C711.217 43.857 712.79 45.2004 714.285 46.7018C715.15 47.492 715.937 48.4403 716.723 49.3886C717.51 50.4159 718.296 51.3642 719.162 52.2334C720.106 53.1817 721.128 54.051 722.23 54.7622C723.331 55.4734 724.589 56.0265 726.084 56.3426C723.96 57.607 721.994 58.0021 720.263 57.686C718.454 57.2909 717.038 56.7377 715.937 56.1055C715.229 57.3699 714.914 58.3972 715.071 59.1874C715.229 59.8986 715.701 60.5308 716.409 61.005C717.117 61.5581 717.982 61.9532 719.004 62.2693C720.027 62.5854 721.128 62.9015 722.151 63.3757C723.252 63.7708 724.196 64.3239 725.061 64.8771C725.927 65.5093 726.556 66.3785 726.871 67.4058C726.005 67.7219 725.061 67.959 723.881 68.038C722.702 68.1961 721.522 68.1961 720.263 68.038C719.083 67.959 717.982 67.7219 716.959 67.4849C715.937 67.1688 715.071 66.8527 714.442 66.3785C714.049 68.5122 714.521 70.8829 715.937 73.3326C717.274 75.8613 719.162 78.153 721.443 80.3656C719.791 80.0495 718.139 79.4964 716.33 78.5481C714.521 77.5998 713.026 76.4935 711.689 75.1501C710.352 73.8067 709.329 72.3843 708.621 70.8038C707.992 69.3024 707.913 67.7219 708.542 66.2205C707.599 66.4576 706.497 66.9317 705.16 67.5639C703.901 68.2751 702.879 68.9863 702.25 69.7765C701.699 68.6702 701.699 67.6429 702.171 66.6946C702.643 65.7464 703.272 64.8771 704.059 64.1659C704.845 63.3757 705.553 62.7435 706.261 62.1113C706.891 61.5581 707.127 61.084 706.969 60.6099C706.812 60.3728 706.497 60.2938 705.789 60.4518C705.16 60.5308 704.452 60.6099 703.665 60.6889C702.879 60.7679 702.092 60.6889 701.306 60.5308C700.519 60.2938 699.89 59.7406 699.575 58.9504C700.126 58.3972 700.755 58.0021 701.463 57.686C702.171 57.4489 702.879 57.1328 703.508 56.8168C704.216 56.5007 704.845 56.1055 705.396 55.6314C705.947 55.0782 706.34 54.4461 706.655 53.6558C707.127 52.0754 707.205 50.4949 706.891 48.9145C706.655 47.255 706.025 45.7535 705.16 44.3311C704.216 42.9877 703.036 41.7234 701.542 40.6961C700.126 39.5897 698.395 38.8785 696.507 38.4834C699.339 39.5107 701.542 41.0121 703.036 43.1458C704.531 45.2794 705.396 47.334 705.553 49.3096C705.789 51.2851 705.317 52.8656 704.216 53.9719C703.115 55.1573 701.306 55.0782 698.946 53.9719C700.283 52.7076 701.227 51.4432 701.62 50.0998C702.092 48.7564 702.092 47.492 701.62 46.3067C701.148 45.1213 700.362 44.094 699.182 43.2248C698.002 42.3555 696.586 41.8814 694.855 41.7234C692.496 41.5653 689.9 41.8814 686.832 42.6716C683.843 43.5409 680.696 44.6472 677.314 46.1486C674.01 47.5711 670.549 49.3096 667.009 51.4432C663.391 53.4978 659.93 55.6314 656.547 57.9231C655.761 57.607 654.896 57.4489 654.03 57.3699C653.244 57.2909 652.221 57.3699 651.12 57.607C652.693 56.1055 654.817 54.5251 657.57 52.7866C660.244 51.0481 663.312 49.3096 666.695 47.5711C670.077 45.9116 673.617 44.2521 677.393 42.6716C681.168 41.0912 684.865 39.7478 688.484 38.6415C692.181 37.5351 695.642 36.6659 698.946 36.0337C702.25 35.4805 705.081 35.2435 707.52 35.4805C708.778 35.5596 710.037 35.2435 711.296 34.4532C712.633 33.742 713.419 32.6357 713.577 31.1343C713.813 29.7909 713.734 28.4475 713.341 27.1831C712.948 25.9188 713.026 24.6544 713.419 23.469C713.813 22.3627 714.521 21.4935 715.543 20.7032C716.487 19.992 717.589 19.5179 718.611 19.2808C718.532 20.1501 718.69 20.9403 719.004 21.5725C719.319 22.2047 719.634 22.7578 719.948 23.39C720.342 23.9432 720.578 24.6544 720.735 25.4446C720.892 26.1558 720.814 27.1041 720.42 28.1314C719.948 29.5538 719.24 30.6601 718.454 31.5294C717.589 32.3196 716.723 32.9518 715.779 33.505C714.914 34.0581 713.891 34.6113 712.947 35.0854C712.004 35.5596 711.06 36.1917 710.352 36.982C712.948 37.3771 715.465 38.0093 717.746 38.7995C720.027 39.5897 722.151 40.459 724.039 41.4073C724.825 39.2736 726.005 37.7722 727.343 36.903C728.758 36.0337 730.096 35.2435 731.354 34.6113C732.691 33.9001 733.635 33.1889 734.343 32.3986C735.051 31.5294 735.13 30.186 734.501 28.2104C736.074 28.6846 737.175 29.6328 737.883 30.9762C738.67 32.3986 738.748 33.742 738.119 35.1644C738.748 35.0064 739.692 34.7693 740.951 34.4532C742.209 34.0581 743.468 33.8211 744.805 33.663C746.221 33.505 747.48 33.505 748.66 33.663C749.84 33.9001 750.784 34.3742 751.334 35.1644C751.649 35.7176 751.649 36.2708 751.492 36.903C751.334 37.4561 751.02 38.0093 750.705 38.5624C750.39 39.1946 750.076 39.6688 749.682 40.0639C749.368 40.538 749.289 40.8541 749.289 41.0122C749.525 41.4863 750.076 41.5653 750.941 41.3282C751.806 41.0912 752.907 40.7751 754.323 40.459C755.739 40.1429 757.47 39.9849 759.358 39.9058C761.324 39.9058 763.527 40.38 766.044 41.2492ZM676.187 18.8067C676.187 20.3081 676.737 21.7305 677.838 22.9949C678.94 24.3383 680.041 25.6027 681.142 26.867C682.165 28.1314 682.951 29.4748 683.423 30.8182C683.817 32.2406 683.423 33.742 682.007 35.4015C682.086 34.2952 681.85 33.3469 681.378 32.3986C680.828 31.5294 680.198 30.6601 679.49 29.7119C678.704 28.8426 677.996 27.8943 677.366 26.9461C676.658 25.9188 676.265 24.8124 676.108 23.5481C675.872 24.4173 675.872 25.2866 676.187 26.3139C676.422 27.3412 676.737 28.3685 676.973 29.3167C676.029 29.3167 674.928 29.0007 673.591 28.3685C672.253 27.8153 671.231 26.9461 670.523 25.8397C670.602 26.9461 671.152 27.8153 672.017 28.5265C672.961 29.2377 673.905 29.7909 675.007 30.344C676.108 30.8972 677.13 31.4504 678.074 32.0035C679.018 32.5567 679.648 33.1889 679.884 33.9791C680.356 35.4015 679.962 36.8239 678.782 38.2463C678.074 37.2981 677.524 36.3498 677.052 35.4015C676.58 34.3742 675.872 33.584 674.692 32.9518C674.849 33.663 675.007 34.3742 675.243 35.0854C675.557 35.8757 675.715 36.5869 675.872 37.2981C676.029 38.0093 676.108 38.7205 676.029 39.4317C675.951 40.1429 675.715 40.7751 675.321 41.4073C674.613 42.4346 673.591 43.1458 672.175 43.4619C670.68 43.857 669.186 44.094 667.534 44.3311C668.714 43.3038 669.422 42.2765 669.815 41.2492C670.13 40.2219 670.13 39.1946 669.894 38.2463C669.579 37.2981 669.107 36.4288 668.399 35.5596C667.691 34.6903 666.904 33.8211 666.039 32.8728C667.612 32.9518 669.107 33.505 670.68 34.5323C672.175 35.5596 673.276 36.7449 673.984 38.0883C674.299 37.3771 674.299 36.5869 673.905 35.7966C673.591 35.0064 673.04 34.2162 672.411 33.3469C671.781 32.4777 671.152 31.6084 670.444 30.7392C669.736 29.8699 669.264 28.9216 668.95 28.0524C668.006 25.3656 668.242 22.7578 669.736 20.3871C670.444 21.3354 671.074 22.3627 671.624 23.6271C672.175 24.8124 672.961 25.7607 674.063 26.4719C674.377 25.9188 674.535 25.2866 674.613 24.5754C674.692 23.8642 674.771 23.1529 674.849 22.4417C674.928 21.7305 675.085 21.0193 675.243 20.3871C675.479 19.755 675.793 19.2018 676.187 18.8067ZM750.652 43.2248C749.394 42.6716 747.821 42.1975 745.854 41.8814C743.966 41.4863 742 41.2492 739.955 41.2492C737.909 41.2492 735.943 41.4863 734.134 41.8814C732.246 42.2765 730.83 42.9877 729.886 44.094C733.268 43.857 736.808 43.6199 740.662 43.3828C744.517 43.1458 747.821 43.0668 750.652 43.2248ZM745.303 47.413C744.517 47.492 743.652 47.413 742.629 47.255C741.606 47.1759 740.662 47.0179 739.64 46.7808C738.617 46.6228 737.595 46.3857 736.572 46.2277C735.549 46.0696 734.684 46.0696 733.898 46.0696C734.684 46.5438 735.628 46.8599 736.651 47.255C737.752 47.5711 738.853 47.8081 739.876 47.9662C740.977 48.1242 741.921 48.1242 742.944 48.0452C743.888 47.9662 744.674 47.7291 745.303 47.413ZM745.933 37.14C743.888 36.8239 741.606 36.8239 739.089 37.14C736.572 37.4561 734.212 37.9303 732.167 38.4834C730.043 39.0366 728.391 39.7478 727.133 40.459C725.874 41.2492 725.481 41.9604 726.031 42.5926C728.077 41.2492 730.358 40.38 732.639 39.8268C734.999 39.2736 737.123 38.8785 739.089 38.6415C740.977 38.4044 742.629 38.1673 743.888 38.0883C745.225 38.0093 745.854 37.6932 745.933 37.14ZM734.763 79.0749C734.37 78.7588 734.055 78.6798 733.74 78.9959C733.426 79.312 733.426 79.7071 733.74 80.1022C734.055 80.4183 734.448 80.4183 734.763 80.1022C735.078 79.7861 735.078 79.47 734.763 79.0749ZM702.617 40.3009C704.662 41.4863 706.078 42.9087 707.022 44.5682C707.887 46.3067 708.516 48.0452 708.831 49.9417C709.146 51.8383 709.303 53.7349 709.303 55.7104C709.224 57.686 709.303 59.5035 709.382 61.163C709.46 62.9015 709.775 64.482 710.168 65.8254C710.64 67.1688 711.505 68.2751 712.843 69.0653C711.899 66.9317 711.348 64.9561 711.112 62.9805C710.876 61.084 710.797 59.1874 710.876 57.3699C710.955 55.5524 710.955 53.8929 710.955 52.2334C710.955 50.5739 710.719 49.0725 710.325 47.6501C709.853 46.2277 709.067 44.8843 707.887 43.6199C706.707 42.3555 704.977 41.2492 702.617 40.3009Z" fill="#D2B897"/>
<path d="M246.46 83.1841C247.482 82.947 248.426 82.3939 249.291 81.6036C250.078 80.8134 250.943 80.0232 251.887 79.2329C252.753 78.5217 253.775 77.8896 254.955 77.4944C256.056 77.0993 257.472 77.2574 259.045 77.8105C261.091 78.6798 262.192 79.6281 262.428 80.7344C262.664 81.8407 262.743 83.0261 262.507 84.2904C262.271 85.4758 262.113 86.7401 262.035 87.9255C262.035 89.1898 262.664 90.2171 264.001 91.2444C262.428 91.5605 261.327 91.5605 260.619 91.1654C259.911 90.7703 259.517 90.2171 259.281 89.4269C259.045 88.6367 258.967 87.6884 258.967 86.7401C258.967 85.7919 258.888 84.8436 258.809 84.0533C258.023 84.1324 257.551 84.3694 257.315 84.7646C257.079 85.1597 256.922 85.7128 256.843 86.266C256.764 86.8192 256.764 87.4513 256.764 88.0835C256.764 88.7157 256.607 89.3479 256.292 89.822C255.899 90.9283 255.112 91.6396 254.011 92.1137C252.831 92.5088 251.887 92.9039 251.022 93.22C250.786 92.4298 250.55 91.5605 250.157 90.6123C249.685 89.664 249.606 88.7157 249.842 87.9255C250.078 87.0562 250.55 86.345 251.337 85.7919C252.123 85.2387 252.517 84.5275 252.359 83.7373C251.887 83.7373 251.415 83.8163 250.865 83.9743C250.393 84.1324 249.921 84.2114 249.37 84.2904C248.898 84.4485 248.426 84.4485 247.954 84.2904C247.482 84.2114 247.01 83.8163 246.46 83.1841ZM260.776 60.8996C261.72 60.7416 262.585 60.8206 263.529 61.2157C264.473 61.6108 265.181 62.243 265.732 63.1913C264.316 64.0605 263.057 65.2459 262.035 66.6683C260.933 68.1697 260.304 69.7502 259.989 71.4887C259.045 71.4887 258.18 71.4887 257.472 71.5677C256.686 71.6467 255.899 71.8048 254.955 71.9628C254.483 70.9355 254.247 69.8292 254.247 68.6439C254.247 67.4585 254.483 66.3522 254.955 65.3249C255.506 64.2976 256.214 63.4283 257.236 62.6381C258.18 61.8479 259.439 61.2947 260.776 60.8996ZM254.483 74.8077C255.348 73.9384 256.45 73.5433 257.708 73.7013C259.045 73.8594 260.304 74.3335 261.484 75.0447C262.664 75.835 263.608 76.7832 264.316 77.9686C265.024 79.0749 265.26 80.2602 264.866 81.3666C263.765 78.9959 262.349 77.2574 260.461 76.3091C258.573 75.2818 256.607 74.8077 254.483 74.8077ZM267.462 64.6137C268.328 64.6137 269.114 64.9298 269.743 65.4039C270.451 65.799 271.002 66.3522 271.474 66.9844C271.946 67.6956 272.339 68.4068 272.575 69.197C272.811 70.0663 272.89 70.8565 272.89 71.5677C272.811 72.3579 272.575 73.0692 272.103 73.6223C271.631 74.2545 271.081 74.8077 270.451 75.4398C269.743 75.993 269.035 76.5462 268.327 77.0203C267.62 77.5735 266.99 78.1266 266.518 78.6798C266.046 77.7315 265.338 76.7832 264.473 75.914C263.608 75.0447 262.743 74.1755 261.72 73.3062C262.035 71.4887 262.743 69.9082 263.844 68.4068C265.024 66.9844 266.204 65.72 267.462 64.6137ZM279.078 75.7559C280.336 75.2028 281.438 75.2028 282.382 75.6769C283.326 76.2301 283.955 76.9413 284.348 77.9686C284.741 78.9169 284.82 79.9442 284.505 80.9715C284.27 82.0778 283.483 82.868 282.303 83.4212C281.044 83.9743 279.943 83.9743 278.999 83.4212C277.977 82.868 277.347 82.1568 276.954 81.1295C276.561 80.1812 276.482 79.1539 276.797 78.1266C277.111 77.0993 277.898 76.3091 279.078 75.7559ZM249.055 41.2492C251.573 40.38 253.775 39.9058 255.742 39.9058C257.63 39.9848 259.36 40.1429 260.776 40.459C262.192 40.7751 263.293 41.0912 264.158 41.3282C265.024 41.5653 265.574 41.4863 265.81 41.0121C265.81 40.8541 265.732 40.538 265.417 40.0639C265.024 39.6688 264.709 39.1946 264.394 38.5624C264.08 38.0093 263.765 37.4561 263.608 36.903C263.451 36.2708 263.451 35.7176 263.765 35.1644C264.316 34.3742 265.26 33.9001 266.44 33.663C267.62 33.505 268.878 33.505 270.294 33.663C271.631 33.8211 272.89 34.0581 274.148 34.4532C275.407 34.7693 276.351 35.0064 276.98 35.1644C276.351 33.742 276.43 32.3986 277.216 30.9762C277.924 29.6328 279.025 28.6846 280.599 28.2104C279.969 30.186 280.048 31.5294 280.756 32.3986C281.464 33.1889 282.408 33.9001 283.745 34.6113C285.004 35.2435 286.341 36.0337 287.757 36.903C289.094 37.7722 290.274 39.2736 291.061 41.4073C292.948 40.459 295.072 39.5897 297.353 38.7995C299.635 38.0093 302.152 37.3771 304.748 36.982C304.04 36.1917 303.096 35.5596 302.152 35.0854C301.208 34.6113 300.185 34.0581 299.32 33.505C298.376 32.9518 297.511 32.3196 296.645 31.5294C295.859 30.6601 295.151 29.5538 294.679 28.1314C294.286 27.1041 294.207 26.1558 294.364 25.4446C294.522 24.6544 294.758 23.9432 295.151 23.39C295.466 22.7578 295.78 22.2047 296.095 21.5725C296.41 20.9403 296.567 20.1501 296.488 19.2808C297.511 19.5179 298.612 19.992 299.556 20.7032C300.579 21.4935 301.287 22.3627 301.68 23.469C302.073 24.6544 302.152 25.9188 301.758 27.1831C301.365 28.4475 301.287 29.7909 301.523 31.1343C301.68 32.6357 302.466 33.742 303.804 34.4532C305.062 35.2435 306.321 35.5596 307.579 35.4805C310.018 35.2435 312.85 35.4805 316.153 36.0337C319.457 36.6659 322.918 37.5351 326.615 38.6415C330.234 39.7478 333.931 41.0912 337.707 42.6716C341.482 44.2521 345.022 45.9116 348.405 47.5711C351.787 49.3096 354.855 51.0481 357.529 52.7866C360.282 54.5251 362.406 56.1056 363.979 57.607C362.878 57.3699 361.856 57.2909 361.069 57.3699C360.204 57.4489 359.339 57.607 358.552 57.9231C355.169 55.6314 351.708 53.4978 348.09 51.4432C344.55 49.3096 341.089 47.5711 337.785 46.1486C334.403 44.6472 331.256 43.5409 328.267 42.6716C325.2 41.8814 322.604 41.5653 320.244 41.7234C318.513 41.8814 317.097 42.3555 315.917 43.2248C314.738 44.094 313.951 45.1213 313.479 46.3067C313.007 47.492 313.007 48.7564 313.479 50.0998C313.872 51.4432 314.816 52.7076 316.153 53.9719C313.794 55.0782 311.984 55.1573 310.883 53.9719C309.782 52.8656 309.31 51.2851 309.546 49.3096C309.703 47.334 310.569 45.2794 312.063 43.1458C313.558 41.0121 315.76 39.5107 318.592 38.4834C316.704 38.8785 314.974 39.5897 313.558 40.6961C312.063 41.7234 310.883 42.9877 309.939 44.3311C309.074 45.7535 308.445 47.255 308.209 48.9145C307.894 50.4949 307.973 52.0754 308.445 53.6558C308.759 54.4461 309.153 55.0782 309.703 55.6314C310.254 56.1055 310.883 56.5007 311.591 56.8168C312.22 57.1328 312.928 57.4489 313.636 57.686C314.344 58.0021 314.974 58.3972 315.524 58.9504C315.21 59.7406 314.58 60.2938 313.794 60.5308C313.007 60.6889 312.22 60.7679 311.434 60.6889C310.647 60.6099 309.939 60.5308 309.31 60.4518C308.602 60.2938 308.287 60.3728 308.13 60.6099C307.973 61.084 308.209 61.5581 308.838 62.1113C309.546 62.7435 310.254 63.3757 311.041 64.1659C311.827 64.8771 312.456 65.7464 312.928 66.6946C313.4 67.6429 313.4 68.6702 312.85 69.7765C312.22 68.9863 311.198 68.2751 309.939 67.5639C308.602 66.9317 307.501 66.4576 306.557 66.2205C307.186 67.7219 307.107 69.3024 306.478 70.8038C305.77 72.3843 304.748 73.8067 303.41 75.1501C302.073 76.4935 300.579 77.5998 298.769 78.5481C296.96 79.4964 295.308 80.0495 293.656 80.3656C295.938 78.153 297.825 75.8613 299.163 73.3326C300.579 70.8829 301.051 68.5122 300.657 66.3785C300.028 66.8527 299.163 67.1688 298.14 67.4849C297.117 67.7219 296.016 67.959 294.836 68.038C293.578 68.1961 292.398 68.1961 291.218 68.038C290.038 67.959 289.094 67.7219 288.229 67.4058C288.543 66.3785 289.173 65.5093 290.038 64.8771C290.903 64.3239 291.847 63.7708 292.948 63.3757C293.971 62.9015 295.072 62.5854 296.095 62.2693C297.117 61.9532 297.983 61.5581 298.691 61.005C299.399 60.5308 299.871 59.8986 300.028 59.1874C300.185 58.3972 299.871 57.3699 299.163 56.1055C298.061 56.7377 296.646 57.2909 294.836 57.686C293.106 58.0021 291.139 57.607 289.015 56.3426C290.51 56.0265 291.769 55.4734 292.87 54.7622C293.971 54.0509 294.994 53.1817 295.938 52.2334C296.803 51.3642 297.589 50.4159 298.376 49.3886C299.163 48.4403 299.949 47.492 300.815 46.7018C302.309 45.2004 303.882 43.857 305.692 42.5926C307.422 41.3282 309.389 40.1429 311.67 38.9576C310.569 38.7995 309.231 38.8785 307.737 39.1156C306.164 39.3527 304.669 39.7478 303.017 40.3009C301.444 40.8541 299.792 41.4073 298.14 42.0394C296.488 42.5926 294.994 43.1458 293.578 43.6989C293.892 45.0423 293.342 46.7808 291.847 48.9145C290.431 50.969 288.779 53.3397 286.892 56.0265C285.082 58.6343 283.43 61.4791 281.936 64.482C280.441 67.5639 279.812 70.6458 280.048 73.8857C279.655 73.9647 279.261 73.6487 278.947 72.8584C278.632 72.0682 278.317 71.357 278.081 70.7248C278.396 67.88 279.261 65.1932 280.599 62.8225C281.936 60.4518 283.352 58.2392 284.925 56.1055C286.42 54.0509 287.914 52.0754 289.251 50.1788C290.589 48.2823 291.533 46.3857 291.926 44.4892C289.802 45.5165 287.757 46.6228 285.633 47.9662C283.588 49.3096 281.464 50.732 279.497 52.1544C277.452 53.6558 275.564 55.1573 273.755 56.8168C271.946 58.3972 270.294 59.8986 268.878 61.4001C268.721 61.163 268.563 60.8469 268.327 60.4518C268.091 60.0567 267.856 59.6616 267.777 59.3455C268.406 58.2392 269.35 57.2119 270.373 56.1055C271.474 55.0782 272.654 54.0509 273.834 52.9446C275.092 51.9173 276.351 50.89 277.688 49.7837C279.025 48.7564 280.205 47.6501 281.307 46.5438C280.52 47.334 279.261 47.9662 277.531 48.5193C275.8 49.0725 273.912 49.6257 271.867 50.1788C269.822 50.811 267.856 51.4432 265.889 52.1544C264.001 52.8656 262.507 53.7349 261.405 54.9202C261.484 53.8139 262.113 52.7076 263.214 51.6012C264.237 50.4949 265.102 49.7047 265.81 49.2305C264.394 48.5984 262.979 48.2823 261.641 48.2823C260.225 48.3613 258.888 48.2823 257.551 48.1242C256.214 47.8872 254.876 47.334 253.461 46.4647C252.123 45.5955 250.629 43.857 249.055 41.2492ZM338.913 18.8067C339.306 19.2018 339.621 19.755 339.857 20.3871C340.014 21.0193 340.171 21.7305 340.25 22.4417C340.329 23.153 340.407 23.8642 340.486 24.5754C340.565 25.2866 340.722 25.9188 341.037 26.4719C342.138 25.7607 342.925 24.8124 343.475 23.6271C344.026 22.3627 344.655 21.3354 345.363 20.3871C346.858 22.7578 347.094 25.3656 346.15 28.0524C345.835 28.9216 345.363 29.8699 344.655 30.7392C343.947 31.6084 343.318 32.4777 342.689 33.3469C342.059 34.2162 341.509 35.0064 341.194 35.7966C340.801 36.5869 340.801 37.3771 341.115 38.0883C341.823 36.7449 342.924 35.5596 344.419 34.5323C345.992 33.505 347.487 32.9518 349.06 32.8728C348.195 33.8211 347.408 34.6903 346.7 35.5596C345.992 36.4288 345.52 37.2981 345.206 38.2463C344.97 39.1946 344.97 40.2219 345.284 41.2492C345.678 42.2765 346.386 43.3038 347.566 44.3311C345.914 44.0941 344.419 43.857 342.925 43.4619C341.509 43.1458 340.486 42.4346 339.778 41.4073C339.385 40.7751 339.149 40.1429 339.07 39.4317C338.991 38.7205 339.07 38.0093 339.227 37.2981C339.385 36.5869 339.542 35.8757 339.857 35.0854C340.093 34.3742 340.25 33.663 340.407 32.9518C339.227 33.584 338.519 34.3742 338.048 35.4015C337.576 36.3498 337.025 37.2981 336.317 38.2463C335.137 36.8239 334.744 35.4015 335.216 33.9791C335.452 33.1889 336.081 32.5567 337.025 32.0035C337.969 31.4504 338.991 30.8972 340.093 30.344C341.194 29.7909 342.138 29.2377 343.082 28.5265C343.947 27.8153 344.498 26.9461 344.576 25.8397C343.868 26.9461 342.846 27.8153 341.509 28.3685C340.171 29.0007 339.07 29.3167 338.126 29.3167C338.362 28.3685 338.677 27.3412 338.913 26.3139C339.227 25.2866 339.227 24.4173 338.991 23.5481C338.834 24.8124 338.441 25.9188 337.733 26.9461C337.104 27.8943 336.396 28.8426 335.609 29.7119C334.901 30.6601 334.272 31.5294 333.721 32.3986C333.249 33.3469 333.013 34.2952 333.092 35.4015C331.676 33.742 331.283 32.2406 331.676 30.8182C332.148 29.4748 332.935 28.1314 333.957 26.867C335.058 25.6027 336.16 24.3383 337.261 22.9949C338.362 21.7305 338.913 20.3081 338.913 18.8067ZM264.473 43.2248C267.305 43.0667 270.609 43.1458 274.463 43.3828C278.317 43.6199 281.857 43.857 285.24 44.094C284.296 42.9877 282.88 42.2765 280.992 41.8814C279.183 41.4863 277.216 41.2492 275.171 41.2492C273.126 41.2492 271.159 41.4863 269.271 41.8814C267.305 42.1975 265.732 42.6716 264.473 43.2248ZM269.796 47.413C270.425 47.7291 271.212 47.9662 272.156 48.0452C273.178 48.1242 274.122 48.1242 275.223 47.9662C276.246 47.8081 277.347 47.5711 278.449 47.255C279.471 46.8599 280.415 46.5438 281.202 46.0696C280.415 46.0696 279.55 46.0696 278.527 46.2277C277.505 46.3857 276.482 46.6228 275.459 46.7808C274.437 47.0179 273.493 47.1759 272.47 47.255C271.448 47.413 270.582 47.492 269.796 47.413ZM269.193 37.14C269.271 37.6932 269.901 38.0093 271.238 38.0883C272.497 38.1673 274.148 38.4044 276.036 38.6415C278.003 38.8785 280.127 39.2736 282.486 39.8268C284.768 40.38 287.049 41.2492 289.094 42.5926C289.645 41.9604 289.251 41.2492 287.993 40.459C286.734 39.7478 285.082 39.0366 282.959 38.4834C280.913 37.9303 278.553 37.4561 276.036 37.14C273.519 36.8239 271.238 36.8239 269.193 37.14ZM280.336 79.0749C280.022 79.47 280.022 79.7861 280.336 80.1022C280.651 80.4183 281.044 80.4183 281.359 80.1022C281.674 79.7071 281.674 79.312 281.359 78.9959C281.044 78.6798 280.73 78.7588 280.336 79.0749ZM312.483 40.3009C310.123 41.2492 308.392 42.3555 307.212 43.6199C306.032 44.8843 305.246 46.2277 304.774 47.6501C304.381 49.0725 304.145 50.5739 304.145 52.2334C304.145 53.8929 304.145 55.5524 304.223 57.3699C304.302 59.1874 304.223 61.084 303.987 62.9805C303.751 64.9561 303.201 66.9317 302.257 69.0653C303.594 68.2751 304.459 67.1688 304.931 65.8254C305.324 64.482 305.639 62.9015 305.718 61.163C305.796 59.5035 305.875 57.686 305.796 55.7104C305.796 53.7349 305.954 51.8383 306.268 49.9417C306.583 48.0452 307.212 46.3067 308.078 44.5682C309.022 42.9087 310.437 41.4863 312.483 40.3009Z" fill="#D2B897"/>
<path d="M983.647 88.0852C983.647 86.7682 983.201 85.8989 982.336 85.4511C982.781 82.3956 982.388 79.261 981.182 76.0737C979.976 72.8865 977.196 71.0953 972.844 70.6475C970.432 70.1997 968.544 70.7529 967.049 72.2806C965.633 73.8084 964.925 75.4679 964.925 77.2064C965.135 78.5235 965.738 79.5508 966.734 80.341C967.705 81.1049 968.806 81.3946 969.907 81.1576C971.218 81.1576 971.979 80.7098 972.188 79.8405C972.188 78.9713 971.874 78.3127 971.218 77.8649C970.772 77.6542 970.353 77.4698 969.907 77.3645C969.461 77.2591 969.252 76.9693 969.252 76.5479C969.042 75.4416 969.304 74.7304 970.064 74.4143C970.825 74.0982 971.638 73.8084 972.529 73.5977C974.286 73.5977 975.571 74.2562 976.462 75.5733C977.328 76.8903 977.878 78.3127 978.088 79.8405C978.298 83.1331 977.039 86.136 974.312 88.8755C971.585 91.6149 967.941 93.1954 963.3 93.6432L963.3 92.0101C965.266 91.5623 966.236 90.2452 966.236 88.0589C966.236 86.9526 965.791 86.0306 964.925 85.2668C964.06 84.5029 963.064 84.1078 961.989 84.1078C960.914 84.1078 959.917 84.5029 959.052 85.2668C958.187 86.0306 957.741 86.9526 957.741 88.0589C957.741 90.0345 958.711 91.4569 960.678 92.3261L960.678 93.3008C955.669 92.853 951.632 90.7193 948.564 86.8999C945.522 83.0541 944.211 78.5235 944.631 73.2553C944.631 72.8075 944.84 72.5967 945.286 72.5967C945.942 72.5967 946.492 72.8075 946.912 73.2553C947.567 74.1245 948.223 75.1781 948.878 76.3898C949.534 77.6015 950.635 77.9703 952.156 77.5488C953.021 77.3381 953.624 76.8903 953.965 76.2318C954.306 75.5733 954.463 74.9147 954.463 74.2562C954.463 73.387 954.411 72.544 954.306 71.7802C954.201 71.0163 954.254 70.5158 954.463 70.3051C954.673 70.0943 955.276 69.8573 956.273 69.6465C957.243 69.3831 958.344 69.0934 959.55 68.7773C960.756 68.4349 961.831 67.908 962.828 67.1441C963.798 66.3803 964.401 65.2213 964.637 63.6935C964.847 62.8242 964.637 62.0076 963.981 61.2174C963.326 60.4535 962.461 59.953 961.359 59.7423C959.839 59.2945 959.078 59.8477 959.078 61.3755C958.868 62.4818 959.078 63.0086 959.734 63.0086C960.389 63.0086 960.704 63.2193 960.704 63.6671C960.704 64.7735 959.603 65.3003 957.426 65.3003C955.25 65.3003 953.493 65.511 952.182 65.9588C950.216 66.6173 948.485 68.0397 946.938 70.2787C946.728 70.7265 946.335 70.8846 945.784 70.7792C945.234 70.6738 944.972 70.5158 944.972 70.2787C944.762 69.3568 944.919 68.1978 945.47 66.7754C946.02 65.353 946.728 64.2993 947.594 63.6408C948.695 62.5345 950.111 61.1647 951.841 59.5316C953.598 57.8985 954.778 56.1863 955.433 54.4478C956.535 52.2615 956.404 51.0498 955.093 50.8391C954.647 50.6283 954.175 50.7337 953.624 51.1552C953.074 51.6029 952.366 51.919 951.5 52.1298C951.946 51.2605 952.313 50.5493 952.654 49.9961C952.969 49.443 953.152 48.7318 953.152 47.8625C953.362 46.7562 953.152 45.887 952.497 45.1757C951.841 44.5172 950.635 44.6226 948.905 45.5709C948.695 43.7533 948.092 42.2782 947.095 41.0665C946.125 39.8549 944.867 39.3807 943.267 39.5915C943.765 41.1192 944.08 42.6734 944.316 44.2011C944.526 45.7816 944.631 47.4411 944.631 49.1796C944.631 53.5522 944.316 57.7931 943.582 61.8496C942.926 65.9061 942.612 70.068 942.612 74.2299C942.402 80.1566 944.132 85.0297 947.751 88.8491C951.343 92.6949 955.984 94.7759 961.674 94.9866C964.951 94.9866 968.386 94.7232 971.874 94.17C975.361 93.5642 978.429 92.5369 981.051 90.9828C982.808 90.1135 983.673 89.1125 983.673 88.0326L983.647 88.0852ZM936.738 74.2826C936.738 70.1207 936.424 65.9588 935.768 61.9023C935.113 57.8458 934.798 53.6312 934.798 49.2323C934.798 47.4674 934.903 45.8343 935.139 44.2538C935.349 42.726 935.69 41.1719 936.109 39.6441C934.588 39.4334 933.33 39.9075 932.333 41.1192C931.363 42.3309 930.76 43.806 930.524 45.6235C928.767 44.7016 927.587 44.5699 926.932 45.2284C926.276 45.9396 926.067 46.8089 926.276 47.9152C926.276 48.7845 926.434 49.4957 926.775 50.0488C927.089 50.602 927.483 51.3132 927.928 52.1824C927.063 51.9717 926.355 51.6293 925.804 51.2078C925.254 50.76 924.756 50.6547 924.336 50.8917C923.025 51.3395 922.92 52.5249 924.021 54.5005C924.677 56.2653 925.883 57.9511 927.614 59.5843C929.37 61.2174 930.786 62.5871 931.861 63.6935C932.727 64.352 933.435 65.3793 933.985 66.8281C934.536 68.2505 934.693 69.4095 934.483 70.3314C934.483 70.5421 934.221 70.7265 933.671 70.8319C933.12 70.9372 932.753 70.7792 932.517 70.3314C930.996 68.0924 929.239 66.67 927.273 66.0115C925.962 65.5637 924.231 65.353 922.029 65.353C919.826 65.353 918.699 64.7998 918.699 63.7198C918.699 63.272 919.013 63.0613 919.748 63.0613C920.403 63.0613 920.613 62.5081 920.403 61.4281C920.403 59.9004 919.643 59.3472 918.069 59.795C916.968 60.0057 916.103 60.5062 915.447 61.2701C914.792 62.034 914.582 62.8506 914.792 63.7462C915.002 65.2739 915.657 66.4329 916.758 67.1968C917.86 67.9607 918.935 68.5139 920.088 68.83C921.19 69.1461 922.212 69.4358 923.209 69.6992C924.179 69.9099 924.782 70.147 925.018 70.3577C925.254 70.5685 925.28 71.069 925.175 71.8328C925.07 72.5967 925.018 73.4133 925.018 74.3089C925.018 74.9674 925.123 75.6259 925.332 76.2845C925.542 76.943 926.198 77.3908 927.299 77.6015C928.82 78.0493 929.921 77.6542 930.577 76.4425C931.232 75.2308 931.888 74.2035 932.543 73.3079C932.989 72.8601 933.408 72.6494 933.854 72.6494C934.51 72.6494 934.824 72.8601 934.824 73.3079C935.27 78.5761 933.959 83.1068 930.891 86.9526C927.85 90.7984 923.812 92.932 918.725 93.3534L918.384 92.3788C920.613 91.7203 921.714 90.2979 921.714 88.1116C921.504 87.0053 921.006 86.0833 920.246 85.3194C919.433 84.5555 918.489 84.1604 917.414 84.1604C916.339 84.1604 915.342 84.5555 914.477 85.3194C913.612 86.0833 913.166 87.0053 913.166 88.1116C913.166 90.2979 914.136 91.6149 916.103 92.0627L916.103 93.6959C911.514 93.2481 907.87 91.6676 905.143 88.9281C902.416 86.1887 901.157 83.1858 901.367 79.8932C901.577 78.3654 902.127 76.943 902.993 75.6259C903.858 74.3089 905.169 73.6504 906.926 73.6504C907.791 73.8611 908.63 74.1509 909.39 74.4669C910.151 74.783 910.413 75.5206 910.203 76.6006C910.203 77.0484 909.994 77.3118 909.548 77.4171C909.102 77.5225 908.682 77.6805 908.237 77.9176C907.581 78.3654 907.267 79.0239 907.267 79.8932C907.476 80.7624 908.237 81.2102 909.548 81.2102C910.649 81.421 911.672 81.1576 912.668 80.3937C913.638 79.6298 914.241 78.5761 914.477 77.2591C914.477 75.4942 913.769 73.8611 912.353 72.3333C910.937 70.8055 909.023 70.2524 906.637 70.7002C902.285 71.148 899.479 72.9392 898.299 76.1264C897.093 79.3137 896.726 82.4219 897.146 85.5038C896.28 85.9516 895.834 86.8209 895.834 88.1379C895.834 89.2442 896.7 90.2189 898.457 91.0881C901.079 92.6159 904.12 93.6695 907.634 94.2754C911.121 94.8285 914.503 95.0919 917.781 95.0919C923.497 94.8812 928.138 92.8003 931.756 88.9545C935.349 85.1087 937.053 80.2356 936.817 74.3352L936.738 74.2826Z" fill="#D2B897"/>
<path d="M133.581 88.0852C133.581 86.7682 133.136 85.8989 132.27 85.4511C132.716 82.3956 132.323 79.261 131.117 76.0737C129.91 72.8865 127.131 71.0953 122.778 70.6475C120.366 70.1997 118.478 70.7529 116.984 72.2806C115.568 73.8084 114.86 75.4679 114.86 77.2064C115.07 78.5235 115.673 79.5508 116.669 80.341C117.639 81.1049 118.74 81.3946 119.842 81.1576C121.153 81.1576 121.913 80.7098 122.123 79.8405C122.123 78.9713 121.808 78.3127 121.153 77.8649C120.707 77.6542 120.287 77.4698 119.842 77.3645C119.396 77.2591 119.186 76.9693 119.186 76.5479C118.976 75.4416 119.239 74.7304 119.999 74.4143C120.759 74.0982 121.572 73.8084 122.464 73.5977C124.221 73.5977 125.505 74.2562 126.397 75.5733C127.262 76.8903 127.813 78.3127 128.022 79.8405C128.232 83.1331 126.974 86.136 124.247 88.8755C121.52 91.6149 117.875 93.1954 113.234 93.6432L113.234 92.0101C115.201 91.5623 116.171 90.2452 116.171 88.0589C116.171 86.9526 115.725 86.0306 114.86 85.2668C113.995 84.5029 112.998 84.1078 111.923 84.1078C110.848 84.1078 109.852 84.5029 108.987 85.2668C108.121 86.0306 107.675 86.9526 107.675 88.0589C107.675 90.0345 108.646 91.4569 110.612 92.3261L110.612 93.3008C105.604 92.853 101.566 90.7193 98.4983 86.8999C95.4568 83.0541 94.1458 78.5235 94.5653 73.2553C94.5653 72.8075 94.775 72.5967 95.2208 72.5967C95.8763 72.5967 96.4269 72.8075 96.8464 73.2553C97.502 74.1245 98.1575 75.1781 98.813 76.3898C99.4685 77.6015 100.57 77.9703 102.091 77.5488C102.956 77.3381 103.559 76.8903 103.9 76.2318C104.241 75.5733 104.398 74.9147 104.398 74.2562C104.398 73.387 104.345 72.544 104.241 71.7802C104.136 71.0163 104.188 70.5158 104.398 70.3051C104.608 70.0943 105.211 69.8573 106.207 69.6465C107.177 69.3831 108.279 69.0934 109.485 68.7773C110.691 68.4349 111.766 67.908 112.762 67.1441C113.732 66.3803 114.335 65.2213 114.571 63.6935C114.781 62.8242 114.571 62.0076 113.916 61.2174C113.26 60.4535 112.395 59.953 111.294 59.7423C109.773 59.2945 109.013 59.8477 109.013 61.3755C108.803 62.4818 109.013 63.0086 109.668 63.0086C110.324 63.0086 110.638 63.2193 110.638 63.6671C110.638 64.7735 109.537 65.3003 107.361 65.3003C105.185 65.3003 103.428 65.511 102.117 65.9588C100.15 66.6173 98.4197 68.0397 96.8727 70.2787C96.6629 70.7265 96.2696 70.8846 95.719 70.7792C95.1684 70.6738 94.9062 70.5158 94.9062 70.2787C94.6964 69.3568 94.8536 68.1978 95.4043 66.7754C95.9549 65.353 96.6629 64.2993 97.5282 63.6408C98.6295 62.5345 100.045 61.1647 101.776 59.5316C103.533 57.8985 104.713 56.1863 105.368 54.4478C106.469 52.2615 106.338 51.0498 105.027 50.8391C104.581 50.6283 104.109 50.7337 103.559 51.1552C103.008 51.6029 102.3 51.919 101.435 52.1298C101.881 51.2605 102.248 50.5493 102.589 49.9961C102.903 49.443 103.087 48.7318 103.087 47.8625C103.297 46.7562 103.087 45.887 102.431 45.1757C101.776 44.5172 100.57 44.6226 98.8392 45.5709C98.6295 43.7533 98.0264 42.2782 97.03 41.0665C96.0598 39.8549 94.8012 39.3807 93.2018 39.5915C93.7 41.1192 94.0147 42.6734 94.2506 44.2011C94.4604 45.7816 94.5653 47.4411 94.5653 49.1796C94.5653 53.5522 94.2507 57.7931 93.5165 61.8496C92.861 65.9061 92.5463 70.068 92.5463 74.2299C92.3365 80.1566 94.0671 85.0297 97.6855 88.8491C101.278 92.6949 105.919 94.7759 111.609 94.9866C114.886 94.9866 118.321 94.7232 121.808 94.17C125.296 93.5642 128.363 92.5369 130.985 90.9828C132.742 90.1135 133.607 89.1125 133.607 88.0326L133.581 88.0852ZM86.6467 74.2826C86.6467 70.1207 86.332 65.9588 85.6765 61.9023C85.021 57.8458 84.7064 53.6312 84.7064 49.2323C84.7064 47.4674 84.8113 45.8343 85.0473 44.2538C85.257 42.726 85.5979 41.1719 86.0174 39.6441C84.4966 39.4334 83.238 39.9075 82.2417 41.1192C81.2715 42.3309 80.6684 43.806 80.4324 45.6235C78.6757 44.7016 77.4958 44.5699 76.8403 45.2284C76.1848 45.9396 75.975 46.8089 76.1848 47.9152C76.1848 48.7845 76.3421 49.4957 76.6829 50.0488C76.9976 50.602 77.3909 51.3132 77.8366 52.1824C76.9714 51.9717 76.2634 51.6293 75.7128 51.2078C75.1622 50.76 74.664 50.6547 74.2445 50.8917C72.9334 51.3395 72.8286 52.5249 73.9298 54.5005C74.5853 56.2653 75.7915 57.9511 77.522 59.5843C79.2788 61.2174 80.6947 62.5871 81.7697 63.6935C82.635 64.352 83.3429 65.3793 83.8936 66.8281C84.4442 68.2505 84.6015 69.4095 84.3917 70.3314C84.3917 70.5421 84.1296 70.7265 83.5789 70.8319C83.0283 70.9372 82.6612 70.7792 82.4252 70.3314C80.9044 68.0924 79.1477 66.67 77.1811 66.0115C75.8701 65.5637 74.1396 65.353 71.9371 65.353C69.7345 65.353 68.6071 64.7998 68.6071 63.7198C68.6071 63.272 68.9217 63.0613 69.6559 63.0613C70.3114 63.0613 70.5212 62.5081 70.3114 61.4281C70.3114 59.9004 69.551 59.3472 67.9778 59.795C66.8765 60.0057 66.0112 60.5062 65.3557 61.2701C64.7002 62.034 64.4904 62.8506 64.7002 63.7462C64.91 65.2739 65.5655 66.4329 66.6667 67.1968C67.768 67.9607 68.8431 68.5139 69.9968 68.83C71.098 69.1461 72.1206 69.4358 73.1169 69.6992C74.0871 69.9099 74.6902 70.147 74.9261 70.3577C75.1621 70.5685 75.1883 71.069 75.0835 71.8328C74.9786 72.5967 74.9261 73.4133 74.9261 74.3089C74.9261 74.9674 75.0311 75.6259 75.2409 76.2845C75.4506 76.943 76.1061 77.3908 77.2074 77.6015C78.7282 78.0493 79.8294 77.6542 80.4849 76.4425C81.1404 75.2308 81.796 74.2035 82.4515 73.3079C82.8972 72.8601 83.3167 72.6494 83.7625 72.6494C84.418 72.6494 84.7326 72.8601 84.7326 73.3079C85.1784 78.5761 83.8674 83.1068 80.7996 86.9526C77.758 90.7984 73.72 92.932 68.6333 93.3534L68.2924 92.3788C70.5211 91.7203 71.6224 90.2979 71.6224 88.1116C71.4127 87.0053 70.9145 86.0833 70.1541 85.3194C69.3413 84.5555 68.3973 84.1604 67.3222 84.1604C66.2472 84.1604 65.2508 84.5555 64.3856 85.3194C63.5203 86.0833 63.0745 87.0053 63.0745 88.1116C63.0745 90.2979 64.0447 91.6149 66.0112 92.0627L66.0112 93.6959C61.4226 93.2481 57.778 91.6676 55.0511 88.9281C52.3242 86.1887 51.0656 83.1858 51.2754 79.8932C51.4851 78.3654 52.0357 76.943 52.901 75.6259C53.7663 74.3089 55.0773 73.6504 56.8341 73.6504C57.6994 73.8611 58.5384 74.1509 59.2988 74.4669C60.0592 74.783 60.3214 75.5206 60.1116 76.6006C60.1116 77.0484 59.9019 77.3118 59.4561 77.4171C59.0104 77.5225 58.5908 77.6805 58.1451 77.9176C57.4896 78.3654 57.175 79.0239 57.175 79.8932C57.3847 80.7624 58.1451 81.2102 59.4561 81.2102C60.5574 81.421 61.58 81.1576 62.5764 80.3937C63.5465 79.6298 64.1496 78.5761 64.3856 77.2591C64.3856 75.4942 63.6776 73.8611 62.2617 72.3333C60.8458 70.8055 58.9317 70.2524 56.5457 70.7002C52.1931 71.148 49.3875 72.9392 48.2075 76.1264C47.0014 79.3137 46.6344 82.4219 47.0539 85.5038C46.1886 85.9516 45.7429 86.8209 45.7429 88.1379C45.7429 89.2442 46.6082 90.2189 48.3649 91.0881C50.987 92.6159 54.0285 93.6695 57.5421 94.2754C61.0294 94.8285 64.4118 95.0919 67.6894 95.0919C73.4054 94.8812 78.0464 92.8003 81.6648 88.9545C85.257 85.1087 86.9613 80.2356 86.7253 74.3352L86.6467 74.2826Z" fill="#D2B897"/>
<path d="M541.36 80.1038C543.851 80.1038 546.368 79.893 548.859 79.5243C551.35 79.2345 553.631 78.497 555.834 77.5223C558.036 76.495 560.029 75.1517 561.786 73.4658C563.543 71.7537 565.011 69.62 566.06 67.0386C567.082 64.5362 567.528 61.6387 567.318 58.4778C567.161 55.2905 566.06 52.4194 564.015 49.838C565.195 49.0214 566.007 48.1258 566.375 47.2565C566.82 46.2819 566.899 45.4127 566.663 44.5961C566.375 43.7795 565.85 43.121 564.985 42.5152C564.093 41.9883 562.992 41.6986 561.681 41.6986C562.206 42.5152 562.415 43.4634 562.337 44.7278C562.179 45.9131 561.681 46.7824 560.79 47.3092C558.299 46.0448 555.703 45.1756 553.055 44.7278C550.406 44.201 547.679 44.359 544.743 45.1756C542.252 45.8341 540.469 46.8614 539.446 48.3629C538.345 49.838 537.899 51.3921 538.056 53.1042C538.581 56.792 540.626 58.5832 544.376 58.5832C545.844 58.5832 547.181 58.2144 548.282 57.3978C549.305 56.5812 549.908 55.712 550.118 54.6584C550.485 52.4457 549.672 50.3121 547.679 48.3102C550.905 47.4936 553.867 47.7307 556.358 48.837C558.849 50.0223 560.685 51.7082 561.943 53.9208C563.123 56.1334 563.7 58.6622 563.569 61.4543C563.359 64.2728 562.232 66.8542 560.187 69.1986C559.741 68.2503 559.085 67.4337 558.194 66.6172C557.302 65.8006 556.358 65.2211 555.388 64.8523C554.864 64.5626 554.287 64.4835 553.631 64.4835C553.107 64.4835 552.609 64.5626 552.242 64.8523C551.796 65.0894 551.586 65.3791 551.35 65.8269C551.193 66.2747 551.272 66.8016 551.639 67.4601C552.216 68.7245 552.373 70.0415 552.006 71.3849C551.639 72.7283 550.983 73.8346 549.934 74.8619C548.912 75.8365 547.575 76.6268 546.028 77.2326C544.481 77.8121 542.855 78.1282 541.255 78.1282C538.817 78.1282 536.693 77.5487 534.779 76.416C532.865 75.2307 531.318 73.8346 530.085 72.1224C528.774 70.4893 527.962 68.6454 527.516 66.7225C527.07 64.8787 527.149 63.0348 527.673 61.4016C526.729 61.1119 525.916 61.1909 525.235 61.6124C524.579 61.9812 524.055 62.5607 523.609 63.3772C523.242 64.1938 523.032 65.0894 522.875 66.1167C522.796 67.144 522.875 68.1713 523.163 69.1459C521.407 68.2503 520.069 66.9333 519.125 65.2211C518.234 63.5089 518.024 61.4543 518.391 59.0836C518.601 57.4505 519.047 56.0544 519.702 54.7901C520.279 53.6047 521.092 52.3403 522.062 51.234C523.006 50.0487 524.055 48.8633 525.235 47.757C526.415 46.5717 527.595 45.3863 528.774 44.0693C529.299 43.5424 529.351 43.042 528.853 42.6732C528.407 42.3044 527.595 42.3834 526.493 43.042C525.392 43.6215 524.212 44.3063 523.032 44.9649C521.852 45.5444 520.594 46.2292 519.361 46.8878C519.361 44.8858 520.017 43.042 521.433 41.2771C522.822 39.5913 524.527 38.1689 526.362 37.0626C528.276 35.9562 530.269 35.2187 532.236 35.008C534.228 34.7182 535.775 35.008 537.008 35.9036C537.663 36.4304 537.978 37.0889 537.899 37.7474C537.742 38.406 537.244 38.643 536.352 38.485C536.798 41.0664 539.079 42.3308 543.196 42.3308C544.297 42.3308 545.32 42.041 546.368 41.4352C547.391 40.8557 548.282 40.1181 548.859 39.3015C549.515 38.485 549.882 37.5367 550.118 36.5621C550.275 35.5348 550.039 34.6392 549.541 33.8226C550.8 33.4538 551.665 32.7953 552.111 31.8207C552.635 30.8461 552.687 29.8188 552.478 28.7915C552.111 26.9476 551.219 25.6042 549.987 24.735C548.728 23.8394 547.181 23.0491 545.346 22.3643C545.634 19.4931 544.533 17.6229 542.042 16.7536C539.551 15.8581 536.378 15.7263 532.472 16.3849C532.314 15.7263 532.472 15.1995 532.917 14.8308C533.363 14.383 533.861 14.0932 534.464 13.8035C535.041 13.5137 535.566 13.224 536.09 12.8552C536.536 12.4864 536.667 12.0386 536.536 11.4591C536.169 10.063 535.644 8.71964 534.989 7.40259C534.333 6.13822 533.599 4.95288 532.629 3.92558C531.685 2.89828 530.505 2.08171 529.168 1.39684C527.778 0.659294 526.231 0.29052 524.527 0.132474C522.691 -0.0782544 520.856 0.132473 518.942 0.659294C517.106 1.18611 515.848 2.13439 515.35 3.47778C515.192 3.92558 515.192 4.42606 515.428 4.87385C515.717 5.32165 516.084 5.6114 516.608 5.84847C517.133 6.13822 517.709 6.29627 518.286 6.37529C518.942 6.45431 519.624 6.37529 520.2 6.16456C520.777 5.87481 521.223 5.58506 521.669 5.18995C522.036 4.9002 522.403 4.53142 522.849 4.24167C523.216 3.8729 523.662 3.66217 524.107 3.4251C524.553 3.21437 525.051 3.21437 525.733 3.34608C526.467 3.5568 527.201 4.08362 527.726 4.9002C528.303 5.79579 528.696 6.74407 528.906 7.77137C529.194 8.79866 529.194 9.77328 529.115 10.6425C528.958 11.5381 528.67 12.0386 528.224 12.1967C527.332 12.3547 526.756 12.1967 526.388 11.6172C526.1 11.0903 525.366 10.3528 524.265 9.48353C523.688 8.82501 523.085 8.58794 522.508 8.66696C521.931 8.82501 521.852 9.40451 522.141 10.5108C522.35 11.4854 522.718 12.5127 523.242 13.6191C523.688 14.6464 524.055 15.6737 524.343 16.7273C524.632 17.7019 524.632 18.5712 524.501 19.3877C524.291 20.2043 523.688 20.8628 522.665 21.3106C522.141 19.9936 521.774 18.94 521.407 18.2814C521.118 17.6229 520.384 16.9644 519.283 16.4376C518.837 16.2268 518.313 16.0688 517.736 16.0688C517.211 16.0688 516.713 16.1478 516.346 16.3585C515.9 16.5693 515.69 16.8854 515.533 17.3331C515.455 17.7809 515.612 18.3604 516.11 19.177C516.687 20.0726 517.002 21.1789 516.923 22.496C516.844 23.7604 516.346 25.2354 515.376 26.8423C513.698 29.5817 512.282 32.9007 511.181 36.5884C510.079 40.3552 509.555 44.28 509.555 48.1785C509.555 52.393 510.446 56.3178 512.282 60.0056C514.117 63.6933 516.766 67.0913 520.227 70.1205C518.916 69.7518 517.578 69.7517 516.32 70.0415C515.061 70.3313 513.96 70.779 513.016 71.4376C512.125 72.1751 511.469 72.9917 511.023 74.019C510.578 75.0463 510.578 76.2316 510.945 77.496C512.125 76.5214 513.383 75.8629 514.537 75.4941C515.795 75.0463 517.028 74.9146 518.286 74.9146C520.122 74.9146 522.036 75.1517 523.871 75.6521C525.785 76.179 527.699 76.7585 529.692 77.417C531.606 78.1545 533.599 78.7604 535.513 79.2609C537.506 79.8404 539.42 80.1564 541.386 80.1564L541.36 80.1038ZM474.341 80.1038C476.255 80.1038 478.169 79.814 480.083 79.2082C482.076 78.6813 483.99 78.1018 485.957 77.3643C487.871 76.7058 489.785 76.0999 491.699 75.5995C493.613 75.0726 495.527 74.8619 497.441 74.8619C498.621 74.8619 499.88 75.0199 501.033 75.4414C502.292 75.8102 503.524 76.4687 504.783 77.4433C505.15 76.179 505.071 74.9936 504.625 73.9663C504.18 72.939 503.524 72.1224 502.554 71.3849C501.663 70.7264 500.561 70.2786 499.329 69.9888C498.07 69.6991 496.759 69.6991 495.343 70.0678C498.962 67.0386 501.584 63.6406 503.446 59.9529C505.202 56.2652 506.094 52.3403 506.094 48.1258C506.094 44.201 505.569 40.3025 504.468 36.5357C503.446 32.848 502.03 29.5027 500.352 26.7896C498.595 23.6813 498.28 21.0999 499.539 19.098C500.063 18.2814 500.194 17.7019 500.116 17.2541C500.037 16.8063 499.827 16.5166 499.381 16.2795C498.936 16.0424 498.411 15.9898 497.834 15.9898C497.31 15.9898 496.812 16.1478 496.287 16.3585C495.186 16.8063 494.531 17.3858 494.164 18.1234C493.875 18.8609 493.508 19.8882 493.141 21.2316C492.04 20.7838 491.384 20.1253 491.227 19.3087C491.07 18.4922 491.07 17.5966 491.306 16.6483C491.594 15.621 491.961 14.5937 492.407 13.54C492.853 12.4337 493.22 11.4064 493.508 10.4318C493.875 9.32548 493.796 8.74598 493.22 8.58793C492.695 8.50891 492.118 8.74598 491.463 9.40451C490.362 10.3001 489.627 11.0376 489.339 11.5381C489.051 12.1176 488.395 12.2757 487.582 12.1176C486.979 11.9596 486.612 11.4591 486.56 10.5635C486.402 9.66792 486.481 8.71964 486.769 7.69234C487.058 6.66504 487.504 5.69042 488.028 4.82117C488.605 4.0046 489.208 3.50412 489.942 3.26705C490.598 3.10901 491.122 3.10901 491.568 3.34607C492.013 3.5568 492.381 3.79387 492.826 4.16265C493.193 4.4524 493.639 4.82117 494.006 5.11092C494.373 5.4797 494.898 5.76945 495.396 6.08554C495.999 6.29627 496.576 6.37529 497.31 6.29627C497.966 6.21725 498.569 6.08554 499.145 5.76945C499.67 5.53238 500.089 5.24263 500.404 4.79483C500.614 4.34703 500.692 3.84655 500.404 3.39876C499.88 2.05537 498.647 1.10709 496.733 0.58027C494.819 0.0534493 492.984 -0.157279 491.148 0.0534492C487.608 0.422223 484.908 1.76561 483.125 3.89924C481.368 6.11188 480.031 8.64062 479.218 11.3537C479.061 11.9332 479.218 12.381 479.742 12.7498C480.188 13.1186 480.765 13.4083 481.368 13.6981C481.945 13.9878 482.469 14.3039 482.915 14.7254C483.361 15.0942 483.439 15.621 483.203 16.2795C481.211 15.9107 479.375 15.8317 477.75 15.8317C476.124 15.9107 474.734 16.1215 473.554 16.6483C472.453 17.0961 471.562 17.8336 470.985 18.7029C470.408 19.5985 470.172 20.7838 470.329 22.2589C468.415 22.9174 466.868 23.734 465.61 24.6296C464.351 25.5252 463.564 26.8423 463.197 28.6861C463.04 29.7134 463.119 30.7407 463.564 31.7153C464.01 32.6636 464.875 33.3485 466.134 33.7173C465.61 34.5338 465.4 35.4031 465.531 36.4567C465.688 37.405 466.134 38.3796 466.789 39.1962C467.445 40.0128 468.336 40.7503 469.359 41.3298C470.382 41.9356 471.483 42.2254 472.584 42.2254C476.622 42.2254 478.825 40.961 479.349 38.3796C478.405 38.5377 477.881 38.3006 477.802 37.563C477.723 36.8255 478.012 36.246 478.615 35.7982C479.795 34.9026 481.42 34.6128 483.387 34.9026C485.38 35.1133 487.294 35.8509 489.208 36.9572C491.122 38.0635 492.8 39.4859 494.137 41.1718C495.527 42.9366 496.261 44.8068 496.261 46.7824C495.003 46.1239 493.77 45.4653 492.59 44.8595C491.489 44.201 490.309 43.5424 489.129 42.9366C488.028 42.2781 487.215 42.12 486.769 42.4888C486.324 42.8576 486.324 43.3844 486.848 43.9639C488.028 45.281 489.208 46.4663 490.309 47.6516C491.41 48.758 492.433 49.9433 493.403 51.1287C494.347 52.235 495.16 53.4993 495.815 54.6847C496.471 55.9491 496.995 57.3451 497.205 58.9783C497.572 61.349 497.284 63.4036 496.314 65.1157C495.343 66.8279 494.032 68.1449 492.276 69.0405C492.564 68.0659 492.643 67.0386 492.564 66.0113C492.485 64.984 492.276 64.0884 491.909 63.2719C491.542 62.4553 491.017 61.8758 490.362 61.507C489.627 61.0592 488.815 60.9802 487.871 61.2963C488.447 62.9294 488.526 64.7733 488.08 66.6172C487.635 68.5401 486.769 70.3839 485.511 72.0171C484.252 73.7292 482.653 75.1253 480.739 76.3107C478.825 77.417 476.701 78.0228 474.341 78.0228C472.637 78.0228 471.116 77.7331 469.569 77.1272C468.1 76.5477 466.763 75.7312 465.741 74.7565C464.718 73.7292 464.036 72.6229 463.669 71.2795C463.302 69.9625 463.459 68.6191 464.115 67.3547C464.325 66.8279 464.325 66.3274 464.194 65.8796C464.036 65.4318 463.748 65.063 463.381 64.7733C463.014 64.5626 462.489 64.4045 461.991 64.4045C461.414 64.4045 460.811 64.4835 460.313 64.7733C459.343 65.1421 458.399 65.7479 457.507 66.5381C456.537 67.3547 455.882 68.1713 455.384 69.1196C453.312 66.7489 452.211 64.1675 452.08 61.3753C451.922 58.5568 452.526 56.0544 453.758 53.8418C455.016 51.6291 456.852 49.917 459.343 48.758C461.781 47.6516 464.639 47.4409 467.864 48.2311C465.872 50.2331 465.138 52.3667 465.505 54.5793C465.662 55.6066 466.317 56.5022 467.419 57.3188C468.52 58.1354 469.857 58.5041 471.326 58.5041C474.996 58.5041 477.068 56.7393 477.566 53.0252C477.776 51.313 477.356 49.7589 476.176 48.2838C474.996 46.8087 473.318 45.7814 471.037 45.0966C468.022 44.28 465.216 44.122 462.568 44.6488C459.998 45.0966 457.507 45.9658 454.912 47.2302C454.02 46.7034 453.522 45.8341 453.443 44.6488C453.286 43.3844 453.522 42.4361 453.968 41.6196C452.657 41.6196 451.529 41.9093 450.743 42.4361C449.851 43.0156 449.353 43.7005 449.117 44.5171C448.828 45.3336 448.907 46.2029 449.274 47.1775C449.641 48.0731 450.375 48.9424 451.634 49.7589C449.589 52.3403 448.461 55.1588 448.33 58.3461C448.252 61.5334 448.697 64.4045 449.72 66.9859C450.743 69.5674 452.158 71.701 453.837 73.4131C455.593 75.1253 457.586 76.4424 459.789 77.4697C462.07 78.4443 464.351 79.1818 466.842 79.4716C469.28 79.8404 471.771 80.0511 474.341 80.0511L474.341 80.1038ZM544.218 49.7326C543.773 49.7326 543.563 49.5219 543.563 49.0741C543.563 48.6263 543.773 48.4155 544.218 48.4155C544.743 48.4155 544.952 48.6263 544.952 49.0741C544.952 49.5219 544.743 49.7326 544.218 49.7326ZM513.567 48.1258C512.911 46.2819 512.675 44.28 512.832 42.3571C512.99 40.4342 513.409 38.5113 514.143 36.7465C514.956 34.9816 516.058 33.2695 517.447 31.7944C518.837 30.2402 520.541 29.0549 522.455 28.1856C524.212 27.3691 526.205 26.7896 528.565 26.2628C530.846 25.815 533.206 25.5252 535.539 25.3672C537.899 25.2091 540.18 25.3672 542.304 25.7359C544.507 26.1047 546.211 26.6842 547.601 27.5798C548.781 28.3964 549.226 29.292 548.859 30.2402C548.571 31.2675 547.837 31.6363 546.657 31.2675C543.353 30.2929 540.049 30.0032 536.667 30.3719C533.206 30.7407 530.059 31.689 527.018 33.1641C523.924 34.7182 521.275 36.7201 518.863 39.3015C516.503 41.8303 514.747 44.7805 513.567 48.0994L513.567 48.1258ZM532.603 19.4404C532.078 19.4404 531.869 19.2297 531.869 18.8609C531.869 18.3341 532.078 18.1234 532.603 18.1234C533.048 18.1234 533.258 18.3341 533.258 18.8609C533.258 19.2297 533.048 19.4404 532.603 19.4404ZM497.887 52.7091C497.441 52.7091 497.231 52.4721 497.231 52.1296C497.231 51.6028 497.441 51.3921 497.887 51.3921C498.411 51.3921 498.621 51.6028 498.621 52.1296C498.621 52.4984 498.411 52.7091 497.887 52.7091ZM497.231 27.9486C496.707 27.9486 496.497 27.7115 496.497 27.3691C496.497 26.8423 496.707 26.6315 497.231 26.6315C497.677 26.6315 497.887 26.8423 497.887 27.3691C497.887 27.7378 497.677 27.9486 497.231 27.9486ZM502.239 48.1258C501.06 44.8068 499.224 41.8566 496.864 39.3279C494.504 36.7465 491.778 34.7446 488.762 33.1904C485.747 31.7153 482.522 30.7671 479.113 30.3983C475.652 30.0295 472.27 30.3193 468.966 31.2939C467.707 31.6627 466.973 31.2939 466.685 30.2666C466.475 29.292 466.894 28.4227 467.996 27.6061C469.307 26.7105 471.09 26.131 473.213 25.7623C475.337 25.3935 477.618 25.2354 480.057 25.3145C482.417 25.3935 484.75 25.6832 487.11 26.2101C489.47 26.6579 491.515 27.3164 493.22 28.212C495.134 29.1076 496.812 30.2666 498.228 31.8207C499.539 33.2958 500.666 35.008 501.4 36.7728C502.135 38.5377 502.659 40.4606 502.79 42.3834C502.921 44.3063 502.711 46.3083 502.213 48.1521L502.239 48.1258Z" fill="#D2B897"/>
<path d="M673.747 79.2351C672.646 77.681 671.256 76.2849 669.473 75.2576C667.769 74.1513 666.012 73.6245 664.176 73.7825C665.723 75.1259 667.034 76.601 668.136 78.2868C669.237 79.9727 670.128 81.7638 670.784 83.6077C671.439 85.4516 671.964 87.3745 672.331 89.3764C672.698 91.3783 672.986 93.2222 673.222 95.0661C673.747 94.0914 674.166 92.9324 674.612 91.589C675.058 90.193 675.268 88.7705 675.425 87.3745C675.504 85.9784 675.504 84.5033 675.215 83.0809C675.005 81.6848 674.481 80.4205 673.747 79.2351ZM669.63 71.6226C668.45 71.0957 667.27 70.5953 666.091 69.9367C664.911 69.3572 663.652 68.7514 662.42 68.3036C661.161 67.9348 659.929 67.6451 658.67 67.6451C657.412 67.566 656.101 67.8558 654.763 68.5407C653.216 69.2782 651.958 70.0948 650.935 71.0431C649.834 72.0177 648.942 73.1767 648.13 74.7308C649.309 75.0996 650.489 75.3893 651.722 75.5474C653.059 75.7054 654.291 75.8371 655.55 76.0742C656.809 76.2849 657.91 76.6537 659.011 77.1015C660.034 77.6283 660.846 78.3659 661.502 79.3932C661.948 80.2887 662.157 81.158 662.157 82.1326C662.079 83.1072 662 84.0555 661.79 85.0038C661.581 85.9784 661.345 86.9267 661.056 87.875C660.768 88.9023 660.61 89.7979 660.532 90.6934C661.554 89.7979 662.525 88.9286 663.39 87.8223C664.203 86.795 664.937 85.6887 665.461 84.5823C665.986 83.397 666.274 82.2116 666.274 80.9736C666.353 79.7092 666.064 78.4712 665.461 77.2069C665.304 76.9171 665.016 76.5483 664.648 76.2322C664.281 75.9425 663.836 75.6527 663.468 75.284C663.101 74.9942 662.813 74.6781 662.577 74.3884C662.289 74.1776 662.289 73.8615 662.42 73.4928C662.577 73.124 662.944 72.9133 663.521 72.8342C664.045 72.7552 664.701 72.6762 665.435 72.6762C666.091 72.6762 666.825 72.5972 667.638 72.5182C668.372 72.3601 669.027 72.0704 669.552 71.6226L669.63 71.6226ZM656.546 45.0972C656.337 41.9099 655.655 38.9597 654.554 36.0885C653.452 33.2964 652.063 30.7677 650.28 28.634C648.444 26.5004 646.32 24.8673 643.725 23.761C641.234 22.6546 638.349 22.3649 635.124 22.7337C634.023 22.8917 633.053 23.1815 632.188 23.6292C631.296 24.1561 630.562 24.6565 629.906 25.3941C629.33 26.0526 628.884 26.8692 628.517 27.7648C628.228 28.5814 628.15 29.5296 628.228 30.5042C628.438 32.5062 629.251 34.0603 630.719 35.2456C632.188 36.352 633.892 36.8788 636.016 36.6417C636.383 36.5627 636.593 36.352 636.75 36.0622C636.907 35.6934 636.96 35.4037 636.96 35.0349C636.96 34.6661 636.802 34.2974 636.671 34.0076C636.461 33.7179 636.147 33.4808 635.858 33.4018C634.469 33.4018 633.577 32.8749 633.289 31.7686C633.289 31.3998 633.367 31.0311 633.656 30.6623C633.866 30.2145 634.18 29.9247 634.547 29.556C634.914 29.2662 635.282 28.9765 635.806 28.7394C636.252 28.5814 636.697 28.5287 637.196 28.4497C639.765 28.2389 642.204 28.7394 644.485 29.9247C646.687 31.1101 648.602 32.7432 650.07 34.7978C651.617 36.7998 652.561 39.1704 653.085 41.8309C653.61 44.5703 653.452 47.2308 652.561 49.9439C651.827 48.9166 650.856 47.942 649.703 46.9147C648.602 45.9664 647.343 45.0708 646.111 44.3333C644.8 43.5957 643.384 43.0162 642.073 42.4894C640.683 42.0416 639.267 41.8309 637.956 41.9099C637.012 41.9889 635.963 42.1206 634.941 42.3577C633.918 42.5684 632.948 42.9372 632.083 43.464C631.191 44.0435 630.457 44.7284 629.959 45.545C629.382 46.3615 629.067 47.3098 629.015 48.4952C629.828 48.3371 630.641 48.3371 631.506 48.4952C632.319 48.7059 633.053 48.8639 633.866 49.1537C634.6 49.3644 635.334 49.6015 636.147 49.8122C636.881 50.0229 637.694 50.102 638.428 50.102C639.084 50.0229 639.818 49.8649 640.552 49.6542C641.365 49.4434 642.178 49.2854 642.99 49.0747C643.803 48.9166 644.616 48.8639 645.429 48.9166C646.242 48.9166 646.976 49.1537 647.789 49.5751C648.523 50.0229 649.178 50.7605 649.86 51.7878C650.437 52.8151 650.961 54.2375 651.407 56.0023C651.774 57.6882 651.774 59.4003 651.407 61.0862C651.04 62.851 650.306 64.5632 649.205 66.249C648.103 67.9612 646.714 69.4363 645.088 70.8323C643.384 72.2284 641.496 73.4928 639.267 74.5201C636.697 75.6264 633.761 76.3639 630.431 76.7327C627.048 77.0225 623.587 76.9434 619.995 76.5747C616.403 76.2059 612.784 75.5474 609.192 74.4937C605.6 73.3874 602.27 72.044 599.176 70.5162C596.738 69.1728 594.168 67.9875 591.52 66.7495C588.871 65.5641 586.145 64.5368 583.286 63.6412C580.428 62.7456 577.544 62.0871 574.608 61.6393C571.592 61.1915 568.577 61.0598 565.562 61.3496C565.562 61.5603 565.64 61.9291 565.64 62.5349C565.64 63.0617 565.64 63.4305 565.719 63.6412C571.671 63.7203 577.334 64.6685 582.788 66.4334C588.164 68.2772 593.224 70.4899 597.944 73.1503C601.038 74.9152 604.42 76.3376 608.091 77.3649C611.762 78.4712 615.511 79.2088 619.261 79.4985C623.01 79.8673 626.681 79.8673 630.378 79.4195C633.971 79.0507 637.222 78.2341 640.08 76.9698C643.174 75.6527 645.822 73.8615 648.025 71.6489C650.227 69.5153 652.063 66.9865 653.479 64.1944C654.868 61.4549 655.76 58.4257 656.337 55.1067C656.861 51.8405 656.913 48.5215 656.625 45.0445L656.546 45.0972ZM622.119 65.7749C621.962 64.5895 621.594 63.4832 620.939 62.5876C620.283 61.692 619.471 60.9545 618.5 60.454C617.557 59.8745 616.429 59.4794 615.275 59.1896C614.174 58.9789 612.994 58.8998 611.972 59.0316C611.08 59.0316 610.267 59.2686 609.533 59.6111C608.72 59.9798 607.986 60.4276 607.409 61.0071C606.832 61.534 606.308 62.1135 605.941 62.851C605.653 63.5095 605.495 64.2471 605.495 64.9846C605.652 66.5387 606.02 67.8558 606.675 68.9094C607.331 70.0158 607.986 70.7533 608.799 71.2801C609.612 71.8069 610.425 71.9386 611.08 71.9386C611.736 71.8596 612.181 71.4909 612.339 70.7533C612.548 70.3055 612.994 70.0158 613.597 69.7787C614.174 69.568 614.856 69.4099 615.669 69.4099C616.403 69.3309 617.058 69.4099 617.74 69.568C618.396 69.726 618.92 69.9367 619.287 70.1475C619.208 68.8831 618.841 68.1455 618.186 67.6978C617.53 67.329 616.717 67.1709 615.905 67.1182C615.013 67.0392 614.2 67.1182 613.414 67.1973C612.68 67.2763 612.103 67.1973 611.709 66.9865C611.342 66.6968 611.185 66.3807 611.185 65.9592C611.264 65.5114 611.395 65.0636 611.762 64.6422C612.129 64.2734 612.496 63.9046 613.02 63.6149C613.597 63.3251 614.122 63.0881 614.777 63.0354C615.223 62.9564 615.721 63.1144 616.246 63.4832C616.77 63.931 617.347 64.2998 617.871 64.6685C618.448 65.1163 619.13 65.4851 619.785 65.6958C620.441 65.9856 621.254 65.9856 622.145 65.7749L622.119 65.7749ZM586.381 52.5517C585.646 52.7097 584.991 52.9204 584.178 53.1312C583.444 53.4209 582.631 53.658 581.818 53.8687C581.005 54.1585 580.192 54.3955 579.327 54.5272C578.514 54.738 577.702 54.817 576.967 54.817C577.256 54.3692 577.492 54.0004 577.702 53.6316C577.911 53.3419 577.859 52.8941 577.623 52.2356C576.6 52.0775 575.63 52.2356 574.765 52.7624C573.873 53.2892 573.061 53.9477 572.274 54.6063C571.461 55.3438 570.648 56.0023 569.835 56.6082C568.944 57.2667 568 57.5828 566.899 57.6355C567.266 58.0043 567.921 58.373 568.892 58.5311C569.914 58.7418 571.094 58.8999 572.484 58.8999C573.873 58.8208 575.342 58.7418 576.889 58.4521C578.436 58.215 579.904 57.8726 581.215 57.3457C582.526 56.8189 583.654 56.1604 584.676 55.3438C585.62 54.5272 586.223 53.658 586.381 52.5517ZM618.081 91.1939C617.347 91.4837 616.534 91.7998 615.8 91.9315C614.987 92.0895 614.253 92.1422 613.597 92.0895C612.863 92.0895 612.286 91.8788 611.762 91.51C611.185 91.1412 610.87 90.5354 610.661 89.7452C610.582 89.2974 610.582 88.8496 610.818 88.5598C611.028 88.191 611.264 87.9013 611.552 87.6642C611.841 87.4535 612.208 87.2164 612.653 87.0847C613.02 87.0057 613.466 86.9267 613.912 86.9267C613.912 86.1891 613.702 85.5833 613.178 85.1355C612.653 84.6877 611.919 84.3979 611.054 84.2399C611.421 83.7131 611.578 83.2126 611.421 82.6068C611.342 82.0273 611.133 81.5004 610.765 81.0526C610.398 80.6048 609.953 80.3151 609.376 80.078C608.851 79.92 608.275 79.92 607.671 80.2361C606.046 81.2107 604.866 82.238 604.132 83.3443C603.476 84.4506 603.109 85.8467 603.188 87.4798C603.188 88.5071 603.555 89.4818 604.21 90.43C604.787 91.3256 605.6 92.1949 606.57 92.8797C607.593 93.6173 608.642 94.2231 609.874 94.5919C611.133 94.9607 612.365 95.1187 613.623 94.9607C614.803 94.8026 615.747 94.3812 616.56 93.6173C617.373 92.8798 617.871 92.0632 618.107 91.1676L618.081 91.1939ZM582.316 79.4458C581.949 78.7873 581.582 78.0498 581.294 77.2332C581.005 76.4166 580.769 75.6001 580.56 74.7308C580.35 73.9142 580.114 73.0186 579.825 72.2811C579.537 71.4645 579.249 70.806 578.803 70.2265C578.278 69.4889 577.702 68.8831 576.967 68.5143C576.233 68.0665 575.499 67.7768 574.686 67.6187C573.873 67.3817 573.139 67.2499 572.326 67.0919C571.514 67.0129 570.701 66.8812 570.045 66.6441C570.124 68.2772 570.622 69.8841 571.435 71.3855C572.248 72.9396 573.192 74.2567 574.45 75.521C575.63 76.7064 576.889 77.6546 578.278 78.3922C579.747 79.0507 581.084 79.4195 582.316 79.4195L582.316 79.4458ZM637.563 44.2016C637.563 44.4913 637.405 44.6494 637.117 44.7284C636.829 44.7284 636.671 44.5703 636.593 44.2806C636.593 43.9908 636.75 43.8328 637.038 43.7538C637.327 43.7538 637.484 43.8328 637.563 44.2016ZM661.266 69.9894C661.345 70.2792 661.187 70.4372 660.899 70.5162C660.61 70.5953 660.453 70.4372 660.374 70.1475C660.374 69.7787 660.453 69.6206 660.742 69.6206C661.109 69.5416 661.266 69.6997 661.266 69.9894Z" fill="#D2B897"/>
<path d="M341.955 79.2351C342.977 77.681 344.446 76.2849 346.15 75.2576C347.907 74.1513 349.69 73.6245 351.525 73.7825C349.978 75.1259 348.667 76.601 347.54 78.2868C346.438 79.9727 345.547 81.7638 344.891 83.6077C344.157 85.4516 343.633 87.3745 343.266 89.3764C342.899 91.3783 342.689 93.2222 342.453 95.0661C341.928 94.0914 341.43 92.9324 341.063 91.51C340.617 90.1666 340.329 88.7705 340.25 87.3745C340.093 85.9784 340.172 84.5033 340.408 83.0809C340.617 81.6848 341.142 80.4205 341.955 79.2351ZM345.993 71.6226C347.172 71.0957 348.431 70.5953 349.585 69.9367C350.765 69.2782 352.023 68.7514 353.203 68.3036C354.462 67.9348 355.694 67.6451 356.953 67.6451C358.264 67.566 359.522 67.8558 360.912 68.5407C362.38 69.2782 363.718 70.0948 364.74 71.0431C365.763 72.0177 366.733 73.1767 367.467 74.7308C366.366 75.0996 365.186 75.3893 363.849 75.5474C362.59 75.7054 361.358 75.8371 360.099 76.0742C358.841 76.2849 357.739 76.6537 356.638 77.1015C355.615 77.6283 354.724 78.3659 354.147 79.3932C353.701 80.2887 353.492 81.158 353.492 82.1326C353.492 83.1072 353.649 84.0555 353.859 85.0038C354.068 85.9784 354.304 86.9267 354.593 87.875C354.881 88.9023 355.039 89.7979 355.039 90.6934C354.095 89.7979 353.125 88.8496 352.233 87.8223C351.342 86.795 350.686 85.6887 350.162 84.5823C349.637 83.397 349.349 82.2116 349.27 80.9736C349.27 79.7092 349.559 78.4712 350.083 77.2068C350.319 76.9171 350.607 76.5483 350.974 76.2322C351.342 75.9425 351.709 75.6527 352.076 75.284C352.443 74.9942 352.81 74.6781 353.046 74.3884C353.256 74.1776 353.334 73.8615 353.203 73.4928C352.967 73.124 352.679 72.9133 352.102 72.8342C351.578 72.7552 350.922 72.6762 350.188 72.6762C349.454 72.6762 348.72 72.5972 347.985 72.5182C347.251 72.3601 346.596 72.0704 345.993 71.6226ZM359.155 45.0972C359.365 41.9099 360.047 38.9597 361.148 36.0885C362.171 33.2964 363.639 30.7677 365.422 28.634C367.257 26.5004 369.381 24.8673 371.898 23.761C374.468 22.6546 377.352 22.3649 380.577 22.7337C381.679 22.8917 382.623 23.1814 383.514 23.6292C384.406 24.1561 385.14 24.6565 385.717 25.3941C386.372 26.0526 386.818 26.8692 387.106 27.7648C387.473 28.5814 387.552 29.5296 387.395 30.5042C387.185 32.5062 386.372 34.0603 384.956 35.2456C383.488 36.352 381.731 36.8788 379.66 36.6417C379.293 36.5627 379.083 36.352 378.847 36.0622C378.689 35.6934 378.637 35.4037 378.689 35.0349C378.689 34.6661 378.768 34.2974 378.978 34.0076C379.188 33.7179 379.424 33.4808 379.791 33.4018C381.18 33.4018 382.072 32.8749 382.36 31.7686C382.36 31.3998 382.203 31.0311 381.993 30.6623C381.783 30.2145 381.469 29.9247 381.102 29.556C380.735 29.2662 380.289 28.9765 379.843 28.7394C379.397 28.5814 378.899 28.5287 378.453 28.4497C375.884 28.2389 373.445 28.7394 371.164 29.9247C368.883 31.1101 367.048 32.7432 365.501 34.7978C364.032 36.7997 363.01 39.1704 362.485 41.8309C362.039 44.5703 362.197 47.2308 363.062 49.9439C363.796 48.9166 364.766 47.942 365.868 46.9147C367.048 45.9664 368.228 45.0708 369.539 44.3333C370.85 43.5957 372.187 43.0162 373.576 42.4894C374.966 42.0416 376.382 41.8309 377.693 41.9099C378.637 41.9889 379.686 42.1206 380.708 42.3577C381.731 42.5684 382.701 42.9372 383.566 43.464C384.379 44.0435 385.113 44.7284 385.69 45.545C386.293 46.3615 386.582 47.3098 386.582 48.4952C385.769 48.3371 384.956 48.3371 384.143 48.4952C383.33 48.7059 382.518 48.8639 381.783 49.0747C381.049 49.3644 380.315 49.6015 379.502 49.8122C378.689 50.0229 377.955 50.102 377.221 50.102C376.566 50.0229 375.831 49.8649 375.019 49.6542C374.284 49.4434 373.472 49.2854 372.659 49.0747C371.846 48.9166 371.033 48.8639 370.22 48.9166C369.407 48.9166 368.595 49.1537 367.86 49.5751C367.126 50.0229 366.471 50.7605 365.789 51.7878C365.212 52.8151 364.609 54.2375 364.163 56.0023C363.796 57.6882 363.796 59.4003 364.242 61.0862C364.609 62.851 365.343 64.5632 366.444 66.249C367.546 67.9612 368.883 69.4363 370.561 70.8323C372.265 72.2284 374.153 73.4928 376.303 74.5201C378.873 75.6264 381.888 76.3639 385.192 76.7327C388.575 77.0225 392.036 76.9434 395.628 76.5747C399.22 76.2059 402.838 75.5474 406.431 74.4937C410.023 73.3874 413.353 72.044 416.368 70.5162C418.859 69.1728 421.429 67.9875 424.077 66.7495C426.725 65.5641 429.452 64.5368 432.31 63.6412C435.116 62.7456 438.052 62.0871 440.989 61.6393C443.926 61.1915 446.941 61.0598 450.035 61.3496C449.956 61.5603 449.956 61.9291 449.956 62.5349C449.956 63.0617 449.878 63.4305 449.878 63.6412C443.926 63.7203 438.184 64.6685 432.808 66.4334C427.354 68.2773 422.373 70.4899 417.574 73.1503C414.559 74.9152 411.177 76.3376 407.506 77.3649C403.835 78.4712 400.085 79.2088 396.336 79.4985C392.508 79.8673 388.837 79.8673 385.218 79.4195C381.626 79.0507 378.375 78.2341 375.517 76.9698C372.423 75.6527 369.775 73.8615 367.572 71.6489C365.291 69.5153 363.534 66.9865 362.118 64.1944C360.728 61.4549 359.758 58.4257 359.26 55.1067C358.736 51.8405 358.683 48.5215 358.972 45.0445L359.155 45.0972ZM393.583 65.7749C393.661 64.5895 394.107 63.4832 394.684 62.5876C395.339 61.692 396.152 60.9545 397.175 60.454C398.119 59.8745 399.168 59.4794 400.347 59.1896C401.527 58.9789 402.629 58.8999 403.73 59.0316C404.621 59.0316 405.434 59.2686 406.168 59.6111C406.981 59.9798 407.637 60.4276 408.292 61.0071C408.869 61.534 409.394 62.1135 409.682 62.851C410.049 63.5095 410.206 64.2471 410.128 64.9846C410.049 66.5387 409.682 67.8558 409.026 68.9094C408.371 70.0158 407.637 70.7533 406.824 71.2801C406.011 71.8069 405.277 71.9386 404.621 71.9386C403.887 71.8596 403.52 71.4909 403.31 70.7533C403.153 70.3055 402.734 70.0158 402.13 69.7787C401.475 69.568 400.819 69.4099 400.085 69.4099C399.351 69.3309 398.696 69.4099 398.014 69.568C397.332 69.726 396.834 69.8577 396.467 70.1475C396.546 68.8831 396.913 68.1455 397.568 67.6978C398.224 67.329 398.958 67.1709 399.849 67.1182C400.741 67.0392 401.554 67.1182 402.288 67.1973C403.101 67.2763 403.677 67.1973 403.992 66.9865C404.438 66.6968 404.569 66.3807 404.517 65.9592C404.517 65.5114 404.307 65.0636 403.992 64.6422C403.625 64.2734 403.179 63.9046 402.681 63.6149C402.157 63.3251 401.58 63.0881 400.977 63.0354C400.452 62.9564 399.954 63.1144 399.43 63.4832C398.905 63.931 398.407 64.2998 397.804 64.6685C397.28 65.1163 396.624 65.4851 395.969 65.6958C395.313 65.9856 394.5 65.9856 393.609 65.7749L393.583 65.7749ZM429.321 52.5517C429.977 52.7097 430.711 52.9204 431.524 53.1312C432.258 53.4209 433.071 53.658 433.883 53.8687C434.696 54.1585 435.509 54.3955 436.322 54.5272C437.135 54.738 437.948 54.817 438.76 54.817C438.472 54.3692 438.184 54.0004 438.026 53.6317C437.816 53.3419 437.816 52.8941 438.105 52.2356C439.127 52.0775 440.098 52.2356 440.989 52.7624C441.802 53.2892 442.667 53.9477 443.428 54.6063C444.24 55.3438 445.132 56.0023 445.919 56.6082C446.81 57.2667 447.754 57.5828 448.777 57.6355C448.488 58.0043 447.833 58.373 446.784 58.5311C445.814 58.7418 444.66 58.8999 443.244 58.8999C441.854 58.8208 440.386 58.7418 438.839 58.4521C437.213 58.215 435.824 57.8726 434.513 57.3457C433.202 56.8189 432.022 56.1604 431.052 55.3438C430.108 54.5272 429.505 53.658 429.347 52.5517L429.321 52.5517ZM397.621 91.1939C398.355 91.4837 399.089 91.7998 399.902 91.9315C400.636 92.0895 401.37 92.1422 402.104 92.0895C402.76 92.0105 403.441 91.8788 403.94 91.51C404.464 91.1412 404.831 90.5354 404.962 89.7452C405.12 89.2974 405.041 88.8496 404.884 88.5598C404.674 88.191 404.438 87.9013 404.149 87.6642C403.861 87.4535 403.494 87.2164 403.048 87.0847C402.602 87.0057 402.235 86.9267 401.79 86.9267C401.711 86.1891 401.947 85.5833 402.524 85.1355C403.048 84.6877 403.704 84.3979 404.569 84.2399C404.281 83.7131 404.123 83.2126 404.202 82.6068C404.359 82.0273 404.569 81.5004 404.936 81.0526C405.303 80.6048 405.749 80.3151 406.273 80.078C406.85 79.92 407.375 79.92 407.978 80.2361C409.656 81.2107 410.836 82.238 411.57 83.3443C412.225 84.4506 412.592 85.8467 412.514 87.4798C412.435 88.5071 412.147 89.4818 411.491 90.43C410.836 91.3256 410.101 92.1949 409.053 92.8797C408.109 93.6173 406.981 94.2231 405.749 94.5919C404.569 94.9607 403.31 95.1187 401.999 94.9607C400.898 94.8026 399.876 94.3812 399.063 93.6173C398.25 92.8798 397.804 92.0632 397.594 91.1676L397.621 91.1939ZM433.307 79.4458C433.752 78.7873 434.041 78.0498 434.329 77.2332C434.618 76.4166 434.906 75.6001 435.142 74.7308C435.352 73.9142 435.588 73.0186 435.876 72.2811C436.165 71.4645 436.453 70.806 436.82 70.2265C437.344 69.4889 438 68.8831 438.656 68.5143C439.39 68.0665 440.203 67.7768 440.937 67.6187C441.75 67.3817 442.562 67.25 443.375 67.0919C444.188 67.0129 444.922 66.8812 445.656 66.6441C445.499 68.2773 445.08 69.8841 444.267 71.3855C443.454 72.9396 442.431 74.2567 441.251 75.521C440.071 76.7064 438.76 77.6547 437.344 78.3922C435.955 79.0507 434.618 79.4195 433.307 79.4195L433.307 79.4458ZM378.139 44.2016C378.139 44.4913 378.217 44.6494 378.506 44.7284C378.873 44.7284 379.03 44.5703 379.03 44.2806C379.109 43.9908 378.952 43.8328 378.663 43.7538C378.375 43.7538 378.217 43.8328 378.139 44.2016ZM354.383 69.9894C354.383 70.2792 354.54 70.4372 354.829 70.5162C355.117 70.5162 355.275 70.4372 355.353 70.1475C355.353 69.7787 355.196 69.6206 354.908 69.6206C354.619 69.5416 354.462 69.6997 354.383 69.9894Z" fill="#D2B897"/>
</g>
<defs>
<filter id="filter0_d_149_92" x="-0.0263672" y="4.45856e-05" width="1028" height="173" filterUnits="userSpaceOnUse" color-interpolation-filters="sRGB">
<feFlood flood-opacity="0" result="BackgroundImageFix"/>
<feColorMatrix in="SourceAlpha" type="matrix" values="0 0 0 0 0 0 0 0 0 0 0 0 0 0 0 0 0 0 127 0" result="hardAlpha"/>
<feOffset dy="4"/>
<feGaussianBlur stdDeviation="2"/>
<feComposite in2="hardAlpha" operator="out"/>
<feColorMatrix type="matrix" values="0 0 0 0 0 0 0 0 0 0 0 0 0 0 0 0 0 0 0.25 0"/>
<feBlend mode="normal" in2="BackgroundImageFix" result="effect1_dropShadow_149_92"/>
<feBlend mode="normal" in="SourceGraphic" in2="effect1_dropShadow_149_92" result="shape"/>
</filter>
<clipPath id="clip0_149_92">
<rect width="165" height="1020" fill="white" transform="translate(1023.97 4.45856e-05) rotate(90)"/>
</clipPath>
</defs>
</svg>
